G04 #@! TF.GenerationSoftware,KiCad,Pcbnew,(5.1.5)-3*
G04 #@! TF.CreationDate,2020-03-16T11:49:10-04:00*
G04 #@! TF.ProjectId,Step_Direction_Board,53746570-5f44-4697-9265-6374696f6e5f,rev?*
G04 #@! TF.SameCoordinates,PX7270e00PY78a3ca0*
G04 #@! TF.FileFunction,Legend,Top*
G04 #@! TF.FilePolarity,Positive*
%FSLAX46Y46*%
G04 Gerber Fmt 4.6, Leading zero omitted, Abs format (unit mm)*
G04 Created by KiCad (PCBNEW (5.1.5)-3) date 2020-03-16 11:49:10*
%MOMM*%
%LPD*%
G04 APERTURE LIST*
%ADD10C,0.150000*%
%ADD11C,0.120000*%
G04 APERTURE END LIST*
D10*
X53047619Y15164405D02*
X54047619Y15164405D01*
X54047619Y14926310D01*
X54000000Y14783453D01*
X53904761Y14688215D01*
X53809523Y14640596D01*
X53619047Y14592977D01*
X53476190Y14592977D01*
X53285714Y14640596D01*
X53190476Y14688215D01*
X53095238Y14783453D01*
X53047619Y14926310D01*
X53047619Y15164405D01*
X54047619Y14259643D02*
X54047619Y13640596D01*
X53666666Y13973929D01*
X53666666Y13831072D01*
X53619047Y13735834D01*
X53571428Y13688215D01*
X53476190Y13640596D01*
X53238095Y13640596D01*
X53142857Y13688215D01*
X53095238Y13735834D01*
X53047619Y13831072D01*
X53047619Y14116786D01*
X53095238Y14212024D01*
X53142857Y14259643D01*
X50595238Y15212024D02*
X50547619Y15069167D01*
X50547619Y14831072D01*
X50595238Y14735834D01*
X50642857Y14688215D01*
X50738095Y14640596D01*
X50833333Y14640596D01*
X50928571Y14688215D01*
X50976190Y14735834D01*
X51023809Y14831072D01*
X51071428Y15021548D01*
X51119047Y15116786D01*
X51166666Y15164405D01*
X51261904Y15212024D01*
X51357142Y15212024D01*
X51452380Y15164405D01*
X51500000Y15116786D01*
X51547619Y15021548D01*
X51547619Y14783453D01*
X51500000Y14640596D01*
X51547619Y14307262D02*
X51547619Y13688215D01*
X51166666Y14021548D01*
X51166666Y13878691D01*
X51119047Y13783453D01*
X51071428Y13735834D01*
X50976190Y13688215D01*
X50738095Y13688215D01*
X50642857Y13735834D01*
X50595238Y13783453D01*
X50547619Y13878691D01*
X50547619Y14164405D01*
X50595238Y14259643D01*
X50642857Y14307262D01*
X42547619Y15164405D02*
X43547619Y15164405D01*
X43547619Y14926310D01*
X43500000Y14783453D01*
X43404761Y14688215D01*
X43309523Y14640596D01*
X43119047Y14592977D01*
X42976190Y14592977D01*
X42785714Y14640596D01*
X42690476Y14688215D01*
X42595238Y14783453D01*
X42547619Y14926310D01*
X42547619Y15164405D01*
X43452380Y14212024D02*
X43500000Y14164405D01*
X43547619Y14069167D01*
X43547619Y13831072D01*
X43500000Y13735834D01*
X43452380Y13688215D01*
X43357142Y13640596D01*
X43261904Y13640596D01*
X43119047Y13688215D01*
X42547619Y14259643D01*
X42547619Y13640596D01*
X40095238Y15212024D02*
X40047619Y15069167D01*
X40047619Y14831072D01*
X40095238Y14735834D01*
X40142857Y14688215D01*
X40238095Y14640596D01*
X40333333Y14640596D01*
X40428571Y14688215D01*
X40476190Y14735834D01*
X40523809Y14831072D01*
X40571428Y15021548D01*
X40619047Y15116786D01*
X40666666Y15164405D01*
X40761904Y15212024D01*
X40857142Y15212024D01*
X40952380Y15164405D01*
X41000000Y15116786D01*
X41047619Y15021548D01*
X41047619Y14783453D01*
X41000000Y14640596D01*
X40952380Y14259643D02*
X41000000Y14212024D01*
X41047619Y14116786D01*
X41047619Y13878691D01*
X41000000Y13783453D01*
X40952380Y13735834D01*
X40857142Y13688215D01*
X40761904Y13688215D01*
X40619047Y13735834D01*
X40047619Y14307262D01*
X40047619Y13688215D01*
X24547619Y15164405D02*
X25547619Y15164405D01*
X25547619Y14926310D01*
X25500000Y14783453D01*
X25404761Y14688215D01*
X25309523Y14640596D01*
X25119047Y14592977D01*
X24976190Y14592977D01*
X24785714Y14640596D01*
X24690476Y14688215D01*
X24595238Y14783453D01*
X24547619Y14926310D01*
X24547619Y15164405D01*
X24547619Y13640596D02*
X24547619Y14212024D01*
X24547619Y13926310D02*
X25547619Y13926310D01*
X25404761Y14021548D01*
X25309523Y14116786D01*
X25261904Y14212024D01*
X22095238Y15212024D02*
X22047619Y15069167D01*
X22047619Y14831072D01*
X22095238Y14735834D01*
X22142857Y14688215D01*
X22238095Y14640596D01*
X22333333Y14640596D01*
X22428571Y14688215D01*
X22476190Y14735834D01*
X22523809Y14831072D01*
X22571428Y15021548D01*
X22619047Y15116786D01*
X22666666Y15164405D01*
X22761904Y15212024D01*
X22857142Y15212024D01*
X22952380Y15164405D01*
X23000000Y15116786D01*
X23047619Y15021548D01*
X23047619Y14783453D01*
X23000000Y14640596D01*
X22047619Y13688215D02*
X22047619Y14259643D01*
X22047619Y13973929D02*
X23047619Y13973929D01*
X22904761Y14069167D01*
X22809523Y14164405D01*
X22761904Y14259643D01*
X19547619Y15164405D02*
X20547619Y15164405D01*
X19547619Y14592977D01*
X20547619Y14592977D01*
X19642857Y13545358D02*
X19595238Y13592977D01*
X19547619Y13735834D01*
X19547619Y13831072D01*
X19595238Y13973929D01*
X19690476Y14069167D01*
X19785714Y14116786D01*
X19976190Y14164405D01*
X20119047Y14164405D01*
X20309523Y14116786D01*
X20404761Y14069167D01*
X20500000Y13973929D01*
X20547619Y13831072D01*
X20547619Y13735834D01*
X20500000Y13592977D01*
X20452380Y13545358D01*
X17047619Y15164405D02*
X18047619Y15164405D01*
X17047619Y14592977D01*
X18047619Y14592977D01*
X17142857Y13545358D02*
X17095238Y13592977D01*
X17047619Y13735834D01*
X17047619Y13831072D01*
X17095238Y13973929D01*
X17190476Y14069167D01*
X17285714Y14116786D01*
X17476190Y14164405D01*
X17619047Y14164405D01*
X17809523Y14116786D01*
X17904761Y14069167D01*
X18000000Y13973929D01*
X18047619Y13831072D01*
X18047619Y13735834D01*
X18000000Y13592977D01*
X17952380Y13545358D01*
X14547619Y15164405D02*
X15547619Y15164405D01*
X15547619Y14926310D01*
X15500000Y14783453D01*
X15404761Y14688215D01*
X15309523Y14640596D01*
X15119047Y14592977D01*
X14976190Y14592977D01*
X14785714Y14640596D01*
X14690476Y14688215D01*
X14595238Y14783453D01*
X14547619Y14926310D01*
X14547619Y15164405D01*
X15547619Y13973929D02*
X15547619Y13878691D01*
X15500000Y13783453D01*
X15452380Y13735834D01*
X15357142Y13688215D01*
X15166666Y13640596D01*
X14928571Y13640596D01*
X14738095Y13688215D01*
X14642857Y13735834D01*
X14595238Y13783453D01*
X14547619Y13878691D01*
X14547619Y13973929D01*
X14595238Y14069167D01*
X14642857Y14116786D01*
X14738095Y14164405D01*
X14928571Y14212024D01*
X15166666Y14212024D01*
X15357142Y14164405D01*
X15452380Y14116786D01*
X15500000Y14069167D01*
X15547619Y13973929D01*
X12095238Y15212024D02*
X12047619Y15069167D01*
X12047619Y14831072D01*
X12095238Y14735834D01*
X12142857Y14688215D01*
X12238095Y14640596D01*
X12333333Y14640596D01*
X12428571Y14688215D01*
X12476190Y14735834D01*
X12523809Y14831072D01*
X12571428Y15021548D01*
X12619047Y15116786D01*
X12666666Y15164405D01*
X12761904Y15212024D01*
X12857142Y15212024D01*
X12952380Y15164405D01*
X13000000Y15116786D01*
X13047619Y15021548D01*
X13047619Y14783453D01*
X13000000Y14640596D01*
X13047619Y14021548D02*
X13047619Y13926310D01*
X13000000Y13831072D01*
X12952380Y13783453D01*
X12857142Y13735834D01*
X12666666Y13688215D01*
X12428571Y13688215D01*
X12238095Y13735834D01*
X12142857Y13783453D01*
X12095238Y13831072D01*
X12047619Y13926310D01*
X12047619Y14021548D01*
X12095238Y14116786D01*
X12142857Y14164405D01*
X12238095Y14212024D01*
X12428571Y14259643D01*
X12666666Y14259643D01*
X12857142Y14212024D01*
X12952380Y14164405D01*
X13000000Y14116786D01*
X13047619Y14021548D01*
X55417619Y8511905D02*
X56417619Y8511905D01*
X56417619Y8273810D01*
X56370000Y8130953D01*
X56274761Y8035715D01*
X56179523Y7988096D01*
X55989047Y7940477D01*
X55846190Y7940477D01*
X55655714Y7988096D01*
X55560476Y8035715D01*
X55465238Y8130953D01*
X55417619Y8273810D01*
X55417619Y8511905D01*
X42377619Y8511905D02*
X43377619Y8511905D01*
X43377619Y8273810D01*
X43330000Y8130953D01*
X43234761Y8035715D01*
X43139523Y7988096D01*
X42949047Y7940477D01*
X42806190Y7940477D01*
X42615714Y7988096D01*
X42520476Y8035715D01*
X42425238Y8130953D01*
X42377619Y8273810D01*
X42377619Y8511905D01*
X29337619Y8511905D02*
X30337619Y8511905D01*
X30337619Y8273810D01*
X30290000Y8130953D01*
X30194761Y8035715D01*
X30099523Y7988096D01*
X29909047Y7940477D01*
X29766190Y7940477D01*
X29575714Y7988096D01*
X29480476Y8035715D01*
X29385238Y8130953D01*
X29337619Y8273810D01*
X29337619Y8511905D01*
X52667619Y8392858D02*
X52667619Y8869048D01*
X52191428Y8916667D01*
X52239047Y8869048D01*
X52286666Y8773810D01*
X52286666Y8535715D01*
X52239047Y8440477D01*
X52191428Y8392858D01*
X52096190Y8345239D01*
X51858095Y8345239D01*
X51762857Y8392858D01*
X51715238Y8440477D01*
X51667619Y8535715D01*
X51667619Y8773810D01*
X51715238Y8869048D01*
X51762857Y8916667D01*
X52334285Y8011905D02*
X51667619Y7773810D01*
X52334285Y7535715D01*
X39627619Y8392858D02*
X39627619Y8869048D01*
X39151428Y8916667D01*
X39199047Y8869048D01*
X39246666Y8773810D01*
X39246666Y8535715D01*
X39199047Y8440477D01*
X39151428Y8392858D01*
X39056190Y8345239D01*
X38818095Y8345239D01*
X38722857Y8392858D01*
X38675238Y8440477D01*
X38627619Y8535715D01*
X38627619Y8773810D01*
X38675238Y8869048D01*
X38722857Y8916667D01*
X39294285Y8011905D02*
X38627619Y7773810D01*
X39294285Y7535715D01*
X26587619Y8392858D02*
X26587619Y8869048D01*
X26111428Y8916667D01*
X26159047Y8869048D01*
X26206666Y8773810D01*
X26206666Y8535715D01*
X26159047Y8440477D01*
X26111428Y8392858D01*
X26016190Y8345239D01*
X25778095Y8345239D01*
X25682857Y8392858D01*
X25635238Y8440477D01*
X25587619Y8535715D01*
X25587619Y8773810D01*
X25635238Y8869048D01*
X25682857Y8916667D01*
X26254285Y8011905D02*
X25587619Y7773810D01*
X26254285Y7535715D01*
X47965238Y8609405D02*
X47917619Y8466548D01*
X47917619Y8228453D01*
X47965238Y8133215D01*
X48012857Y8085596D01*
X48108095Y8037977D01*
X48203333Y8037977D01*
X48298571Y8085596D01*
X48346190Y8133215D01*
X48393809Y8228453D01*
X48441428Y8418929D01*
X48489047Y8514167D01*
X48536666Y8561786D01*
X48631904Y8609405D01*
X48727142Y8609405D01*
X48822380Y8561786D01*
X48870000Y8514167D01*
X48917619Y8418929D01*
X48917619Y8180834D01*
X48870000Y8037977D01*
X34925238Y8609405D02*
X34877619Y8466548D01*
X34877619Y8228453D01*
X34925238Y8133215D01*
X34972857Y8085596D01*
X35068095Y8037977D01*
X35163333Y8037977D01*
X35258571Y8085596D01*
X35306190Y8133215D01*
X35353809Y8228453D01*
X35401428Y8418929D01*
X35449047Y8514167D01*
X35496666Y8561786D01*
X35591904Y8609405D01*
X35687142Y8609405D01*
X35782380Y8561786D01*
X35830000Y8514167D01*
X35877619Y8418929D01*
X35877619Y8180834D01*
X35830000Y8037977D01*
X21885238Y8609405D02*
X21837619Y8466548D01*
X21837619Y8228453D01*
X21885238Y8133215D01*
X21932857Y8085596D01*
X22028095Y8037977D01*
X22123333Y8037977D01*
X22218571Y8085596D01*
X22266190Y8133215D01*
X22313809Y8228453D01*
X22361428Y8418929D01*
X22409047Y8514167D01*
X22456666Y8561786D01*
X22551904Y8609405D01*
X22647142Y8609405D01*
X22742380Y8561786D01*
X22790000Y8514167D01*
X22837619Y8418929D01*
X22837619Y8180834D01*
X22790000Y8037977D01*
X46500000Y14640596D02*
X46547619Y14735834D01*
X46547619Y14878691D01*
X46500000Y15021548D01*
X46404761Y15116786D01*
X46309523Y15164405D01*
X46119047Y15212024D01*
X45976190Y15212024D01*
X45785714Y15164405D01*
X45690476Y15116786D01*
X45595238Y15021548D01*
X45547619Y14878691D01*
X45547619Y14783453D01*
X45595238Y14640596D01*
X45642857Y14592977D01*
X45976190Y14592977D01*
X45976190Y14783453D01*
X46214285Y14164405D02*
X45547619Y14164405D01*
X46119047Y14164405D02*
X46166666Y14116786D01*
X46214285Y14021548D01*
X46214285Y13878691D01*
X46166666Y13783453D01*
X46071428Y13735834D01*
X45547619Y13735834D01*
X45547619Y12831072D02*
X46547619Y12831072D01*
X45595238Y12831072D02*
X45547619Y12926310D01*
X45547619Y13116786D01*
X45595238Y13212024D01*
X45642857Y13259643D01*
X45738095Y13307262D01*
X46023809Y13307262D01*
X46119047Y13259643D01*
X46166666Y13212024D01*
X46214285Y13116786D01*
X46214285Y12926310D01*
X46166666Y12831072D01*
X49047619Y14688215D02*
X49047619Y15164405D01*
X48571428Y15212024D01*
X48619047Y15164405D01*
X48666666Y15069167D01*
X48666666Y14831072D01*
X48619047Y14735834D01*
X48571428Y14688215D01*
X48476190Y14640596D01*
X48238095Y14640596D01*
X48142857Y14688215D01*
X48095238Y14735834D01*
X48047619Y14831072D01*
X48047619Y15069167D01*
X48095238Y15164405D01*
X48142857Y15212024D01*
X48714285Y14307262D02*
X48047619Y14069167D01*
X48714285Y13831072D01*
X50905714Y9821429D02*
X50905714Y11321429D01*
X51405714Y10250000D01*
X51905714Y11321429D01*
X51905714Y9821429D01*
X52477142Y11321429D02*
X53405714Y11321429D01*
X52905714Y10750000D01*
X53120000Y10750000D01*
X53262857Y10678572D01*
X53334285Y10607143D01*
X53405714Y10464286D01*
X53405714Y10107143D01*
X53334285Y9964286D01*
X53262857Y9892858D01*
X53120000Y9821429D01*
X52691428Y9821429D01*
X52548571Y9892858D01*
X52477142Y9964286D01*
X37865714Y9821429D02*
X37865714Y11321429D01*
X38365714Y10250000D01*
X38865714Y11321429D01*
X38865714Y9821429D01*
X39508571Y11178572D02*
X39580000Y11250000D01*
X39722857Y11321429D01*
X40080000Y11321429D01*
X40222857Y11250000D01*
X40294285Y11178572D01*
X40365714Y11035715D01*
X40365714Y10892858D01*
X40294285Y10678572D01*
X39437142Y9821429D01*
X40365714Y9821429D01*
X24825714Y9821429D02*
X24825714Y11321429D01*
X25325714Y10250000D01*
X25825714Y11321429D01*
X25825714Y9821429D01*
X27325714Y9821429D02*
X26468571Y9821429D01*
X26897142Y9821429D02*
X26897142Y11321429D01*
X26754285Y11107143D01*
X26611428Y10964286D01*
X26468571Y10892858D01*
X11785714Y9821429D02*
X11785714Y11321429D01*
X12285714Y10250000D01*
X12785714Y11321429D01*
X12785714Y9821429D01*
X13785714Y11321429D02*
X13928571Y11321429D01*
X14071428Y11250000D01*
X14142857Y11178572D01*
X14214285Y11035715D01*
X14285714Y10750000D01*
X14285714Y10392858D01*
X14214285Y10107143D01*
X14142857Y9964286D01*
X14071428Y9892858D01*
X13928571Y9821429D01*
X13785714Y9821429D01*
X13642857Y9892858D01*
X13571428Y9964286D01*
X13500000Y10107143D01*
X13428571Y10392858D01*
X13428571Y10750000D01*
X13500000Y11035715D01*
X13571428Y11178572D01*
X13642857Y11250000D01*
X13785714Y11321429D01*
X13547619Y8392858D02*
X13547619Y8869048D01*
X13071428Y8916667D01*
X13119047Y8869048D01*
X13166666Y8773810D01*
X13166666Y8535715D01*
X13119047Y8440477D01*
X13071428Y8392858D01*
X12976190Y8345239D01*
X12738095Y8345239D01*
X12642857Y8392858D01*
X12595238Y8440477D01*
X12547619Y8535715D01*
X12547619Y8773810D01*
X12595238Y8869048D01*
X12642857Y8916667D01*
X13214285Y8011905D02*
X12547619Y7773810D01*
X13214285Y7535715D01*
X16297619Y8511905D02*
X17297619Y8511905D01*
X17297619Y8273810D01*
X17250000Y8130953D01*
X17154761Y8035715D01*
X17059523Y7988096D01*
X16869047Y7940477D01*
X16726190Y7940477D01*
X16535714Y7988096D01*
X16440476Y8035715D01*
X16345238Y8130953D01*
X16297619Y8273810D01*
X16297619Y8511905D01*
X8845238Y8609405D02*
X8797619Y8466548D01*
X8797619Y8228453D01*
X8845238Y8133215D01*
X8892857Y8085596D01*
X8988095Y8037977D01*
X9083333Y8037977D01*
X9178571Y8085596D01*
X9226190Y8133215D01*
X9273809Y8228453D01*
X9321428Y8418929D01*
X9369047Y8514167D01*
X9416666Y8561786D01*
X9511904Y8609405D01*
X9607142Y8609405D01*
X9702380Y8561786D01*
X9750000Y8514167D01*
X9797619Y8418929D01*
X9797619Y8180834D01*
X9750000Y8037977D01*
D11*
X11230000Y15980000D02*
X11230000Y17250000D01*
X12500000Y15980000D02*
X11230000Y15980000D01*
X25580000Y18292929D02*
X25580000Y18690000D01*
X24820000Y18292929D02*
X24820000Y18690000D01*
X25580000Y27350000D02*
X25580000Y21350000D01*
X24820000Y27350000D02*
X25580000Y27350000D01*
X24820000Y21350000D02*
X24820000Y27350000D01*
X23930000Y18690000D02*
X23930000Y21350000D01*
X23040000Y18292929D02*
X23040000Y18690000D01*
X22280000Y18292929D02*
X22280000Y18690000D01*
X23040000Y27350000D02*
X23040000Y21350000D01*
X22280000Y27350000D02*
X23040000Y27350000D01*
X22280000Y21350000D02*
X22280000Y27350000D01*
X21390000Y18690000D02*
X21390000Y21350000D01*
X20500000Y18292929D02*
X20500000Y18690000D01*
X19740000Y18292929D02*
X19740000Y18690000D01*
X20500000Y27350000D02*
X20500000Y21350000D01*
X19740000Y27350000D02*
X20500000Y27350000D01*
X19740000Y21350000D02*
X19740000Y27350000D01*
X18850000Y18690000D02*
X18850000Y21350000D01*
X17960000Y18292929D02*
X17960000Y18690000D01*
X17200000Y18292929D02*
X17200000Y18690000D01*
X17960000Y27350000D02*
X17960000Y21350000D01*
X17200000Y27350000D02*
X17960000Y27350000D01*
X17200000Y21350000D02*
X17200000Y27350000D01*
X16310000Y18690000D02*
X16310000Y21350000D01*
X15420000Y18292929D02*
X15420000Y18690000D01*
X14660000Y18292929D02*
X14660000Y18690000D01*
X15420000Y27350000D02*
X15420000Y21350000D01*
X14660000Y27350000D02*
X15420000Y27350000D01*
X14660000Y21350000D02*
X14660000Y27350000D01*
X13770000Y18690000D02*
X13770000Y21350000D01*
X12880000Y18360000D02*
X12880000Y18690000D01*
X12120000Y18360000D02*
X12120000Y18690000D01*
X12780000Y21350000D02*
X12780000Y27350000D01*
X12660000Y21350000D02*
X12660000Y27350000D01*
X12540000Y21350000D02*
X12540000Y27350000D01*
X12420000Y21350000D02*
X12420000Y27350000D01*
X12300000Y21350000D02*
X12300000Y27350000D01*
X12180000Y21350000D02*
X12180000Y27350000D01*
X12880000Y27350000D02*
X12880000Y21350000D01*
X12120000Y27350000D02*
X12880000Y27350000D01*
X12120000Y21350000D02*
X12120000Y27350000D01*
X11170000Y21350000D02*
X11170000Y18690000D01*
X26530000Y21350000D02*
X11170000Y21350000D01*
X26530000Y18690000D02*
X26530000Y21350000D01*
X11170000Y18690000D02*
X26530000Y18690000D01*
X39480000Y15980000D02*
X39480000Y17250000D01*
X40750000Y15980000D02*
X39480000Y15980000D01*
X53830000Y18292929D02*
X53830000Y18690000D01*
X53070000Y18292929D02*
X53070000Y18690000D01*
X53830000Y27350000D02*
X53830000Y21350000D01*
X53070000Y27350000D02*
X53830000Y27350000D01*
X53070000Y21350000D02*
X53070000Y27350000D01*
X52180000Y18690000D02*
X52180000Y21350000D01*
X51290000Y18292929D02*
X51290000Y18690000D01*
X50530000Y18292929D02*
X50530000Y18690000D01*
X51290000Y27350000D02*
X51290000Y21350000D01*
X50530000Y27350000D02*
X51290000Y27350000D01*
X50530000Y21350000D02*
X50530000Y27350000D01*
X49640000Y18690000D02*
X49640000Y21350000D01*
X48750000Y18292929D02*
X48750000Y18690000D01*
X47990000Y18292929D02*
X47990000Y18690000D01*
X48750000Y27350000D02*
X48750000Y21350000D01*
X47990000Y27350000D02*
X48750000Y27350000D01*
X47990000Y21350000D02*
X47990000Y27350000D01*
X47100000Y18690000D02*
X47100000Y21350000D01*
X46210000Y18292929D02*
X46210000Y18690000D01*
X45450000Y18292929D02*
X45450000Y18690000D01*
X46210000Y27350000D02*
X46210000Y21350000D01*
X45450000Y27350000D02*
X46210000Y27350000D01*
X45450000Y21350000D02*
X45450000Y27350000D01*
X44560000Y18690000D02*
X44560000Y21350000D01*
X43670000Y18292929D02*
X43670000Y18690000D01*
X42910000Y18292929D02*
X42910000Y18690000D01*
X43670000Y27350000D02*
X43670000Y21350000D01*
X42910000Y27350000D02*
X43670000Y27350000D01*
X42910000Y21350000D02*
X42910000Y27350000D01*
X42020000Y18690000D02*
X42020000Y21350000D01*
X41130000Y18360000D02*
X41130000Y18690000D01*
X40370000Y18360000D02*
X40370000Y18690000D01*
X41030000Y21350000D02*
X41030000Y27350000D01*
X40910000Y21350000D02*
X40910000Y27350000D01*
X40790000Y21350000D02*
X40790000Y27350000D01*
X40670000Y21350000D02*
X40670000Y27350000D01*
X40550000Y21350000D02*
X40550000Y27350000D01*
X40430000Y21350000D02*
X40430000Y27350000D01*
X41130000Y27350000D02*
X41130000Y21350000D01*
X40370000Y27350000D02*
X41130000Y27350000D01*
X40370000Y21350000D02*
X40370000Y27350000D01*
X39420000Y21350000D02*
X39420000Y18690000D01*
X54780000Y21350000D02*
X39420000Y21350000D01*
X54780000Y18690000D02*
X54780000Y21350000D01*
X39420000Y18690000D02*
X54780000Y18690000D01*
X34911055Y6636653D02*
X35511055Y6636653D01*
X35211055Y6036653D02*
X34911055Y6636653D01*
X35511055Y6636653D02*
X35211055Y6036653D01*
X32501055Y-763347D02*
X45541055Y-763347D01*
X40071055Y5346653D02*
X41781055Y5346653D01*
X36261055Y5346653D02*
X37971055Y5346653D01*
X45541055Y5346653D02*
X43881055Y5346653D01*
X32501055Y5346653D02*
X34161055Y5346653D01*
X45541055Y-4073347D02*
X45541055Y5346653D01*
X32501055Y-4073347D02*
X45541055Y-4073347D01*
X32501055Y5346653D02*
X32501055Y-4073347D01*
X47951055Y6636653D02*
X48551055Y6636653D01*
X48251055Y6036653D02*
X47951055Y6636653D01*
X48551055Y6636653D02*
X48251055Y6036653D01*
X45541055Y-763347D02*
X58581055Y-763347D01*
X53111055Y5346653D02*
X54821055Y5346653D01*
X49301055Y5346653D02*
X51011055Y5346653D01*
X58581055Y5346653D02*
X56921055Y5346653D01*
X45541055Y5346653D02*
X47201055Y5346653D01*
X58581055Y-4073347D02*
X58581055Y5346653D01*
X45541055Y-4073347D02*
X58581055Y-4073347D01*
X45541055Y5346653D02*
X45541055Y-4073347D01*
X21871055Y6636653D02*
X22471055Y6636653D01*
X22171055Y6036653D02*
X21871055Y6636653D01*
X22471055Y6636653D02*
X22171055Y6036653D01*
X19461055Y-763347D02*
X32501055Y-763347D01*
X27031055Y5346653D02*
X28741055Y5346653D01*
X23221055Y5346653D02*
X24931055Y5346653D01*
X32501055Y5346653D02*
X30841055Y5346653D01*
X19461055Y5346653D02*
X21121055Y5346653D01*
X32501055Y-4073347D02*
X32501055Y5346653D01*
X19461055Y-4073347D02*
X32501055Y-4073347D01*
X19461055Y5346653D02*
X19461055Y-4073347D01*
X8831055Y6636653D02*
X9431055Y6636653D01*
X9131055Y6036653D02*
X8831055Y6636653D01*
X9431055Y6636653D02*
X9131055Y6036653D01*
X6421055Y-763347D02*
X19461055Y-763347D01*
X13991055Y5346653D02*
X15701055Y5346653D01*
X10181055Y5346653D02*
X11891055Y5346653D01*
X19461055Y5346653D02*
X17801055Y5346653D01*
X6421055Y5346653D02*
X8081055Y5346653D01*
X19461055Y-4073347D02*
X19461055Y5346653D01*
X6421055Y-4073347D02*
X19461055Y-4073347D01*
X6421055Y5346653D02*
X6421055Y-4073347D01*
M02*
