G04 #@! TF.GenerationSoftware,KiCad,Pcbnew,(5.1.5)-3*
G04 #@! TF.CreationDate,2020-03-16T11:49:10-04:00*
G04 #@! TF.ProjectId,Step_Direction_Board,53746570-5f44-4697-9265-6374696f6e5f,rev?*
G04 #@! TF.SameCoordinates,PX7270e00PY78a3ca0*
G04 #@! TF.FileFunction,Soldermask,Top*
G04 #@! TF.FilePolarity,Negative*
%FSLAX46Y46*%
G04 Gerber Fmt 4.6, Leading zero omitted, Abs format (unit mm)*
G04 Created by KiCad (PCBNEW (5.1.5)-3) date 2020-03-16 11:49:10*
%MOMM*%
%LPD*%
G04 APERTURE LIST*
%ADD10C,0.100000*%
G04 APERTURE END LIST*
D10*
G36*
X43017479Y5873893D02*
G01*
X43017482Y5873892D01*
X43017483Y5873892D01*
X43196747Y5819513D01*
X43196750Y5819511D01*
X43196751Y5819511D01*
X43361958Y5731207D01*
X43506767Y5612365D01*
X43625609Y5467556D01*
X43713913Y5302350D01*
X43713915Y5302346D01*
X43713915Y5302345D01*
X43768295Y5123078D01*
X43782055Y4983371D01*
X43782055Y3089935D01*
X43768295Y2950228D01*
X43768294Y2950225D01*
X43768294Y2950224D01*
X43713915Y2770960D01*
X43713913Y2770957D01*
X43713913Y2770956D01*
X43625609Y2605750D01*
X43506767Y2460941D01*
X43361958Y2342099D01*
X43214480Y2263271D01*
X43196748Y2253793D01*
X43017484Y2199414D01*
X43017483Y2199414D01*
X43017480Y2199413D01*
X42831055Y2181052D01*
X42644631Y2199413D01*
X42644628Y2199414D01*
X42644627Y2199414D01*
X42465363Y2253793D01*
X42447631Y2263271D01*
X42300153Y2342099D01*
X42155344Y2460941D01*
X42036502Y2605750D01*
X41948198Y2770956D01*
X41948198Y2770957D01*
X41948196Y2770960D01*
X41893817Y2950224D01*
X41893817Y2950225D01*
X41893816Y2950228D01*
X41880055Y3089936D01*
X41880055Y4983370D01*
X41893815Y5123077D01*
X41893816Y5123081D01*
X41948195Y5302345D01*
X41948198Y5302350D01*
X42036501Y5467556D01*
X42155343Y5612365D01*
X42300152Y5731207D01*
X42465358Y5819511D01*
X42465359Y5819511D01*
X42465362Y5819513D01*
X42644626Y5873892D01*
X42644627Y5873892D01*
X42644630Y5873893D01*
X42831055Y5892254D01*
X43017479Y5873893D01*
G37*
G36*
X39207479Y5873893D02*
G01*
X39207482Y5873892D01*
X39207483Y5873892D01*
X39386747Y5819513D01*
X39386750Y5819511D01*
X39386751Y5819511D01*
X39551958Y5731207D01*
X39696767Y5612365D01*
X39815609Y5467556D01*
X39903913Y5302350D01*
X39903915Y5302346D01*
X39903915Y5302345D01*
X39958295Y5123078D01*
X39972055Y4983371D01*
X39972055Y3089935D01*
X39958295Y2950228D01*
X39958294Y2950225D01*
X39958294Y2950224D01*
X39903915Y2770960D01*
X39903913Y2770957D01*
X39903913Y2770956D01*
X39815609Y2605750D01*
X39696767Y2460941D01*
X39551958Y2342099D01*
X39404480Y2263271D01*
X39386748Y2253793D01*
X39207484Y2199414D01*
X39207483Y2199414D01*
X39207480Y2199413D01*
X39021055Y2181052D01*
X38834631Y2199413D01*
X38834628Y2199414D01*
X38834627Y2199414D01*
X38655363Y2253793D01*
X38637631Y2263271D01*
X38490153Y2342099D01*
X38345344Y2460941D01*
X38226502Y2605750D01*
X38138198Y2770956D01*
X38138198Y2770957D01*
X38138196Y2770960D01*
X38083817Y2950224D01*
X38083817Y2950225D01*
X38083816Y2950228D01*
X38070055Y3089936D01*
X38070055Y4983370D01*
X38083815Y5123077D01*
X38083816Y5123081D01*
X38138195Y5302345D01*
X38138198Y5302350D01*
X38226501Y5467556D01*
X38345343Y5612365D01*
X38490152Y5731207D01*
X38655358Y5819511D01*
X38655359Y5819511D01*
X38655362Y5819513D01*
X38834626Y5873892D01*
X38834627Y5873892D01*
X38834630Y5873893D01*
X39021055Y5892254D01*
X39207479Y5873893D01*
G37*
G36*
X56057479Y5873893D02*
G01*
X56057482Y5873892D01*
X56057483Y5873892D01*
X56236747Y5819513D01*
X56236750Y5819511D01*
X56236751Y5819511D01*
X56401958Y5731207D01*
X56546767Y5612365D01*
X56665609Y5467556D01*
X56753913Y5302350D01*
X56753915Y5302346D01*
X56753915Y5302345D01*
X56808295Y5123078D01*
X56822055Y4983371D01*
X56822055Y3089935D01*
X56808295Y2950228D01*
X56808294Y2950225D01*
X56808294Y2950224D01*
X56753915Y2770960D01*
X56753913Y2770957D01*
X56753913Y2770956D01*
X56665609Y2605750D01*
X56546767Y2460941D01*
X56401958Y2342099D01*
X56254480Y2263271D01*
X56236748Y2253793D01*
X56057484Y2199414D01*
X56057483Y2199414D01*
X56057480Y2199413D01*
X55871055Y2181052D01*
X55684631Y2199413D01*
X55684628Y2199414D01*
X55684627Y2199414D01*
X55505363Y2253793D01*
X55487631Y2263271D01*
X55340153Y2342099D01*
X55195344Y2460941D01*
X55076502Y2605750D01*
X54988198Y2770956D01*
X54988198Y2770957D01*
X54988196Y2770960D01*
X54933817Y2950224D01*
X54933817Y2950225D01*
X54933816Y2950228D01*
X54920055Y3089936D01*
X54920055Y4983370D01*
X54933815Y5123077D01*
X54933816Y5123081D01*
X54988195Y5302345D01*
X54988198Y5302350D01*
X55076501Y5467556D01*
X55195343Y5612365D01*
X55340152Y5731207D01*
X55505358Y5819511D01*
X55505359Y5819511D01*
X55505362Y5819513D01*
X55684626Y5873892D01*
X55684627Y5873892D01*
X55684630Y5873893D01*
X55871055Y5892254D01*
X56057479Y5873893D01*
G37*
G36*
X52247479Y5873893D02*
G01*
X52247482Y5873892D01*
X52247483Y5873892D01*
X52426747Y5819513D01*
X52426750Y5819511D01*
X52426751Y5819511D01*
X52591958Y5731207D01*
X52736767Y5612365D01*
X52855609Y5467556D01*
X52943913Y5302350D01*
X52943915Y5302346D01*
X52943915Y5302345D01*
X52998295Y5123078D01*
X53012055Y4983371D01*
X53012055Y3089935D01*
X52998295Y2950228D01*
X52998294Y2950225D01*
X52998294Y2950224D01*
X52943915Y2770960D01*
X52943913Y2770957D01*
X52943913Y2770956D01*
X52855609Y2605750D01*
X52736767Y2460941D01*
X52591958Y2342099D01*
X52444480Y2263271D01*
X52426748Y2253793D01*
X52247484Y2199414D01*
X52247483Y2199414D01*
X52247480Y2199413D01*
X52061055Y2181052D01*
X51874631Y2199413D01*
X51874628Y2199414D01*
X51874627Y2199414D01*
X51695363Y2253793D01*
X51677631Y2263271D01*
X51530153Y2342099D01*
X51385344Y2460941D01*
X51266502Y2605750D01*
X51178198Y2770956D01*
X51178198Y2770957D01*
X51178196Y2770960D01*
X51123817Y2950224D01*
X51123817Y2950225D01*
X51123816Y2950228D01*
X51110055Y3089936D01*
X51110055Y4983370D01*
X51123815Y5123077D01*
X51123816Y5123081D01*
X51178195Y5302345D01*
X51178198Y5302350D01*
X51266501Y5467556D01*
X51385343Y5612365D01*
X51530152Y5731207D01*
X51695358Y5819511D01*
X51695359Y5819511D01*
X51695362Y5819513D01*
X51874626Y5873892D01*
X51874627Y5873892D01*
X51874630Y5873893D01*
X52061055Y5892254D01*
X52247479Y5873893D01*
G37*
G36*
X29977479Y5873893D02*
G01*
X29977482Y5873892D01*
X29977483Y5873892D01*
X30156747Y5819513D01*
X30156750Y5819511D01*
X30156751Y5819511D01*
X30321958Y5731207D01*
X30466767Y5612365D01*
X30585609Y5467556D01*
X30673913Y5302350D01*
X30673915Y5302346D01*
X30673915Y5302345D01*
X30728295Y5123078D01*
X30742055Y4983371D01*
X30742055Y3089935D01*
X30728295Y2950228D01*
X30728294Y2950225D01*
X30728294Y2950224D01*
X30673915Y2770960D01*
X30673913Y2770957D01*
X30673913Y2770956D01*
X30585609Y2605750D01*
X30466767Y2460941D01*
X30321958Y2342099D01*
X30174480Y2263271D01*
X30156748Y2253793D01*
X29977484Y2199414D01*
X29977483Y2199414D01*
X29977480Y2199413D01*
X29791055Y2181052D01*
X29604631Y2199413D01*
X29604628Y2199414D01*
X29604627Y2199414D01*
X29425363Y2253793D01*
X29407631Y2263271D01*
X29260153Y2342099D01*
X29115344Y2460941D01*
X28996502Y2605750D01*
X28908198Y2770956D01*
X28908198Y2770957D01*
X28908196Y2770960D01*
X28853817Y2950224D01*
X28853817Y2950225D01*
X28853816Y2950228D01*
X28840055Y3089936D01*
X28840055Y4983370D01*
X28853815Y5123077D01*
X28853816Y5123081D01*
X28908195Y5302345D01*
X28908198Y5302350D01*
X28996501Y5467556D01*
X29115343Y5612365D01*
X29260152Y5731207D01*
X29425358Y5819511D01*
X29425359Y5819511D01*
X29425362Y5819513D01*
X29604626Y5873892D01*
X29604627Y5873892D01*
X29604630Y5873893D01*
X29791055Y5892254D01*
X29977479Y5873893D01*
G37*
G36*
X26167479Y5873893D02*
G01*
X26167482Y5873892D01*
X26167483Y5873892D01*
X26346747Y5819513D01*
X26346750Y5819511D01*
X26346751Y5819511D01*
X26511958Y5731207D01*
X26656767Y5612365D01*
X26775609Y5467556D01*
X26863913Y5302350D01*
X26863915Y5302346D01*
X26863915Y5302345D01*
X26918295Y5123078D01*
X26932055Y4983371D01*
X26932055Y3089935D01*
X26918295Y2950228D01*
X26918294Y2950225D01*
X26918294Y2950224D01*
X26863915Y2770960D01*
X26863913Y2770957D01*
X26863913Y2770956D01*
X26775609Y2605750D01*
X26656767Y2460941D01*
X26511958Y2342099D01*
X26364480Y2263271D01*
X26346748Y2253793D01*
X26167484Y2199414D01*
X26167483Y2199414D01*
X26167480Y2199413D01*
X25981055Y2181052D01*
X25794631Y2199413D01*
X25794628Y2199414D01*
X25794627Y2199414D01*
X25615363Y2253793D01*
X25597631Y2263271D01*
X25450153Y2342099D01*
X25305344Y2460941D01*
X25186502Y2605750D01*
X25098198Y2770956D01*
X25098198Y2770957D01*
X25098196Y2770960D01*
X25043817Y2950224D01*
X25043817Y2950225D01*
X25043816Y2950228D01*
X25030055Y3089936D01*
X25030055Y4983370D01*
X25043815Y5123077D01*
X25043816Y5123081D01*
X25098195Y5302345D01*
X25098198Y5302350D01*
X25186501Y5467556D01*
X25305343Y5612365D01*
X25450152Y5731207D01*
X25615358Y5819511D01*
X25615359Y5819511D01*
X25615362Y5819513D01*
X25794626Y5873892D01*
X25794627Y5873892D01*
X25794630Y5873893D01*
X25981055Y5892254D01*
X26167479Y5873893D01*
G37*
G36*
X13127479Y5873893D02*
G01*
X13127482Y5873892D01*
X13127483Y5873892D01*
X13306747Y5819513D01*
X13306750Y5819511D01*
X13306751Y5819511D01*
X13471958Y5731207D01*
X13616767Y5612365D01*
X13735609Y5467556D01*
X13823913Y5302350D01*
X13823915Y5302346D01*
X13823915Y5302345D01*
X13878295Y5123078D01*
X13892055Y4983371D01*
X13892055Y3089935D01*
X13878295Y2950228D01*
X13878294Y2950225D01*
X13878294Y2950224D01*
X13823915Y2770960D01*
X13823913Y2770957D01*
X13823913Y2770956D01*
X13735609Y2605750D01*
X13616767Y2460941D01*
X13471958Y2342099D01*
X13324480Y2263271D01*
X13306748Y2253793D01*
X13127484Y2199414D01*
X13127483Y2199414D01*
X13127480Y2199413D01*
X12941055Y2181052D01*
X12754631Y2199413D01*
X12754628Y2199414D01*
X12754627Y2199414D01*
X12575363Y2253793D01*
X12557631Y2263271D01*
X12410153Y2342099D01*
X12265344Y2460941D01*
X12146502Y2605750D01*
X12058198Y2770956D01*
X12058198Y2770957D01*
X12058196Y2770960D01*
X12003817Y2950224D01*
X12003817Y2950225D01*
X12003816Y2950228D01*
X11990055Y3089936D01*
X11990055Y4983370D01*
X12003815Y5123077D01*
X12003816Y5123081D01*
X12058195Y5302345D01*
X12058198Y5302350D01*
X12146501Y5467556D01*
X12265343Y5612365D01*
X12410152Y5731207D01*
X12575358Y5819511D01*
X12575359Y5819511D01*
X12575362Y5819513D01*
X12754626Y5873892D01*
X12754627Y5873892D01*
X12754630Y5873893D01*
X12941055Y5892254D01*
X13127479Y5873893D01*
G37*
G36*
X16937479Y5873893D02*
G01*
X16937482Y5873892D01*
X16937483Y5873892D01*
X17116747Y5819513D01*
X17116750Y5819511D01*
X17116751Y5819511D01*
X17281958Y5731207D01*
X17426767Y5612365D01*
X17545609Y5467556D01*
X17633913Y5302350D01*
X17633915Y5302346D01*
X17633915Y5302345D01*
X17688295Y5123078D01*
X17702055Y4983371D01*
X17702055Y3089935D01*
X17688295Y2950228D01*
X17688294Y2950225D01*
X17688294Y2950224D01*
X17633915Y2770960D01*
X17633913Y2770957D01*
X17633913Y2770956D01*
X17545609Y2605750D01*
X17426767Y2460941D01*
X17281958Y2342099D01*
X17134480Y2263271D01*
X17116748Y2253793D01*
X16937484Y2199414D01*
X16937483Y2199414D01*
X16937480Y2199413D01*
X16751055Y2181052D01*
X16564631Y2199413D01*
X16564628Y2199414D01*
X16564627Y2199414D01*
X16385363Y2253793D01*
X16367631Y2263271D01*
X16220153Y2342099D01*
X16075344Y2460941D01*
X15956502Y2605750D01*
X15868198Y2770956D01*
X15868198Y2770957D01*
X15868196Y2770960D01*
X15813817Y2950224D01*
X15813817Y2950225D01*
X15813816Y2950228D01*
X15800055Y3089936D01*
X15800055Y4983370D01*
X15813815Y5123077D01*
X15813816Y5123081D01*
X15868195Y5302345D01*
X15868198Y5302350D01*
X15956501Y5467556D01*
X16075343Y5612365D01*
X16220152Y5731207D01*
X16385358Y5819511D01*
X16385359Y5819511D01*
X16385362Y5819513D01*
X16564626Y5873892D01*
X16564627Y5873892D01*
X16564630Y5873893D01*
X16751055Y5892254D01*
X16937479Y5873893D01*
G37*
G36*
X22981970Y5883719D02*
G01*
X23014479Y5873858D01*
X23044437Y5857844D01*
X23070696Y5836294D01*
X23092246Y5810035D01*
X23108260Y5780077D01*
X23118121Y5747568D01*
X23122055Y5707624D01*
X23122055Y2365682D01*
X23118121Y2325738D01*
X23108260Y2293229D01*
X23092246Y2263271D01*
X23070696Y2237012D01*
X23044437Y2215462D01*
X23014479Y2199448D01*
X22981970Y2189587D01*
X22942026Y2185653D01*
X21400084Y2185653D01*
X21360140Y2189587D01*
X21327631Y2199448D01*
X21297673Y2215462D01*
X21271414Y2237012D01*
X21249864Y2263271D01*
X21233850Y2293229D01*
X21223989Y2325738D01*
X21220055Y2365682D01*
X21220055Y5707624D01*
X21223989Y5747568D01*
X21233850Y5780077D01*
X21249864Y5810035D01*
X21271414Y5836294D01*
X21297673Y5857844D01*
X21327631Y5873858D01*
X21360140Y5883719D01*
X21400084Y5887653D01*
X22942026Y5887653D01*
X22981970Y5883719D01*
G37*
G36*
X9941970Y5883719D02*
G01*
X9974479Y5873858D01*
X10004437Y5857844D01*
X10030696Y5836294D01*
X10052246Y5810035D01*
X10068260Y5780077D01*
X10078121Y5747568D01*
X10082055Y5707624D01*
X10082055Y2365682D01*
X10078121Y2325738D01*
X10068260Y2293229D01*
X10052246Y2263271D01*
X10030696Y2237012D01*
X10004437Y2215462D01*
X9974479Y2199448D01*
X9941970Y2189587D01*
X9902026Y2185653D01*
X8360084Y2185653D01*
X8320140Y2189587D01*
X8287631Y2199448D01*
X8257673Y2215462D01*
X8231414Y2237012D01*
X8209864Y2263271D01*
X8193850Y2293229D01*
X8183989Y2325738D01*
X8180055Y2365682D01*
X8180055Y5707624D01*
X8183989Y5747568D01*
X8193850Y5780077D01*
X8209864Y5810035D01*
X8231414Y5836294D01*
X8257673Y5857844D01*
X8287631Y5873858D01*
X8320140Y5883719D01*
X8360084Y5887653D01*
X9902026Y5887653D01*
X9941970Y5883719D01*
G37*
G36*
X36021970Y5883719D02*
G01*
X36054479Y5873858D01*
X36084437Y5857844D01*
X36110696Y5836294D01*
X36132246Y5810035D01*
X36148260Y5780077D01*
X36158121Y5747568D01*
X36162055Y5707624D01*
X36162055Y2365682D01*
X36158121Y2325738D01*
X36148260Y2293229D01*
X36132246Y2263271D01*
X36110696Y2237012D01*
X36084437Y2215462D01*
X36054479Y2199448D01*
X36021970Y2189587D01*
X35982026Y2185653D01*
X34440084Y2185653D01*
X34400140Y2189587D01*
X34367631Y2199448D01*
X34337673Y2215462D01*
X34311414Y2237012D01*
X34289864Y2263271D01*
X34273850Y2293229D01*
X34263989Y2325738D01*
X34260055Y2365682D01*
X34260055Y5707624D01*
X34263989Y5747568D01*
X34273850Y5780077D01*
X34289864Y5810035D01*
X34311414Y5836294D01*
X34337673Y5857844D01*
X34367631Y5873858D01*
X34400140Y5883719D01*
X34440084Y5887653D01*
X35982026Y5887653D01*
X36021970Y5883719D01*
G37*
G36*
X49061970Y5883719D02*
G01*
X49094479Y5873858D01*
X49124437Y5857844D01*
X49150696Y5836294D01*
X49172246Y5810035D01*
X49188260Y5780077D01*
X49198121Y5747568D01*
X49202055Y5707624D01*
X49202055Y2365682D01*
X49198121Y2325738D01*
X49188260Y2293229D01*
X49172246Y2263271D01*
X49150696Y2237012D01*
X49124437Y2215462D01*
X49094479Y2199448D01*
X49061970Y2189587D01*
X49022026Y2185653D01*
X47480084Y2185653D01*
X47440140Y2189587D01*
X47407631Y2199448D01*
X47377673Y2215462D01*
X47351414Y2237012D01*
X47329864Y2263271D01*
X47313850Y2293229D01*
X47303989Y2325738D01*
X47300055Y2365682D01*
X47300055Y5707624D01*
X47303989Y5747568D01*
X47313850Y5780077D01*
X47329864Y5810035D01*
X47351414Y5836294D01*
X47377673Y5857844D01*
X47407631Y5873858D01*
X47440140Y5883719D01*
X47480084Y5887653D01*
X49022026Y5887653D01*
X49061970Y5883719D01*
G37*
G36*
X3846189Y13789517D02*
G01*
X3846192Y13789516D01*
X3846191Y13789516D01*
X4374139Y13570833D01*
X4849280Y13253354D01*
X5253354Y12849280D01*
X5570833Y12374139D01*
X5570834Y12374137D01*
X5789517Y11846189D01*
X5901000Y11285725D01*
X5901000Y10714275D01*
X5789517Y10153811D01*
X5789516Y10153809D01*
X5570833Y9625861D01*
X5253354Y9150720D01*
X4849280Y8746646D01*
X4374139Y8429167D01*
X4374138Y8429166D01*
X4374137Y8429166D01*
X3846189Y8210483D01*
X3285725Y8099000D01*
X2714275Y8099000D01*
X2153811Y8210483D01*
X1625863Y8429166D01*
X1625862Y8429166D01*
X1625861Y8429167D01*
X1150720Y8746646D01*
X746646Y9150720D01*
X429167Y9625861D01*
X210484Y10153809D01*
X210483Y10153811D01*
X99000Y10714275D01*
X99000Y11285725D01*
X210483Y11846189D01*
X429166Y12374137D01*
X429167Y12374139D01*
X746646Y12849280D01*
X1150720Y13253354D01*
X1625861Y13570833D01*
X2153809Y13789516D01*
X2153808Y13789516D01*
X2153811Y13789517D01*
X2714275Y13901000D01*
X3285725Y13901000D01*
X3846189Y13789517D01*
G37*
G36*
X62846189Y13789517D02*
G01*
X62846192Y13789516D01*
X62846191Y13789516D01*
X63374139Y13570833D01*
X63849280Y13253354D01*
X64253354Y12849280D01*
X64570833Y12374139D01*
X64570834Y12374137D01*
X64789517Y11846189D01*
X64901000Y11285725D01*
X64901000Y10714275D01*
X64789517Y10153811D01*
X64789516Y10153809D01*
X64570833Y9625861D01*
X64253354Y9150720D01*
X63849280Y8746646D01*
X63374139Y8429167D01*
X63374138Y8429166D01*
X63374137Y8429166D01*
X62846189Y8210483D01*
X62285725Y8099000D01*
X61714275Y8099000D01*
X61153811Y8210483D01*
X60625863Y8429166D01*
X60625862Y8429166D01*
X60625861Y8429167D01*
X60150720Y8746646D01*
X59746646Y9150720D01*
X59429167Y9625861D01*
X59210484Y10153809D01*
X59210483Y10153811D01*
X59099000Y10714275D01*
X59099000Y11285725D01*
X59210483Y11846189D01*
X59429166Y12374137D01*
X59429167Y12374139D01*
X59746646Y12849280D01*
X60150720Y13253354D01*
X60625861Y13570833D01*
X61153809Y13789516D01*
X61153808Y13789516D01*
X61153811Y13789517D01*
X61714275Y13901000D01*
X62285725Y13901000D01*
X62846189Y13789517D01*
G37*
G36*
X15153512Y18146073D02*
G01*
X15302812Y18116376D01*
X15466784Y18048456D01*
X15614354Y17949853D01*
X15739853Y17824354D01*
X15838456Y17676784D01*
X15906376Y17512812D01*
X15941000Y17338741D01*
X15941000Y17161259D01*
X15906376Y16987188D01*
X15838456Y16823216D01*
X15739853Y16675646D01*
X15614354Y16550147D01*
X15466784Y16451544D01*
X15302812Y16383624D01*
X15153512Y16353927D01*
X15128742Y16349000D01*
X14951258Y16349000D01*
X14926488Y16353927D01*
X14777188Y16383624D01*
X14613216Y16451544D01*
X14465646Y16550147D01*
X14340147Y16675646D01*
X14241544Y16823216D01*
X14173624Y16987188D01*
X14139000Y17161259D01*
X14139000Y17338741D01*
X14173624Y17512812D01*
X14241544Y17676784D01*
X14340147Y17824354D01*
X14465646Y17949853D01*
X14613216Y18048456D01*
X14777188Y18116376D01*
X14926488Y18146073D01*
X14951258Y18151000D01*
X15128742Y18151000D01*
X15153512Y18146073D01*
G37*
G36*
X53563512Y18146073D02*
G01*
X53712812Y18116376D01*
X53876784Y18048456D01*
X54024354Y17949853D01*
X54149853Y17824354D01*
X54248456Y17676784D01*
X54316376Y17512812D01*
X54351000Y17338741D01*
X54351000Y17161259D01*
X54316376Y16987188D01*
X54248456Y16823216D01*
X54149853Y16675646D01*
X54024354Y16550147D01*
X53876784Y16451544D01*
X53712812Y16383624D01*
X53563512Y16353927D01*
X53538742Y16349000D01*
X53361258Y16349000D01*
X53336488Y16353927D01*
X53187188Y16383624D01*
X53023216Y16451544D01*
X52875646Y16550147D01*
X52750147Y16675646D01*
X52651544Y16823216D01*
X52583624Y16987188D01*
X52549000Y17161259D01*
X52549000Y17338741D01*
X52583624Y17512812D01*
X52651544Y17676784D01*
X52750147Y17824354D01*
X52875646Y17949853D01*
X53023216Y18048456D01*
X53187188Y18116376D01*
X53336488Y18146073D01*
X53361258Y18151000D01*
X53538742Y18151000D01*
X53563512Y18146073D01*
G37*
G36*
X51023512Y18146073D02*
G01*
X51172812Y18116376D01*
X51336784Y18048456D01*
X51484354Y17949853D01*
X51609853Y17824354D01*
X51708456Y17676784D01*
X51776376Y17512812D01*
X51811000Y17338741D01*
X51811000Y17161259D01*
X51776376Y16987188D01*
X51708456Y16823216D01*
X51609853Y16675646D01*
X51484354Y16550147D01*
X51336784Y16451544D01*
X51172812Y16383624D01*
X51023512Y16353927D01*
X50998742Y16349000D01*
X50821258Y16349000D01*
X50796488Y16353927D01*
X50647188Y16383624D01*
X50483216Y16451544D01*
X50335646Y16550147D01*
X50210147Y16675646D01*
X50111544Y16823216D01*
X50043624Y16987188D01*
X50009000Y17161259D01*
X50009000Y17338741D01*
X50043624Y17512812D01*
X50111544Y17676784D01*
X50210147Y17824354D01*
X50335646Y17949853D01*
X50483216Y18048456D01*
X50647188Y18116376D01*
X50796488Y18146073D01*
X50821258Y18151000D01*
X50998742Y18151000D01*
X51023512Y18146073D01*
G37*
G36*
X48483512Y18146073D02*
G01*
X48632812Y18116376D01*
X48796784Y18048456D01*
X48944354Y17949853D01*
X49069853Y17824354D01*
X49168456Y17676784D01*
X49236376Y17512812D01*
X49271000Y17338741D01*
X49271000Y17161259D01*
X49236376Y16987188D01*
X49168456Y16823216D01*
X49069853Y16675646D01*
X48944354Y16550147D01*
X48796784Y16451544D01*
X48632812Y16383624D01*
X48483512Y16353927D01*
X48458742Y16349000D01*
X48281258Y16349000D01*
X48256488Y16353927D01*
X48107188Y16383624D01*
X47943216Y16451544D01*
X47795646Y16550147D01*
X47670147Y16675646D01*
X47571544Y16823216D01*
X47503624Y16987188D01*
X47469000Y17161259D01*
X47469000Y17338741D01*
X47503624Y17512812D01*
X47571544Y17676784D01*
X47670147Y17824354D01*
X47795646Y17949853D01*
X47943216Y18048456D01*
X48107188Y18116376D01*
X48256488Y18146073D01*
X48281258Y18151000D01*
X48458742Y18151000D01*
X48483512Y18146073D01*
G37*
G36*
X45943512Y18146073D02*
G01*
X46092812Y18116376D01*
X46256784Y18048456D01*
X46404354Y17949853D01*
X46529853Y17824354D01*
X46628456Y17676784D01*
X46696376Y17512812D01*
X46731000Y17338741D01*
X46731000Y17161259D01*
X46696376Y16987188D01*
X46628456Y16823216D01*
X46529853Y16675646D01*
X46404354Y16550147D01*
X46256784Y16451544D01*
X46092812Y16383624D01*
X45943512Y16353927D01*
X45918742Y16349000D01*
X45741258Y16349000D01*
X45716488Y16353927D01*
X45567188Y16383624D01*
X45403216Y16451544D01*
X45255646Y16550147D01*
X45130147Y16675646D01*
X45031544Y16823216D01*
X44963624Y16987188D01*
X44929000Y17161259D01*
X44929000Y17338741D01*
X44963624Y17512812D01*
X45031544Y17676784D01*
X45130147Y17824354D01*
X45255646Y17949853D01*
X45403216Y18048456D01*
X45567188Y18116376D01*
X45716488Y18146073D01*
X45741258Y18151000D01*
X45918742Y18151000D01*
X45943512Y18146073D01*
G37*
G36*
X43403512Y18146073D02*
G01*
X43552812Y18116376D01*
X43716784Y18048456D01*
X43864354Y17949853D01*
X43989853Y17824354D01*
X44088456Y17676784D01*
X44156376Y17512812D01*
X44191000Y17338741D01*
X44191000Y17161259D01*
X44156376Y16987188D01*
X44088456Y16823216D01*
X43989853Y16675646D01*
X43864354Y16550147D01*
X43716784Y16451544D01*
X43552812Y16383624D01*
X43403512Y16353927D01*
X43378742Y16349000D01*
X43201258Y16349000D01*
X43176488Y16353927D01*
X43027188Y16383624D01*
X42863216Y16451544D01*
X42715646Y16550147D01*
X42590147Y16675646D01*
X42491544Y16823216D01*
X42423624Y16987188D01*
X42389000Y17161259D01*
X42389000Y17338741D01*
X42423624Y17512812D01*
X42491544Y17676784D01*
X42590147Y17824354D01*
X42715646Y17949853D01*
X42863216Y18048456D01*
X43027188Y18116376D01*
X43176488Y18146073D01*
X43201258Y18151000D01*
X43378742Y18151000D01*
X43403512Y18146073D01*
G37*
G36*
X41651000Y16349000D02*
G01*
X39849000Y16349000D01*
X39849000Y18151000D01*
X41651000Y18151000D01*
X41651000Y16349000D01*
G37*
G36*
X25313512Y18146073D02*
G01*
X25462812Y18116376D01*
X25626784Y18048456D01*
X25774354Y17949853D01*
X25899853Y17824354D01*
X25998456Y17676784D01*
X26066376Y17512812D01*
X26101000Y17338741D01*
X26101000Y17161259D01*
X26066376Y16987188D01*
X25998456Y16823216D01*
X25899853Y16675646D01*
X25774354Y16550147D01*
X25626784Y16451544D01*
X25462812Y16383624D01*
X25313512Y16353927D01*
X25288742Y16349000D01*
X25111258Y16349000D01*
X25086488Y16353927D01*
X24937188Y16383624D01*
X24773216Y16451544D01*
X24625646Y16550147D01*
X24500147Y16675646D01*
X24401544Y16823216D01*
X24333624Y16987188D01*
X24299000Y17161259D01*
X24299000Y17338741D01*
X24333624Y17512812D01*
X24401544Y17676784D01*
X24500147Y17824354D01*
X24625646Y17949853D01*
X24773216Y18048456D01*
X24937188Y18116376D01*
X25086488Y18146073D01*
X25111258Y18151000D01*
X25288742Y18151000D01*
X25313512Y18146073D01*
G37*
G36*
X22773512Y18146073D02*
G01*
X22922812Y18116376D01*
X23086784Y18048456D01*
X23234354Y17949853D01*
X23359853Y17824354D01*
X23458456Y17676784D01*
X23526376Y17512812D01*
X23561000Y17338741D01*
X23561000Y17161259D01*
X23526376Y16987188D01*
X23458456Y16823216D01*
X23359853Y16675646D01*
X23234354Y16550147D01*
X23086784Y16451544D01*
X22922812Y16383624D01*
X22773512Y16353927D01*
X22748742Y16349000D01*
X22571258Y16349000D01*
X22546488Y16353927D01*
X22397188Y16383624D01*
X22233216Y16451544D01*
X22085646Y16550147D01*
X21960147Y16675646D01*
X21861544Y16823216D01*
X21793624Y16987188D01*
X21759000Y17161259D01*
X21759000Y17338741D01*
X21793624Y17512812D01*
X21861544Y17676784D01*
X21960147Y17824354D01*
X22085646Y17949853D01*
X22233216Y18048456D01*
X22397188Y18116376D01*
X22546488Y18146073D01*
X22571258Y18151000D01*
X22748742Y18151000D01*
X22773512Y18146073D01*
G37*
G36*
X20233512Y18146073D02*
G01*
X20382812Y18116376D01*
X20546784Y18048456D01*
X20694354Y17949853D01*
X20819853Y17824354D01*
X20918456Y17676784D01*
X20986376Y17512812D01*
X21021000Y17338741D01*
X21021000Y17161259D01*
X20986376Y16987188D01*
X20918456Y16823216D01*
X20819853Y16675646D01*
X20694354Y16550147D01*
X20546784Y16451544D01*
X20382812Y16383624D01*
X20233512Y16353927D01*
X20208742Y16349000D01*
X20031258Y16349000D01*
X20006488Y16353927D01*
X19857188Y16383624D01*
X19693216Y16451544D01*
X19545646Y16550147D01*
X19420147Y16675646D01*
X19321544Y16823216D01*
X19253624Y16987188D01*
X19219000Y17161259D01*
X19219000Y17338741D01*
X19253624Y17512812D01*
X19321544Y17676784D01*
X19420147Y17824354D01*
X19545646Y17949853D01*
X19693216Y18048456D01*
X19857188Y18116376D01*
X20006488Y18146073D01*
X20031258Y18151000D01*
X20208742Y18151000D01*
X20233512Y18146073D01*
G37*
G36*
X17693512Y18146073D02*
G01*
X17842812Y18116376D01*
X18006784Y18048456D01*
X18154354Y17949853D01*
X18279853Y17824354D01*
X18378456Y17676784D01*
X18446376Y17512812D01*
X18481000Y17338741D01*
X18481000Y17161259D01*
X18446376Y16987188D01*
X18378456Y16823216D01*
X18279853Y16675646D01*
X18154354Y16550147D01*
X18006784Y16451544D01*
X17842812Y16383624D01*
X17693512Y16353927D01*
X17668742Y16349000D01*
X17491258Y16349000D01*
X17466488Y16353927D01*
X17317188Y16383624D01*
X17153216Y16451544D01*
X17005646Y16550147D01*
X16880147Y16675646D01*
X16781544Y16823216D01*
X16713624Y16987188D01*
X16679000Y17161259D01*
X16679000Y17338741D01*
X16713624Y17512812D01*
X16781544Y17676784D01*
X16880147Y17824354D01*
X17005646Y17949853D01*
X17153216Y18048456D01*
X17317188Y18116376D01*
X17466488Y18146073D01*
X17491258Y18151000D01*
X17668742Y18151000D01*
X17693512Y18146073D01*
G37*
G36*
X13401000Y16349000D02*
G01*
X11599000Y16349000D01*
X11599000Y18151000D01*
X13401000Y18151000D01*
X13401000Y16349000D01*
G37*
M02*
