G04 #@! TF.GenerationSoftware,KiCad,Pcbnew,(5.1.5)-3*
G04 #@! TF.CreationDate,2020-03-16T11:49:10-04:00*
G04 #@! TF.ProjectId,Step_Direction_Board,53746570-5f44-4697-9265-6374696f6e5f,rev?*
G04 #@! TF.SameCoordinates,PX7270e00PY78a3ca0*
G04 #@! TF.FileFunction,Legend,Bot*
G04 #@! TF.FilePolarity,Positive*
%FSLAX46Y46*%
G04 Gerber Fmt 4.6, Leading zero omitted, Abs format (unit mm)*
G04 Created by KiCad (PCBNEW (5.1.5)-3) date 2020-03-16 11:49:10*
%MOMM*%
%LPD*%
G04 APERTURE LIST*
%ADD10C,0.120000*%
%ADD11C,0.152400*%
%ADD12C,0.150000*%
G04 APERTURE END LIST*
D10*
X32738748Y13110000D02*
X33261252Y13110000D01*
X32738748Y11690000D02*
X33261252Y11690000D01*
D11*
X36959100Y13128900D02*
X41200900Y13128900D01*
X41200900Y7871100D02*
X36959100Y7871100D01*
D10*
X45788748Y13110000D02*
X46311252Y13110000D01*
X45788748Y11690000D02*
X46311252Y11690000D01*
X19713748Y13110000D02*
X20236252Y13110000D01*
X19713748Y11690000D02*
X20236252Y11690000D01*
X8535000Y13686252D02*
X8535000Y13163748D01*
X7115000Y13686252D02*
X7115000Y13163748D01*
D11*
X49999100Y13128900D02*
X54240900Y13128900D01*
X54240900Y7871100D02*
X49999100Y7871100D01*
X23919100Y13128900D02*
X28160900Y13128900D01*
X28160900Y7871100D02*
X23919100Y7871100D01*
X10879100Y13128900D02*
X15120900Y13128900D01*
X15120900Y7871100D02*
X10879100Y7871100D01*
D12*
X33166666Y14142858D02*
X33214285Y14095239D01*
X33357142Y14047620D01*
X33452380Y14047620D01*
X33595238Y14095239D01*
X33690476Y14190477D01*
X33738095Y14285715D01*
X33785714Y14476191D01*
X33785714Y14619048D01*
X33738095Y14809524D01*
X33690476Y14904762D01*
X33595238Y15000000D01*
X33452380Y15047620D01*
X33357142Y15047620D01*
X33214285Y15000000D01*
X33166666Y14952381D01*
X32785714Y14952381D02*
X32738095Y15000000D01*
X32642857Y15047620D01*
X32404761Y15047620D01*
X32309523Y15000000D01*
X32261904Y14952381D01*
X32214285Y14857143D01*
X32214285Y14761905D01*
X32261904Y14619048D01*
X32833333Y14047620D01*
X32214285Y14047620D01*
X34716904Y10797620D02*
X34716904Y9988096D01*
X34669285Y9892858D01*
X34621666Y9845239D01*
X34526428Y9797620D01*
X34335952Y9797620D01*
X34240714Y9845239D01*
X34193095Y9892858D01*
X34145476Y9988096D01*
X34145476Y10797620D01*
X33716904Y10702381D02*
X33669285Y10750000D01*
X33574047Y10797620D01*
X33335952Y10797620D01*
X33240714Y10750000D01*
X33193095Y10702381D01*
X33145476Y10607143D01*
X33145476Y10511905D01*
X33193095Y10369048D01*
X33764523Y9797620D01*
X33145476Y9797620D01*
X40692900Y13473320D02*
X40692900Y13235224D01*
X40930995Y13330462D02*
X40692900Y13235224D01*
X40454804Y13330462D01*
X40835757Y13044748D02*
X40692900Y13235224D01*
X40550042Y13044748D01*
X40692900Y13473320D02*
X40692900Y13235224D01*
X40930995Y13330462D02*
X40692900Y13235224D01*
X40454804Y13330462D01*
X40835757Y13044748D02*
X40692900Y13235224D01*
X40550042Y13044748D01*
X46216666Y14142858D02*
X46264285Y14095239D01*
X46407142Y14047620D01*
X46502380Y14047620D01*
X46645238Y14095239D01*
X46740476Y14190477D01*
X46788095Y14285715D01*
X46835714Y14476191D01*
X46835714Y14619048D01*
X46788095Y14809524D01*
X46740476Y14904762D01*
X46645238Y15000000D01*
X46502380Y15047620D01*
X46407142Y15047620D01*
X46264285Y15000000D01*
X46216666Y14952381D01*
X45883333Y15047620D02*
X45264285Y15047620D01*
X45597619Y14666667D01*
X45454761Y14666667D01*
X45359523Y14619048D01*
X45311904Y14571429D01*
X45264285Y14476191D01*
X45264285Y14238096D01*
X45311904Y14142858D01*
X45359523Y14095239D01*
X45454761Y14047620D01*
X45740476Y14047620D01*
X45835714Y14095239D01*
X45883333Y14142858D01*
X20141666Y14142858D02*
X20189285Y14095239D01*
X20332142Y14047620D01*
X20427380Y14047620D01*
X20570238Y14095239D01*
X20665476Y14190477D01*
X20713095Y14285715D01*
X20760714Y14476191D01*
X20760714Y14619048D01*
X20713095Y14809524D01*
X20665476Y14904762D01*
X20570238Y15000000D01*
X20427380Y15047620D01*
X20332142Y15047620D01*
X20189285Y15000000D01*
X20141666Y14952381D01*
X19189285Y14047620D02*
X19760714Y14047620D01*
X19475000Y14047620D02*
X19475000Y15047620D01*
X19570238Y14904762D01*
X19665476Y14809524D01*
X19760714Y14761905D01*
X6357142Y14666667D02*
X6404761Y14714286D01*
X6452380Y14857143D01*
X6452380Y14952381D01*
X6404761Y15095239D01*
X6309523Y15190477D01*
X6214285Y15238096D01*
X6023809Y15285715D01*
X5880952Y15285715D01*
X5690476Y15238096D01*
X5595238Y15190477D01*
X5500000Y15095239D01*
X5452380Y14952381D01*
X5452380Y14857143D01*
X5500000Y14714286D01*
X5547619Y14666667D01*
X5452380Y14047620D02*
X5452380Y13952381D01*
X5500000Y13857143D01*
X5547619Y13809524D01*
X5642857Y13761905D01*
X5833333Y13714286D01*
X6071428Y13714286D01*
X6261904Y13761905D01*
X6357142Y13809524D01*
X6404761Y13857143D01*
X6452380Y13952381D01*
X6452380Y14047620D01*
X6404761Y14142858D01*
X6357142Y14190477D01*
X6261904Y14238096D01*
X6071428Y14285715D01*
X5833333Y14285715D01*
X5642857Y14238096D01*
X5547619Y14190477D01*
X5500000Y14142858D01*
X5452380Y14047620D01*
X47756904Y10797620D02*
X47756904Y9988096D01*
X47709285Y9892858D01*
X47661666Y9845239D01*
X47566428Y9797620D01*
X47375952Y9797620D01*
X47280714Y9845239D01*
X47233095Y9892858D01*
X47185476Y9988096D01*
X47185476Y10797620D01*
X46804523Y10797620D02*
X46185476Y10797620D01*
X46518809Y10416667D01*
X46375952Y10416667D01*
X46280714Y10369048D01*
X46233095Y10321429D01*
X46185476Y10226191D01*
X46185476Y9988096D01*
X46233095Y9892858D01*
X46280714Y9845239D01*
X46375952Y9797620D01*
X46661666Y9797620D01*
X46756904Y9845239D01*
X46804523Y9892858D01*
X53732900Y13473320D02*
X53732900Y13235224D01*
X53970995Y13330462D02*
X53732900Y13235224D01*
X53494804Y13330462D01*
X53875757Y13044748D02*
X53732900Y13235224D01*
X53590042Y13044748D01*
X53732900Y13473320D02*
X53732900Y13235224D01*
X53970995Y13330462D02*
X53732900Y13235224D01*
X53494804Y13330462D01*
X53875757Y13044748D02*
X53732900Y13235224D01*
X53590042Y13044748D01*
X21676904Y10797620D02*
X21676904Y9988096D01*
X21629285Y9892858D01*
X21581666Y9845239D01*
X21486428Y9797620D01*
X21295952Y9797620D01*
X21200714Y9845239D01*
X21153095Y9892858D01*
X21105476Y9988096D01*
X21105476Y10797620D01*
X20105476Y9797620D02*
X20676904Y9797620D01*
X20391190Y9797620D02*
X20391190Y10797620D01*
X20486428Y10654762D01*
X20581666Y10559524D01*
X20676904Y10511905D01*
X27652900Y13473320D02*
X27652900Y13235224D01*
X27890995Y13330462D02*
X27652900Y13235224D01*
X27414804Y13330462D01*
X27795757Y13044748D02*
X27652900Y13235224D01*
X27510042Y13044748D01*
X27652900Y13473320D02*
X27652900Y13235224D01*
X27890995Y13330462D02*
X27652900Y13235224D01*
X27414804Y13330462D01*
X27795757Y13044748D02*
X27652900Y13235224D01*
X27510042Y13044748D01*
X8636904Y10797620D02*
X8636904Y9988096D01*
X8589285Y9892858D01*
X8541666Y9845239D01*
X8446428Y9797620D01*
X8255952Y9797620D01*
X8160714Y9845239D01*
X8113095Y9892858D01*
X8065476Y9988096D01*
X8065476Y10797620D01*
X7398809Y10797620D02*
X7303571Y10797620D01*
X7208333Y10750000D01*
X7160714Y10702381D01*
X7113095Y10607143D01*
X7065476Y10416667D01*
X7065476Y10178572D01*
X7113095Y9988096D01*
X7160714Y9892858D01*
X7208333Y9845239D01*
X7303571Y9797620D01*
X7398809Y9797620D01*
X7494047Y9845239D01*
X7541666Y9892858D01*
X7589285Y9988096D01*
X7636904Y10178572D01*
X7636904Y10416667D01*
X7589285Y10607143D01*
X7541666Y10702381D01*
X7494047Y10750000D01*
X7398809Y10797620D01*
X14612900Y13473320D02*
X14612900Y13235224D01*
X14850995Y13330462D02*
X14612900Y13235224D01*
X14374804Y13330462D01*
X14755757Y13044748D02*
X14612900Y13235224D01*
X14470042Y13044748D01*
X14612900Y13473320D02*
X14612900Y13235224D01*
X14850995Y13330462D02*
X14612900Y13235224D01*
X14374804Y13330462D01*
X14755757Y13044748D02*
X14612900Y13235224D01*
X14470042Y13044748D01*
M02*
