G04 #@! TF.GenerationSoftware,KiCad,Pcbnew,(5.1.5)-3*
G04 #@! TF.CreationDate,2020-03-16T11:49:10-04:00*
G04 #@! TF.ProjectId,Step_Direction_Board,53746570-5f44-4697-9265-6374696f6e5f,rev?*
G04 #@! TF.SameCoordinates,PX7270e00PY78a3ca0*
G04 #@! TF.FileFunction,Copper,L1,Top*
G04 #@! TF.FilePolarity,Positive*
%FSLAX46Y46*%
G04 Gerber Fmt 4.6, Leading zero omitted, Abs format (unit mm)*
G04 Created by KiCad (PCBNEW (5.1.5)-3) date 2020-03-16 11:49:10*
%MOMM*%
%LPD*%
G04 APERTURE LIST*
%ADD10O,1.700000X1.700000*%
%ADD11R,1.700000X1.700000*%
%ADD12O,1.800000X3.600000*%
%ADD13C,0.100000*%
%ADD14C,5.700000*%
G04 APERTURE END LIST*
D10*
X25200000Y17250000D03*
X22660000Y17250000D03*
X20120000Y17250000D03*
X17580000Y17250000D03*
X15040000Y17250000D03*
D11*
X12500000Y17250000D03*
D10*
X53450000Y17250000D03*
X50910000Y17250000D03*
X48370000Y17250000D03*
X45830000Y17250000D03*
X43290000Y17250000D03*
D11*
X40750000Y17250000D03*
D12*
X42831055Y4036653D03*
X39021055Y4036653D03*
G04 #@! TA.AperFunction,ComponentPad*
D13*
G36*
X35885559Y5835449D02*
G01*
X35909828Y5831849D01*
X35933626Y5825888D01*
X35956726Y5817623D01*
X35978904Y5807133D01*
X35999948Y5794520D01*
X36019653Y5779906D01*
X36037832Y5763430D01*
X36054308Y5745251D01*
X36068922Y5725546D01*
X36081535Y5704502D01*
X36092025Y5682324D01*
X36100290Y5659224D01*
X36106251Y5635426D01*
X36109851Y5611157D01*
X36111055Y5586653D01*
X36111055Y2486653D01*
X36109851Y2462149D01*
X36106251Y2437880D01*
X36100290Y2414082D01*
X36092025Y2390982D01*
X36081535Y2368804D01*
X36068922Y2347760D01*
X36054308Y2328055D01*
X36037832Y2309876D01*
X36019653Y2293400D01*
X35999948Y2278786D01*
X35978904Y2266173D01*
X35956726Y2255683D01*
X35933626Y2247418D01*
X35909828Y2241457D01*
X35885559Y2237857D01*
X35861055Y2236653D01*
X34561055Y2236653D01*
X34536551Y2237857D01*
X34512282Y2241457D01*
X34488484Y2247418D01*
X34465384Y2255683D01*
X34443206Y2266173D01*
X34422162Y2278786D01*
X34402457Y2293400D01*
X34384278Y2309876D01*
X34367802Y2328055D01*
X34353188Y2347760D01*
X34340575Y2368804D01*
X34330085Y2390982D01*
X34321820Y2414082D01*
X34315859Y2437880D01*
X34312259Y2462149D01*
X34311055Y2486653D01*
X34311055Y5586653D01*
X34312259Y5611157D01*
X34315859Y5635426D01*
X34321820Y5659224D01*
X34330085Y5682324D01*
X34340575Y5704502D01*
X34353188Y5725546D01*
X34367802Y5745251D01*
X34384278Y5763430D01*
X34402457Y5779906D01*
X34422162Y5794520D01*
X34443206Y5807133D01*
X34465384Y5817623D01*
X34488484Y5825888D01*
X34512282Y5831849D01*
X34536551Y5835449D01*
X34561055Y5836653D01*
X35861055Y5836653D01*
X35885559Y5835449D01*
G37*
G04 #@! TD.AperFunction*
D12*
X55871055Y4036653D03*
X52061055Y4036653D03*
G04 #@! TA.AperFunction,ComponentPad*
D13*
G36*
X48925559Y5835449D02*
G01*
X48949828Y5831849D01*
X48973626Y5825888D01*
X48996726Y5817623D01*
X49018904Y5807133D01*
X49039948Y5794520D01*
X49059653Y5779906D01*
X49077832Y5763430D01*
X49094308Y5745251D01*
X49108922Y5725546D01*
X49121535Y5704502D01*
X49132025Y5682324D01*
X49140290Y5659224D01*
X49146251Y5635426D01*
X49149851Y5611157D01*
X49151055Y5586653D01*
X49151055Y2486653D01*
X49149851Y2462149D01*
X49146251Y2437880D01*
X49140290Y2414082D01*
X49132025Y2390982D01*
X49121535Y2368804D01*
X49108922Y2347760D01*
X49094308Y2328055D01*
X49077832Y2309876D01*
X49059653Y2293400D01*
X49039948Y2278786D01*
X49018904Y2266173D01*
X48996726Y2255683D01*
X48973626Y2247418D01*
X48949828Y2241457D01*
X48925559Y2237857D01*
X48901055Y2236653D01*
X47601055Y2236653D01*
X47576551Y2237857D01*
X47552282Y2241457D01*
X47528484Y2247418D01*
X47505384Y2255683D01*
X47483206Y2266173D01*
X47462162Y2278786D01*
X47442457Y2293400D01*
X47424278Y2309876D01*
X47407802Y2328055D01*
X47393188Y2347760D01*
X47380575Y2368804D01*
X47370085Y2390982D01*
X47361820Y2414082D01*
X47355859Y2437880D01*
X47352259Y2462149D01*
X47351055Y2486653D01*
X47351055Y5586653D01*
X47352259Y5611157D01*
X47355859Y5635426D01*
X47361820Y5659224D01*
X47370085Y5682324D01*
X47380575Y5704502D01*
X47393188Y5725546D01*
X47407802Y5745251D01*
X47424278Y5763430D01*
X47442457Y5779906D01*
X47462162Y5794520D01*
X47483206Y5807133D01*
X47505384Y5817623D01*
X47528484Y5825888D01*
X47552282Y5831849D01*
X47576551Y5835449D01*
X47601055Y5836653D01*
X48901055Y5836653D01*
X48925559Y5835449D01*
G37*
G04 #@! TD.AperFunction*
D12*
X29791055Y4036653D03*
X25981055Y4036653D03*
G04 #@! TA.AperFunction,ComponentPad*
D13*
G36*
X22845559Y5835449D02*
G01*
X22869828Y5831849D01*
X22893626Y5825888D01*
X22916726Y5817623D01*
X22938904Y5807133D01*
X22959948Y5794520D01*
X22979653Y5779906D01*
X22997832Y5763430D01*
X23014308Y5745251D01*
X23028922Y5725546D01*
X23041535Y5704502D01*
X23052025Y5682324D01*
X23060290Y5659224D01*
X23066251Y5635426D01*
X23069851Y5611157D01*
X23071055Y5586653D01*
X23071055Y2486653D01*
X23069851Y2462149D01*
X23066251Y2437880D01*
X23060290Y2414082D01*
X23052025Y2390982D01*
X23041535Y2368804D01*
X23028922Y2347760D01*
X23014308Y2328055D01*
X22997832Y2309876D01*
X22979653Y2293400D01*
X22959948Y2278786D01*
X22938904Y2266173D01*
X22916726Y2255683D01*
X22893626Y2247418D01*
X22869828Y2241457D01*
X22845559Y2237857D01*
X22821055Y2236653D01*
X21521055Y2236653D01*
X21496551Y2237857D01*
X21472282Y2241457D01*
X21448484Y2247418D01*
X21425384Y2255683D01*
X21403206Y2266173D01*
X21382162Y2278786D01*
X21362457Y2293400D01*
X21344278Y2309876D01*
X21327802Y2328055D01*
X21313188Y2347760D01*
X21300575Y2368804D01*
X21290085Y2390982D01*
X21281820Y2414082D01*
X21275859Y2437880D01*
X21272259Y2462149D01*
X21271055Y2486653D01*
X21271055Y5586653D01*
X21272259Y5611157D01*
X21275859Y5635426D01*
X21281820Y5659224D01*
X21290085Y5682324D01*
X21300575Y5704502D01*
X21313188Y5725546D01*
X21327802Y5745251D01*
X21344278Y5763430D01*
X21362457Y5779906D01*
X21382162Y5794520D01*
X21403206Y5807133D01*
X21425384Y5817623D01*
X21448484Y5825888D01*
X21472282Y5831849D01*
X21496551Y5835449D01*
X21521055Y5836653D01*
X22821055Y5836653D01*
X22845559Y5835449D01*
G37*
G04 #@! TD.AperFunction*
D12*
X16751055Y4036653D03*
X12941055Y4036653D03*
G04 #@! TA.AperFunction,ComponentPad*
D13*
G36*
X9805559Y5835449D02*
G01*
X9829828Y5831849D01*
X9853626Y5825888D01*
X9876726Y5817623D01*
X9898904Y5807133D01*
X9919948Y5794520D01*
X9939653Y5779906D01*
X9957832Y5763430D01*
X9974308Y5745251D01*
X9988922Y5725546D01*
X10001535Y5704502D01*
X10012025Y5682324D01*
X10020290Y5659224D01*
X10026251Y5635426D01*
X10029851Y5611157D01*
X10031055Y5586653D01*
X10031055Y2486653D01*
X10029851Y2462149D01*
X10026251Y2437880D01*
X10020290Y2414082D01*
X10012025Y2390982D01*
X10001535Y2368804D01*
X9988922Y2347760D01*
X9974308Y2328055D01*
X9957832Y2309876D01*
X9939653Y2293400D01*
X9919948Y2278786D01*
X9898904Y2266173D01*
X9876726Y2255683D01*
X9853626Y2247418D01*
X9829828Y2241457D01*
X9805559Y2237857D01*
X9781055Y2236653D01*
X8481055Y2236653D01*
X8456551Y2237857D01*
X8432282Y2241457D01*
X8408484Y2247418D01*
X8385384Y2255683D01*
X8363206Y2266173D01*
X8342162Y2278786D01*
X8322457Y2293400D01*
X8304278Y2309876D01*
X8287802Y2328055D01*
X8273188Y2347760D01*
X8260575Y2368804D01*
X8250085Y2390982D01*
X8241820Y2414082D01*
X8235859Y2437880D01*
X8232259Y2462149D01*
X8231055Y2486653D01*
X8231055Y5586653D01*
X8232259Y5611157D01*
X8235859Y5635426D01*
X8241820Y5659224D01*
X8250085Y5682324D01*
X8260575Y5704502D01*
X8273188Y5725546D01*
X8287802Y5745251D01*
X8304278Y5763430D01*
X8322457Y5779906D01*
X8342162Y5794520D01*
X8363206Y5807133D01*
X8385384Y5817623D01*
X8408484Y5825888D01*
X8432282Y5831849D01*
X8456551Y5835449D01*
X8481055Y5836653D01*
X9781055Y5836653D01*
X9805559Y5835449D01*
G37*
G04 #@! TD.AperFunction*
D14*
X62000000Y11000000D03*
X3000000Y11000000D03*
M02*
