M48
; DRILL file {KiCad (5.1.5)-3} date 3/16/2020 11:49:12 AM
; FORMAT={-:-/ absolute / inch / decimal}
; #@! TF.CreationDate,2020-03-16T11:49:12-04:00
; #@! TF.GenerationSoftware,Kicad,Pcbnew,(5.1.5)-3
FMAT,2
INCH
T1C0.0394
T2C0.0472
T3C0.1260
%
G90
G05
T1
X1.6043Y0.6791
X1.7043Y0.6791
X1.8043Y0.6791
X1.9043Y0.6791
X2.0043Y0.6791
X2.1043Y0.6791
X0.4921Y0.6791
X0.5921Y0.6791
X0.6921Y0.6791
X0.7921Y0.6791
X0.8921Y0.6791
X0.9921Y0.6791
T2
X1.8996Y0.1589
X2.0496Y0.1589
X2.1996Y0.1589
X0.8729Y0.1589
X1.0229Y0.1589
X1.1729Y0.1589
X0.3595Y0.1589
X0.5095Y0.1589
X0.6595Y0.1589
X1.3863Y0.1589
X1.5363Y0.1589
X1.6863Y0.1589
T3
X0.1181Y0.4331
X2.4409Y0.4331
T0
M30
