G04 #@! TF.GenerationSoftware,KiCad,Pcbnew,(5.1.5)-3*
G04 #@! TF.CreationDate,2020-03-16T11:49:10-04:00*
G04 #@! TF.ProjectId,Step_Direction_Board,53746570-5f44-4697-9265-6374696f6e5f,rev?*
G04 #@! TF.SameCoordinates,PX7270e00PY78a3ca0*
G04 #@! TF.FileFunction,Copper,L2,Bot*
G04 #@! TF.FilePolarity,Positive*
%FSLAX46Y46*%
G04 Gerber Fmt 4.6, Leading zero omitted, Abs format (unit mm)*
G04 Created by KiCad (PCBNEW (5.1.5)-3) date 2020-03-16 11:49:10*
%MOMM*%
%LPD*%
G04 APERTURE LIST*
%ADD10O,1.700000X1.700000*%
%ADD11R,1.700000X1.700000*%
%ADD12C,0.100000*%
%ADD13R,1.981200X0.558800*%
%ADD14O,1.800000X3.600000*%
%ADD15C,5.700000*%
%ADD16C,1.000000*%
%ADD17C,0.700000*%
%ADD18C,0.600000*%
%ADD19C,0.500000*%
G04 APERTURE END LIST*
D10*
X25200000Y17250000D03*
X22660000Y17250000D03*
X20120000Y17250000D03*
X17580000Y17250000D03*
X15040000Y17250000D03*
D11*
X12500000Y17250000D03*
D10*
X53450000Y17250000D03*
X50910000Y17250000D03*
X48370000Y17250000D03*
X45830000Y17250000D03*
X43290000Y17250000D03*
D11*
X40750000Y17250000D03*
G04 #@! TA.AperFunction,SMDPad,CuDef*
D12*
G36*
X34374505Y13098796D02*
G01*
X34398773Y13095196D01*
X34422572Y13089235D01*
X34445671Y13080970D01*
X34467850Y13070480D01*
X34488893Y13057868D01*
X34508599Y13043253D01*
X34526777Y13026777D01*
X34543253Y13008599D01*
X34557868Y12988893D01*
X34570480Y12967850D01*
X34580970Y12945671D01*
X34589235Y12922572D01*
X34595196Y12898773D01*
X34598796Y12874505D01*
X34600000Y12850001D01*
X34600000Y11949999D01*
X34598796Y11925495D01*
X34595196Y11901227D01*
X34589235Y11877428D01*
X34580970Y11854329D01*
X34570480Y11832150D01*
X34557868Y11811107D01*
X34543253Y11791401D01*
X34526777Y11773223D01*
X34508599Y11756747D01*
X34488893Y11742132D01*
X34467850Y11729520D01*
X34445671Y11719030D01*
X34422572Y11710765D01*
X34398773Y11704804D01*
X34374505Y11701204D01*
X34350001Y11700000D01*
X33699999Y11700000D01*
X33675495Y11701204D01*
X33651227Y11704804D01*
X33627428Y11710765D01*
X33604329Y11719030D01*
X33582150Y11729520D01*
X33561107Y11742132D01*
X33541401Y11756747D01*
X33523223Y11773223D01*
X33506747Y11791401D01*
X33492132Y11811107D01*
X33479520Y11832150D01*
X33469030Y11854329D01*
X33460765Y11877428D01*
X33454804Y11901227D01*
X33451204Y11925495D01*
X33450000Y11949999D01*
X33450000Y12850001D01*
X33451204Y12874505D01*
X33454804Y12898773D01*
X33460765Y12922572D01*
X33469030Y12945671D01*
X33479520Y12967850D01*
X33492132Y12988893D01*
X33506747Y13008599D01*
X33523223Y13026777D01*
X33541401Y13043253D01*
X33561107Y13057868D01*
X33582150Y13070480D01*
X33604329Y13080970D01*
X33627428Y13089235D01*
X33651227Y13095196D01*
X33675495Y13098796D01*
X33699999Y13100000D01*
X34350001Y13100000D01*
X34374505Y13098796D01*
G37*
G04 #@! TD.AperFunction*
G04 #@! TA.AperFunction,SMDPad,CuDef*
G36*
X32324505Y13098796D02*
G01*
X32348773Y13095196D01*
X32372572Y13089235D01*
X32395671Y13080970D01*
X32417850Y13070480D01*
X32438893Y13057868D01*
X32458599Y13043253D01*
X32476777Y13026777D01*
X32493253Y13008599D01*
X32507868Y12988893D01*
X32520480Y12967850D01*
X32530970Y12945671D01*
X32539235Y12922572D01*
X32545196Y12898773D01*
X32548796Y12874505D01*
X32550000Y12850001D01*
X32550000Y11949999D01*
X32548796Y11925495D01*
X32545196Y11901227D01*
X32539235Y11877428D01*
X32530970Y11854329D01*
X32520480Y11832150D01*
X32507868Y11811107D01*
X32493253Y11791401D01*
X32476777Y11773223D01*
X32458599Y11756747D01*
X32438893Y11742132D01*
X32417850Y11729520D01*
X32395671Y11719030D01*
X32372572Y11710765D01*
X32348773Y11704804D01*
X32324505Y11701204D01*
X32300001Y11700000D01*
X31649999Y11700000D01*
X31625495Y11701204D01*
X31601227Y11704804D01*
X31577428Y11710765D01*
X31554329Y11719030D01*
X31532150Y11729520D01*
X31511107Y11742132D01*
X31491401Y11756747D01*
X31473223Y11773223D01*
X31456747Y11791401D01*
X31442132Y11811107D01*
X31429520Y11832150D01*
X31419030Y11854329D01*
X31410765Y11877428D01*
X31404804Y11901227D01*
X31401204Y11925495D01*
X31400000Y11949999D01*
X31400000Y12850001D01*
X31401204Y12874505D01*
X31404804Y12898773D01*
X31410765Y12922572D01*
X31419030Y12945671D01*
X31429520Y12967850D01*
X31442132Y12988893D01*
X31456747Y13008599D01*
X31473223Y13026777D01*
X31491401Y13043253D01*
X31511107Y13057868D01*
X31532150Y13070480D01*
X31554329Y13080970D01*
X31577428Y13089235D01*
X31601227Y13095196D01*
X31625495Y13098796D01*
X31649999Y13100000D01*
X32300001Y13100000D01*
X32324505Y13098796D01*
G37*
G04 #@! TD.AperFunction*
D13*
X36616200Y12405000D03*
X36616200Y11135000D03*
X36616200Y9865000D03*
X36616200Y8595000D03*
X41543800Y8595000D03*
X41543800Y9865000D03*
X41543800Y11135000D03*
X41543800Y12405000D03*
G04 #@! TA.AperFunction,SMDPad,CuDef*
D12*
G36*
X47424505Y13098796D02*
G01*
X47448773Y13095196D01*
X47472572Y13089235D01*
X47495671Y13080970D01*
X47517850Y13070480D01*
X47538893Y13057868D01*
X47558599Y13043253D01*
X47576777Y13026777D01*
X47593253Y13008599D01*
X47607868Y12988893D01*
X47620480Y12967850D01*
X47630970Y12945671D01*
X47639235Y12922572D01*
X47645196Y12898773D01*
X47648796Y12874505D01*
X47650000Y12850001D01*
X47650000Y11949999D01*
X47648796Y11925495D01*
X47645196Y11901227D01*
X47639235Y11877428D01*
X47630970Y11854329D01*
X47620480Y11832150D01*
X47607868Y11811107D01*
X47593253Y11791401D01*
X47576777Y11773223D01*
X47558599Y11756747D01*
X47538893Y11742132D01*
X47517850Y11729520D01*
X47495671Y11719030D01*
X47472572Y11710765D01*
X47448773Y11704804D01*
X47424505Y11701204D01*
X47400001Y11700000D01*
X46749999Y11700000D01*
X46725495Y11701204D01*
X46701227Y11704804D01*
X46677428Y11710765D01*
X46654329Y11719030D01*
X46632150Y11729520D01*
X46611107Y11742132D01*
X46591401Y11756747D01*
X46573223Y11773223D01*
X46556747Y11791401D01*
X46542132Y11811107D01*
X46529520Y11832150D01*
X46519030Y11854329D01*
X46510765Y11877428D01*
X46504804Y11901227D01*
X46501204Y11925495D01*
X46500000Y11949999D01*
X46500000Y12850001D01*
X46501204Y12874505D01*
X46504804Y12898773D01*
X46510765Y12922572D01*
X46519030Y12945671D01*
X46529520Y12967850D01*
X46542132Y12988893D01*
X46556747Y13008599D01*
X46573223Y13026777D01*
X46591401Y13043253D01*
X46611107Y13057868D01*
X46632150Y13070480D01*
X46654329Y13080970D01*
X46677428Y13089235D01*
X46701227Y13095196D01*
X46725495Y13098796D01*
X46749999Y13100000D01*
X47400001Y13100000D01*
X47424505Y13098796D01*
G37*
G04 #@! TD.AperFunction*
G04 #@! TA.AperFunction,SMDPad,CuDef*
G36*
X45374505Y13098796D02*
G01*
X45398773Y13095196D01*
X45422572Y13089235D01*
X45445671Y13080970D01*
X45467850Y13070480D01*
X45488893Y13057868D01*
X45508599Y13043253D01*
X45526777Y13026777D01*
X45543253Y13008599D01*
X45557868Y12988893D01*
X45570480Y12967850D01*
X45580970Y12945671D01*
X45589235Y12922572D01*
X45595196Y12898773D01*
X45598796Y12874505D01*
X45600000Y12850001D01*
X45600000Y11949999D01*
X45598796Y11925495D01*
X45595196Y11901227D01*
X45589235Y11877428D01*
X45580970Y11854329D01*
X45570480Y11832150D01*
X45557868Y11811107D01*
X45543253Y11791401D01*
X45526777Y11773223D01*
X45508599Y11756747D01*
X45488893Y11742132D01*
X45467850Y11729520D01*
X45445671Y11719030D01*
X45422572Y11710765D01*
X45398773Y11704804D01*
X45374505Y11701204D01*
X45350001Y11700000D01*
X44699999Y11700000D01*
X44675495Y11701204D01*
X44651227Y11704804D01*
X44627428Y11710765D01*
X44604329Y11719030D01*
X44582150Y11729520D01*
X44561107Y11742132D01*
X44541401Y11756747D01*
X44523223Y11773223D01*
X44506747Y11791401D01*
X44492132Y11811107D01*
X44479520Y11832150D01*
X44469030Y11854329D01*
X44460765Y11877428D01*
X44454804Y11901227D01*
X44451204Y11925495D01*
X44450000Y11949999D01*
X44450000Y12850001D01*
X44451204Y12874505D01*
X44454804Y12898773D01*
X44460765Y12922572D01*
X44469030Y12945671D01*
X44479520Y12967850D01*
X44492132Y12988893D01*
X44506747Y13008599D01*
X44523223Y13026777D01*
X44541401Y13043253D01*
X44561107Y13057868D01*
X44582150Y13070480D01*
X44604329Y13080970D01*
X44627428Y13089235D01*
X44651227Y13095196D01*
X44675495Y13098796D01*
X44699999Y13100000D01*
X45350001Y13100000D01*
X45374505Y13098796D01*
G37*
G04 #@! TD.AperFunction*
G04 #@! TA.AperFunction,SMDPad,CuDef*
G36*
X21349505Y13098796D02*
G01*
X21373773Y13095196D01*
X21397572Y13089235D01*
X21420671Y13080970D01*
X21442850Y13070480D01*
X21463893Y13057868D01*
X21483599Y13043253D01*
X21501777Y13026777D01*
X21518253Y13008599D01*
X21532868Y12988893D01*
X21545480Y12967850D01*
X21555970Y12945671D01*
X21564235Y12922572D01*
X21570196Y12898773D01*
X21573796Y12874505D01*
X21575000Y12850001D01*
X21575000Y11949999D01*
X21573796Y11925495D01*
X21570196Y11901227D01*
X21564235Y11877428D01*
X21555970Y11854329D01*
X21545480Y11832150D01*
X21532868Y11811107D01*
X21518253Y11791401D01*
X21501777Y11773223D01*
X21483599Y11756747D01*
X21463893Y11742132D01*
X21442850Y11729520D01*
X21420671Y11719030D01*
X21397572Y11710765D01*
X21373773Y11704804D01*
X21349505Y11701204D01*
X21325001Y11700000D01*
X20674999Y11700000D01*
X20650495Y11701204D01*
X20626227Y11704804D01*
X20602428Y11710765D01*
X20579329Y11719030D01*
X20557150Y11729520D01*
X20536107Y11742132D01*
X20516401Y11756747D01*
X20498223Y11773223D01*
X20481747Y11791401D01*
X20467132Y11811107D01*
X20454520Y11832150D01*
X20444030Y11854329D01*
X20435765Y11877428D01*
X20429804Y11901227D01*
X20426204Y11925495D01*
X20425000Y11949999D01*
X20425000Y12850001D01*
X20426204Y12874505D01*
X20429804Y12898773D01*
X20435765Y12922572D01*
X20444030Y12945671D01*
X20454520Y12967850D01*
X20467132Y12988893D01*
X20481747Y13008599D01*
X20498223Y13026777D01*
X20516401Y13043253D01*
X20536107Y13057868D01*
X20557150Y13070480D01*
X20579329Y13080970D01*
X20602428Y13089235D01*
X20626227Y13095196D01*
X20650495Y13098796D01*
X20674999Y13100000D01*
X21325001Y13100000D01*
X21349505Y13098796D01*
G37*
G04 #@! TD.AperFunction*
G04 #@! TA.AperFunction,SMDPad,CuDef*
G36*
X19299505Y13098796D02*
G01*
X19323773Y13095196D01*
X19347572Y13089235D01*
X19370671Y13080970D01*
X19392850Y13070480D01*
X19413893Y13057868D01*
X19433599Y13043253D01*
X19451777Y13026777D01*
X19468253Y13008599D01*
X19482868Y12988893D01*
X19495480Y12967850D01*
X19505970Y12945671D01*
X19514235Y12922572D01*
X19520196Y12898773D01*
X19523796Y12874505D01*
X19525000Y12850001D01*
X19525000Y11949999D01*
X19523796Y11925495D01*
X19520196Y11901227D01*
X19514235Y11877428D01*
X19505970Y11854329D01*
X19495480Y11832150D01*
X19482868Y11811107D01*
X19468253Y11791401D01*
X19451777Y11773223D01*
X19433599Y11756747D01*
X19413893Y11742132D01*
X19392850Y11729520D01*
X19370671Y11719030D01*
X19347572Y11710765D01*
X19323773Y11704804D01*
X19299505Y11701204D01*
X19275001Y11700000D01*
X18624999Y11700000D01*
X18600495Y11701204D01*
X18576227Y11704804D01*
X18552428Y11710765D01*
X18529329Y11719030D01*
X18507150Y11729520D01*
X18486107Y11742132D01*
X18466401Y11756747D01*
X18448223Y11773223D01*
X18431747Y11791401D01*
X18417132Y11811107D01*
X18404520Y11832150D01*
X18394030Y11854329D01*
X18385765Y11877428D01*
X18379804Y11901227D01*
X18376204Y11925495D01*
X18375000Y11949999D01*
X18375000Y12850001D01*
X18376204Y12874505D01*
X18379804Y12898773D01*
X18385765Y12922572D01*
X18394030Y12945671D01*
X18404520Y12967850D01*
X18417132Y12988893D01*
X18431747Y13008599D01*
X18448223Y13026777D01*
X18466401Y13043253D01*
X18486107Y13057868D01*
X18507150Y13070480D01*
X18529329Y13080970D01*
X18552428Y13089235D01*
X18576227Y13095196D01*
X18600495Y13098796D01*
X18624999Y13100000D01*
X19275001Y13100000D01*
X19299505Y13098796D01*
G37*
G04 #@! TD.AperFunction*
G04 #@! TA.AperFunction,SMDPad,CuDef*
G36*
X8299505Y12973796D02*
G01*
X8323773Y12970196D01*
X8347572Y12964235D01*
X8370671Y12955970D01*
X8392850Y12945480D01*
X8413893Y12932868D01*
X8433599Y12918253D01*
X8451777Y12901777D01*
X8468253Y12883599D01*
X8482868Y12863893D01*
X8495480Y12842850D01*
X8505970Y12820671D01*
X8514235Y12797572D01*
X8520196Y12773773D01*
X8523796Y12749505D01*
X8525000Y12725001D01*
X8525000Y12074999D01*
X8523796Y12050495D01*
X8520196Y12026227D01*
X8514235Y12002428D01*
X8505970Y11979329D01*
X8495480Y11957150D01*
X8482868Y11936107D01*
X8468253Y11916401D01*
X8451777Y11898223D01*
X8433599Y11881747D01*
X8413893Y11867132D01*
X8392850Y11854520D01*
X8370671Y11844030D01*
X8347572Y11835765D01*
X8323773Y11829804D01*
X8299505Y11826204D01*
X8275001Y11825000D01*
X7374999Y11825000D01*
X7350495Y11826204D01*
X7326227Y11829804D01*
X7302428Y11835765D01*
X7279329Y11844030D01*
X7257150Y11854520D01*
X7236107Y11867132D01*
X7216401Y11881747D01*
X7198223Y11898223D01*
X7181747Y11916401D01*
X7167132Y11936107D01*
X7154520Y11957150D01*
X7144030Y11979329D01*
X7135765Y12002428D01*
X7129804Y12026227D01*
X7126204Y12050495D01*
X7125000Y12074999D01*
X7125000Y12725001D01*
X7126204Y12749505D01*
X7129804Y12773773D01*
X7135765Y12797572D01*
X7144030Y12820671D01*
X7154520Y12842850D01*
X7167132Y12863893D01*
X7181747Y12883599D01*
X7198223Y12901777D01*
X7216401Y12918253D01*
X7236107Y12932868D01*
X7257150Y12945480D01*
X7279329Y12955970D01*
X7302428Y12964235D01*
X7326227Y12970196D01*
X7350495Y12973796D01*
X7374999Y12975000D01*
X8275001Y12975000D01*
X8299505Y12973796D01*
G37*
G04 #@! TD.AperFunction*
G04 #@! TA.AperFunction,SMDPad,CuDef*
G36*
X8299505Y15023796D02*
G01*
X8323773Y15020196D01*
X8347572Y15014235D01*
X8370671Y15005970D01*
X8392850Y14995480D01*
X8413893Y14982868D01*
X8433599Y14968253D01*
X8451777Y14951777D01*
X8468253Y14933599D01*
X8482868Y14913893D01*
X8495480Y14892850D01*
X8505970Y14870671D01*
X8514235Y14847572D01*
X8520196Y14823773D01*
X8523796Y14799505D01*
X8525000Y14775001D01*
X8525000Y14124999D01*
X8523796Y14100495D01*
X8520196Y14076227D01*
X8514235Y14052428D01*
X8505970Y14029329D01*
X8495480Y14007150D01*
X8482868Y13986107D01*
X8468253Y13966401D01*
X8451777Y13948223D01*
X8433599Y13931747D01*
X8413893Y13917132D01*
X8392850Y13904520D01*
X8370671Y13894030D01*
X8347572Y13885765D01*
X8323773Y13879804D01*
X8299505Y13876204D01*
X8275001Y13875000D01*
X7374999Y13875000D01*
X7350495Y13876204D01*
X7326227Y13879804D01*
X7302428Y13885765D01*
X7279329Y13894030D01*
X7257150Y13904520D01*
X7236107Y13917132D01*
X7216401Y13931747D01*
X7198223Y13948223D01*
X7181747Y13966401D01*
X7167132Y13986107D01*
X7154520Y14007150D01*
X7144030Y14029329D01*
X7135765Y14052428D01*
X7129804Y14076227D01*
X7126204Y14100495D01*
X7125000Y14124999D01*
X7125000Y14775001D01*
X7126204Y14799505D01*
X7129804Y14823773D01*
X7135765Y14847572D01*
X7144030Y14870671D01*
X7154520Y14892850D01*
X7167132Y14913893D01*
X7181747Y14933599D01*
X7198223Y14951777D01*
X7216401Y14968253D01*
X7236107Y14982868D01*
X7257150Y14995480D01*
X7279329Y15005970D01*
X7302428Y15014235D01*
X7326227Y15020196D01*
X7350495Y15023796D01*
X7374999Y15025000D01*
X8275001Y15025000D01*
X8299505Y15023796D01*
G37*
G04 #@! TD.AperFunction*
D14*
X42831055Y4036653D03*
X39021055Y4036653D03*
G04 #@! TA.AperFunction,ComponentPad*
D12*
G36*
X35885559Y5835449D02*
G01*
X35909828Y5831849D01*
X35933626Y5825888D01*
X35956726Y5817623D01*
X35978904Y5807133D01*
X35999948Y5794520D01*
X36019653Y5779906D01*
X36037832Y5763430D01*
X36054308Y5745251D01*
X36068922Y5725546D01*
X36081535Y5704502D01*
X36092025Y5682324D01*
X36100290Y5659224D01*
X36106251Y5635426D01*
X36109851Y5611157D01*
X36111055Y5586653D01*
X36111055Y2486653D01*
X36109851Y2462149D01*
X36106251Y2437880D01*
X36100290Y2414082D01*
X36092025Y2390982D01*
X36081535Y2368804D01*
X36068922Y2347760D01*
X36054308Y2328055D01*
X36037832Y2309876D01*
X36019653Y2293400D01*
X35999948Y2278786D01*
X35978904Y2266173D01*
X35956726Y2255683D01*
X35933626Y2247418D01*
X35909828Y2241457D01*
X35885559Y2237857D01*
X35861055Y2236653D01*
X34561055Y2236653D01*
X34536551Y2237857D01*
X34512282Y2241457D01*
X34488484Y2247418D01*
X34465384Y2255683D01*
X34443206Y2266173D01*
X34422162Y2278786D01*
X34402457Y2293400D01*
X34384278Y2309876D01*
X34367802Y2328055D01*
X34353188Y2347760D01*
X34340575Y2368804D01*
X34330085Y2390982D01*
X34321820Y2414082D01*
X34315859Y2437880D01*
X34312259Y2462149D01*
X34311055Y2486653D01*
X34311055Y5586653D01*
X34312259Y5611157D01*
X34315859Y5635426D01*
X34321820Y5659224D01*
X34330085Y5682324D01*
X34340575Y5704502D01*
X34353188Y5725546D01*
X34367802Y5745251D01*
X34384278Y5763430D01*
X34402457Y5779906D01*
X34422162Y5794520D01*
X34443206Y5807133D01*
X34465384Y5817623D01*
X34488484Y5825888D01*
X34512282Y5831849D01*
X34536551Y5835449D01*
X34561055Y5836653D01*
X35861055Y5836653D01*
X35885559Y5835449D01*
G37*
G04 #@! TD.AperFunction*
D14*
X55871055Y4036653D03*
X52061055Y4036653D03*
G04 #@! TA.AperFunction,ComponentPad*
D12*
G36*
X48925559Y5835449D02*
G01*
X48949828Y5831849D01*
X48973626Y5825888D01*
X48996726Y5817623D01*
X49018904Y5807133D01*
X49039948Y5794520D01*
X49059653Y5779906D01*
X49077832Y5763430D01*
X49094308Y5745251D01*
X49108922Y5725546D01*
X49121535Y5704502D01*
X49132025Y5682324D01*
X49140290Y5659224D01*
X49146251Y5635426D01*
X49149851Y5611157D01*
X49151055Y5586653D01*
X49151055Y2486653D01*
X49149851Y2462149D01*
X49146251Y2437880D01*
X49140290Y2414082D01*
X49132025Y2390982D01*
X49121535Y2368804D01*
X49108922Y2347760D01*
X49094308Y2328055D01*
X49077832Y2309876D01*
X49059653Y2293400D01*
X49039948Y2278786D01*
X49018904Y2266173D01*
X48996726Y2255683D01*
X48973626Y2247418D01*
X48949828Y2241457D01*
X48925559Y2237857D01*
X48901055Y2236653D01*
X47601055Y2236653D01*
X47576551Y2237857D01*
X47552282Y2241457D01*
X47528484Y2247418D01*
X47505384Y2255683D01*
X47483206Y2266173D01*
X47462162Y2278786D01*
X47442457Y2293400D01*
X47424278Y2309876D01*
X47407802Y2328055D01*
X47393188Y2347760D01*
X47380575Y2368804D01*
X47370085Y2390982D01*
X47361820Y2414082D01*
X47355859Y2437880D01*
X47352259Y2462149D01*
X47351055Y2486653D01*
X47351055Y5586653D01*
X47352259Y5611157D01*
X47355859Y5635426D01*
X47361820Y5659224D01*
X47370085Y5682324D01*
X47380575Y5704502D01*
X47393188Y5725546D01*
X47407802Y5745251D01*
X47424278Y5763430D01*
X47442457Y5779906D01*
X47462162Y5794520D01*
X47483206Y5807133D01*
X47505384Y5817623D01*
X47528484Y5825888D01*
X47552282Y5831849D01*
X47576551Y5835449D01*
X47601055Y5836653D01*
X48901055Y5836653D01*
X48925559Y5835449D01*
G37*
G04 #@! TD.AperFunction*
D14*
X29791055Y4036653D03*
X25981055Y4036653D03*
G04 #@! TA.AperFunction,ComponentPad*
D12*
G36*
X22845559Y5835449D02*
G01*
X22869828Y5831849D01*
X22893626Y5825888D01*
X22916726Y5817623D01*
X22938904Y5807133D01*
X22959948Y5794520D01*
X22979653Y5779906D01*
X22997832Y5763430D01*
X23014308Y5745251D01*
X23028922Y5725546D01*
X23041535Y5704502D01*
X23052025Y5682324D01*
X23060290Y5659224D01*
X23066251Y5635426D01*
X23069851Y5611157D01*
X23071055Y5586653D01*
X23071055Y2486653D01*
X23069851Y2462149D01*
X23066251Y2437880D01*
X23060290Y2414082D01*
X23052025Y2390982D01*
X23041535Y2368804D01*
X23028922Y2347760D01*
X23014308Y2328055D01*
X22997832Y2309876D01*
X22979653Y2293400D01*
X22959948Y2278786D01*
X22938904Y2266173D01*
X22916726Y2255683D01*
X22893626Y2247418D01*
X22869828Y2241457D01*
X22845559Y2237857D01*
X22821055Y2236653D01*
X21521055Y2236653D01*
X21496551Y2237857D01*
X21472282Y2241457D01*
X21448484Y2247418D01*
X21425384Y2255683D01*
X21403206Y2266173D01*
X21382162Y2278786D01*
X21362457Y2293400D01*
X21344278Y2309876D01*
X21327802Y2328055D01*
X21313188Y2347760D01*
X21300575Y2368804D01*
X21290085Y2390982D01*
X21281820Y2414082D01*
X21275859Y2437880D01*
X21272259Y2462149D01*
X21271055Y2486653D01*
X21271055Y5586653D01*
X21272259Y5611157D01*
X21275859Y5635426D01*
X21281820Y5659224D01*
X21290085Y5682324D01*
X21300575Y5704502D01*
X21313188Y5725546D01*
X21327802Y5745251D01*
X21344278Y5763430D01*
X21362457Y5779906D01*
X21382162Y5794520D01*
X21403206Y5807133D01*
X21425384Y5817623D01*
X21448484Y5825888D01*
X21472282Y5831849D01*
X21496551Y5835449D01*
X21521055Y5836653D01*
X22821055Y5836653D01*
X22845559Y5835449D01*
G37*
G04 #@! TD.AperFunction*
D14*
X16751055Y4036653D03*
X12941055Y4036653D03*
G04 #@! TA.AperFunction,ComponentPad*
D12*
G36*
X9805559Y5835449D02*
G01*
X9829828Y5831849D01*
X9853626Y5825888D01*
X9876726Y5817623D01*
X9898904Y5807133D01*
X9919948Y5794520D01*
X9939653Y5779906D01*
X9957832Y5763430D01*
X9974308Y5745251D01*
X9988922Y5725546D01*
X10001535Y5704502D01*
X10012025Y5682324D01*
X10020290Y5659224D01*
X10026251Y5635426D01*
X10029851Y5611157D01*
X10031055Y5586653D01*
X10031055Y2486653D01*
X10029851Y2462149D01*
X10026251Y2437880D01*
X10020290Y2414082D01*
X10012025Y2390982D01*
X10001535Y2368804D01*
X9988922Y2347760D01*
X9974308Y2328055D01*
X9957832Y2309876D01*
X9939653Y2293400D01*
X9919948Y2278786D01*
X9898904Y2266173D01*
X9876726Y2255683D01*
X9853626Y2247418D01*
X9829828Y2241457D01*
X9805559Y2237857D01*
X9781055Y2236653D01*
X8481055Y2236653D01*
X8456551Y2237857D01*
X8432282Y2241457D01*
X8408484Y2247418D01*
X8385384Y2255683D01*
X8363206Y2266173D01*
X8342162Y2278786D01*
X8322457Y2293400D01*
X8304278Y2309876D01*
X8287802Y2328055D01*
X8273188Y2347760D01*
X8260575Y2368804D01*
X8250085Y2390982D01*
X8241820Y2414082D01*
X8235859Y2437880D01*
X8232259Y2462149D01*
X8231055Y2486653D01*
X8231055Y5586653D01*
X8232259Y5611157D01*
X8235859Y5635426D01*
X8241820Y5659224D01*
X8250085Y5682324D01*
X8260575Y5704502D01*
X8273188Y5725546D01*
X8287802Y5745251D01*
X8304278Y5763430D01*
X8322457Y5779906D01*
X8342162Y5794520D01*
X8363206Y5807133D01*
X8385384Y5817623D01*
X8408484Y5825888D01*
X8432282Y5831849D01*
X8456551Y5835449D01*
X8481055Y5836653D01*
X9781055Y5836653D01*
X9805559Y5835449D01*
G37*
G04 #@! TD.AperFunction*
D13*
X49656200Y12405000D03*
X49656200Y11135000D03*
X49656200Y9865000D03*
X49656200Y8595000D03*
X54583800Y8595000D03*
X54583800Y9865000D03*
X54583800Y11135000D03*
X54583800Y12405000D03*
X23576200Y12405000D03*
X23576200Y11135000D03*
X23576200Y9865000D03*
X23576200Y8595000D03*
X28503800Y8595000D03*
X28503800Y9865000D03*
X28503800Y11135000D03*
X28503800Y12405000D03*
X10536200Y12405000D03*
X10536200Y11135000D03*
X10536200Y9865000D03*
X10536200Y8595000D03*
X15463800Y8595000D03*
X15463800Y9865000D03*
X15463800Y11135000D03*
X15463800Y12405000D03*
D15*
X62000000Y11000000D03*
X3000000Y11000000D03*
D16*
X12951065Y1226643D02*
X12941055Y1236653D01*
X12941055Y1236653D02*
X12941055Y4036653D01*
X25981055Y4036653D02*
X25981055Y1226643D01*
X39021055Y4036653D02*
X39021055Y1226643D01*
D17*
X47005000Y12405000D02*
X47000000Y12400000D01*
D16*
X12931045Y1226643D02*
X12941055Y1236653D01*
X7959139Y1226643D02*
X12931045Y1226643D01*
X7221045Y1964737D02*
X7959139Y1226643D01*
X7221045Y11221045D02*
X7221045Y1964737D01*
X7825000Y11825000D02*
X7221045Y11221045D01*
X7825000Y12400000D02*
X7825000Y11825000D01*
X34025000Y11700000D02*
X34025000Y12400000D01*
X33048357Y10723357D02*
X34025000Y11700000D01*
X33048357Y1226643D02*
X33048357Y10723357D01*
X33048357Y1226643D02*
X21276643Y1226643D01*
X47075000Y11700000D02*
X47075000Y12400000D01*
X46176643Y10801643D02*
X47075000Y11700000D01*
X46176643Y1226643D02*
X46176643Y10801643D01*
X46176643Y1226643D02*
X33048357Y1226643D01*
X21000000Y11700000D02*
X21000000Y12400000D01*
X20076643Y1226643D02*
X20076643Y10776643D01*
X20076643Y1226643D02*
X12951065Y1226643D01*
X20076643Y10776643D02*
X21000000Y11700000D01*
X21276643Y1226643D02*
X20076643Y1226643D01*
X52061055Y1226643D02*
X52061055Y4036653D01*
X46176643Y1226643D02*
X52061055Y1226643D01*
X48370000Y13695000D02*
X47075000Y12400000D01*
X48370000Y17250000D02*
X48370000Y13695000D01*
D18*
X7830000Y12405000D02*
X7825000Y12400000D01*
X10536200Y12405000D02*
X7830000Y12405000D01*
X21005000Y12405000D02*
X21000000Y12400000D01*
X23576200Y12405000D02*
X21005000Y12405000D01*
X34030000Y12405000D02*
X34025000Y12400000D01*
X36616200Y12405000D02*
X34030000Y12405000D01*
X47080000Y12405000D02*
X47075000Y12400000D01*
X49656200Y12405000D02*
X47080000Y12405000D01*
D16*
X20120000Y17250000D02*
X20120000Y19500000D01*
X20120000Y17250000D02*
X20120000Y15500000D01*
X17580000Y17250000D02*
X17580000Y19500000D01*
X17580000Y17250000D02*
X17580000Y15500000D01*
X20120000Y17250000D02*
X17580000Y17250000D01*
X45830000Y17250000D02*
X45830000Y19000000D01*
X45830000Y17250000D02*
X45830000Y15500000D01*
D17*
X23576200Y11135000D02*
X23576200Y9865000D01*
X28503800Y12405000D02*
X28503800Y11135000D01*
X15463800Y11135000D02*
X15463800Y12405000D01*
X10536200Y9865000D02*
X10536200Y11135000D01*
X41543800Y12405000D02*
X41543800Y11135000D01*
X36616200Y11135000D02*
X36616200Y9865000D01*
X13613199Y9704999D02*
X13773200Y9865000D01*
X13773200Y9865000D02*
X15463800Y9865000D01*
X16751055Y4448945D02*
X13613199Y7586801D01*
X13613199Y7586801D02*
X13613199Y9704999D01*
X16751055Y4036653D02*
X16751055Y4448945D01*
X26653199Y7596801D02*
X26653199Y9704999D01*
X26813200Y9865000D02*
X28503800Y9865000D01*
X26653199Y9704999D02*
X26813200Y9865000D01*
X29791055Y4458945D02*
X26653199Y7596801D01*
X29791055Y4036653D02*
X29791055Y4458945D01*
X39853200Y9865000D02*
X41543800Y9865000D01*
X39693199Y9704999D02*
X39853200Y9865000D01*
X39693199Y7627599D02*
X39693199Y9704999D01*
X42831055Y4489743D02*
X39693199Y7627599D01*
X42831055Y4036653D02*
X42831055Y4489743D01*
X52893200Y9865000D02*
X54583800Y9865000D01*
X52716811Y9688611D02*
X52893200Y9865000D01*
X52716811Y7608189D02*
X52716811Y9688611D01*
X55871055Y4036653D02*
X55871055Y4453945D01*
X55871055Y4453945D02*
X52716811Y7608189D01*
X9131055Y7189855D02*
X10536200Y8595000D01*
X9131055Y4036653D02*
X9131055Y7189855D01*
D16*
X22171055Y6969246D02*
X23576200Y8374391D01*
X22171055Y4036653D02*
X22171055Y6969246D01*
X35211055Y6969246D02*
X36616200Y8374391D01*
X35211055Y4036653D02*
X35211055Y6969246D01*
X48251055Y6969246D02*
X49656200Y8374391D01*
X48251055Y4036653D02*
X48251055Y6969246D01*
D17*
X53450000Y13538800D02*
X54583800Y12405000D01*
X53450000Y17250000D02*
X53450000Y13538800D01*
X54583800Y12405000D02*
X54583800Y11135000D01*
X51346800Y11135000D02*
X49656200Y11135000D01*
X51506801Y15451118D02*
X51506801Y11295001D01*
X50910000Y16047919D02*
X51506801Y15451118D01*
X51506801Y11295001D02*
X51346800Y11135000D01*
X50910000Y17250000D02*
X50910000Y16047919D01*
X49656200Y11135000D02*
X49656200Y9865000D01*
X43290000Y14151200D02*
X43290000Y17250000D01*
X41543800Y12405000D02*
X43290000Y14151200D01*
X38306800Y11135000D02*
X36616200Y11135000D01*
X39693199Y14643199D02*
X39693199Y12521399D01*
X40750000Y15700000D02*
X39693199Y14643199D01*
X39693199Y12521399D02*
X38306800Y11135000D01*
X40750000Y17250000D02*
X40750000Y15700000D01*
X28503800Y12405000D02*
X28503800Y14500000D01*
X28503800Y14858281D02*
X28503800Y14500000D01*
X26112081Y17250000D02*
X28503800Y14858281D01*
X24910000Y17250000D02*
X26112081Y17250000D01*
X25500000Y14120000D02*
X22370000Y17250000D01*
X23576200Y11135000D02*
X25500000Y11135000D01*
X25500000Y11135000D02*
X25500000Y14120000D01*
X15463800Y16826200D02*
X15040000Y17250000D01*
X15463800Y12405000D02*
X15463800Y16826200D01*
X12500000Y15700000D02*
X12500000Y17250000D01*
X12500000Y11550798D02*
X12500000Y15700000D01*
X12084202Y11135000D02*
X12500000Y11550798D01*
X10536200Y11135000D02*
X12084202Y11135000D01*
D19*
G36*
X63735260Y20688168D02*
G01*
X63961568Y20619842D01*
X64170288Y20508863D01*
X64353478Y20359456D01*
X64504162Y20177312D01*
X64616592Y19969376D01*
X64686496Y19743553D01*
X64715001Y19472344D01*
X64715001Y13260341D01*
X64434189Y13427118D01*
X62007071Y11000000D01*
X64434189Y8572882D01*
X64715000Y8739659D01*
X64715000Y6538388D01*
X64688168Y6264738D01*
X64619843Y6038435D01*
X64508864Y5829712D01*
X64359458Y5646523D01*
X64177314Y5495841D01*
X63969377Y5383409D01*
X63743552Y5313504D01*
X63472353Y5285000D01*
X59461439Y5285000D01*
X59428305Y5281736D01*
X59425364Y5281757D01*
X59414456Y5280688D01*
X59366691Y5275668D01*
X59346113Y5273641D01*
X59345427Y5273433D01*
X59317407Y5270488D01*
X59247691Y5256178D01*
X59177824Y5242849D01*
X59167331Y5239682D01*
X59074112Y5210826D01*
X59008464Y5183230D01*
X58942551Y5156599D01*
X58932881Y5151458D01*
X58932878Y5151457D01*
X58932876Y5151455D01*
X58932873Y5151454D01*
X58847035Y5105041D01*
X58788022Y5065236D01*
X58728519Y5026298D01*
X58720027Y5019373D01*
X58720023Y5019370D01*
X58720019Y5019366D01*
X58644836Y4957169D01*
X58594684Y4906665D01*
X58543874Y4856909D01*
X58536888Y4848465D01*
X58536882Y4848459D01*
X58536877Y4848452D01*
X58475212Y4772844D01*
X58435836Y4713580D01*
X58395636Y4654868D01*
X58390423Y4645227D01*
X58344611Y4559066D01*
X58317489Y4493263D01*
X58289474Y4427898D01*
X58286232Y4417428D01*
X58258027Y4324010D01*
X58244209Y4254224D01*
X58229414Y4184617D01*
X58228268Y4173717D01*
X58218746Y4076599D01*
X58218746Y4076593D01*
X58215000Y4038560D01*
X58215001Y785000D01*
X53243780Y785000D01*
X53302823Y979640D01*
X53327151Y1226643D01*
X53321055Y1288536D01*
X53321055Y2055294D01*
X53447973Y2209944D01*
X53602116Y2498325D01*
X53697036Y2811236D01*
X53721055Y3055103D01*
X53721055Y5018203D01*
X53719311Y5035913D01*
X54211055Y4544168D01*
X54211055Y3055103D01*
X54235075Y2811236D01*
X54329995Y2498325D01*
X54484138Y2209944D01*
X54691579Y1957176D01*
X54944347Y1749735D01*
X55232728Y1595592D01*
X55545639Y1500672D01*
X55871055Y1468621D01*
X56196472Y1500672D01*
X56509383Y1595592D01*
X56797764Y1749735D01*
X57050532Y1957176D01*
X57257973Y2209944D01*
X57412116Y2498325D01*
X57507036Y2811236D01*
X57531055Y3055103D01*
X57531055Y5018203D01*
X57507036Y5262070D01*
X57412116Y5574981D01*
X57257973Y5863362D01*
X57050532Y6116130D01*
X56797763Y6323571D01*
X56509382Y6477714D01*
X56196471Y6572634D01*
X55871055Y6604685D01*
X55545638Y6572634D01*
X55374160Y6520617D01*
X54339405Y7555372D01*
X54388800Y7555600D01*
X54578800Y7745600D01*
X54578800Y8590000D01*
X54588800Y8590000D01*
X54588800Y7745600D01*
X54778800Y7555600D01*
X55574400Y7551923D01*
X55723386Y7566597D01*
X55866647Y7610054D01*
X55998676Y7680626D01*
X56114401Y7775599D01*
X56209374Y7891324D01*
X56279946Y8023353D01*
X56323403Y8166614D01*
X56338077Y8315600D01*
X56334400Y8400000D01*
X56168589Y8565811D01*
X59572882Y8565811D01*
X59871875Y8062381D01*
X60485867Y7703650D01*
X61158047Y7471596D01*
X61862583Y7375137D01*
X62572399Y7417979D01*
X63260218Y7598476D01*
X63899608Y7909692D01*
X64128125Y8062381D01*
X64427118Y8565811D01*
X62000000Y10992929D01*
X59572882Y8565811D01*
X56168589Y8565811D01*
X56144400Y8590000D01*
X54588800Y8590000D01*
X54578800Y8590000D01*
X54558800Y8590000D01*
X54558800Y8600000D01*
X54578800Y8600000D01*
X54578800Y8620000D01*
X54588800Y8620000D01*
X54588800Y8600000D01*
X56144400Y8600000D01*
X56334400Y8790000D01*
X56338077Y8874400D01*
X56323403Y9023386D01*
X56279946Y9166647D01*
X56246083Y9230000D01*
X56279946Y9293353D01*
X56323403Y9436614D01*
X56338077Y9585600D01*
X56338077Y10144400D01*
X56323403Y10293386D01*
X56279946Y10436647D01*
X56246083Y10500000D01*
X56279946Y10563353D01*
X56323403Y10706614D01*
X56338077Y10855600D01*
X56338077Y11137417D01*
X58375137Y11137417D01*
X58417979Y10427601D01*
X58598476Y9739782D01*
X58909692Y9100392D01*
X59062381Y8871875D01*
X59565811Y8572882D01*
X61992929Y11000000D01*
X59565811Y13427118D01*
X59062381Y13128125D01*
X58703650Y12514133D01*
X58471596Y11841953D01*
X58375137Y11137417D01*
X56338077Y11137417D01*
X56338077Y11414400D01*
X56323403Y11563386D01*
X56279946Y11706647D01*
X56246083Y11770000D01*
X56279946Y11833353D01*
X56323403Y11976614D01*
X56338077Y12125600D01*
X56338077Y12684400D01*
X56323403Y12833386D01*
X56279946Y12976647D01*
X56209374Y13108676D01*
X56114401Y13224401D01*
X55998676Y13319374D01*
X55866647Y13389946D01*
X55723386Y13433403D01*
X55715406Y13434189D01*
X59572882Y13434189D01*
X62000000Y11007071D01*
X64427118Y13434189D01*
X64128125Y13937619D01*
X63514133Y14296350D01*
X62841953Y14528404D01*
X62137417Y14624863D01*
X61427601Y14582021D01*
X60739782Y14401524D01*
X60100392Y14090308D01*
X59871875Y13937619D01*
X59572882Y13434189D01*
X55715406Y13434189D01*
X55574400Y13448077D01*
X55110500Y13448077D01*
X54560000Y13998576D01*
X54560000Y16083116D01*
X54700569Y16223685D01*
X54876763Y16487379D01*
X54998129Y16780380D01*
X55060000Y17091429D01*
X55060000Y17408571D01*
X54998129Y17719620D01*
X54876763Y18012621D01*
X54700569Y18276315D01*
X54476315Y18500569D01*
X54212621Y18676763D01*
X53919620Y18798129D01*
X53608571Y18860000D01*
X53291429Y18860000D01*
X52980380Y18798129D01*
X52687379Y18676763D01*
X52423685Y18500569D01*
X52199431Y18276315D01*
X52180000Y18247234D01*
X52160569Y18276315D01*
X51936315Y18500569D01*
X51672621Y18676763D01*
X51379620Y18798129D01*
X51068571Y18860000D01*
X50751429Y18860000D01*
X50440380Y18798129D01*
X50147379Y18676763D01*
X49883685Y18500569D01*
X49659431Y18276315D01*
X49640000Y18247234D01*
X49620569Y18276315D01*
X49396315Y18500569D01*
X49132621Y18676763D01*
X48839620Y18798129D01*
X48528571Y18860000D01*
X48211429Y18860000D01*
X47900380Y18798129D01*
X47607379Y18676763D01*
X47343685Y18500569D01*
X47119431Y18276315D01*
X47092765Y18236406D01*
X47008859Y18346536D01*
X46772284Y18555450D01*
X46499498Y18714197D01*
X46200983Y18816675D01*
X46086797Y18839388D01*
X45835000Y18669991D01*
X45835000Y17255000D01*
X45855000Y17255000D01*
X45855000Y17245000D01*
X45835000Y17245000D01*
X45835000Y15830009D01*
X46086797Y15660612D01*
X46200983Y15683325D01*
X46499498Y15785803D01*
X46772284Y15944550D01*
X47008859Y16153464D01*
X47092765Y16263594D01*
X47110000Y16237799D01*
X47110001Y14216910D01*
X46756769Y13863677D01*
X46749999Y13863677D01*
X46552241Y13844199D01*
X46362082Y13786516D01*
X46186831Y13692842D01*
X46131223Y13647205D01*
X46024276Y13734974D01*
X45892247Y13805546D01*
X45748986Y13849003D01*
X45600000Y13863677D01*
X45220000Y13860000D01*
X45030000Y13670000D01*
X45030000Y12405000D01*
X45050000Y12405000D01*
X45050000Y12395000D01*
X45030000Y12395000D01*
X45030000Y12375000D01*
X45020000Y12375000D01*
X45020000Y12395000D01*
X43880000Y12395000D01*
X43690000Y12205000D01*
X43686323Y11700000D01*
X43700997Y11551014D01*
X43744454Y11407753D01*
X43815026Y11275724D01*
X43909999Y11159999D01*
X44025724Y11065026D01*
X44157753Y10994454D01*
X44301014Y10950997D01*
X44450000Y10936323D01*
X44830000Y10940000D01*
X44934464Y11044464D01*
X44910548Y10801643D01*
X44916644Y10739750D01*
X44916643Y2486643D01*
X44365872Y2486643D01*
X44372116Y2498325D01*
X44467036Y2811236D01*
X44491055Y3055103D01*
X44491055Y5018203D01*
X44467036Y5262070D01*
X44372116Y5574981D01*
X44217973Y5863362D01*
X44010532Y6116130D01*
X43757763Y6323571D01*
X43469382Y6477714D01*
X43156471Y6572634D01*
X42831055Y6604685D01*
X42505638Y6572634D01*
X42361626Y6528949D01*
X41335038Y7555536D01*
X41348800Y7555600D01*
X41538800Y7745600D01*
X41538800Y8590000D01*
X41548800Y8590000D01*
X41548800Y7745600D01*
X41738800Y7555600D01*
X42534400Y7551923D01*
X42683386Y7566597D01*
X42826647Y7610054D01*
X42958676Y7680626D01*
X43074401Y7775599D01*
X43169374Y7891324D01*
X43239946Y8023353D01*
X43283403Y8166614D01*
X43298077Y8315600D01*
X43294400Y8400000D01*
X43104400Y8590000D01*
X41548800Y8590000D01*
X41538800Y8590000D01*
X41518800Y8590000D01*
X41518800Y8600000D01*
X41538800Y8600000D01*
X41538800Y8620000D01*
X41548800Y8620000D01*
X41548800Y8600000D01*
X43104400Y8600000D01*
X43294400Y8790000D01*
X43298077Y8874400D01*
X43283403Y9023386D01*
X43239946Y9166647D01*
X43206083Y9230000D01*
X43239946Y9293353D01*
X43283403Y9436614D01*
X43298077Y9585600D01*
X43298077Y10144400D01*
X43283403Y10293386D01*
X43239946Y10436647D01*
X43206083Y10500000D01*
X43239946Y10563353D01*
X43283403Y10706614D01*
X43298077Y10855600D01*
X43298077Y11414400D01*
X43283403Y11563386D01*
X43239946Y11706647D01*
X43206083Y11770000D01*
X43239946Y11833353D01*
X43283403Y11976614D01*
X43298077Y12125600D01*
X43298077Y12589500D01*
X43687207Y12978630D01*
X43690000Y12595000D01*
X43880000Y12405000D01*
X45020000Y12405000D01*
X45020000Y13670000D01*
X44830000Y13860000D01*
X44450000Y13863677D01*
X44360039Y13854817D01*
X44383938Y13933602D01*
X44397684Y14073167D01*
X44405370Y14151200D01*
X44400000Y14205721D01*
X44400000Y16083116D01*
X44540569Y16223685D01*
X44567235Y16263594D01*
X44651141Y16153464D01*
X44887716Y15944550D01*
X45160502Y15785803D01*
X45459017Y15683325D01*
X45573203Y15660612D01*
X45825000Y15830009D01*
X45825000Y17245000D01*
X45805000Y17245000D01*
X45805000Y17255000D01*
X45825000Y17255000D01*
X45825000Y18669991D01*
X45573203Y18839388D01*
X45459017Y18816675D01*
X45160502Y18714197D01*
X44887716Y18555450D01*
X44651141Y18346536D01*
X44567235Y18236406D01*
X44540569Y18276315D01*
X44316315Y18500569D01*
X44052621Y18676763D01*
X43759620Y18798129D01*
X43448571Y18860000D01*
X43131429Y18860000D01*
X42820380Y18798129D01*
X42527379Y18676763D01*
X42263685Y18500569D01*
X42253233Y18490117D01*
X42234974Y18524276D01*
X42140001Y18640001D01*
X42024276Y18734974D01*
X41892247Y18805546D01*
X41748986Y18849003D01*
X41600000Y18863677D01*
X39900000Y18863677D01*
X39751014Y18849003D01*
X39607753Y18805546D01*
X39475724Y18734974D01*
X39359999Y18640001D01*
X39265026Y18524276D01*
X39194454Y18392247D01*
X39150997Y18248986D01*
X39136323Y18100000D01*
X39136323Y16400000D01*
X39150997Y16251014D01*
X39194454Y16107753D01*
X39265026Y15975724D01*
X39351085Y15870861D01*
X38946871Y15466647D01*
X38904513Y15431885D01*
X38765803Y15262865D01*
X38689261Y15119666D01*
X38662731Y15070032D01*
X38599261Y14860796D01*
X38577829Y14643199D01*
X38583199Y14588677D01*
X38583200Y12981177D01*
X38362941Y12760917D01*
X38355803Y12833386D01*
X38312346Y12976647D01*
X38241774Y13108676D01*
X38146801Y13224401D01*
X38031076Y13319374D01*
X37899047Y13389946D01*
X37755786Y13433403D01*
X37606800Y13448077D01*
X36829221Y13448077D01*
X36823996Y13449662D01*
X36668266Y13465000D01*
X35150305Y13465000D01*
X35066778Y13566778D01*
X34913169Y13692842D01*
X34737918Y13786516D01*
X34547759Y13844199D01*
X34350001Y13863677D01*
X33699999Y13863677D01*
X33502241Y13844199D01*
X33312082Y13786516D01*
X33136831Y13692842D01*
X33081223Y13647205D01*
X32974276Y13734974D01*
X32842247Y13805546D01*
X32698986Y13849003D01*
X32550000Y13863677D01*
X32170000Y13860000D01*
X31980000Y13670000D01*
X31980000Y12405000D01*
X32000000Y12405000D01*
X32000000Y12395000D01*
X31980000Y12395000D01*
X31980000Y12375000D01*
X31970000Y12375000D01*
X31970000Y12395000D01*
X30830000Y12395000D01*
X30640000Y12205000D01*
X30636323Y11700000D01*
X30650997Y11551014D01*
X30694454Y11407753D01*
X30765026Y11275724D01*
X30859999Y11159999D01*
X30975724Y11065026D01*
X31107753Y10994454D01*
X31251014Y10950997D01*
X31400000Y10936323D01*
X31780000Y10940000D01*
X31806178Y10966178D01*
X31782262Y10723357D01*
X31788358Y10661464D01*
X31788357Y2486643D01*
X31325872Y2486643D01*
X31332116Y2498325D01*
X31427036Y2811236D01*
X31451055Y3055103D01*
X31451055Y5018203D01*
X31427036Y5262070D01*
X31332116Y5574981D01*
X31177973Y5863362D01*
X30970532Y6116130D01*
X30717763Y6323571D01*
X30429382Y6477714D01*
X30116471Y6572634D01*
X29791055Y6604685D01*
X29465638Y6572634D01*
X29297996Y6521781D01*
X28264382Y7555395D01*
X28308800Y7555600D01*
X28498800Y7745600D01*
X28498800Y8590000D01*
X28508800Y8590000D01*
X28508800Y7745600D01*
X28698800Y7555600D01*
X29494400Y7551923D01*
X29643386Y7566597D01*
X29786647Y7610054D01*
X29918676Y7680626D01*
X30034401Y7775599D01*
X30129374Y7891324D01*
X30199946Y8023353D01*
X30243403Y8166614D01*
X30258077Y8315600D01*
X30254400Y8400000D01*
X30064400Y8590000D01*
X28508800Y8590000D01*
X28498800Y8590000D01*
X28478800Y8590000D01*
X28478800Y8600000D01*
X28498800Y8600000D01*
X28498800Y8620000D01*
X28508800Y8620000D01*
X28508800Y8600000D01*
X30064400Y8600000D01*
X30254400Y8790000D01*
X30258077Y8874400D01*
X30243403Y9023386D01*
X30199946Y9166647D01*
X30166083Y9230000D01*
X30199946Y9293353D01*
X30243403Y9436614D01*
X30258077Y9585600D01*
X30258077Y10144400D01*
X30243403Y10293386D01*
X30199946Y10436647D01*
X30166083Y10500000D01*
X30199946Y10563353D01*
X30243403Y10706614D01*
X30258077Y10855600D01*
X30258077Y11414400D01*
X30243403Y11563386D01*
X30199946Y11706647D01*
X30166083Y11770000D01*
X30199946Y11833353D01*
X30243403Y11976614D01*
X30258077Y12125600D01*
X30258077Y12684400D01*
X30243403Y12833386D01*
X30199946Y12976647D01*
X30134012Y13100000D01*
X30636323Y13100000D01*
X30640000Y12595000D01*
X30830000Y12405000D01*
X31970000Y12405000D01*
X31970000Y13670000D01*
X31780000Y13860000D01*
X31400000Y13863677D01*
X31251014Y13849003D01*
X31107753Y13805546D01*
X30975724Y13734974D01*
X30859999Y13640001D01*
X30765026Y13524276D01*
X30694454Y13392247D01*
X30650997Y13248986D01*
X30636323Y13100000D01*
X30134012Y13100000D01*
X30129374Y13108676D01*
X30034401Y13224401D01*
X29918676Y13319374D01*
X29786647Y13389946D01*
X29643386Y13433403D01*
X29613800Y13436317D01*
X29613800Y14803763D01*
X29619170Y14858282D01*
X29611855Y14932549D01*
X29597738Y15075879D01*
X29534268Y15285115D01*
X29431196Y15477947D01*
X29292486Y15646967D01*
X29250133Y15681725D01*
X26935529Y17996328D01*
X26900767Y18038686D01*
X26731747Y18177396D01*
X26538915Y18280468D01*
X26406140Y18320744D01*
X26226315Y18500569D01*
X25962621Y18676763D01*
X25669620Y18798129D01*
X25358571Y18860000D01*
X25041429Y18860000D01*
X24730380Y18798129D01*
X24437379Y18676763D01*
X24173685Y18500569D01*
X23949431Y18276315D01*
X23930000Y18247234D01*
X23910569Y18276315D01*
X23686315Y18500569D01*
X23422621Y18676763D01*
X23129620Y18798129D01*
X22818571Y18860000D01*
X22501429Y18860000D01*
X22190380Y18798129D01*
X21897379Y18676763D01*
X21633685Y18500569D01*
X21409431Y18276315D01*
X21382765Y18236406D01*
X21298859Y18346536D01*
X21062284Y18555450D01*
X20789498Y18714197D01*
X20490983Y18816675D01*
X20376797Y18839388D01*
X20125000Y18669991D01*
X20125000Y17255000D01*
X20145000Y17255000D01*
X20145000Y17245000D01*
X20125000Y17245000D01*
X20125000Y15830009D01*
X20376797Y15660612D01*
X20490983Y15683325D01*
X20789498Y15785803D01*
X21062284Y15944550D01*
X21298859Y16153464D01*
X21382765Y16263594D01*
X21409431Y16223685D01*
X21633685Y15999431D01*
X21897379Y15823237D01*
X22190380Y15701871D01*
X22387577Y15662646D01*
X24390001Y13660222D01*
X24390001Y13448077D01*
X23789221Y13448077D01*
X23783996Y13449662D01*
X23628266Y13465000D01*
X22125305Y13465000D01*
X22041778Y13566778D01*
X21888169Y13692842D01*
X21712918Y13786516D01*
X21522759Y13844199D01*
X21325001Y13863677D01*
X20674999Y13863677D01*
X20477241Y13844199D01*
X20287082Y13786516D01*
X20111831Y13692842D01*
X20056223Y13647205D01*
X19949276Y13734974D01*
X19817247Y13805546D01*
X19673986Y13849003D01*
X19525000Y13863677D01*
X19145000Y13860000D01*
X18955000Y13670000D01*
X18955000Y12405000D01*
X18975000Y12405000D01*
X18975000Y12395000D01*
X18955000Y12395000D01*
X18955000Y12375000D01*
X18945000Y12375000D01*
X18945000Y12395000D01*
X17805000Y12395000D01*
X17615000Y12205000D01*
X17611323Y11700000D01*
X17625997Y11551014D01*
X17669454Y11407753D01*
X17740026Y11275724D01*
X17834999Y11159999D01*
X17950724Y11065026D01*
X18082753Y10994454D01*
X18226014Y10950997D01*
X18375000Y10936323D01*
X18755000Y10940000D01*
X18834464Y11019464D01*
X18810548Y10776643D01*
X18816644Y10714750D01*
X18816643Y2486643D01*
X18285872Y2486643D01*
X18292116Y2498325D01*
X18387036Y2811236D01*
X18411055Y3055103D01*
X18411055Y5018203D01*
X18387036Y5262070D01*
X18292116Y5574981D01*
X18137973Y5863362D01*
X17930532Y6116130D01*
X17677763Y6323571D01*
X17389382Y6477714D01*
X17076471Y6572634D01*
X16751055Y6604685D01*
X16425638Y6572634D01*
X16250324Y6519453D01*
X15214428Y7555349D01*
X15268800Y7555600D01*
X15458800Y7745600D01*
X15458800Y8590000D01*
X15468800Y8590000D01*
X15468800Y7745600D01*
X15658800Y7555600D01*
X16454400Y7551923D01*
X16603386Y7566597D01*
X16746647Y7610054D01*
X16878676Y7680626D01*
X16994401Y7775599D01*
X17089374Y7891324D01*
X17159946Y8023353D01*
X17203403Y8166614D01*
X17218077Y8315600D01*
X17214400Y8400000D01*
X17024400Y8590000D01*
X15468800Y8590000D01*
X15458800Y8590000D01*
X15438800Y8590000D01*
X15438800Y8600000D01*
X15458800Y8600000D01*
X15458800Y8620000D01*
X15468800Y8620000D01*
X15468800Y8600000D01*
X17024400Y8600000D01*
X17214400Y8790000D01*
X17218077Y8874400D01*
X17203403Y9023386D01*
X17159946Y9166647D01*
X17126083Y9230000D01*
X17159946Y9293353D01*
X17203403Y9436614D01*
X17218077Y9585600D01*
X17218077Y10144400D01*
X17203403Y10293386D01*
X17159946Y10436647D01*
X17126083Y10500000D01*
X17159946Y10563353D01*
X17203403Y10706614D01*
X17218077Y10855600D01*
X17218077Y11414400D01*
X17203403Y11563386D01*
X17159946Y11706647D01*
X17126083Y11770000D01*
X17159946Y11833353D01*
X17203403Y11976614D01*
X17218077Y12125600D01*
X17218077Y12684400D01*
X17203403Y12833386D01*
X17159946Y12976647D01*
X17094012Y13100000D01*
X17611323Y13100000D01*
X17615000Y12595000D01*
X17805000Y12405000D01*
X18945000Y12405000D01*
X18945000Y13670000D01*
X18755000Y13860000D01*
X18375000Y13863677D01*
X18226014Y13849003D01*
X18082753Y13805546D01*
X17950724Y13734974D01*
X17834999Y13640001D01*
X17740026Y13524276D01*
X17669454Y13392247D01*
X17625997Y13248986D01*
X17611323Y13100000D01*
X17094012Y13100000D01*
X17089374Y13108676D01*
X16994401Y13224401D01*
X16878676Y13319374D01*
X16746647Y13389946D01*
X16603386Y13433403D01*
X16573800Y13436317D01*
X16573800Y16000993D01*
X16637716Y15944550D01*
X16910502Y15785803D01*
X17209017Y15683325D01*
X17323203Y15660612D01*
X17575000Y15830009D01*
X17575000Y17245000D01*
X17585000Y17245000D01*
X17585000Y15830009D01*
X17836797Y15660612D01*
X17950983Y15683325D01*
X18249498Y15785803D01*
X18522284Y15944550D01*
X18758859Y16153464D01*
X18850000Y16273091D01*
X18941141Y16153464D01*
X19177716Y15944550D01*
X19450502Y15785803D01*
X19749017Y15683325D01*
X19863203Y15660612D01*
X20115000Y15830009D01*
X20115000Y17245000D01*
X17585000Y17245000D01*
X17575000Y17245000D01*
X17555000Y17245000D01*
X17555000Y17255000D01*
X17575000Y17255000D01*
X17575000Y18669991D01*
X17585000Y18669991D01*
X17585000Y17255000D01*
X20115000Y17255000D01*
X20115000Y18669991D01*
X19863203Y18839388D01*
X19749017Y18816675D01*
X19450502Y18714197D01*
X19177716Y18555450D01*
X18941141Y18346536D01*
X18850000Y18226909D01*
X18758859Y18346536D01*
X18522284Y18555450D01*
X18249498Y18714197D01*
X17950983Y18816675D01*
X17836797Y18839388D01*
X17585000Y18669991D01*
X17575000Y18669991D01*
X17323203Y18839388D01*
X17209017Y18816675D01*
X16910502Y18714197D01*
X16637716Y18555450D01*
X16401141Y18346536D01*
X16317235Y18236406D01*
X16290569Y18276315D01*
X16066315Y18500569D01*
X15802621Y18676763D01*
X15509620Y18798129D01*
X15198571Y18860000D01*
X14881429Y18860000D01*
X14570380Y18798129D01*
X14277379Y18676763D01*
X14013685Y18500569D01*
X14003233Y18490117D01*
X13984974Y18524276D01*
X13890001Y18640001D01*
X13774276Y18734974D01*
X13642247Y18805546D01*
X13498986Y18849003D01*
X13350000Y18863677D01*
X11650000Y18863677D01*
X11501014Y18849003D01*
X11357753Y18805546D01*
X11225724Y18734974D01*
X11109999Y18640001D01*
X11015026Y18524276D01*
X10944454Y18392247D01*
X10900997Y18248986D01*
X10886323Y18100000D01*
X10886323Y16400000D01*
X10900997Y16251014D01*
X10944454Y16107753D01*
X11015026Y15975724D01*
X11109999Y15859999D01*
X11225724Y15765026D01*
X11357753Y15694454D01*
X11390000Y15684672D01*
X11390000Y15645480D01*
X11390001Y15645470D01*
X11390000Y13448077D01*
X10749221Y13448077D01*
X10743996Y13449662D01*
X10588266Y13465000D01*
X9167605Y13465000D01*
X9230546Y13582753D01*
X9274003Y13726014D01*
X9288677Y13875000D01*
X9285000Y14255000D01*
X9095000Y14445000D01*
X7830000Y14445000D01*
X7830000Y14425000D01*
X7820000Y14425000D01*
X7820000Y14445000D01*
X6555000Y14445000D01*
X6365000Y14255000D01*
X6361323Y13875000D01*
X6375997Y13726014D01*
X6419454Y13582753D01*
X6490026Y13450724D01*
X6577795Y13343777D01*
X6532158Y13288169D01*
X6438484Y13112918D01*
X6380801Y12922759D01*
X6361323Y12725001D01*
X6361323Y12342811D01*
X6090308Y12899608D01*
X5937619Y13128125D01*
X5434189Y13427118D01*
X3007071Y11000000D01*
X5434189Y8572882D01*
X5937619Y8871875D01*
X5961045Y8911971D01*
X5961046Y5196319D01*
X5927898Y5210526D01*
X5917428Y5213768D01*
X5824010Y5241973D01*
X5754224Y5255791D01*
X5684617Y5270586D01*
X5673717Y5271732D01*
X5576599Y5281254D01*
X5576594Y5281254D01*
X5538561Y5285000D01*
X1538388Y5285000D01*
X1264738Y5311832D01*
X1038435Y5380157D01*
X829712Y5491136D01*
X646523Y5640542D01*
X495841Y5822686D01*
X383409Y6030623D01*
X313504Y6256448D01*
X285000Y6527647D01*
X285000Y8565811D01*
X572882Y8565811D01*
X871875Y8062381D01*
X1485867Y7703650D01*
X2158047Y7471596D01*
X2862583Y7375137D01*
X3572399Y7417979D01*
X4260218Y7598476D01*
X4899608Y7909692D01*
X5128125Y8062381D01*
X5427118Y8565811D01*
X3000000Y10992929D01*
X572882Y8565811D01*
X285000Y8565811D01*
X285000Y8739659D01*
X565811Y8572882D01*
X2992929Y11000000D01*
X565811Y13427118D01*
X285000Y13260341D01*
X285000Y13434189D01*
X572882Y13434189D01*
X3000000Y11007071D01*
X5427118Y13434189D01*
X5128125Y13937619D01*
X4514133Y14296350D01*
X3841953Y14528404D01*
X3137417Y14624863D01*
X2427601Y14582021D01*
X1739782Y14401524D01*
X1100392Y14090308D01*
X871875Y13937619D01*
X572882Y13434189D01*
X285000Y13434189D01*
X285000Y15025000D01*
X6361323Y15025000D01*
X6365000Y14645000D01*
X6555000Y14455000D01*
X7820000Y14455000D01*
X7820000Y15595000D01*
X7830000Y15595000D01*
X7830000Y14455000D01*
X9095000Y14455000D01*
X9285000Y14645000D01*
X9288677Y15025000D01*
X9274003Y15173986D01*
X9230546Y15317247D01*
X9159974Y15449276D01*
X9065001Y15565001D01*
X8949276Y15659974D01*
X8817247Y15730546D01*
X8673986Y15774003D01*
X8525000Y15788677D01*
X8020000Y15785000D01*
X7830000Y15595000D01*
X7820000Y15595000D01*
X7630000Y15785000D01*
X7125000Y15788677D01*
X6976014Y15774003D01*
X6832753Y15730546D01*
X6700724Y15659974D01*
X6584999Y15565001D01*
X6490026Y15449276D01*
X6419454Y15317247D01*
X6375997Y15173986D01*
X6361323Y15025000D01*
X285000Y15025000D01*
X285000Y19461612D01*
X311832Y19735260D01*
X380158Y19961568D01*
X491137Y20170288D01*
X640544Y20353478D01*
X822688Y20504162D01*
X1030624Y20616592D01*
X1256447Y20686496D01*
X1527647Y20715000D01*
X63461612Y20715000D01*
X63735260Y20688168D01*
G37*
X63735260Y20688168D02*
X63961568Y20619842D01*
X64170288Y20508863D01*
X64353478Y20359456D01*
X64504162Y20177312D01*
X64616592Y19969376D01*
X64686496Y19743553D01*
X64715001Y19472344D01*
X64715001Y13260341D01*
X64434189Y13427118D01*
X62007071Y11000000D01*
X64434189Y8572882D01*
X64715000Y8739659D01*
X64715000Y6538388D01*
X64688168Y6264738D01*
X64619843Y6038435D01*
X64508864Y5829712D01*
X64359458Y5646523D01*
X64177314Y5495841D01*
X63969377Y5383409D01*
X63743552Y5313504D01*
X63472353Y5285000D01*
X59461439Y5285000D01*
X59428305Y5281736D01*
X59425364Y5281757D01*
X59414456Y5280688D01*
X59366691Y5275668D01*
X59346113Y5273641D01*
X59345427Y5273433D01*
X59317407Y5270488D01*
X59247691Y5256178D01*
X59177824Y5242849D01*
X59167331Y5239682D01*
X59074112Y5210826D01*
X59008464Y5183230D01*
X58942551Y5156599D01*
X58932881Y5151458D01*
X58932878Y5151457D01*
X58932876Y5151455D01*
X58932873Y5151454D01*
X58847035Y5105041D01*
X58788022Y5065236D01*
X58728519Y5026298D01*
X58720027Y5019373D01*
X58720023Y5019370D01*
X58720019Y5019366D01*
X58644836Y4957169D01*
X58594684Y4906665D01*
X58543874Y4856909D01*
X58536888Y4848465D01*
X58536882Y4848459D01*
X58536877Y4848452D01*
X58475212Y4772844D01*
X58435836Y4713580D01*
X58395636Y4654868D01*
X58390423Y4645227D01*
X58344611Y4559066D01*
X58317489Y4493263D01*
X58289474Y4427898D01*
X58286232Y4417428D01*
X58258027Y4324010D01*
X58244209Y4254224D01*
X58229414Y4184617D01*
X58228268Y4173717D01*
X58218746Y4076599D01*
X58218746Y4076593D01*
X58215000Y4038560D01*
X58215001Y785000D01*
X53243780Y785000D01*
X53302823Y979640D01*
X53327151Y1226643D01*
X53321055Y1288536D01*
X53321055Y2055294D01*
X53447973Y2209944D01*
X53602116Y2498325D01*
X53697036Y2811236D01*
X53721055Y3055103D01*
X53721055Y5018203D01*
X53719311Y5035913D01*
X54211055Y4544168D01*
X54211055Y3055103D01*
X54235075Y2811236D01*
X54329995Y2498325D01*
X54484138Y2209944D01*
X54691579Y1957176D01*
X54944347Y1749735D01*
X55232728Y1595592D01*
X55545639Y1500672D01*
X55871055Y1468621D01*
X56196472Y1500672D01*
X56509383Y1595592D01*
X56797764Y1749735D01*
X57050532Y1957176D01*
X57257973Y2209944D01*
X57412116Y2498325D01*
X57507036Y2811236D01*
X57531055Y3055103D01*
X57531055Y5018203D01*
X57507036Y5262070D01*
X57412116Y5574981D01*
X57257973Y5863362D01*
X57050532Y6116130D01*
X56797763Y6323571D01*
X56509382Y6477714D01*
X56196471Y6572634D01*
X55871055Y6604685D01*
X55545638Y6572634D01*
X55374160Y6520617D01*
X54339405Y7555372D01*
X54388800Y7555600D01*
X54578800Y7745600D01*
X54578800Y8590000D01*
X54588800Y8590000D01*
X54588800Y7745600D01*
X54778800Y7555600D01*
X55574400Y7551923D01*
X55723386Y7566597D01*
X55866647Y7610054D01*
X55998676Y7680626D01*
X56114401Y7775599D01*
X56209374Y7891324D01*
X56279946Y8023353D01*
X56323403Y8166614D01*
X56338077Y8315600D01*
X56334400Y8400000D01*
X56168589Y8565811D01*
X59572882Y8565811D01*
X59871875Y8062381D01*
X60485867Y7703650D01*
X61158047Y7471596D01*
X61862583Y7375137D01*
X62572399Y7417979D01*
X63260218Y7598476D01*
X63899608Y7909692D01*
X64128125Y8062381D01*
X64427118Y8565811D01*
X62000000Y10992929D01*
X59572882Y8565811D01*
X56168589Y8565811D01*
X56144400Y8590000D01*
X54588800Y8590000D01*
X54578800Y8590000D01*
X54558800Y8590000D01*
X54558800Y8600000D01*
X54578800Y8600000D01*
X54578800Y8620000D01*
X54588800Y8620000D01*
X54588800Y8600000D01*
X56144400Y8600000D01*
X56334400Y8790000D01*
X56338077Y8874400D01*
X56323403Y9023386D01*
X56279946Y9166647D01*
X56246083Y9230000D01*
X56279946Y9293353D01*
X56323403Y9436614D01*
X56338077Y9585600D01*
X56338077Y10144400D01*
X56323403Y10293386D01*
X56279946Y10436647D01*
X56246083Y10500000D01*
X56279946Y10563353D01*
X56323403Y10706614D01*
X56338077Y10855600D01*
X56338077Y11137417D01*
X58375137Y11137417D01*
X58417979Y10427601D01*
X58598476Y9739782D01*
X58909692Y9100392D01*
X59062381Y8871875D01*
X59565811Y8572882D01*
X61992929Y11000000D01*
X59565811Y13427118D01*
X59062381Y13128125D01*
X58703650Y12514133D01*
X58471596Y11841953D01*
X58375137Y11137417D01*
X56338077Y11137417D01*
X56338077Y11414400D01*
X56323403Y11563386D01*
X56279946Y11706647D01*
X56246083Y11770000D01*
X56279946Y11833353D01*
X56323403Y11976614D01*
X56338077Y12125600D01*
X56338077Y12684400D01*
X56323403Y12833386D01*
X56279946Y12976647D01*
X56209374Y13108676D01*
X56114401Y13224401D01*
X55998676Y13319374D01*
X55866647Y13389946D01*
X55723386Y13433403D01*
X55715406Y13434189D01*
X59572882Y13434189D01*
X62000000Y11007071D01*
X64427118Y13434189D01*
X64128125Y13937619D01*
X63514133Y14296350D01*
X62841953Y14528404D01*
X62137417Y14624863D01*
X61427601Y14582021D01*
X60739782Y14401524D01*
X60100392Y14090308D01*
X59871875Y13937619D01*
X59572882Y13434189D01*
X55715406Y13434189D01*
X55574400Y13448077D01*
X55110500Y13448077D01*
X54560000Y13998576D01*
X54560000Y16083116D01*
X54700569Y16223685D01*
X54876763Y16487379D01*
X54998129Y16780380D01*
X55060000Y17091429D01*
X55060000Y17408571D01*
X54998129Y17719620D01*
X54876763Y18012621D01*
X54700569Y18276315D01*
X54476315Y18500569D01*
X54212621Y18676763D01*
X53919620Y18798129D01*
X53608571Y18860000D01*
X53291429Y18860000D01*
X52980380Y18798129D01*
X52687379Y18676763D01*
X52423685Y18500569D01*
X52199431Y18276315D01*
X52180000Y18247234D01*
X52160569Y18276315D01*
X51936315Y18500569D01*
X51672621Y18676763D01*
X51379620Y18798129D01*
X51068571Y18860000D01*
X50751429Y18860000D01*
X50440380Y18798129D01*
X50147379Y18676763D01*
X49883685Y18500569D01*
X49659431Y18276315D01*
X49640000Y18247234D01*
X49620569Y18276315D01*
X49396315Y18500569D01*
X49132621Y18676763D01*
X48839620Y18798129D01*
X48528571Y18860000D01*
X48211429Y18860000D01*
X47900380Y18798129D01*
X47607379Y18676763D01*
X47343685Y18500569D01*
X47119431Y18276315D01*
X47092765Y18236406D01*
X47008859Y18346536D01*
X46772284Y18555450D01*
X46499498Y18714197D01*
X46200983Y18816675D01*
X46086797Y18839388D01*
X45835000Y18669991D01*
X45835000Y17255000D01*
X45855000Y17255000D01*
X45855000Y17245000D01*
X45835000Y17245000D01*
X45835000Y15830009D01*
X46086797Y15660612D01*
X46200983Y15683325D01*
X46499498Y15785803D01*
X46772284Y15944550D01*
X47008859Y16153464D01*
X47092765Y16263594D01*
X47110000Y16237799D01*
X47110001Y14216910D01*
X46756769Y13863677D01*
X46749999Y13863677D01*
X46552241Y13844199D01*
X46362082Y13786516D01*
X46186831Y13692842D01*
X46131223Y13647205D01*
X46024276Y13734974D01*
X45892247Y13805546D01*
X45748986Y13849003D01*
X45600000Y13863677D01*
X45220000Y13860000D01*
X45030000Y13670000D01*
X45030000Y12405000D01*
X45050000Y12405000D01*
X45050000Y12395000D01*
X45030000Y12395000D01*
X45030000Y12375000D01*
X45020000Y12375000D01*
X45020000Y12395000D01*
X43880000Y12395000D01*
X43690000Y12205000D01*
X43686323Y11700000D01*
X43700997Y11551014D01*
X43744454Y11407753D01*
X43815026Y11275724D01*
X43909999Y11159999D01*
X44025724Y11065026D01*
X44157753Y10994454D01*
X44301014Y10950997D01*
X44450000Y10936323D01*
X44830000Y10940000D01*
X44934464Y11044464D01*
X44910548Y10801643D01*
X44916644Y10739750D01*
X44916643Y2486643D01*
X44365872Y2486643D01*
X44372116Y2498325D01*
X44467036Y2811236D01*
X44491055Y3055103D01*
X44491055Y5018203D01*
X44467036Y5262070D01*
X44372116Y5574981D01*
X44217973Y5863362D01*
X44010532Y6116130D01*
X43757763Y6323571D01*
X43469382Y6477714D01*
X43156471Y6572634D01*
X42831055Y6604685D01*
X42505638Y6572634D01*
X42361626Y6528949D01*
X41335038Y7555536D01*
X41348800Y7555600D01*
X41538800Y7745600D01*
X41538800Y8590000D01*
X41548800Y8590000D01*
X41548800Y7745600D01*
X41738800Y7555600D01*
X42534400Y7551923D01*
X42683386Y7566597D01*
X42826647Y7610054D01*
X42958676Y7680626D01*
X43074401Y7775599D01*
X43169374Y7891324D01*
X43239946Y8023353D01*
X43283403Y8166614D01*
X43298077Y8315600D01*
X43294400Y8400000D01*
X43104400Y8590000D01*
X41548800Y8590000D01*
X41538800Y8590000D01*
X41518800Y8590000D01*
X41518800Y8600000D01*
X41538800Y8600000D01*
X41538800Y8620000D01*
X41548800Y8620000D01*
X41548800Y8600000D01*
X43104400Y8600000D01*
X43294400Y8790000D01*
X43298077Y8874400D01*
X43283403Y9023386D01*
X43239946Y9166647D01*
X43206083Y9230000D01*
X43239946Y9293353D01*
X43283403Y9436614D01*
X43298077Y9585600D01*
X43298077Y10144400D01*
X43283403Y10293386D01*
X43239946Y10436647D01*
X43206083Y10500000D01*
X43239946Y10563353D01*
X43283403Y10706614D01*
X43298077Y10855600D01*
X43298077Y11414400D01*
X43283403Y11563386D01*
X43239946Y11706647D01*
X43206083Y11770000D01*
X43239946Y11833353D01*
X43283403Y11976614D01*
X43298077Y12125600D01*
X43298077Y12589500D01*
X43687207Y12978630D01*
X43690000Y12595000D01*
X43880000Y12405000D01*
X45020000Y12405000D01*
X45020000Y13670000D01*
X44830000Y13860000D01*
X44450000Y13863677D01*
X44360039Y13854817D01*
X44383938Y13933602D01*
X44397684Y14073167D01*
X44405370Y14151200D01*
X44400000Y14205721D01*
X44400000Y16083116D01*
X44540569Y16223685D01*
X44567235Y16263594D01*
X44651141Y16153464D01*
X44887716Y15944550D01*
X45160502Y15785803D01*
X45459017Y15683325D01*
X45573203Y15660612D01*
X45825000Y15830009D01*
X45825000Y17245000D01*
X45805000Y17245000D01*
X45805000Y17255000D01*
X45825000Y17255000D01*
X45825000Y18669991D01*
X45573203Y18839388D01*
X45459017Y18816675D01*
X45160502Y18714197D01*
X44887716Y18555450D01*
X44651141Y18346536D01*
X44567235Y18236406D01*
X44540569Y18276315D01*
X44316315Y18500569D01*
X44052621Y18676763D01*
X43759620Y18798129D01*
X43448571Y18860000D01*
X43131429Y18860000D01*
X42820380Y18798129D01*
X42527379Y18676763D01*
X42263685Y18500569D01*
X42253233Y18490117D01*
X42234974Y18524276D01*
X42140001Y18640001D01*
X42024276Y18734974D01*
X41892247Y18805546D01*
X41748986Y18849003D01*
X41600000Y18863677D01*
X39900000Y18863677D01*
X39751014Y18849003D01*
X39607753Y18805546D01*
X39475724Y18734974D01*
X39359999Y18640001D01*
X39265026Y18524276D01*
X39194454Y18392247D01*
X39150997Y18248986D01*
X39136323Y18100000D01*
X39136323Y16400000D01*
X39150997Y16251014D01*
X39194454Y16107753D01*
X39265026Y15975724D01*
X39351085Y15870861D01*
X38946871Y15466647D01*
X38904513Y15431885D01*
X38765803Y15262865D01*
X38689261Y15119666D01*
X38662731Y15070032D01*
X38599261Y14860796D01*
X38577829Y14643199D01*
X38583199Y14588677D01*
X38583200Y12981177D01*
X38362941Y12760917D01*
X38355803Y12833386D01*
X38312346Y12976647D01*
X38241774Y13108676D01*
X38146801Y13224401D01*
X38031076Y13319374D01*
X37899047Y13389946D01*
X37755786Y13433403D01*
X37606800Y13448077D01*
X36829221Y13448077D01*
X36823996Y13449662D01*
X36668266Y13465000D01*
X35150305Y13465000D01*
X35066778Y13566778D01*
X34913169Y13692842D01*
X34737918Y13786516D01*
X34547759Y13844199D01*
X34350001Y13863677D01*
X33699999Y13863677D01*
X33502241Y13844199D01*
X33312082Y13786516D01*
X33136831Y13692842D01*
X33081223Y13647205D01*
X32974276Y13734974D01*
X32842247Y13805546D01*
X32698986Y13849003D01*
X32550000Y13863677D01*
X32170000Y13860000D01*
X31980000Y13670000D01*
X31980000Y12405000D01*
X32000000Y12405000D01*
X32000000Y12395000D01*
X31980000Y12395000D01*
X31980000Y12375000D01*
X31970000Y12375000D01*
X31970000Y12395000D01*
X30830000Y12395000D01*
X30640000Y12205000D01*
X30636323Y11700000D01*
X30650997Y11551014D01*
X30694454Y11407753D01*
X30765026Y11275724D01*
X30859999Y11159999D01*
X30975724Y11065026D01*
X31107753Y10994454D01*
X31251014Y10950997D01*
X31400000Y10936323D01*
X31780000Y10940000D01*
X31806178Y10966178D01*
X31782262Y10723357D01*
X31788358Y10661464D01*
X31788357Y2486643D01*
X31325872Y2486643D01*
X31332116Y2498325D01*
X31427036Y2811236D01*
X31451055Y3055103D01*
X31451055Y5018203D01*
X31427036Y5262070D01*
X31332116Y5574981D01*
X31177973Y5863362D01*
X30970532Y6116130D01*
X30717763Y6323571D01*
X30429382Y6477714D01*
X30116471Y6572634D01*
X29791055Y6604685D01*
X29465638Y6572634D01*
X29297996Y6521781D01*
X28264382Y7555395D01*
X28308800Y7555600D01*
X28498800Y7745600D01*
X28498800Y8590000D01*
X28508800Y8590000D01*
X28508800Y7745600D01*
X28698800Y7555600D01*
X29494400Y7551923D01*
X29643386Y7566597D01*
X29786647Y7610054D01*
X29918676Y7680626D01*
X30034401Y7775599D01*
X30129374Y7891324D01*
X30199946Y8023353D01*
X30243403Y8166614D01*
X30258077Y8315600D01*
X30254400Y8400000D01*
X30064400Y8590000D01*
X28508800Y8590000D01*
X28498800Y8590000D01*
X28478800Y8590000D01*
X28478800Y8600000D01*
X28498800Y8600000D01*
X28498800Y8620000D01*
X28508800Y8620000D01*
X28508800Y8600000D01*
X30064400Y8600000D01*
X30254400Y8790000D01*
X30258077Y8874400D01*
X30243403Y9023386D01*
X30199946Y9166647D01*
X30166083Y9230000D01*
X30199946Y9293353D01*
X30243403Y9436614D01*
X30258077Y9585600D01*
X30258077Y10144400D01*
X30243403Y10293386D01*
X30199946Y10436647D01*
X30166083Y10500000D01*
X30199946Y10563353D01*
X30243403Y10706614D01*
X30258077Y10855600D01*
X30258077Y11414400D01*
X30243403Y11563386D01*
X30199946Y11706647D01*
X30166083Y11770000D01*
X30199946Y11833353D01*
X30243403Y11976614D01*
X30258077Y12125600D01*
X30258077Y12684400D01*
X30243403Y12833386D01*
X30199946Y12976647D01*
X30134012Y13100000D01*
X30636323Y13100000D01*
X30640000Y12595000D01*
X30830000Y12405000D01*
X31970000Y12405000D01*
X31970000Y13670000D01*
X31780000Y13860000D01*
X31400000Y13863677D01*
X31251014Y13849003D01*
X31107753Y13805546D01*
X30975724Y13734974D01*
X30859999Y13640001D01*
X30765026Y13524276D01*
X30694454Y13392247D01*
X30650997Y13248986D01*
X30636323Y13100000D01*
X30134012Y13100000D01*
X30129374Y13108676D01*
X30034401Y13224401D01*
X29918676Y13319374D01*
X29786647Y13389946D01*
X29643386Y13433403D01*
X29613800Y13436317D01*
X29613800Y14803763D01*
X29619170Y14858282D01*
X29611855Y14932549D01*
X29597738Y15075879D01*
X29534268Y15285115D01*
X29431196Y15477947D01*
X29292486Y15646967D01*
X29250133Y15681725D01*
X26935529Y17996328D01*
X26900767Y18038686D01*
X26731747Y18177396D01*
X26538915Y18280468D01*
X26406140Y18320744D01*
X26226315Y18500569D01*
X25962621Y18676763D01*
X25669620Y18798129D01*
X25358571Y18860000D01*
X25041429Y18860000D01*
X24730380Y18798129D01*
X24437379Y18676763D01*
X24173685Y18500569D01*
X23949431Y18276315D01*
X23930000Y18247234D01*
X23910569Y18276315D01*
X23686315Y18500569D01*
X23422621Y18676763D01*
X23129620Y18798129D01*
X22818571Y18860000D01*
X22501429Y18860000D01*
X22190380Y18798129D01*
X21897379Y18676763D01*
X21633685Y18500569D01*
X21409431Y18276315D01*
X21382765Y18236406D01*
X21298859Y18346536D01*
X21062284Y18555450D01*
X20789498Y18714197D01*
X20490983Y18816675D01*
X20376797Y18839388D01*
X20125000Y18669991D01*
X20125000Y17255000D01*
X20145000Y17255000D01*
X20145000Y17245000D01*
X20125000Y17245000D01*
X20125000Y15830009D01*
X20376797Y15660612D01*
X20490983Y15683325D01*
X20789498Y15785803D01*
X21062284Y15944550D01*
X21298859Y16153464D01*
X21382765Y16263594D01*
X21409431Y16223685D01*
X21633685Y15999431D01*
X21897379Y15823237D01*
X22190380Y15701871D01*
X22387577Y15662646D01*
X24390001Y13660222D01*
X24390001Y13448077D01*
X23789221Y13448077D01*
X23783996Y13449662D01*
X23628266Y13465000D01*
X22125305Y13465000D01*
X22041778Y13566778D01*
X21888169Y13692842D01*
X21712918Y13786516D01*
X21522759Y13844199D01*
X21325001Y13863677D01*
X20674999Y13863677D01*
X20477241Y13844199D01*
X20287082Y13786516D01*
X20111831Y13692842D01*
X20056223Y13647205D01*
X19949276Y13734974D01*
X19817247Y13805546D01*
X19673986Y13849003D01*
X19525000Y13863677D01*
X19145000Y13860000D01*
X18955000Y13670000D01*
X18955000Y12405000D01*
X18975000Y12405000D01*
X18975000Y12395000D01*
X18955000Y12395000D01*
X18955000Y12375000D01*
X18945000Y12375000D01*
X18945000Y12395000D01*
X17805000Y12395000D01*
X17615000Y12205000D01*
X17611323Y11700000D01*
X17625997Y11551014D01*
X17669454Y11407753D01*
X17740026Y11275724D01*
X17834999Y11159999D01*
X17950724Y11065026D01*
X18082753Y10994454D01*
X18226014Y10950997D01*
X18375000Y10936323D01*
X18755000Y10940000D01*
X18834464Y11019464D01*
X18810548Y10776643D01*
X18816644Y10714750D01*
X18816643Y2486643D01*
X18285872Y2486643D01*
X18292116Y2498325D01*
X18387036Y2811236D01*
X18411055Y3055103D01*
X18411055Y5018203D01*
X18387036Y5262070D01*
X18292116Y5574981D01*
X18137973Y5863362D01*
X17930532Y6116130D01*
X17677763Y6323571D01*
X17389382Y6477714D01*
X17076471Y6572634D01*
X16751055Y6604685D01*
X16425638Y6572634D01*
X16250324Y6519453D01*
X15214428Y7555349D01*
X15268800Y7555600D01*
X15458800Y7745600D01*
X15458800Y8590000D01*
X15468800Y8590000D01*
X15468800Y7745600D01*
X15658800Y7555600D01*
X16454400Y7551923D01*
X16603386Y7566597D01*
X16746647Y7610054D01*
X16878676Y7680626D01*
X16994401Y7775599D01*
X17089374Y7891324D01*
X17159946Y8023353D01*
X17203403Y8166614D01*
X17218077Y8315600D01*
X17214400Y8400000D01*
X17024400Y8590000D01*
X15468800Y8590000D01*
X15458800Y8590000D01*
X15438800Y8590000D01*
X15438800Y8600000D01*
X15458800Y8600000D01*
X15458800Y8620000D01*
X15468800Y8620000D01*
X15468800Y8600000D01*
X17024400Y8600000D01*
X17214400Y8790000D01*
X17218077Y8874400D01*
X17203403Y9023386D01*
X17159946Y9166647D01*
X17126083Y9230000D01*
X17159946Y9293353D01*
X17203403Y9436614D01*
X17218077Y9585600D01*
X17218077Y10144400D01*
X17203403Y10293386D01*
X17159946Y10436647D01*
X17126083Y10500000D01*
X17159946Y10563353D01*
X17203403Y10706614D01*
X17218077Y10855600D01*
X17218077Y11414400D01*
X17203403Y11563386D01*
X17159946Y11706647D01*
X17126083Y11770000D01*
X17159946Y11833353D01*
X17203403Y11976614D01*
X17218077Y12125600D01*
X17218077Y12684400D01*
X17203403Y12833386D01*
X17159946Y12976647D01*
X17094012Y13100000D01*
X17611323Y13100000D01*
X17615000Y12595000D01*
X17805000Y12405000D01*
X18945000Y12405000D01*
X18945000Y13670000D01*
X18755000Y13860000D01*
X18375000Y13863677D01*
X18226014Y13849003D01*
X18082753Y13805546D01*
X17950724Y13734974D01*
X17834999Y13640001D01*
X17740026Y13524276D01*
X17669454Y13392247D01*
X17625997Y13248986D01*
X17611323Y13100000D01*
X17094012Y13100000D01*
X17089374Y13108676D01*
X16994401Y13224401D01*
X16878676Y13319374D01*
X16746647Y13389946D01*
X16603386Y13433403D01*
X16573800Y13436317D01*
X16573800Y16000993D01*
X16637716Y15944550D01*
X16910502Y15785803D01*
X17209017Y15683325D01*
X17323203Y15660612D01*
X17575000Y15830009D01*
X17575000Y17245000D01*
X17585000Y17245000D01*
X17585000Y15830009D01*
X17836797Y15660612D01*
X17950983Y15683325D01*
X18249498Y15785803D01*
X18522284Y15944550D01*
X18758859Y16153464D01*
X18850000Y16273091D01*
X18941141Y16153464D01*
X19177716Y15944550D01*
X19450502Y15785803D01*
X19749017Y15683325D01*
X19863203Y15660612D01*
X20115000Y15830009D01*
X20115000Y17245000D01*
X17585000Y17245000D01*
X17575000Y17245000D01*
X17555000Y17245000D01*
X17555000Y17255000D01*
X17575000Y17255000D01*
X17575000Y18669991D01*
X17585000Y18669991D01*
X17585000Y17255000D01*
X20115000Y17255000D01*
X20115000Y18669991D01*
X19863203Y18839388D01*
X19749017Y18816675D01*
X19450502Y18714197D01*
X19177716Y18555450D01*
X18941141Y18346536D01*
X18850000Y18226909D01*
X18758859Y18346536D01*
X18522284Y18555450D01*
X18249498Y18714197D01*
X17950983Y18816675D01*
X17836797Y18839388D01*
X17585000Y18669991D01*
X17575000Y18669991D01*
X17323203Y18839388D01*
X17209017Y18816675D01*
X16910502Y18714197D01*
X16637716Y18555450D01*
X16401141Y18346536D01*
X16317235Y18236406D01*
X16290569Y18276315D01*
X16066315Y18500569D01*
X15802621Y18676763D01*
X15509620Y18798129D01*
X15198571Y18860000D01*
X14881429Y18860000D01*
X14570380Y18798129D01*
X14277379Y18676763D01*
X14013685Y18500569D01*
X14003233Y18490117D01*
X13984974Y18524276D01*
X13890001Y18640001D01*
X13774276Y18734974D01*
X13642247Y18805546D01*
X13498986Y18849003D01*
X13350000Y18863677D01*
X11650000Y18863677D01*
X11501014Y18849003D01*
X11357753Y18805546D01*
X11225724Y18734974D01*
X11109999Y18640001D01*
X11015026Y18524276D01*
X10944454Y18392247D01*
X10900997Y18248986D01*
X10886323Y18100000D01*
X10886323Y16400000D01*
X10900997Y16251014D01*
X10944454Y16107753D01*
X11015026Y15975724D01*
X11109999Y15859999D01*
X11225724Y15765026D01*
X11357753Y15694454D01*
X11390000Y15684672D01*
X11390000Y15645480D01*
X11390001Y15645470D01*
X11390000Y13448077D01*
X10749221Y13448077D01*
X10743996Y13449662D01*
X10588266Y13465000D01*
X9167605Y13465000D01*
X9230546Y13582753D01*
X9274003Y13726014D01*
X9288677Y13875000D01*
X9285000Y14255000D01*
X9095000Y14445000D01*
X7830000Y14445000D01*
X7830000Y14425000D01*
X7820000Y14425000D01*
X7820000Y14445000D01*
X6555000Y14445000D01*
X6365000Y14255000D01*
X6361323Y13875000D01*
X6375997Y13726014D01*
X6419454Y13582753D01*
X6490026Y13450724D01*
X6577795Y13343777D01*
X6532158Y13288169D01*
X6438484Y13112918D01*
X6380801Y12922759D01*
X6361323Y12725001D01*
X6361323Y12342811D01*
X6090308Y12899608D01*
X5937619Y13128125D01*
X5434189Y13427118D01*
X3007071Y11000000D01*
X5434189Y8572882D01*
X5937619Y8871875D01*
X5961045Y8911971D01*
X5961046Y5196319D01*
X5927898Y5210526D01*
X5917428Y5213768D01*
X5824010Y5241973D01*
X5754224Y5255791D01*
X5684617Y5270586D01*
X5673717Y5271732D01*
X5576599Y5281254D01*
X5576594Y5281254D01*
X5538561Y5285000D01*
X1538388Y5285000D01*
X1264738Y5311832D01*
X1038435Y5380157D01*
X829712Y5491136D01*
X646523Y5640542D01*
X495841Y5822686D01*
X383409Y6030623D01*
X313504Y6256448D01*
X285000Y6527647D01*
X285000Y8565811D01*
X572882Y8565811D01*
X871875Y8062381D01*
X1485867Y7703650D01*
X2158047Y7471596D01*
X2862583Y7375137D01*
X3572399Y7417979D01*
X4260218Y7598476D01*
X4899608Y7909692D01*
X5128125Y8062381D01*
X5427118Y8565811D01*
X3000000Y10992929D01*
X572882Y8565811D01*
X285000Y8565811D01*
X285000Y8739659D01*
X565811Y8572882D01*
X2992929Y11000000D01*
X565811Y13427118D01*
X285000Y13260341D01*
X285000Y13434189D01*
X572882Y13434189D01*
X3000000Y11007071D01*
X5427118Y13434189D01*
X5128125Y13937619D01*
X4514133Y14296350D01*
X3841953Y14528404D01*
X3137417Y14624863D01*
X2427601Y14582021D01*
X1739782Y14401524D01*
X1100392Y14090308D01*
X871875Y13937619D01*
X572882Y13434189D01*
X285000Y13434189D01*
X285000Y15025000D01*
X6361323Y15025000D01*
X6365000Y14645000D01*
X6555000Y14455000D01*
X7820000Y14455000D01*
X7820000Y15595000D01*
X7830000Y15595000D01*
X7830000Y14455000D01*
X9095000Y14455000D01*
X9285000Y14645000D01*
X9288677Y15025000D01*
X9274003Y15173986D01*
X9230546Y15317247D01*
X9159974Y15449276D01*
X9065001Y15565001D01*
X8949276Y15659974D01*
X8817247Y15730546D01*
X8673986Y15774003D01*
X8525000Y15788677D01*
X8020000Y15785000D01*
X7830000Y15595000D01*
X7820000Y15595000D01*
X7630000Y15785000D01*
X7125000Y15788677D01*
X6976014Y15774003D01*
X6832753Y15730546D01*
X6700724Y15659974D01*
X6584999Y15565001D01*
X6490026Y15449276D01*
X6419454Y15317247D01*
X6375997Y15173986D01*
X6361323Y15025000D01*
X285000Y15025000D01*
X285000Y19461612D01*
X311832Y19735260D01*
X380158Y19961568D01*
X491137Y20170288D01*
X640544Y20353478D01*
X822688Y20504162D01*
X1030624Y20616592D01*
X1256447Y20686496D01*
X1527647Y20715000D01*
X63461612Y20715000D01*
X63735260Y20688168D01*
M02*
