G04 #@! TF.GenerationSoftware,KiCad,Pcbnew,(5.1.5)-3*
G04 #@! TF.CreationDate,2020-03-10T12:06:21-04:00*
G04 #@! TF.ProjectId,Step_Direction_Board,53746570-5f44-4697-9265-6374696f6e5f,rev?*
G04 #@! TF.SameCoordinates,PX7270e00PY78a3ca0*
G04 #@! TF.FileFunction,Legend,Top*
G04 #@! TF.FilePolarity,Positive*
%FSLAX46Y46*%
G04 Gerber Fmt 4.6, Leading zero omitted, Abs format (unit mm)*
G04 Created by KiCad (PCBNEW (5.1.5)-3) date 2020-03-10 12:06:21*
%MOMM*%
%LPD*%
G04 APERTURE LIST*
%ADD10C,0.150000*%
%ADD11C,0.120000*%
G04 APERTURE END LIST*
D10*
X64000000Y15642858D02*
X64047619Y15738096D01*
X64047619Y15880953D01*
X64000000Y16023810D01*
X63904761Y16119048D01*
X63809523Y16166667D01*
X63619047Y16214286D01*
X63476190Y16214286D01*
X63285714Y16166667D01*
X63190476Y16119048D01*
X63095238Y16023810D01*
X63047619Y15880953D01*
X63047619Y15785715D01*
X63095238Y15642858D01*
X63142857Y15595239D01*
X63476190Y15595239D01*
X63476190Y15785715D01*
X63714285Y15166667D02*
X63047619Y15166667D01*
X63619047Y15166667D02*
X63666666Y15119048D01*
X63714285Y15023810D01*
X63714285Y14880953D01*
X63666666Y14785715D01*
X63571428Y14738096D01*
X63047619Y14738096D01*
X63047619Y13833334D02*
X64047619Y13833334D01*
X63095238Y13833334D02*
X63047619Y13928572D01*
X63047619Y14119048D01*
X63095238Y14214286D01*
X63142857Y14261905D01*
X63238095Y14309524D01*
X63523809Y14309524D01*
X63619047Y14261905D01*
X63666666Y14214286D01*
X63714285Y14119048D01*
X63714285Y13928572D01*
X63666666Y13833334D01*
X57297619Y15392858D02*
X57297619Y15869048D01*
X56821428Y15916667D01*
X56869047Y15869048D01*
X56916666Y15773810D01*
X56916666Y15535715D01*
X56869047Y15440477D01*
X56821428Y15392858D01*
X56726190Y15345239D01*
X56488095Y15345239D01*
X56392857Y15392858D01*
X56345238Y15440477D01*
X56297619Y15535715D01*
X56297619Y15773810D01*
X56345238Y15869048D01*
X56392857Y15916667D01*
X56964285Y15011905D02*
X56297619Y14773810D01*
X56964285Y14535715D01*
X55417619Y9059524D02*
X56417619Y9059524D01*
X56417619Y8821429D01*
X56370000Y8678572D01*
X56274761Y8583334D01*
X56179523Y8535715D01*
X55989047Y8488096D01*
X55846190Y8488096D01*
X55655714Y8535715D01*
X55560476Y8583334D01*
X55465238Y8678572D01*
X55417619Y8821429D01*
X55417619Y9059524D01*
X55417619Y8059524D02*
X56084285Y8059524D01*
X56417619Y8059524D02*
X56370000Y8107143D01*
X56322380Y8059524D01*
X56370000Y8011905D01*
X56417619Y8059524D01*
X56322380Y8059524D01*
X55417619Y7583334D02*
X56084285Y7583334D01*
X55893809Y7583334D02*
X55989047Y7535715D01*
X56036666Y7488096D01*
X56084285Y7392858D01*
X56084285Y7297620D01*
X42377619Y9059524D02*
X43377619Y9059524D01*
X43377619Y8821429D01*
X43330000Y8678572D01*
X43234761Y8583334D01*
X43139523Y8535715D01*
X42949047Y8488096D01*
X42806190Y8488096D01*
X42615714Y8535715D01*
X42520476Y8583334D01*
X42425238Y8678572D01*
X42377619Y8821429D01*
X42377619Y9059524D01*
X42377619Y8059524D02*
X43044285Y8059524D01*
X43377619Y8059524D02*
X43330000Y8107143D01*
X43282380Y8059524D01*
X43330000Y8011905D01*
X43377619Y8059524D01*
X43282380Y8059524D01*
X42377619Y7583334D02*
X43044285Y7583334D01*
X42853809Y7583334D02*
X42949047Y7535715D01*
X42996666Y7488096D01*
X43044285Y7392858D01*
X43044285Y7297620D01*
X29337619Y9059524D02*
X30337619Y9059524D01*
X30337619Y8821429D01*
X30290000Y8678572D01*
X30194761Y8583334D01*
X30099523Y8535715D01*
X29909047Y8488096D01*
X29766190Y8488096D01*
X29575714Y8535715D01*
X29480476Y8583334D01*
X29385238Y8678572D01*
X29337619Y8821429D01*
X29337619Y9059524D01*
X29337619Y8059524D02*
X30004285Y8059524D01*
X30337619Y8059524D02*
X30290000Y8107143D01*
X30242380Y8059524D01*
X30290000Y8011905D01*
X30337619Y8059524D01*
X30242380Y8059524D01*
X29337619Y7583334D02*
X30004285Y7583334D01*
X29813809Y7583334D02*
X29909047Y7535715D01*
X29956666Y7488096D01*
X30004285Y7392858D01*
X30004285Y7297620D01*
X47965238Y10192739D02*
X47917619Y10049881D01*
X47917619Y9811786D01*
X47965238Y9716548D01*
X48012857Y9668929D01*
X48108095Y9621310D01*
X48203333Y9621310D01*
X48298571Y9668929D01*
X48346190Y9716548D01*
X48393809Y9811786D01*
X48441428Y10002262D01*
X48489047Y10097500D01*
X48536666Y10145120D01*
X48631904Y10192739D01*
X48727142Y10192739D01*
X48822380Y10145120D01*
X48870000Y10097500D01*
X48917619Y10002262D01*
X48917619Y9764167D01*
X48870000Y9621310D01*
X48584285Y9335596D02*
X48584285Y8954643D01*
X48917619Y9192739D02*
X48060476Y9192739D01*
X47965238Y9145120D01*
X47917619Y9049881D01*
X47917619Y8954643D01*
X47965238Y8240358D02*
X47917619Y8335596D01*
X47917619Y8526072D01*
X47965238Y8621310D01*
X48060476Y8668929D01*
X48441428Y8668929D01*
X48536666Y8621310D01*
X48584285Y8526072D01*
X48584285Y8335596D01*
X48536666Y8240358D01*
X48441428Y8192739D01*
X48346190Y8192739D01*
X48250952Y8668929D01*
X48584285Y7764167D02*
X47584285Y7764167D01*
X48536666Y7764167D02*
X48584285Y7668929D01*
X48584285Y7478453D01*
X48536666Y7383215D01*
X48489047Y7335596D01*
X48393809Y7287977D01*
X48108095Y7287977D01*
X48012857Y7335596D01*
X47965238Y7383215D01*
X47917619Y7478453D01*
X47917619Y7668929D01*
X47965238Y7764167D01*
X34925238Y10192739D02*
X34877619Y10049881D01*
X34877619Y9811786D01*
X34925238Y9716548D01*
X34972857Y9668929D01*
X35068095Y9621310D01*
X35163333Y9621310D01*
X35258571Y9668929D01*
X35306190Y9716548D01*
X35353809Y9811786D01*
X35401428Y10002262D01*
X35449047Y10097500D01*
X35496666Y10145120D01*
X35591904Y10192739D01*
X35687142Y10192739D01*
X35782380Y10145120D01*
X35830000Y10097500D01*
X35877619Y10002262D01*
X35877619Y9764167D01*
X35830000Y9621310D01*
X35544285Y9335596D02*
X35544285Y8954643D01*
X35877619Y9192739D02*
X35020476Y9192739D01*
X34925238Y9145120D01*
X34877619Y9049881D01*
X34877619Y8954643D01*
X34925238Y8240358D02*
X34877619Y8335596D01*
X34877619Y8526072D01*
X34925238Y8621310D01*
X35020476Y8668929D01*
X35401428Y8668929D01*
X35496666Y8621310D01*
X35544285Y8526072D01*
X35544285Y8335596D01*
X35496666Y8240358D01*
X35401428Y8192739D01*
X35306190Y8192739D01*
X35210952Y8668929D01*
X35544285Y7764167D02*
X34544285Y7764167D01*
X35496666Y7764167D02*
X35544285Y7668929D01*
X35544285Y7478453D01*
X35496666Y7383215D01*
X35449047Y7335596D01*
X35353809Y7287977D01*
X35068095Y7287977D01*
X34972857Y7335596D01*
X34925238Y7383215D01*
X34877619Y7478453D01*
X34877619Y7668929D01*
X34925238Y7764167D01*
X21885238Y10192739D02*
X21837619Y10049881D01*
X21837619Y9811786D01*
X21885238Y9716548D01*
X21932857Y9668929D01*
X22028095Y9621310D01*
X22123333Y9621310D01*
X22218571Y9668929D01*
X22266190Y9716548D01*
X22313809Y9811786D01*
X22361428Y10002262D01*
X22409047Y10097500D01*
X22456666Y10145120D01*
X22551904Y10192739D01*
X22647142Y10192739D01*
X22742380Y10145120D01*
X22790000Y10097500D01*
X22837619Y10002262D01*
X22837619Y9764167D01*
X22790000Y9621310D01*
X22504285Y9335596D02*
X22504285Y8954643D01*
X22837619Y9192739D02*
X21980476Y9192739D01*
X21885238Y9145120D01*
X21837619Y9049881D01*
X21837619Y8954643D01*
X21885238Y8240358D02*
X21837619Y8335596D01*
X21837619Y8526072D01*
X21885238Y8621310D01*
X21980476Y8668929D01*
X22361428Y8668929D01*
X22456666Y8621310D01*
X22504285Y8526072D01*
X22504285Y8335596D01*
X22456666Y8240358D01*
X22361428Y8192739D01*
X22266190Y8192739D01*
X22170952Y8668929D01*
X22504285Y7764167D02*
X21504285Y7764167D01*
X22456666Y7764167D02*
X22504285Y7668929D01*
X22504285Y7478453D01*
X22456666Y7383215D01*
X22409047Y7335596D01*
X22313809Y7287977D01*
X22028095Y7287977D01*
X21932857Y7335596D01*
X21885238Y7383215D01*
X21837619Y7478453D01*
X21837619Y7668929D01*
X21885238Y7764167D01*
X52667619Y8392858D02*
X52667619Y8869048D01*
X52191428Y8916667D01*
X52239047Y8869048D01*
X52286666Y8773810D01*
X52286666Y8535715D01*
X52239047Y8440477D01*
X52191428Y8392858D01*
X52096190Y8345239D01*
X51858095Y8345239D01*
X51762857Y8392858D01*
X51715238Y8440477D01*
X51667619Y8535715D01*
X51667619Y8773810D01*
X51715238Y8869048D01*
X51762857Y8916667D01*
X52334285Y8011905D02*
X51667619Y7773810D01*
X52334285Y7535715D01*
X39627619Y8392858D02*
X39627619Y8869048D01*
X39151428Y8916667D01*
X39199047Y8869048D01*
X39246666Y8773810D01*
X39246666Y8535715D01*
X39199047Y8440477D01*
X39151428Y8392858D01*
X39056190Y8345239D01*
X38818095Y8345239D01*
X38722857Y8392858D01*
X38675238Y8440477D01*
X38627619Y8535715D01*
X38627619Y8773810D01*
X38675238Y8869048D01*
X38722857Y8916667D01*
X39294285Y8011905D02*
X38627619Y7773810D01*
X39294285Y7535715D01*
X26587619Y8392858D02*
X26587619Y8869048D01*
X26111428Y8916667D01*
X26159047Y8869048D01*
X26206666Y8773810D01*
X26206666Y8535715D01*
X26159047Y8440477D01*
X26111428Y8392858D01*
X26016190Y8345239D01*
X25778095Y8345239D01*
X25682857Y8392858D01*
X25635238Y8440477D01*
X25587619Y8535715D01*
X25587619Y8773810D01*
X25635238Y8869048D01*
X25682857Y8916667D01*
X26254285Y8011905D02*
X25587619Y7773810D01*
X26254285Y7535715D01*
X50905714Y11071429D02*
X50905714Y12571429D01*
X51405714Y11500000D01*
X51905714Y12571429D01*
X51905714Y11071429D01*
X52477142Y12571429D02*
X53405714Y12571429D01*
X52905714Y12000000D01*
X53120000Y12000000D01*
X53262857Y11928572D01*
X53334285Y11857143D01*
X53405714Y11714286D01*
X53405714Y11357143D01*
X53334285Y11214286D01*
X53262857Y11142858D01*
X53120000Y11071429D01*
X52691428Y11071429D01*
X52548571Y11142858D01*
X52477142Y11214286D01*
X37865714Y11071429D02*
X37865714Y12571429D01*
X38365714Y11500000D01*
X38865714Y12571429D01*
X38865714Y11071429D01*
X39508571Y12428572D02*
X39580000Y12500000D01*
X39722857Y12571429D01*
X40080000Y12571429D01*
X40222857Y12500000D01*
X40294285Y12428572D01*
X40365714Y12285715D01*
X40365714Y12142858D01*
X40294285Y11928572D01*
X39437142Y11071429D01*
X40365714Y11071429D01*
X24825714Y11071429D02*
X24825714Y12571429D01*
X25325714Y11500000D01*
X25825714Y12571429D01*
X25825714Y11071429D01*
X27325714Y11071429D02*
X26468571Y11071429D01*
X26897142Y11071429D02*
X26897142Y12571429D01*
X26754285Y12357143D01*
X26611428Y12214286D01*
X26468571Y12142858D01*
X11785714Y11071429D02*
X11785714Y12571429D01*
X12285714Y11500000D01*
X12785714Y12571429D01*
X12785714Y11071429D01*
X13785714Y12571429D02*
X13928571Y12571429D01*
X14071428Y12500000D01*
X14142857Y12428572D01*
X14214285Y12285715D01*
X14285714Y12000000D01*
X14285714Y11642858D01*
X14214285Y11357143D01*
X14142857Y11214286D01*
X14071428Y11142858D01*
X13928571Y11071429D01*
X13785714Y11071429D01*
X13642857Y11142858D01*
X13571428Y11214286D01*
X13500000Y11357143D01*
X13428571Y11642858D01*
X13428571Y12000000D01*
X13500000Y12285715D01*
X13571428Y12428572D01*
X13642857Y12500000D01*
X13785714Y12571429D01*
X13547619Y8392858D02*
X13547619Y8869048D01*
X13071428Y8916667D01*
X13119047Y8869048D01*
X13166666Y8773810D01*
X13166666Y8535715D01*
X13119047Y8440477D01*
X13071428Y8392858D01*
X12976190Y8345239D01*
X12738095Y8345239D01*
X12642857Y8392858D01*
X12595238Y8440477D01*
X12547619Y8535715D01*
X12547619Y8773810D01*
X12595238Y8869048D01*
X12642857Y8916667D01*
X13214285Y8011905D02*
X12547619Y7773810D01*
X13214285Y7535715D01*
X16297619Y9059524D02*
X17297619Y9059524D01*
X17297619Y8821429D01*
X17250000Y8678572D01*
X17154761Y8583334D01*
X17059523Y8535715D01*
X16869047Y8488096D01*
X16726190Y8488096D01*
X16535714Y8535715D01*
X16440476Y8583334D01*
X16345238Y8678572D01*
X16297619Y8821429D01*
X16297619Y9059524D01*
X16297619Y8059524D02*
X16964285Y8059524D01*
X17297619Y8059524D02*
X17250000Y8107143D01*
X17202380Y8059524D01*
X17250000Y8011905D01*
X17297619Y8059524D01*
X17202380Y8059524D01*
X16297619Y7583334D02*
X16964285Y7583334D01*
X16773809Y7583334D02*
X16869047Y7535715D01*
X16916666Y7488096D01*
X16964285Y7392858D01*
X16964285Y7297620D01*
X8845238Y10192739D02*
X8797619Y10049881D01*
X8797619Y9811786D01*
X8845238Y9716548D01*
X8892857Y9668929D01*
X8988095Y9621310D01*
X9083333Y9621310D01*
X9178571Y9668929D01*
X9226190Y9716548D01*
X9273809Y9811786D01*
X9321428Y10002262D01*
X9369047Y10097500D01*
X9416666Y10145120D01*
X9511904Y10192739D01*
X9607142Y10192739D01*
X9702380Y10145120D01*
X9750000Y10097500D01*
X9797619Y10002262D01*
X9797619Y9764167D01*
X9750000Y9621310D01*
X9464285Y9335596D02*
X9464285Y8954643D01*
X9797619Y9192739D02*
X8940476Y9192739D01*
X8845238Y9145120D01*
X8797619Y9049881D01*
X8797619Y8954643D01*
X8845238Y8240358D02*
X8797619Y8335596D01*
X8797619Y8526072D01*
X8845238Y8621310D01*
X8940476Y8668929D01*
X9321428Y8668929D01*
X9416666Y8621310D01*
X9464285Y8526072D01*
X9464285Y8335596D01*
X9416666Y8240358D01*
X9321428Y8192739D01*
X9226190Y8192739D01*
X9130952Y8668929D01*
X9464285Y7764167D02*
X8464285Y7764167D01*
X9416666Y7764167D02*
X9464285Y7668929D01*
X9464285Y7478453D01*
X9416666Y7383215D01*
X9369047Y7335596D01*
X9273809Y7287977D01*
X8988095Y7287977D01*
X8892857Y7335596D01*
X8845238Y7383215D01*
X8797619Y7478453D01*
X8797619Y7668929D01*
X8845238Y7764167D01*
X47715238Y18692739D02*
X47667619Y18549881D01*
X47667619Y18311786D01*
X47715238Y18216548D01*
X47762857Y18168929D01*
X47858095Y18121310D01*
X47953333Y18121310D01*
X48048571Y18168929D01*
X48096190Y18216548D01*
X48143809Y18311786D01*
X48191428Y18502262D01*
X48239047Y18597500D01*
X48286666Y18645120D01*
X48381904Y18692739D01*
X48477142Y18692739D01*
X48572380Y18645120D01*
X48620000Y18597500D01*
X48667619Y18502262D01*
X48667619Y18264167D01*
X48620000Y18121310D01*
X48334285Y17835596D02*
X48334285Y17454643D01*
X48667619Y17692739D02*
X47810476Y17692739D01*
X47715238Y17645120D01*
X47667619Y17549881D01*
X47667619Y17454643D01*
X47715238Y16740358D02*
X47667619Y16835596D01*
X47667619Y17026072D01*
X47715238Y17121310D01*
X47810476Y17168929D01*
X48191428Y17168929D01*
X48286666Y17121310D01*
X48334285Y17026072D01*
X48334285Y16835596D01*
X48286666Y16740358D01*
X48191428Y16692739D01*
X48096190Y16692739D01*
X48000952Y17168929D01*
X48334285Y16264167D02*
X47334285Y16264167D01*
X48286666Y16264167D02*
X48334285Y16168929D01*
X48334285Y15978453D01*
X48286666Y15883215D01*
X48239047Y15835596D01*
X48143809Y15787977D01*
X47858095Y15787977D01*
X47762857Y15835596D01*
X47715238Y15883215D01*
X47667619Y15978453D01*
X47667619Y16168929D01*
X47715238Y16264167D01*
X34675238Y18692739D02*
X34627619Y18549881D01*
X34627619Y18311786D01*
X34675238Y18216548D01*
X34722857Y18168929D01*
X34818095Y18121310D01*
X34913333Y18121310D01*
X35008571Y18168929D01*
X35056190Y18216548D01*
X35103809Y18311786D01*
X35151428Y18502262D01*
X35199047Y18597500D01*
X35246666Y18645120D01*
X35341904Y18692739D01*
X35437142Y18692739D01*
X35532380Y18645120D01*
X35580000Y18597500D01*
X35627619Y18502262D01*
X35627619Y18264167D01*
X35580000Y18121310D01*
X35294285Y17835596D02*
X35294285Y17454643D01*
X35627619Y17692739D02*
X34770476Y17692739D01*
X34675238Y17645120D01*
X34627619Y17549881D01*
X34627619Y17454643D01*
X34675238Y16740358D02*
X34627619Y16835596D01*
X34627619Y17026072D01*
X34675238Y17121310D01*
X34770476Y17168929D01*
X35151428Y17168929D01*
X35246666Y17121310D01*
X35294285Y17026072D01*
X35294285Y16835596D01*
X35246666Y16740358D01*
X35151428Y16692739D01*
X35056190Y16692739D01*
X34960952Y17168929D01*
X35294285Y16264167D02*
X34294285Y16264167D01*
X35246666Y16264167D02*
X35294285Y16168929D01*
X35294285Y15978453D01*
X35246666Y15883215D01*
X35199047Y15835596D01*
X35103809Y15787977D01*
X34818095Y15787977D01*
X34722857Y15835596D01*
X34675238Y15883215D01*
X34627619Y15978453D01*
X34627619Y16168929D01*
X34675238Y16264167D01*
X21635238Y18692739D02*
X21587619Y18549881D01*
X21587619Y18311786D01*
X21635238Y18216548D01*
X21682857Y18168929D01*
X21778095Y18121310D01*
X21873333Y18121310D01*
X21968571Y18168929D01*
X22016190Y18216548D01*
X22063809Y18311786D01*
X22111428Y18502262D01*
X22159047Y18597500D01*
X22206666Y18645120D01*
X22301904Y18692739D01*
X22397142Y18692739D01*
X22492380Y18645120D01*
X22540000Y18597500D01*
X22587619Y18502262D01*
X22587619Y18264167D01*
X22540000Y18121310D01*
X22254285Y17835596D02*
X22254285Y17454643D01*
X22587619Y17692739D02*
X21730476Y17692739D01*
X21635238Y17645120D01*
X21587619Y17549881D01*
X21587619Y17454643D01*
X21635238Y16740358D02*
X21587619Y16835596D01*
X21587619Y17026072D01*
X21635238Y17121310D01*
X21730476Y17168929D01*
X22111428Y17168929D01*
X22206666Y17121310D01*
X22254285Y17026072D01*
X22254285Y16835596D01*
X22206666Y16740358D01*
X22111428Y16692739D01*
X22016190Y16692739D01*
X21920952Y17168929D01*
X22254285Y16264167D02*
X21254285Y16264167D01*
X22206666Y16264167D02*
X22254285Y16168929D01*
X22254285Y15978453D01*
X22206666Y15883215D01*
X22159047Y15835596D01*
X22063809Y15787977D01*
X21778095Y15787977D01*
X21682857Y15835596D01*
X21635238Y15883215D01*
X21587619Y15978453D01*
X21587619Y16168929D01*
X21635238Y16264167D01*
X55667619Y18309524D02*
X56667619Y18309524D01*
X56667619Y18071429D01*
X56620000Y17928572D01*
X56524761Y17833334D01*
X56429523Y17785715D01*
X56239047Y17738096D01*
X56096190Y17738096D01*
X55905714Y17785715D01*
X55810476Y17833334D01*
X55715238Y17928572D01*
X55667619Y18071429D01*
X55667619Y18309524D01*
X55667619Y17309524D02*
X56334285Y17309524D01*
X56667619Y17309524D02*
X56620000Y17357143D01*
X56572380Y17309524D01*
X56620000Y17261905D01*
X56667619Y17309524D01*
X56572380Y17309524D01*
X55667619Y16833334D02*
X56334285Y16833334D01*
X56143809Y16833334D02*
X56239047Y16785715D01*
X56286666Y16738096D01*
X56334285Y16642858D01*
X56334285Y16547620D01*
X42627619Y18309524D02*
X43627619Y18309524D01*
X43627619Y18071429D01*
X43580000Y17928572D01*
X43484761Y17833334D01*
X43389523Y17785715D01*
X43199047Y17738096D01*
X43056190Y17738096D01*
X42865714Y17785715D01*
X42770476Y17833334D01*
X42675238Y17928572D01*
X42627619Y18071429D01*
X42627619Y18309524D01*
X42627619Y17309524D02*
X43294285Y17309524D01*
X43627619Y17309524D02*
X43580000Y17357143D01*
X43532380Y17309524D01*
X43580000Y17261905D01*
X43627619Y17309524D01*
X43532380Y17309524D01*
X42627619Y16833334D02*
X43294285Y16833334D01*
X43103809Y16833334D02*
X43199047Y16785715D01*
X43246666Y16738096D01*
X43294285Y16642858D01*
X43294285Y16547620D01*
X29587619Y18309524D02*
X30587619Y18309524D01*
X30587619Y18071429D01*
X30540000Y17928572D01*
X30444761Y17833334D01*
X30349523Y17785715D01*
X30159047Y17738096D01*
X30016190Y17738096D01*
X29825714Y17785715D01*
X29730476Y17833334D01*
X29635238Y17928572D01*
X29587619Y18071429D01*
X29587619Y18309524D01*
X29587619Y17309524D02*
X30254285Y17309524D01*
X30587619Y17309524D02*
X30540000Y17357143D01*
X30492380Y17309524D01*
X30540000Y17261905D01*
X30587619Y17309524D01*
X30492380Y17309524D01*
X29587619Y16833334D02*
X30254285Y16833334D01*
X30063809Y16833334D02*
X30159047Y16785715D01*
X30206666Y16738096D01*
X30254285Y16642858D01*
X30254285Y16547620D01*
X16547619Y18309524D02*
X17547619Y18309524D01*
X17547619Y18071429D01*
X17500000Y17928572D01*
X17404761Y17833334D01*
X17309523Y17785715D01*
X17119047Y17738096D01*
X16976190Y17738096D01*
X16785714Y17785715D01*
X16690476Y17833334D01*
X16595238Y17928572D01*
X16547619Y18071429D01*
X16547619Y18309524D01*
X16547619Y17309524D02*
X17214285Y17309524D01*
X17547619Y17309524D02*
X17500000Y17357143D01*
X17452380Y17309524D01*
X17500000Y17261905D01*
X17547619Y17309524D01*
X17452380Y17309524D01*
X16547619Y16833334D02*
X17214285Y16833334D01*
X17023809Y16833334D02*
X17119047Y16785715D01*
X17166666Y16738096D01*
X17214285Y16642858D01*
X17214285Y16547620D01*
X8595238Y18692739D02*
X8547619Y18549881D01*
X8547619Y18311786D01*
X8595238Y18216548D01*
X8642857Y18168929D01*
X8738095Y18121310D01*
X8833333Y18121310D01*
X8928571Y18168929D01*
X8976190Y18216548D01*
X9023809Y18311786D01*
X9071428Y18502262D01*
X9119047Y18597500D01*
X9166666Y18645120D01*
X9261904Y18692739D01*
X9357142Y18692739D01*
X9452380Y18645120D01*
X9500000Y18597500D01*
X9547619Y18502262D01*
X9547619Y18264167D01*
X9500000Y18121310D01*
X9214285Y17835596D02*
X9214285Y17454643D01*
X9547619Y17692739D02*
X8690476Y17692739D01*
X8595238Y17645120D01*
X8547619Y17549881D01*
X8547619Y17454643D01*
X8595238Y16740358D02*
X8547619Y16835596D01*
X8547619Y17026072D01*
X8595238Y17121310D01*
X8690476Y17168929D01*
X9071428Y17168929D01*
X9166666Y17121310D01*
X9214285Y17026072D01*
X9214285Y16835596D01*
X9166666Y16740358D01*
X9071428Y16692739D01*
X8976190Y16692739D01*
X8880952Y17168929D01*
X9214285Y16264167D02*
X8214285Y16264167D01*
X9166666Y16264167D02*
X9214285Y16168929D01*
X9214285Y15978453D01*
X9166666Y15883215D01*
X9119047Y15835596D01*
X9023809Y15787977D01*
X8738095Y15787977D01*
X8642857Y15835596D01*
X8595238Y15883215D01*
X8547619Y15978453D01*
X8547619Y16168929D01*
X8595238Y16264167D01*
D11*
X49513846Y14106036D02*
X49513846Y15376036D01*
X50783846Y14106036D02*
X49513846Y14106036D01*
X53703846Y16418965D02*
X53703846Y16816036D01*
X52943846Y16418965D02*
X52943846Y16816036D01*
X53703846Y25476036D02*
X53703846Y19476036D01*
X52943846Y25476036D02*
X53703846Y25476036D01*
X52943846Y19476036D02*
X52943846Y25476036D01*
X52053846Y16816036D02*
X52053846Y19476036D01*
X51163846Y16486036D02*
X51163846Y16816036D01*
X50403846Y16486036D02*
X50403846Y16816036D01*
X51063846Y19476036D02*
X51063846Y25476036D01*
X50943846Y19476036D02*
X50943846Y25476036D01*
X50823846Y19476036D02*
X50823846Y25476036D01*
X50703846Y19476036D02*
X50703846Y25476036D01*
X50583846Y19476036D02*
X50583846Y25476036D01*
X50463846Y19476036D02*
X50463846Y25476036D01*
X51163846Y25476036D02*
X51163846Y19476036D01*
X50403846Y25476036D02*
X51163846Y25476036D01*
X50403846Y19476036D02*
X50403846Y25476036D01*
X49453846Y19476036D02*
X49453846Y16816036D01*
X54653846Y19476036D02*
X49453846Y19476036D01*
X54653846Y16816036D02*
X54653846Y19476036D01*
X49453846Y16816036D02*
X54653846Y16816036D01*
X36473846Y14106036D02*
X36473846Y15376036D01*
X37743846Y14106036D02*
X36473846Y14106036D01*
X40663846Y16418965D02*
X40663846Y16816036D01*
X39903846Y16418965D02*
X39903846Y16816036D01*
X40663846Y25476036D02*
X40663846Y19476036D01*
X39903846Y25476036D02*
X40663846Y25476036D01*
X39903846Y19476036D02*
X39903846Y25476036D01*
X39013846Y16816036D02*
X39013846Y19476036D01*
X38123846Y16486036D02*
X38123846Y16816036D01*
X37363846Y16486036D02*
X37363846Y16816036D01*
X38023846Y19476036D02*
X38023846Y25476036D01*
X37903846Y19476036D02*
X37903846Y25476036D01*
X37783846Y19476036D02*
X37783846Y25476036D01*
X37663846Y19476036D02*
X37663846Y25476036D01*
X37543846Y19476036D02*
X37543846Y25476036D01*
X37423846Y19476036D02*
X37423846Y25476036D01*
X38123846Y25476036D02*
X38123846Y19476036D01*
X37363846Y25476036D02*
X38123846Y25476036D01*
X37363846Y19476036D02*
X37363846Y25476036D01*
X36413846Y19476036D02*
X36413846Y16816036D01*
X41613846Y19476036D02*
X36413846Y19476036D01*
X41613846Y16816036D02*
X41613846Y19476036D01*
X36413846Y16816036D02*
X41613846Y16816036D01*
X23433846Y14106036D02*
X23433846Y15376036D01*
X24703846Y14106036D02*
X23433846Y14106036D01*
X27623846Y16418965D02*
X27623846Y16816036D01*
X26863846Y16418965D02*
X26863846Y16816036D01*
X27623846Y25476036D02*
X27623846Y19476036D01*
X26863846Y25476036D02*
X27623846Y25476036D01*
X26863846Y19476036D02*
X26863846Y25476036D01*
X25973846Y16816036D02*
X25973846Y19476036D01*
X25083846Y16486036D02*
X25083846Y16816036D01*
X24323846Y16486036D02*
X24323846Y16816036D01*
X24983846Y19476036D02*
X24983846Y25476036D01*
X24863846Y19476036D02*
X24863846Y25476036D01*
X24743846Y19476036D02*
X24743846Y25476036D01*
X24623846Y19476036D02*
X24623846Y25476036D01*
X24503846Y19476036D02*
X24503846Y25476036D01*
X24383846Y19476036D02*
X24383846Y25476036D01*
X25083846Y25476036D02*
X25083846Y19476036D01*
X24323846Y25476036D02*
X25083846Y25476036D01*
X24323846Y19476036D02*
X24323846Y25476036D01*
X23373846Y19476036D02*
X23373846Y16816036D01*
X28573846Y19476036D02*
X23373846Y19476036D01*
X28573846Y16816036D02*
X28573846Y19476036D01*
X23373846Y16816036D02*
X28573846Y16816036D01*
X10393846Y14106036D02*
X10393846Y15376036D01*
X11663846Y14106036D02*
X10393846Y14106036D01*
X14583846Y16418965D02*
X14583846Y16816036D01*
X13823846Y16418965D02*
X13823846Y16816036D01*
X14583846Y25476036D02*
X14583846Y19476036D01*
X13823846Y25476036D02*
X14583846Y25476036D01*
X13823846Y19476036D02*
X13823846Y25476036D01*
X12933846Y16816036D02*
X12933846Y19476036D01*
X12043846Y16486036D02*
X12043846Y16816036D01*
X11283846Y16486036D02*
X11283846Y16816036D01*
X11943846Y19476036D02*
X11943846Y25476036D01*
X11823846Y19476036D02*
X11823846Y25476036D01*
X11703846Y19476036D02*
X11703846Y25476036D01*
X11583846Y19476036D02*
X11583846Y25476036D01*
X11463846Y19476036D02*
X11463846Y25476036D01*
X11343846Y19476036D02*
X11343846Y25476036D01*
X12043846Y25476036D02*
X12043846Y19476036D01*
X11283846Y25476036D02*
X12043846Y25476036D01*
X11283846Y19476036D02*
X11283846Y25476036D01*
X10333846Y19476036D02*
X10333846Y16816036D01*
X15533846Y19476036D02*
X10333846Y19476036D01*
X15533846Y16816036D02*
X15533846Y19476036D01*
X10333846Y16816036D02*
X15533846Y16816036D01*
X57730000Y14106036D02*
X57730000Y15376036D01*
X59000000Y14106036D02*
X57730000Y14106036D01*
X61920000Y16418965D02*
X61920000Y16816036D01*
X61160000Y16418965D02*
X61160000Y16816036D01*
X61920000Y25476036D02*
X61920000Y19476036D01*
X61160000Y25476036D02*
X61920000Y25476036D01*
X61160000Y19476036D02*
X61160000Y25476036D01*
X60270000Y16816036D02*
X60270000Y19476036D01*
X59380000Y16486036D02*
X59380000Y16816036D01*
X58620000Y16486036D02*
X58620000Y16816036D01*
X59280000Y19476036D02*
X59280000Y25476036D01*
X59160000Y19476036D02*
X59160000Y25476036D01*
X59040000Y19476036D02*
X59040000Y25476036D01*
X58920000Y19476036D02*
X58920000Y25476036D01*
X58800000Y19476036D02*
X58800000Y25476036D01*
X58680000Y19476036D02*
X58680000Y25476036D01*
X59380000Y25476036D02*
X59380000Y19476036D01*
X58620000Y25476036D02*
X59380000Y25476036D01*
X58620000Y19476036D02*
X58620000Y25476036D01*
X57670000Y19476036D02*
X57670000Y16816036D01*
X62870000Y19476036D02*
X57670000Y19476036D01*
X62870000Y16816036D02*
X62870000Y19476036D01*
X57670000Y16816036D02*
X62870000Y16816036D01*
X47951055Y6636653D02*
X48551055Y6636653D01*
X48251055Y6036653D02*
X47951055Y6636653D01*
X48551055Y6636653D02*
X48251055Y6036653D01*
X45541055Y-763347D02*
X58581055Y-763347D01*
X53111055Y5346653D02*
X54821055Y5346653D01*
X49301055Y5346653D02*
X51011055Y5346653D01*
X58581055Y5346653D02*
X56921055Y5346653D01*
X45541055Y5346653D02*
X47201055Y5346653D01*
X58581055Y-4073347D02*
X58581055Y5346653D01*
X45541055Y-4073347D02*
X58581055Y-4073347D01*
X45541055Y5346653D02*
X45541055Y-4073347D01*
X34911055Y6636653D02*
X35511055Y6636653D01*
X35211055Y6036653D02*
X34911055Y6636653D01*
X35511055Y6636653D02*
X35211055Y6036653D01*
X32501055Y-763347D02*
X45541055Y-763347D01*
X40071055Y5346653D02*
X41781055Y5346653D01*
X36261055Y5346653D02*
X37971055Y5346653D01*
X45541055Y5346653D02*
X43881055Y5346653D01*
X32501055Y5346653D02*
X34161055Y5346653D01*
X45541055Y-4073347D02*
X45541055Y5346653D01*
X32501055Y-4073347D02*
X45541055Y-4073347D01*
X32501055Y5346653D02*
X32501055Y-4073347D01*
X21871055Y6636653D02*
X22471055Y6636653D01*
X22171055Y6036653D02*
X21871055Y6636653D01*
X22471055Y6636653D02*
X22171055Y6036653D01*
X19461055Y-763347D02*
X32501055Y-763347D01*
X27031055Y5346653D02*
X28741055Y5346653D01*
X23221055Y5346653D02*
X24931055Y5346653D01*
X32501055Y5346653D02*
X30841055Y5346653D01*
X19461055Y5346653D02*
X21121055Y5346653D01*
X32501055Y-4073347D02*
X32501055Y5346653D01*
X19461055Y-4073347D02*
X32501055Y-4073347D01*
X19461055Y5346653D02*
X19461055Y-4073347D01*
X8831055Y6636653D02*
X9431055Y6636653D01*
X9131055Y6036653D02*
X8831055Y6636653D01*
X9431055Y6636653D02*
X9131055Y6036653D01*
X6421055Y-763347D02*
X19461055Y-763347D01*
X13991055Y5346653D02*
X15701055Y5346653D01*
X10181055Y5346653D02*
X11891055Y5346653D01*
X19461055Y5346653D02*
X17801055Y5346653D01*
X6421055Y5346653D02*
X8081055Y5346653D01*
X19461055Y-4073347D02*
X19461055Y5346653D01*
X6421055Y-4073347D02*
X19461055Y-4073347D01*
X6421055Y5346653D02*
X6421055Y-4073347D01*
M02*
