M48
; DRILL file {KiCad (5.1.5)-3} date 3/10/2020 12:06:24 PM
; FORMAT={-:-/ absolute / inch / decimal}
; #@! TF.CreationDate,2020-03-10T12:06:24-04:00
; #@! TF.GenerationSoftware,Kicad,Pcbnew,(5.1.5)-3
FMAT,2
INCH
T1C0.0394
T2C0.0472
T3C0.1260
%
G90
G05
T1
X0.4592Y0.6054
X0.5592Y0.6054
X1.9994Y0.6054
X2.0994Y0.6054
X0.9726Y0.6054
X1.0726Y0.6054
X2.3228Y0.6054
X2.4228Y0.6054
X1.486Y0.6054
X1.586Y0.6054
T2
X1.3863Y0.1589
X1.5363Y0.1589
X1.6863Y0.1589
X0.8729Y0.1589
X1.0229Y0.1589
X1.1729Y0.1589
X1.8996Y0.1589
X2.0496Y0.1589
X2.1996Y0.1589
X0.3595Y0.1589
X0.5095Y0.1589
X0.6595Y0.1589
T3
X0.1181Y0.3543
X2.4409Y0.3543
T0
M30
