G04 #@! TF.GenerationSoftware,KiCad,Pcbnew,(5.1.5)-3*
G04 #@! TF.CreationDate,2020-03-10T12:06:21-04:00*
G04 #@! TF.ProjectId,Step_Direction_Board,53746570-5f44-4697-9265-6374696f6e5f,rev?*
G04 #@! TF.SameCoordinates,PX7270e00PY78a3ca0*
G04 #@! TF.FileFunction,Soldermask,Bot*
G04 #@! TF.FilePolarity,Negative*
%FSLAX46Y46*%
G04 Gerber Fmt 4.6, Leading zero omitted, Abs format (unit mm)*
G04 Created by KiCad (PCBNEW (5.1.5)-3) date 2020-03-10 12:06:21*
%MOMM*%
%LPD*%
G04 APERTURE LIST*
%ADD10C,0.100000*%
G04 APERTURE END LIST*
D10*
G36*
X56057479Y5873893D02*
G01*
X56057482Y5873892D01*
X56057483Y5873892D01*
X56236747Y5819513D01*
X56236750Y5819511D01*
X56236751Y5819511D01*
X56401958Y5731207D01*
X56546767Y5612365D01*
X56665609Y5467556D01*
X56753913Y5302350D01*
X56753915Y5302346D01*
X56753915Y5302345D01*
X56808295Y5123078D01*
X56822055Y4983371D01*
X56822055Y3089935D01*
X56808295Y2950228D01*
X56808294Y2950225D01*
X56808294Y2950224D01*
X56753915Y2770960D01*
X56753913Y2770957D01*
X56753913Y2770956D01*
X56665609Y2605750D01*
X56546767Y2460941D01*
X56401958Y2342099D01*
X56254480Y2263271D01*
X56236748Y2253793D01*
X56057484Y2199414D01*
X56057483Y2199414D01*
X56057480Y2199413D01*
X55871055Y2181052D01*
X55684631Y2199413D01*
X55684628Y2199414D01*
X55684627Y2199414D01*
X55505363Y2253793D01*
X55487631Y2263271D01*
X55340153Y2342099D01*
X55195344Y2460941D01*
X55076502Y2605750D01*
X54988198Y2770956D01*
X54988198Y2770957D01*
X54988196Y2770960D01*
X54933817Y2950224D01*
X54933817Y2950225D01*
X54933816Y2950228D01*
X54920055Y3089936D01*
X54920055Y4983370D01*
X54933815Y5123077D01*
X54933816Y5123081D01*
X54988195Y5302345D01*
X54988198Y5302350D01*
X55076501Y5467556D01*
X55195343Y5612365D01*
X55340152Y5731207D01*
X55505358Y5819511D01*
X55505359Y5819511D01*
X55505362Y5819513D01*
X55684626Y5873892D01*
X55684627Y5873892D01*
X55684630Y5873893D01*
X55871055Y5892254D01*
X56057479Y5873893D01*
G37*
G36*
X52247479Y5873893D02*
G01*
X52247482Y5873892D01*
X52247483Y5873892D01*
X52426747Y5819513D01*
X52426750Y5819511D01*
X52426751Y5819511D01*
X52591958Y5731207D01*
X52736767Y5612365D01*
X52855609Y5467556D01*
X52943913Y5302350D01*
X52943915Y5302346D01*
X52943915Y5302345D01*
X52998295Y5123078D01*
X53012055Y4983371D01*
X53012055Y3089935D01*
X52998295Y2950228D01*
X52998294Y2950225D01*
X52998294Y2950224D01*
X52943915Y2770960D01*
X52943913Y2770957D01*
X52943913Y2770956D01*
X52855609Y2605750D01*
X52736767Y2460941D01*
X52591958Y2342099D01*
X52444480Y2263271D01*
X52426748Y2253793D01*
X52247484Y2199414D01*
X52247483Y2199414D01*
X52247480Y2199413D01*
X52061055Y2181052D01*
X51874631Y2199413D01*
X51874628Y2199414D01*
X51874627Y2199414D01*
X51695363Y2253793D01*
X51677631Y2263271D01*
X51530153Y2342099D01*
X51385344Y2460941D01*
X51266502Y2605750D01*
X51178198Y2770956D01*
X51178198Y2770957D01*
X51178196Y2770960D01*
X51123817Y2950224D01*
X51123817Y2950225D01*
X51123816Y2950228D01*
X51110055Y3089936D01*
X51110055Y4983370D01*
X51123815Y5123077D01*
X51123816Y5123081D01*
X51178195Y5302345D01*
X51178198Y5302350D01*
X51266501Y5467556D01*
X51385343Y5612365D01*
X51530152Y5731207D01*
X51695358Y5819511D01*
X51695359Y5819511D01*
X51695362Y5819513D01*
X51874626Y5873892D01*
X51874627Y5873892D01*
X51874630Y5873893D01*
X52061055Y5892254D01*
X52247479Y5873893D01*
G37*
G36*
X43017479Y5873893D02*
G01*
X43017482Y5873892D01*
X43017483Y5873892D01*
X43196747Y5819513D01*
X43196750Y5819511D01*
X43196751Y5819511D01*
X43361958Y5731207D01*
X43506767Y5612365D01*
X43625609Y5467556D01*
X43713913Y5302350D01*
X43713915Y5302346D01*
X43713915Y5302345D01*
X43768295Y5123078D01*
X43782055Y4983371D01*
X43782055Y3089935D01*
X43768295Y2950228D01*
X43768294Y2950225D01*
X43768294Y2950224D01*
X43713915Y2770960D01*
X43713913Y2770957D01*
X43713913Y2770956D01*
X43625609Y2605750D01*
X43506767Y2460941D01*
X43361958Y2342099D01*
X43214480Y2263271D01*
X43196748Y2253793D01*
X43017484Y2199414D01*
X43017483Y2199414D01*
X43017480Y2199413D01*
X42831055Y2181052D01*
X42644631Y2199413D01*
X42644628Y2199414D01*
X42644627Y2199414D01*
X42465363Y2253793D01*
X42447631Y2263271D01*
X42300153Y2342099D01*
X42155344Y2460941D01*
X42036502Y2605750D01*
X41948198Y2770956D01*
X41948198Y2770957D01*
X41948196Y2770960D01*
X41893817Y2950224D01*
X41893817Y2950225D01*
X41893816Y2950228D01*
X41880055Y3089936D01*
X41880055Y4983370D01*
X41893815Y5123077D01*
X41893816Y5123081D01*
X41948195Y5302345D01*
X41948198Y5302350D01*
X42036501Y5467556D01*
X42155343Y5612365D01*
X42300152Y5731207D01*
X42465358Y5819511D01*
X42465359Y5819511D01*
X42465362Y5819513D01*
X42644626Y5873892D01*
X42644627Y5873892D01*
X42644630Y5873893D01*
X42831055Y5892254D01*
X43017479Y5873893D01*
G37*
G36*
X39207479Y5873893D02*
G01*
X39207482Y5873892D01*
X39207483Y5873892D01*
X39386747Y5819513D01*
X39386750Y5819511D01*
X39386751Y5819511D01*
X39551958Y5731207D01*
X39696767Y5612365D01*
X39815609Y5467556D01*
X39903913Y5302350D01*
X39903915Y5302346D01*
X39903915Y5302345D01*
X39958295Y5123078D01*
X39972055Y4983371D01*
X39972055Y3089935D01*
X39958295Y2950228D01*
X39958294Y2950225D01*
X39958294Y2950224D01*
X39903915Y2770960D01*
X39903913Y2770957D01*
X39903913Y2770956D01*
X39815609Y2605750D01*
X39696767Y2460941D01*
X39551958Y2342099D01*
X39404480Y2263271D01*
X39386748Y2253793D01*
X39207484Y2199414D01*
X39207483Y2199414D01*
X39207480Y2199413D01*
X39021055Y2181052D01*
X38834631Y2199413D01*
X38834628Y2199414D01*
X38834627Y2199414D01*
X38655363Y2253793D01*
X38637631Y2263271D01*
X38490153Y2342099D01*
X38345344Y2460941D01*
X38226502Y2605750D01*
X38138198Y2770956D01*
X38138198Y2770957D01*
X38138196Y2770960D01*
X38083817Y2950224D01*
X38083817Y2950225D01*
X38083816Y2950228D01*
X38070055Y3089936D01*
X38070055Y4983370D01*
X38083815Y5123077D01*
X38083816Y5123081D01*
X38138195Y5302345D01*
X38138198Y5302350D01*
X38226501Y5467556D01*
X38345343Y5612365D01*
X38490152Y5731207D01*
X38655358Y5819511D01*
X38655359Y5819511D01*
X38655362Y5819513D01*
X38834626Y5873892D01*
X38834627Y5873892D01*
X38834630Y5873893D01*
X39021055Y5892254D01*
X39207479Y5873893D01*
G37*
G36*
X29977479Y5873893D02*
G01*
X29977482Y5873892D01*
X29977483Y5873892D01*
X30156747Y5819513D01*
X30156750Y5819511D01*
X30156751Y5819511D01*
X30321958Y5731207D01*
X30466767Y5612365D01*
X30585609Y5467556D01*
X30673913Y5302350D01*
X30673915Y5302346D01*
X30673915Y5302345D01*
X30728295Y5123078D01*
X30742055Y4983371D01*
X30742055Y3089935D01*
X30728295Y2950228D01*
X30728294Y2950225D01*
X30728294Y2950224D01*
X30673915Y2770960D01*
X30673913Y2770957D01*
X30673913Y2770956D01*
X30585609Y2605750D01*
X30466767Y2460941D01*
X30321958Y2342099D01*
X30174480Y2263271D01*
X30156748Y2253793D01*
X29977484Y2199414D01*
X29977483Y2199414D01*
X29977480Y2199413D01*
X29791055Y2181052D01*
X29604631Y2199413D01*
X29604628Y2199414D01*
X29604627Y2199414D01*
X29425363Y2253793D01*
X29407631Y2263271D01*
X29260153Y2342099D01*
X29115344Y2460941D01*
X28996502Y2605750D01*
X28908198Y2770956D01*
X28908198Y2770957D01*
X28908196Y2770960D01*
X28853817Y2950224D01*
X28853817Y2950225D01*
X28853816Y2950228D01*
X28840055Y3089936D01*
X28840055Y4983370D01*
X28853815Y5123077D01*
X28853816Y5123081D01*
X28908195Y5302345D01*
X28908198Y5302350D01*
X28996501Y5467556D01*
X29115343Y5612365D01*
X29260152Y5731207D01*
X29425358Y5819511D01*
X29425359Y5819511D01*
X29425362Y5819513D01*
X29604626Y5873892D01*
X29604627Y5873892D01*
X29604630Y5873893D01*
X29791055Y5892254D01*
X29977479Y5873893D01*
G37*
G36*
X26167479Y5873893D02*
G01*
X26167482Y5873892D01*
X26167483Y5873892D01*
X26346747Y5819513D01*
X26346750Y5819511D01*
X26346751Y5819511D01*
X26511958Y5731207D01*
X26656767Y5612365D01*
X26775609Y5467556D01*
X26863913Y5302350D01*
X26863915Y5302346D01*
X26863915Y5302345D01*
X26918295Y5123078D01*
X26932055Y4983371D01*
X26932055Y3089935D01*
X26918295Y2950228D01*
X26918294Y2950225D01*
X26918294Y2950224D01*
X26863915Y2770960D01*
X26863913Y2770957D01*
X26863913Y2770956D01*
X26775609Y2605750D01*
X26656767Y2460941D01*
X26511958Y2342099D01*
X26364480Y2263271D01*
X26346748Y2253793D01*
X26167484Y2199414D01*
X26167483Y2199414D01*
X26167480Y2199413D01*
X25981055Y2181052D01*
X25794631Y2199413D01*
X25794628Y2199414D01*
X25794627Y2199414D01*
X25615363Y2253793D01*
X25597631Y2263271D01*
X25450153Y2342099D01*
X25305344Y2460941D01*
X25186502Y2605750D01*
X25098198Y2770956D01*
X25098198Y2770957D01*
X25098196Y2770960D01*
X25043817Y2950224D01*
X25043817Y2950225D01*
X25043816Y2950228D01*
X25030055Y3089936D01*
X25030055Y4983370D01*
X25043815Y5123077D01*
X25043816Y5123081D01*
X25098195Y5302345D01*
X25098198Y5302350D01*
X25186501Y5467556D01*
X25305343Y5612365D01*
X25450152Y5731207D01*
X25615358Y5819511D01*
X25615359Y5819511D01*
X25615362Y5819513D01*
X25794626Y5873892D01*
X25794627Y5873892D01*
X25794630Y5873893D01*
X25981055Y5892254D01*
X26167479Y5873893D01*
G37*
G36*
X13127479Y5873893D02*
G01*
X13127482Y5873892D01*
X13127483Y5873892D01*
X13306747Y5819513D01*
X13306750Y5819511D01*
X13306751Y5819511D01*
X13471958Y5731207D01*
X13616767Y5612365D01*
X13735609Y5467556D01*
X13823913Y5302350D01*
X13823915Y5302346D01*
X13823915Y5302345D01*
X13878295Y5123078D01*
X13892055Y4983371D01*
X13892055Y3089935D01*
X13878295Y2950228D01*
X13878294Y2950225D01*
X13878294Y2950224D01*
X13823915Y2770960D01*
X13823913Y2770957D01*
X13823913Y2770956D01*
X13735609Y2605750D01*
X13616767Y2460941D01*
X13471958Y2342099D01*
X13324480Y2263271D01*
X13306748Y2253793D01*
X13127484Y2199414D01*
X13127483Y2199414D01*
X13127480Y2199413D01*
X12941055Y2181052D01*
X12754631Y2199413D01*
X12754628Y2199414D01*
X12754627Y2199414D01*
X12575363Y2253793D01*
X12557631Y2263271D01*
X12410153Y2342099D01*
X12265344Y2460941D01*
X12146502Y2605750D01*
X12058198Y2770956D01*
X12058198Y2770957D01*
X12058196Y2770960D01*
X12003817Y2950224D01*
X12003817Y2950225D01*
X12003816Y2950228D01*
X11990055Y3089936D01*
X11990055Y4983370D01*
X12003815Y5123077D01*
X12003816Y5123081D01*
X12058195Y5302345D01*
X12058198Y5302350D01*
X12146501Y5467556D01*
X12265343Y5612365D01*
X12410152Y5731207D01*
X12575358Y5819511D01*
X12575359Y5819511D01*
X12575362Y5819513D01*
X12754626Y5873892D01*
X12754627Y5873892D01*
X12754630Y5873893D01*
X12941055Y5892254D01*
X13127479Y5873893D01*
G37*
G36*
X16937479Y5873893D02*
G01*
X16937482Y5873892D01*
X16937483Y5873892D01*
X17116747Y5819513D01*
X17116750Y5819511D01*
X17116751Y5819511D01*
X17281958Y5731207D01*
X17426767Y5612365D01*
X17545609Y5467556D01*
X17633913Y5302350D01*
X17633915Y5302346D01*
X17633915Y5302345D01*
X17688295Y5123078D01*
X17702055Y4983371D01*
X17702055Y3089935D01*
X17688295Y2950228D01*
X17688294Y2950225D01*
X17688294Y2950224D01*
X17633915Y2770960D01*
X17633913Y2770957D01*
X17633913Y2770956D01*
X17545609Y2605750D01*
X17426767Y2460941D01*
X17281958Y2342099D01*
X17134480Y2263271D01*
X17116748Y2253793D01*
X16937484Y2199414D01*
X16937483Y2199414D01*
X16937480Y2199413D01*
X16751055Y2181052D01*
X16564631Y2199413D01*
X16564628Y2199414D01*
X16564627Y2199414D01*
X16385363Y2253793D01*
X16367631Y2263271D01*
X16220153Y2342099D01*
X16075344Y2460941D01*
X15956502Y2605750D01*
X15868198Y2770956D01*
X15868198Y2770957D01*
X15868196Y2770960D01*
X15813817Y2950224D01*
X15813817Y2950225D01*
X15813816Y2950228D01*
X15800055Y3089936D01*
X15800055Y4983370D01*
X15813815Y5123077D01*
X15813816Y5123081D01*
X15868195Y5302345D01*
X15868198Y5302350D01*
X15956501Y5467556D01*
X16075343Y5612365D01*
X16220152Y5731207D01*
X16385358Y5819511D01*
X16385359Y5819511D01*
X16385362Y5819513D01*
X16564626Y5873892D01*
X16564627Y5873892D01*
X16564630Y5873893D01*
X16751055Y5892254D01*
X16937479Y5873893D01*
G37*
G36*
X22981970Y5883719D02*
G01*
X23014479Y5873858D01*
X23044437Y5857844D01*
X23070696Y5836294D01*
X23092246Y5810035D01*
X23108260Y5780077D01*
X23118121Y5747568D01*
X23122055Y5707624D01*
X23122055Y2365682D01*
X23118121Y2325738D01*
X23108260Y2293229D01*
X23092246Y2263271D01*
X23070696Y2237012D01*
X23044437Y2215462D01*
X23014479Y2199448D01*
X22981970Y2189587D01*
X22942026Y2185653D01*
X21400084Y2185653D01*
X21360140Y2189587D01*
X21327631Y2199448D01*
X21297673Y2215462D01*
X21271414Y2237012D01*
X21249864Y2263271D01*
X21233850Y2293229D01*
X21223989Y2325738D01*
X21220055Y2365682D01*
X21220055Y5707624D01*
X21223989Y5747568D01*
X21233850Y5780077D01*
X21249864Y5810035D01*
X21271414Y5836294D01*
X21297673Y5857844D01*
X21327631Y5873858D01*
X21360140Y5883719D01*
X21400084Y5887653D01*
X22942026Y5887653D01*
X22981970Y5883719D01*
G37*
G36*
X9941970Y5883719D02*
G01*
X9974479Y5873858D01*
X10004437Y5857844D01*
X10030696Y5836294D01*
X10052246Y5810035D01*
X10068260Y5780077D01*
X10078121Y5747568D01*
X10082055Y5707624D01*
X10082055Y2365682D01*
X10078121Y2325738D01*
X10068260Y2293229D01*
X10052246Y2263271D01*
X10030696Y2237012D01*
X10004437Y2215462D01*
X9974479Y2199448D01*
X9941970Y2189587D01*
X9902026Y2185653D01*
X8360084Y2185653D01*
X8320140Y2189587D01*
X8287631Y2199448D01*
X8257673Y2215462D01*
X8231414Y2237012D01*
X8209864Y2263271D01*
X8193850Y2293229D01*
X8183989Y2325738D01*
X8180055Y2365682D01*
X8180055Y5707624D01*
X8183989Y5747568D01*
X8193850Y5780077D01*
X8209864Y5810035D01*
X8231414Y5836294D01*
X8257673Y5857844D01*
X8287631Y5873858D01*
X8320140Y5883719D01*
X8360084Y5887653D01*
X9902026Y5887653D01*
X9941970Y5883719D01*
G37*
G36*
X36021970Y5883719D02*
G01*
X36054479Y5873858D01*
X36084437Y5857844D01*
X36110696Y5836294D01*
X36132246Y5810035D01*
X36148260Y5780077D01*
X36158121Y5747568D01*
X36162055Y5707624D01*
X36162055Y2365682D01*
X36158121Y2325738D01*
X36148260Y2293229D01*
X36132246Y2263271D01*
X36110696Y2237012D01*
X36084437Y2215462D01*
X36054479Y2199448D01*
X36021970Y2189587D01*
X35982026Y2185653D01*
X34440084Y2185653D01*
X34400140Y2189587D01*
X34367631Y2199448D01*
X34337673Y2215462D01*
X34311414Y2237012D01*
X34289864Y2263271D01*
X34273850Y2293229D01*
X34263989Y2325738D01*
X34260055Y2365682D01*
X34260055Y5707624D01*
X34263989Y5747568D01*
X34273850Y5780077D01*
X34289864Y5810035D01*
X34311414Y5836294D01*
X34337673Y5857844D01*
X34367631Y5873858D01*
X34400140Y5883719D01*
X34440084Y5887653D01*
X35982026Y5887653D01*
X36021970Y5883719D01*
G37*
G36*
X49061970Y5883719D02*
G01*
X49094479Y5873858D01*
X49124437Y5857844D01*
X49150696Y5836294D01*
X49172246Y5810035D01*
X49188260Y5780077D01*
X49198121Y5747568D01*
X49202055Y5707624D01*
X49202055Y2365682D01*
X49198121Y2325738D01*
X49188260Y2293229D01*
X49172246Y2263271D01*
X49150696Y2237012D01*
X49124437Y2215462D01*
X49094479Y2199448D01*
X49061970Y2189587D01*
X49022026Y2185653D01*
X47480084Y2185653D01*
X47440140Y2189587D01*
X47407631Y2199448D01*
X47377673Y2215462D01*
X47351414Y2237012D01*
X47329864Y2263271D01*
X47313850Y2293229D01*
X47303989Y2325738D01*
X47300055Y2365682D01*
X47300055Y5707624D01*
X47303989Y5747568D01*
X47313850Y5780077D01*
X47329864Y5810035D01*
X47351414Y5836294D01*
X47377673Y5857844D01*
X47407631Y5873858D01*
X47440140Y5883719D01*
X47480084Y5887653D01*
X49022026Y5887653D01*
X49061970Y5883719D01*
G37*
G36*
X3846189Y11789517D02*
G01*
X3846192Y11789516D01*
X3846191Y11789516D01*
X4374139Y11570833D01*
X4849280Y11253354D01*
X5253354Y10849280D01*
X5283208Y10804600D01*
X5570834Y10374137D01*
X5789517Y9846189D01*
X5901000Y9285725D01*
X5901000Y8714275D01*
X5789517Y8153811D01*
X5789516Y8153809D01*
X5570833Y7625861D01*
X5253354Y7150720D01*
X4849280Y6746646D01*
X4374139Y6429167D01*
X4374138Y6429166D01*
X4374137Y6429166D01*
X3846189Y6210483D01*
X3285725Y6099000D01*
X2714275Y6099000D01*
X2153811Y6210483D01*
X1625863Y6429166D01*
X1625862Y6429166D01*
X1625861Y6429167D01*
X1150720Y6746646D01*
X746646Y7150720D01*
X429167Y7625861D01*
X210484Y8153809D01*
X210483Y8153811D01*
X99000Y8714275D01*
X99000Y9285725D01*
X210483Y9846189D01*
X429166Y10374137D01*
X716792Y10804600D01*
X746646Y10849280D01*
X1150720Y11253354D01*
X1625861Y11570833D01*
X2153809Y11789516D01*
X2153808Y11789516D01*
X2153811Y11789517D01*
X2714275Y11901000D01*
X3285725Y11901000D01*
X3846189Y11789517D01*
G37*
G36*
X62846189Y11789517D02*
G01*
X62846192Y11789516D01*
X62846191Y11789516D01*
X63374139Y11570833D01*
X63849280Y11253354D01*
X64253354Y10849280D01*
X64283208Y10804600D01*
X64570834Y10374137D01*
X64789517Y9846189D01*
X64901000Y9285725D01*
X64901000Y8714275D01*
X64789517Y8153811D01*
X64789516Y8153809D01*
X64570833Y7625861D01*
X64253354Y7150720D01*
X63849280Y6746646D01*
X63374139Y6429167D01*
X63374138Y6429166D01*
X63374137Y6429166D01*
X62846189Y6210483D01*
X62285725Y6099000D01*
X61714275Y6099000D01*
X61153811Y6210483D01*
X60625863Y6429166D01*
X60625862Y6429166D01*
X60625861Y6429167D01*
X60150720Y6746646D01*
X59746646Y7150720D01*
X59429167Y7625861D01*
X59210484Y8153809D01*
X59210483Y8153811D01*
X59099000Y8714275D01*
X59099000Y9285725D01*
X59210483Y9846189D01*
X59429166Y10374137D01*
X59716792Y10804600D01*
X59746646Y10849280D01*
X60150720Y11253354D01*
X60625861Y11570833D01*
X61153809Y11789516D01*
X61153808Y11789516D01*
X61153811Y11789517D01*
X61714275Y11901000D01*
X62285725Y11901000D01*
X62846189Y11789517D01*
G37*
G36*
X37657800Y8264600D02*
G01*
X35574600Y8264600D01*
X35574600Y8925400D01*
X37657800Y8925400D01*
X37657800Y8264600D01*
G37*
G36*
X42585400Y8264600D02*
G01*
X40502200Y8264600D01*
X40502200Y8925400D01*
X42585400Y8925400D01*
X42585400Y8264600D01*
G37*
G36*
X50697800Y8264600D02*
G01*
X48614600Y8264600D01*
X48614600Y8925400D01*
X50697800Y8925400D01*
X50697800Y8264600D01*
G37*
G36*
X55625400Y8264600D02*
G01*
X53542200Y8264600D01*
X53542200Y8925400D01*
X55625400Y8925400D01*
X55625400Y8264600D01*
G37*
G36*
X29545400Y8264600D02*
G01*
X27462200Y8264600D01*
X27462200Y8925400D01*
X29545400Y8925400D01*
X29545400Y8264600D01*
G37*
G36*
X24617800Y8264600D02*
G01*
X22534600Y8264600D01*
X22534600Y8925400D01*
X24617800Y8925400D01*
X24617800Y8264600D01*
G37*
G36*
X16505400Y8264600D02*
G01*
X14422200Y8264600D01*
X14422200Y8925400D01*
X16505400Y8925400D01*
X16505400Y8264600D01*
G37*
G36*
X11577800Y8264600D02*
G01*
X9494600Y8264600D01*
X9494600Y8925400D01*
X11577800Y8925400D01*
X11577800Y8264600D01*
G37*
G36*
X11577800Y9534600D02*
G01*
X9494600Y9534600D01*
X9494600Y10195400D01*
X11577800Y10195400D01*
X11577800Y9534600D01*
G37*
G36*
X16505400Y9534600D02*
G01*
X14422200Y9534600D01*
X14422200Y10195400D01*
X16505400Y10195400D01*
X16505400Y9534600D01*
G37*
G36*
X24617800Y9534600D02*
G01*
X22534600Y9534600D01*
X22534600Y10195400D01*
X24617800Y10195400D01*
X24617800Y9534600D01*
G37*
G36*
X37657800Y9534600D02*
G01*
X35574600Y9534600D01*
X35574600Y10195400D01*
X37657800Y10195400D01*
X37657800Y9534600D01*
G37*
G36*
X42585400Y9534600D02*
G01*
X40502200Y9534600D01*
X40502200Y10195400D01*
X42585400Y10195400D01*
X42585400Y9534600D01*
G37*
G36*
X50697800Y9534600D02*
G01*
X48614600Y9534600D01*
X48614600Y10195400D01*
X50697800Y10195400D01*
X50697800Y9534600D01*
G37*
G36*
X29545400Y9534600D02*
G01*
X27462200Y9534600D01*
X27462200Y10195400D01*
X29545400Y10195400D01*
X29545400Y9534600D01*
G37*
G36*
X55625400Y9534600D02*
G01*
X53542200Y9534600D01*
X53542200Y10195400D01*
X55625400Y10195400D01*
X55625400Y9534600D01*
G37*
G36*
X50697800Y10804600D02*
G01*
X48614600Y10804600D01*
X48614600Y11465400D01*
X50697800Y11465400D01*
X50697800Y10804600D01*
G37*
G36*
X55625400Y10804600D02*
G01*
X53542200Y10804600D01*
X53542200Y11465400D01*
X55625400Y11465400D01*
X55625400Y10804600D01*
G37*
G36*
X37657800Y10804600D02*
G01*
X35574600Y10804600D01*
X35574600Y11465400D01*
X37657800Y11465400D01*
X37657800Y10804600D01*
G37*
G36*
X11577800Y10804600D02*
G01*
X9494600Y10804600D01*
X9494600Y11465400D01*
X11577800Y11465400D01*
X11577800Y10804600D01*
G37*
G36*
X42585400Y10804600D02*
G01*
X40502200Y10804600D01*
X40502200Y11465400D01*
X42585400Y11465400D01*
X42585400Y10804600D01*
G37*
G36*
X24617800Y10804600D02*
G01*
X22534600Y10804600D01*
X22534600Y11465400D01*
X24617800Y11465400D01*
X24617800Y10804600D01*
G37*
G36*
X16505400Y10804600D02*
G01*
X14422200Y10804600D01*
X14422200Y11465400D01*
X16505400Y11465400D01*
X16505400Y10804600D01*
G37*
G36*
X29545400Y10804600D02*
G01*
X27462200Y10804600D01*
X27462200Y11465400D01*
X29545400Y11465400D01*
X29545400Y10804600D01*
G37*
G36*
X24617800Y12074600D02*
G01*
X22534600Y12074600D01*
X22534600Y12735400D01*
X24617800Y12735400D01*
X24617800Y12074600D01*
G37*
G36*
X37657800Y12074600D02*
G01*
X35574600Y12074600D01*
X35574600Y12735400D01*
X37657800Y12735400D01*
X37657800Y12074600D01*
G37*
G36*
X50697800Y12074600D02*
G01*
X48614600Y12074600D01*
X48614600Y12735400D01*
X50697800Y12735400D01*
X50697800Y12074600D01*
G37*
G36*
X55625400Y12074600D02*
G01*
X53542200Y12074600D01*
X53542200Y12735400D01*
X55625400Y12735400D01*
X55625400Y12074600D01*
G37*
G36*
X42585400Y12074600D02*
G01*
X40502200Y12074600D01*
X40502200Y12735400D01*
X42585400Y12735400D01*
X42585400Y12074600D01*
G37*
G36*
X29545400Y12074600D02*
G01*
X27462200Y12074600D01*
X27462200Y12735400D01*
X29545400Y12735400D01*
X29545400Y12074600D01*
G37*
G36*
X16505400Y12074600D02*
G01*
X14422200Y12074600D01*
X14422200Y12735400D01*
X16505400Y12735400D01*
X16505400Y12074600D01*
G37*
G36*
X11577800Y12074600D02*
G01*
X9494600Y12074600D01*
X9494600Y12735400D01*
X11577800Y12735400D01*
X11577800Y12074600D01*
G37*
G36*
X12564846Y14475036D02*
G01*
X10762846Y14475036D01*
X10762846Y16277036D01*
X12564846Y16277036D01*
X12564846Y14475036D01*
G37*
G36*
X40397358Y16272109D02*
G01*
X40546658Y16242412D01*
X40710630Y16174492D01*
X40858200Y16075889D01*
X40983699Y15950390D01*
X41082302Y15802820D01*
X41150222Y15638848D01*
X41184846Y15464777D01*
X41184846Y15287295D01*
X41150222Y15113224D01*
X41082302Y14949252D01*
X40983699Y14801682D01*
X40858200Y14676183D01*
X40710630Y14577580D01*
X40546658Y14509660D01*
X40397358Y14479963D01*
X40372588Y14475036D01*
X40195104Y14475036D01*
X40170334Y14479963D01*
X40021034Y14509660D01*
X39857062Y14577580D01*
X39709492Y14676183D01*
X39583993Y14801682D01*
X39485390Y14949252D01*
X39417470Y15113224D01*
X39382846Y15287295D01*
X39382846Y15464777D01*
X39417470Y15638848D01*
X39485390Y15802820D01*
X39583993Y15950390D01*
X39709492Y16075889D01*
X39857062Y16174492D01*
X40021034Y16242412D01*
X40170334Y16272109D01*
X40195104Y16277036D01*
X40372588Y16277036D01*
X40397358Y16272109D01*
G37*
G36*
X38644846Y14475036D02*
G01*
X36842846Y14475036D01*
X36842846Y16277036D01*
X38644846Y16277036D01*
X38644846Y14475036D01*
G37*
G36*
X61653512Y16272109D02*
G01*
X61802812Y16242412D01*
X61966784Y16174492D01*
X62114354Y16075889D01*
X62239853Y15950390D01*
X62338456Y15802820D01*
X62406376Y15638848D01*
X62441000Y15464777D01*
X62441000Y15287295D01*
X62406376Y15113224D01*
X62338456Y14949252D01*
X62239853Y14801682D01*
X62114354Y14676183D01*
X61966784Y14577580D01*
X61802812Y14509660D01*
X61653512Y14479963D01*
X61628742Y14475036D01*
X61451258Y14475036D01*
X61426488Y14479963D01*
X61277188Y14509660D01*
X61113216Y14577580D01*
X60965646Y14676183D01*
X60840147Y14801682D01*
X60741544Y14949252D01*
X60673624Y15113224D01*
X60639000Y15287295D01*
X60639000Y15464777D01*
X60673624Y15638848D01*
X60741544Y15802820D01*
X60840147Y15950390D01*
X60965646Y16075889D01*
X61113216Y16174492D01*
X61277188Y16242412D01*
X61426488Y16272109D01*
X61451258Y16277036D01*
X61628742Y16277036D01*
X61653512Y16272109D01*
G37*
G36*
X27357358Y16272109D02*
G01*
X27506658Y16242412D01*
X27670630Y16174492D01*
X27818200Y16075889D01*
X27943699Y15950390D01*
X28042302Y15802820D01*
X28110222Y15638848D01*
X28144846Y15464777D01*
X28144846Y15287295D01*
X28110222Y15113224D01*
X28042302Y14949252D01*
X27943699Y14801682D01*
X27818200Y14676183D01*
X27670630Y14577580D01*
X27506658Y14509660D01*
X27357358Y14479963D01*
X27332588Y14475036D01*
X27155104Y14475036D01*
X27130334Y14479963D01*
X26981034Y14509660D01*
X26817062Y14577580D01*
X26669492Y14676183D01*
X26543993Y14801682D01*
X26445390Y14949252D01*
X26377470Y15113224D01*
X26342846Y15287295D01*
X26342846Y15464777D01*
X26377470Y15638848D01*
X26445390Y15802820D01*
X26543993Y15950390D01*
X26669492Y16075889D01*
X26817062Y16174492D01*
X26981034Y16242412D01*
X27130334Y16272109D01*
X27155104Y16277036D01*
X27332588Y16277036D01*
X27357358Y16272109D01*
G37*
G36*
X25604846Y14475036D02*
G01*
X23802846Y14475036D01*
X23802846Y16277036D01*
X25604846Y16277036D01*
X25604846Y14475036D01*
G37*
G36*
X14317358Y16272109D02*
G01*
X14466658Y16242412D01*
X14630630Y16174492D01*
X14778200Y16075889D01*
X14903699Y15950390D01*
X15002302Y15802820D01*
X15070222Y15638848D01*
X15104846Y15464777D01*
X15104846Y15287295D01*
X15070222Y15113224D01*
X15002302Y14949252D01*
X14903699Y14801682D01*
X14778200Y14676183D01*
X14630630Y14577580D01*
X14466658Y14509660D01*
X14317358Y14479963D01*
X14292588Y14475036D01*
X14115104Y14475036D01*
X14090334Y14479963D01*
X13941034Y14509660D01*
X13777062Y14577580D01*
X13629492Y14676183D01*
X13503993Y14801682D01*
X13405390Y14949252D01*
X13337470Y15113224D01*
X13302846Y15287295D01*
X13302846Y15464777D01*
X13337470Y15638848D01*
X13405390Y15802820D01*
X13503993Y15950390D01*
X13629492Y16075889D01*
X13777062Y16174492D01*
X13941034Y16242412D01*
X14090334Y16272109D01*
X14115104Y16277036D01*
X14292588Y16277036D01*
X14317358Y16272109D01*
G37*
G36*
X59901000Y14475036D02*
G01*
X58099000Y14475036D01*
X58099000Y16277036D01*
X59901000Y16277036D01*
X59901000Y14475036D01*
G37*
G36*
X53437358Y16272109D02*
G01*
X53586658Y16242412D01*
X53750630Y16174492D01*
X53898200Y16075889D01*
X54023699Y15950390D01*
X54122302Y15802820D01*
X54190222Y15638848D01*
X54224846Y15464777D01*
X54224846Y15287295D01*
X54190222Y15113224D01*
X54122302Y14949252D01*
X54023699Y14801682D01*
X53898200Y14676183D01*
X53750630Y14577580D01*
X53586658Y14509660D01*
X53437358Y14479963D01*
X53412588Y14475036D01*
X53235104Y14475036D01*
X53210334Y14479963D01*
X53061034Y14509660D01*
X52897062Y14577580D01*
X52749492Y14676183D01*
X52623993Y14801682D01*
X52525390Y14949252D01*
X52457470Y15113224D01*
X52422846Y15287295D01*
X52422846Y15464777D01*
X52457470Y15638848D01*
X52525390Y15802820D01*
X52623993Y15950390D01*
X52749492Y16075889D01*
X52897062Y16174492D01*
X53061034Y16242412D01*
X53210334Y16272109D01*
X53235104Y16277036D01*
X53412588Y16277036D01*
X53437358Y16272109D01*
G37*
G36*
X51684846Y14475036D02*
G01*
X49882846Y14475036D01*
X49882846Y16277036D01*
X51684846Y16277036D01*
X51684846Y14475036D01*
G37*
M02*
