G04 #@! TF.GenerationSoftware,KiCad,Pcbnew,(5.1.2)-1*
G04 #@! TF.CreationDate,2020-06-05T15:14:38-04:00*
G04 #@! TF.ProjectId,Step_Direction_Board,53746570-5f44-4697-9265-6374696f6e5f,rev?*
G04 #@! TF.SameCoordinates,Original*
G04 #@! TF.FileFunction,Other,ECO2*
%FSLAX46Y46*%
G04 Gerber Fmt 4.6, Leading zero omitted, Abs format (unit mm)*
G04 Created by KiCad (PCBNEW (5.1.2)-1) date 2020-06-05 15:14:38*
%MOMM*%
%LPD*%
G04 APERTURE LIST*
%ADD10C,0.150000*%
G04 APERTURE END LIST*
D10*
X115152380Y-124571428D02*
X115152380Y-125142857D01*
X115152380Y-124857142D02*
X114152380Y-124857142D01*
X114295238Y-124952380D01*
X114390476Y-125047619D01*
X114438095Y-125142857D01*
X115152380Y-123619047D02*
X115152380Y-124190476D01*
X115152380Y-123904761D02*
X114152380Y-123904761D01*
X114295238Y-124000000D01*
X114390476Y-124095238D01*
X114438095Y-124190476D01*
X115057142Y-123190476D02*
X115104761Y-123142857D01*
X115152380Y-123190476D01*
X115104761Y-123238095D01*
X115057142Y-123190476D01*
X115152380Y-123190476D01*
X114152380Y-122523809D02*
X114152380Y-122428571D01*
X114200000Y-122333333D01*
X114247619Y-122285714D01*
X114342857Y-122238095D01*
X114533333Y-122190476D01*
X114771428Y-122190476D01*
X114961904Y-122238095D01*
X115057142Y-122285714D01*
X115104761Y-122333333D01*
X115152380Y-122428571D01*
X115152380Y-122523809D01*
X115104761Y-122619047D01*
X115057142Y-122666666D01*
X114961904Y-122714285D01*
X114771428Y-122761904D01*
X114533333Y-122761904D01*
X114342857Y-122714285D01*
X114247619Y-122666666D01*
X114200000Y-122619047D01*
X114152380Y-122523809D01*
X114152380Y-121571428D02*
X114152380Y-121476190D01*
X114200000Y-121380952D01*
X114247619Y-121333333D01*
X114342857Y-121285714D01*
X114533333Y-121238095D01*
X114771428Y-121238095D01*
X114961904Y-121285714D01*
X115057142Y-121333333D01*
X115104761Y-121380952D01*
X115152380Y-121476190D01*
X115152380Y-121571428D01*
X115104761Y-121666666D01*
X115057142Y-121714285D01*
X114961904Y-121761904D01*
X114771428Y-121809523D01*
X114533333Y-121809523D01*
X114342857Y-121761904D01*
X114247619Y-121714285D01*
X114200000Y-121666666D01*
X114152380Y-121571428D01*
X114152380Y-120619047D02*
X114152380Y-120523809D01*
X114200000Y-120428571D01*
X114247619Y-120380952D01*
X114342857Y-120333333D01*
X114533333Y-120285714D01*
X114771428Y-120285714D01*
X114961904Y-120333333D01*
X115057142Y-120380952D01*
X115104761Y-120428571D01*
X115152380Y-120523809D01*
X115152380Y-120619047D01*
X115104761Y-120714285D01*
X115057142Y-120761904D01*
X114961904Y-120809523D01*
X114771428Y-120857142D01*
X114533333Y-120857142D01*
X114342857Y-120809523D01*
X114247619Y-120761904D01*
X114200000Y-120714285D01*
X114152380Y-120619047D01*
X115152380Y-119095238D02*
X114485714Y-119095238D01*
X114580952Y-119095238D02*
X114533333Y-119047619D01*
X114485714Y-118952380D01*
X114485714Y-118809523D01*
X114533333Y-118714285D01*
X114628571Y-118666666D01*
X115152380Y-118666666D01*
X114628571Y-118666666D02*
X114533333Y-118619047D01*
X114485714Y-118523809D01*
X114485714Y-118380952D01*
X114533333Y-118285714D01*
X114628571Y-118238095D01*
X115152380Y-118238095D01*
X115152380Y-117761904D02*
X114485714Y-117761904D01*
X114580952Y-117761904D02*
X114533333Y-117714285D01*
X114485714Y-117619047D01*
X114485714Y-117476190D01*
X114533333Y-117380952D01*
X114628571Y-117333333D01*
X115152380Y-117333333D01*
X114628571Y-117333333D02*
X114533333Y-117285714D01*
X114485714Y-117190476D01*
X114485714Y-117047619D01*
X114533333Y-116952380D01*
X114628571Y-116904761D01*
X115152380Y-116904761D01*
X116000000Y-126500000D02*
X116000000Y-115500000D01*
X123000000Y-126500000D02*
X115413579Y-126500000D01*
X123000000Y-115500000D02*
X115413579Y-115500000D01*
X116000000Y-115500000D02*
X116586421Y-116626504D01*
X116000000Y-115500000D02*
X115413579Y-116626504D01*
X116000000Y-126500000D02*
X116586421Y-125373496D01*
X116000000Y-126500000D02*
X115413579Y-125373496D01*
X148833333Y-139002380D02*
X148642857Y-139002380D01*
X148547619Y-139050000D01*
X148500000Y-139097619D01*
X148404761Y-139240476D01*
X148357142Y-139430952D01*
X148357142Y-139811904D01*
X148404761Y-139907142D01*
X148452380Y-139954761D01*
X148547619Y-140002380D01*
X148738095Y-140002380D01*
X148833333Y-139954761D01*
X148880952Y-139907142D01*
X148928571Y-139811904D01*
X148928571Y-139573809D01*
X148880952Y-139478571D01*
X148833333Y-139430952D01*
X148738095Y-139383333D01*
X148547619Y-139383333D01*
X148452380Y-139430952D01*
X148404761Y-139478571D01*
X148357142Y-139573809D01*
X149785714Y-139002380D02*
X149595238Y-139002380D01*
X149500000Y-139050000D01*
X149452380Y-139097619D01*
X149357142Y-139240476D01*
X149309523Y-139430952D01*
X149309523Y-139811904D01*
X149357142Y-139907142D01*
X149404761Y-139954761D01*
X149500000Y-140002380D01*
X149690476Y-140002380D01*
X149785714Y-139954761D01*
X149833333Y-139907142D01*
X149880952Y-139811904D01*
X149880952Y-139573809D01*
X149833333Y-139478571D01*
X149785714Y-139430952D01*
X149690476Y-139383333D01*
X149500000Y-139383333D01*
X149404761Y-139430952D01*
X149357142Y-139478571D01*
X149309523Y-139573809D01*
X150309523Y-139907142D02*
X150357142Y-139954761D01*
X150309523Y-140002380D01*
X150261904Y-139954761D01*
X150309523Y-139907142D01*
X150309523Y-140002380D01*
X150976190Y-139002380D02*
X151071428Y-139002380D01*
X151166666Y-139050000D01*
X151214285Y-139097619D01*
X151261904Y-139192857D01*
X151309523Y-139383333D01*
X151309523Y-139621428D01*
X151261904Y-139811904D01*
X151214285Y-139907142D01*
X151166666Y-139954761D01*
X151071428Y-140002380D01*
X150976190Y-140002380D01*
X150880952Y-139954761D01*
X150833333Y-139907142D01*
X150785714Y-139811904D01*
X150738095Y-139621428D01*
X150738095Y-139383333D01*
X150785714Y-139192857D01*
X150833333Y-139097619D01*
X150880952Y-139050000D01*
X150976190Y-139002380D01*
X151928571Y-139002380D02*
X152023809Y-139002380D01*
X152119047Y-139050000D01*
X152166666Y-139097619D01*
X152214285Y-139192857D01*
X152261904Y-139383333D01*
X152261904Y-139621428D01*
X152214285Y-139811904D01*
X152166666Y-139907142D01*
X152119047Y-139954761D01*
X152023809Y-140002380D01*
X151928571Y-140002380D01*
X151833333Y-139954761D01*
X151785714Y-139907142D01*
X151738095Y-139811904D01*
X151690476Y-139621428D01*
X151690476Y-139383333D01*
X151738095Y-139192857D01*
X151785714Y-139097619D01*
X151833333Y-139050000D01*
X151928571Y-139002380D01*
X152880952Y-139002380D02*
X152976190Y-139002380D01*
X153071428Y-139050000D01*
X153119047Y-139097619D01*
X153166666Y-139192857D01*
X153214285Y-139383333D01*
X153214285Y-139621428D01*
X153166666Y-139811904D01*
X153119047Y-139907142D01*
X153071428Y-139954761D01*
X152976190Y-140002380D01*
X152880952Y-140002380D01*
X152785714Y-139954761D01*
X152738095Y-139907142D01*
X152690476Y-139811904D01*
X152642857Y-139621428D01*
X152642857Y-139383333D01*
X152690476Y-139192857D01*
X152738095Y-139097619D01*
X152785714Y-139050000D01*
X152880952Y-139002380D01*
X154404761Y-140002380D02*
X154404761Y-139335714D01*
X154404761Y-139430952D02*
X154452380Y-139383333D01*
X154547619Y-139335714D01*
X154690476Y-139335714D01*
X154785714Y-139383333D01*
X154833333Y-139478571D01*
X154833333Y-140002380D01*
X154833333Y-139478571D02*
X154880952Y-139383333D01*
X154976190Y-139335714D01*
X155119047Y-139335714D01*
X155214285Y-139383333D01*
X155261904Y-139478571D01*
X155261904Y-140002380D01*
X155738095Y-140002380D02*
X155738095Y-139335714D01*
X155738095Y-139430952D02*
X155785714Y-139383333D01*
X155880952Y-139335714D01*
X156023809Y-139335714D01*
X156119047Y-139383333D01*
X156166666Y-139478571D01*
X156166666Y-140002380D01*
X156166666Y-139478571D02*
X156214285Y-139383333D01*
X156309523Y-139335714D01*
X156452380Y-139335714D01*
X156547619Y-139383333D01*
X156595238Y-139478571D01*
X156595238Y-140002380D01*
X119500000Y-138250000D02*
X185500000Y-138250000D01*
X119500000Y-120000000D02*
X119500000Y-138836421D01*
X185500000Y-120000000D02*
X185500000Y-138836421D01*
X185500000Y-138250000D02*
X184373496Y-138836421D01*
X185500000Y-138250000D02*
X184373496Y-137663579D01*
X119500000Y-138250000D02*
X120626504Y-138836421D01*
X119500000Y-138250000D02*
X120626504Y-137663579D01*
X190097619Y-119892857D02*
X190050000Y-119845238D01*
X190002380Y-119750000D01*
X190002380Y-119511904D01*
X190050000Y-119416666D01*
X190097619Y-119369047D01*
X190192857Y-119321428D01*
X190288095Y-119321428D01*
X190430952Y-119369047D01*
X191002380Y-119940476D01*
X191002380Y-119321428D01*
X191002380Y-118369047D02*
X191002380Y-118940476D01*
X191002380Y-118654761D02*
X190002380Y-118654761D01*
X190145238Y-118750000D01*
X190240476Y-118845238D01*
X190288095Y-118940476D01*
X190907142Y-117940476D02*
X190954761Y-117892857D01*
X191002380Y-117940476D01*
X190954761Y-117988095D01*
X190907142Y-117940476D01*
X191002380Y-117940476D01*
X190002380Y-116988095D02*
X190002380Y-117464285D01*
X190478571Y-117511904D01*
X190430952Y-117464285D01*
X190383333Y-117369047D01*
X190383333Y-117130952D01*
X190430952Y-117035714D01*
X190478571Y-116988095D01*
X190573809Y-116940476D01*
X190811904Y-116940476D01*
X190907142Y-116988095D01*
X190954761Y-117035714D01*
X191002380Y-117130952D01*
X191002380Y-117369047D01*
X190954761Y-117464285D01*
X190907142Y-117511904D01*
X190002380Y-116321428D02*
X190002380Y-116226190D01*
X190050000Y-116130952D01*
X190097619Y-116083333D01*
X190192857Y-116035714D01*
X190383333Y-115988095D01*
X190621428Y-115988095D01*
X190811904Y-116035714D01*
X190907142Y-116083333D01*
X190954761Y-116130952D01*
X191002380Y-116226190D01*
X191002380Y-116321428D01*
X190954761Y-116416666D01*
X190907142Y-116464285D01*
X190811904Y-116511904D01*
X190621428Y-116559523D01*
X190383333Y-116559523D01*
X190192857Y-116511904D01*
X190097619Y-116464285D01*
X190050000Y-116416666D01*
X190002380Y-116321428D01*
X190002380Y-115369047D02*
X190002380Y-115273809D01*
X190050000Y-115178571D01*
X190097619Y-115130952D01*
X190192857Y-115083333D01*
X190383333Y-115035714D01*
X190621428Y-115035714D01*
X190811904Y-115083333D01*
X190907142Y-115130952D01*
X190954761Y-115178571D01*
X191002380Y-115273809D01*
X191002380Y-115369047D01*
X190954761Y-115464285D01*
X190907142Y-115511904D01*
X190811904Y-115559523D01*
X190621428Y-115607142D01*
X190383333Y-115607142D01*
X190192857Y-115559523D01*
X190097619Y-115511904D01*
X190050000Y-115464285D01*
X190002380Y-115369047D01*
X191002380Y-113845238D02*
X190335714Y-113845238D01*
X190430952Y-113845238D02*
X190383333Y-113797619D01*
X190335714Y-113702380D01*
X190335714Y-113559523D01*
X190383333Y-113464285D01*
X190478571Y-113416666D01*
X191002380Y-113416666D01*
X190478571Y-113416666D02*
X190383333Y-113369047D01*
X190335714Y-113273809D01*
X190335714Y-113130952D01*
X190383333Y-113035714D01*
X190478571Y-112988095D01*
X191002380Y-112988095D01*
X191002380Y-112511904D02*
X190335714Y-112511904D01*
X190430952Y-112511904D02*
X190383333Y-112464285D01*
X190335714Y-112369047D01*
X190335714Y-112226190D01*
X190383333Y-112130952D01*
X190478571Y-112083333D01*
X191002380Y-112083333D01*
X190478571Y-112083333D02*
X190383333Y-112035714D01*
X190335714Y-111940476D01*
X190335714Y-111797619D01*
X190383333Y-111702380D01*
X190478571Y-111654761D01*
X191002380Y-111654761D01*
X189250000Y-126500000D02*
X189250000Y-105000000D01*
X178500000Y-126500000D02*
X189836421Y-126500000D01*
X178500000Y-105000000D02*
X189836421Y-105000000D01*
X189250000Y-105000000D02*
X189836421Y-106126504D01*
X189250000Y-105000000D02*
X188663579Y-106126504D01*
X189250000Y-126500000D02*
X189836421Y-125373496D01*
X189250000Y-126500000D02*
X188663579Y-125373496D01*
X148880952Y-134002380D02*
X148404761Y-134002380D01*
X148357142Y-134478571D01*
X148404761Y-134430952D01*
X148500000Y-134383333D01*
X148738095Y-134383333D01*
X148833333Y-134430952D01*
X148880952Y-134478571D01*
X148928571Y-134573809D01*
X148928571Y-134811904D01*
X148880952Y-134907142D01*
X148833333Y-134954761D01*
X148738095Y-135002380D01*
X148500000Y-135002380D01*
X148404761Y-134954761D01*
X148357142Y-134907142D01*
X149404761Y-135002380D02*
X149595238Y-135002380D01*
X149690476Y-134954761D01*
X149738095Y-134907142D01*
X149833333Y-134764285D01*
X149880952Y-134573809D01*
X149880952Y-134192857D01*
X149833333Y-134097619D01*
X149785714Y-134050000D01*
X149690476Y-134002380D01*
X149500000Y-134002380D01*
X149404761Y-134050000D01*
X149357142Y-134097619D01*
X149309523Y-134192857D01*
X149309523Y-134430952D01*
X149357142Y-134526190D01*
X149404761Y-134573809D01*
X149500000Y-134621428D01*
X149690476Y-134621428D01*
X149785714Y-134573809D01*
X149833333Y-134526190D01*
X149880952Y-134430952D01*
X150309523Y-134907142D02*
X150357142Y-134954761D01*
X150309523Y-135002380D01*
X150261904Y-134954761D01*
X150309523Y-134907142D01*
X150309523Y-135002380D01*
X150976190Y-134002380D02*
X151071428Y-134002380D01*
X151166666Y-134050000D01*
X151214285Y-134097619D01*
X151261904Y-134192857D01*
X151309523Y-134383333D01*
X151309523Y-134621428D01*
X151261904Y-134811904D01*
X151214285Y-134907142D01*
X151166666Y-134954761D01*
X151071428Y-135002380D01*
X150976190Y-135002380D01*
X150880952Y-134954761D01*
X150833333Y-134907142D01*
X150785714Y-134811904D01*
X150738095Y-134621428D01*
X150738095Y-134383333D01*
X150785714Y-134192857D01*
X150833333Y-134097619D01*
X150880952Y-134050000D01*
X150976190Y-134002380D01*
X151928571Y-134002380D02*
X152023809Y-134002380D01*
X152119047Y-134050000D01*
X152166666Y-134097619D01*
X152214285Y-134192857D01*
X152261904Y-134383333D01*
X152261904Y-134621428D01*
X152214285Y-134811904D01*
X152166666Y-134907142D01*
X152119047Y-134954761D01*
X152023809Y-135002380D01*
X151928571Y-135002380D01*
X151833333Y-134954761D01*
X151785714Y-134907142D01*
X151738095Y-134811904D01*
X151690476Y-134621428D01*
X151690476Y-134383333D01*
X151738095Y-134192857D01*
X151785714Y-134097619D01*
X151833333Y-134050000D01*
X151928571Y-134002380D01*
X152880952Y-134002380D02*
X152976190Y-134002380D01*
X153071428Y-134050000D01*
X153119047Y-134097619D01*
X153166666Y-134192857D01*
X153214285Y-134383333D01*
X153214285Y-134621428D01*
X153166666Y-134811904D01*
X153119047Y-134907142D01*
X153071428Y-134954761D01*
X152976190Y-135002380D01*
X152880952Y-135002380D01*
X152785714Y-134954761D01*
X152738095Y-134907142D01*
X152690476Y-134811904D01*
X152642857Y-134621428D01*
X152642857Y-134383333D01*
X152690476Y-134192857D01*
X152738095Y-134097619D01*
X152785714Y-134050000D01*
X152880952Y-134002380D01*
X154404761Y-135002380D02*
X154404761Y-134335714D01*
X154404761Y-134430952D02*
X154452380Y-134383333D01*
X154547619Y-134335714D01*
X154690476Y-134335714D01*
X154785714Y-134383333D01*
X154833333Y-134478571D01*
X154833333Y-135002380D01*
X154833333Y-134478571D02*
X154880952Y-134383333D01*
X154976190Y-134335714D01*
X155119047Y-134335714D01*
X155214285Y-134383333D01*
X155261904Y-134478571D01*
X155261904Y-135002380D01*
X155738095Y-135002380D02*
X155738095Y-134335714D01*
X155738095Y-134430952D02*
X155785714Y-134383333D01*
X155880952Y-134335714D01*
X156023809Y-134335714D01*
X156119047Y-134383333D01*
X156166666Y-134478571D01*
X156166666Y-135002380D01*
X156166666Y-134478571D02*
X156214285Y-134383333D01*
X156309523Y-134335714D01*
X156452380Y-134335714D01*
X156547619Y-134383333D01*
X156595238Y-134478571D01*
X156595238Y-135002380D01*
X182000000Y-133250000D02*
X123000000Y-133250000D01*
X182000000Y-117500000D02*
X182000000Y-133836421D01*
X123000000Y-117500000D02*
X123000000Y-133836421D01*
X123000000Y-133250000D02*
X124126504Y-132663579D01*
X123000000Y-133250000D02*
X124126504Y-133836421D01*
X182000000Y-133250000D02*
X180873496Y-132663579D01*
X182000000Y-133250000D02*
X180873496Y-133836421D01*
M02*
