G04 #@! TF.GenerationSoftware,KiCad,Pcbnew,(5.1.2)-1*
G04 #@! TF.CreationDate,2020-06-05T15:14:38-04:00*
G04 #@! TF.ProjectId,Step_Direction_Board,53746570-5f44-4697-9265-6374696f6e5f,rev?*
G04 #@! TF.SameCoordinates,Original*
G04 #@! TF.FileFunction,Legend,Top*
G04 #@! TF.FilePolarity,Positive*
%FSLAX46Y46*%
G04 Gerber Fmt 4.6, Leading zero omitted, Abs format (unit mm)*
G04 Created by KiCad (PCBNEW (5.1.2)-1) date 2020-06-05 15:14:38*
%MOMM*%
%LPD*%
G04 APERTURE LIST*
%ADD10C,0.150000*%
%ADD11C,0.120000*%
G04 APERTURE END LIST*
D10*
X173047619Y-111335595D02*
X174047619Y-111335595D01*
X174047619Y-111573690D01*
X174000000Y-111716547D01*
X173904761Y-111811785D01*
X173809523Y-111859404D01*
X173619047Y-111907023D01*
X173476190Y-111907023D01*
X173285714Y-111859404D01*
X173190476Y-111811785D01*
X173095238Y-111716547D01*
X173047619Y-111573690D01*
X173047619Y-111335595D01*
X174047619Y-112240357D02*
X174047619Y-112859404D01*
X173666666Y-112526071D01*
X173666666Y-112668928D01*
X173619047Y-112764166D01*
X173571428Y-112811785D01*
X173476190Y-112859404D01*
X173238095Y-112859404D01*
X173142857Y-112811785D01*
X173095238Y-112764166D01*
X173047619Y-112668928D01*
X173047619Y-112383214D01*
X173095238Y-112287976D01*
X173142857Y-112240357D01*
X170595238Y-111287976D02*
X170547619Y-111430833D01*
X170547619Y-111668928D01*
X170595238Y-111764166D01*
X170642857Y-111811785D01*
X170738095Y-111859404D01*
X170833333Y-111859404D01*
X170928571Y-111811785D01*
X170976190Y-111764166D01*
X171023809Y-111668928D01*
X171071428Y-111478452D01*
X171119047Y-111383214D01*
X171166666Y-111335595D01*
X171261904Y-111287976D01*
X171357142Y-111287976D01*
X171452380Y-111335595D01*
X171500000Y-111383214D01*
X171547619Y-111478452D01*
X171547619Y-111716547D01*
X171500000Y-111859404D01*
X171547619Y-112192738D02*
X171547619Y-112811785D01*
X171166666Y-112478452D01*
X171166666Y-112621309D01*
X171119047Y-112716547D01*
X171071428Y-112764166D01*
X170976190Y-112811785D01*
X170738095Y-112811785D01*
X170642857Y-112764166D01*
X170595238Y-112716547D01*
X170547619Y-112621309D01*
X170547619Y-112335595D01*
X170595238Y-112240357D01*
X170642857Y-112192738D01*
X162547619Y-111335595D02*
X163547619Y-111335595D01*
X163547619Y-111573690D01*
X163500000Y-111716547D01*
X163404761Y-111811785D01*
X163309523Y-111859404D01*
X163119047Y-111907023D01*
X162976190Y-111907023D01*
X162785714Y-111859404D01*
X162690476Y-111811785D01*
X162595238Y-111716547D01*
X162547619Y-111573690D01*
X162547619Y-111335595D01*
X163452380Y-112287976D02*
X163500000Y-112335595D01*
X163547619Y-112430833D01*
X163547619Y-112668928D01*
X163500000Y-112764166D01*
X163452380Y-112811785D01*
X163357142Y-112859404D01*
X163261904Y-112859404D01*
X163119047Y-112811785D01*
X162547619Y-112240357D01*
X162547619Y-112859404D01*
X160095238Y-111287976D02*
X160047619Y-111430833D01*
X160047619Y-111668928D01*
X160095238Y-111764166D01*
X160142857Y-111811785D01*
X160238095Y-111859404D01*
X160333333Y-111859404D01*
X160428571Y-111811785D01*
X160476190Y-111764166D01*
X160523809Y-111668928D01*
X160571428Y-111478452D01*
X160619047Y-111383214D01*
X160666666Y-111335595D01*
X160761904Y-111287976D01*
X160857142Y-111287976D01*
X160952380Y-111335595D01*
X161000000Y-111383214D01*
X161047619Y-111478452D01*
X161047619Y-111716547D01*
X161000000Y-111859404D01*
X160952380Y-112240357D02*
X161000000Y-112287976D01*
X161047619Y-112383214D01*
X161047619Y-112621309D01*
X161000000Y-112716547D01*
X160952380Y-112764166D01*
X160857142Y-112811785D01*
X160761904Y-112811785D01*
X160619047Y-112764166D01*
X160047619Y-112192738D01*
X160047619Y-112811785D01*
X144547619Y-111335595D02*
X145547619Y-111335595D01*
X145547619Y-111573690D01*
X145500000Y-111716547D01*
X145404761Y-111811785D01*
X145309523Y-111859404D01*
X145119047Y-111907023D01*
X144976190Y-111907023D01*
X144785714Y-111859404D01*
X144690476Y-111811785D01*
X144595238Y-111716547D01*
X144547619Y-111573690D01*
X144547619Y-111335595D01*
X144547619Y-112859404D02*
X144547619Y-112287976D01*
X144547619Y-112573690D02*
X145547619Y-112573690D01*
X145404761Y-112478452D01*
X145309523Y-112383214D01*
X145261904Y-112287976D01*
X142095238Y-111287976D02*
X142047619Y-111430833D01*
X142047619Y-111668928D01*
X142095238Y-111764166D01*
X142142857Y-111811785D01*
X142238095Y-111859404D01*
X142333333Y-111859404D01*
X142428571Y-111811785D01*
X142476190Y-111764166D01*
X142523809Y-111668928D01*
X142571428Y-111478452D01*
X142619047Y-111383214D01*
X142666666Y-111335595D01*
X142761904Y-111287976D01*
X142857142Y-111287976D01*
X142952380Y-111335595D01*
X143000000Y-111383214D01*
X143047619Y-111478452D01*
X143047619Y-111716547D01*
X143000000Y-111859404D01*
X142047619Y-112811785D02*
X142047619Y-112240357D01*
X142047619Y-112526071D02*
X143047619Y-112526071D01*
X142904761Y-112430833D01*
X142809523Y-112335595D01*
X142761904Y-112240357D01*
X139547619Y-111335595D02*
X140547619Y-111335595D01*
X139547619Y-111907023D01*
X140547619Y-111907023D01*
X139642857Y-112954642D02*
X139595238Y-112907023D01*
X139547619Y-112764166D01*
X139547619Y-112668928D01*
X139595238Y-112526071D01*
X139690476Y-112430833D01*
X139785714Y-112383214D01*
X139976190Y-112335595D01*
X140119047Y-112335595D01*
X140309523Y-112383214D01*
X140404761Y-112430833D01*
X140500000Y-112526071D01*
X140547619Y-112668928D01*
X140547619Y-112764166D01*
X140500000Y-112907023D01*
X140452380Y-112954642D01*
X137047619Y-111335595D02*
X138047619Y-111335595D01*
X137047619Y-111907023D01*
X138047619Y-111907023D01*
X137142857Y-112954642D02*
X137095238Y-112907023D01*
X137047619Y-112764166D01*
X137047619Y-112668928D01*
X137095238Y-112526071D01*
X137190476Y-112430833D01*
X137285714Y-112383214D01*
X137476190Y-112335595D01*
X137619047Y-112335595D01*
X137809523Y-112383214D01*
X137904761Y-112430833D01*
X138000000Y-112526071D01*
X138047619Y-112668928D01*
X138047619Y-112764166D01*
X138000000Y-112907023D01*
X137952380Y-112954642D01*
X134547619Y-111335595D02*
X135547619Y-111335595D01*
X135547619Y-111573690D01*
X135500000Y-111716547D01*
X135404761Y-111811785D01*
X135309523Y-111859404D01*
X135119047Y-111907023D01*
X134976190Y-111907023D01*
X134785714Y-111859404D01*
X134690476Y-111811785D01*
X134595238Y-111716547D01*
X134547619Y-111573690D01*
X134547619Y-111335595D01*
X135547619Y-112526071D02*
X135547619Y-112621309D01*
X135500000Y-112716547D01*
X135452380Y-112764166D01*
X135357142Y-112811785D01*
X135166666Y-112859404D01*
X134928571Y-112859404D01*
X134738095Y-112811785D01*
X134642857Y-112764166D01*
X134595238Y-112716547D01*
X134547619Y-112621309D01*
X134547619Y-112526071D01*
X134595238Y-112430833D01*
X134642857Y-112383214D01*
X134738095Y-112335595D01*
X134928571Y-112287976D01*
X135166666Y-112287976D01*
X135357142Y-112335595D01*
X135452380Y-112383214D01*
X135500000Y-112430833D01*
X135547619Y-112526071D01*
X132095238Y-111287976D02*
X132047619Y-111430833D01*
X132047619Y-111668928D01*
X132095238Y-111764166D01*
X132142857Y-111811785D01*
X132238095Y-111859404D01*
X132333333Y-111859404D01*
X132428571Y-111811785D01*
X132476190Y-111764166D01*
X132523809Y-111668928D01*
X132571428Y-111478452D01*
X132619047Y-111383214D01*
X132666666Y-111335595D01*
X132761904Y-111287976D01*
X132857142Y-111287976D01*
X132952380Y-111335595D01*
X133000000Y-111383214D01*
X133047619Y-111478452D01*
X133047619Y-111716547D01*
X133000000Y-111859404D01*
X133047619Y-112478452D02*
X133047619Y-112573690D01*
X133000000Y-112668928D01*
X132952380Y-112716547D01*
X132857142Y-112764166D01*
X132666666Y-112811785D01*
X132428571Y-112811785D01*
X132238095Y-112764166D01*
X132142857Y-112716547D01*
X132095238Y-112668928D01*
X132047619Y-112573690D01*
X132047619Y-112478452D01*
X132095238Y-112383214D01*
X132142857Y-112335595D01*
X132238095Y-112287976D01*
X132428571Y-112240357D01*
X132666666Y-112240357D01*
X132857142Y-112287976D01*
X132952380Y-112335595D01*
X133000000Y-112383214D01*
X133047619Y-112478452D01*
X175417619Y-117988095D02*
X176417619Y-117988095D01*
X176417619Y-118226190D01*
X176370000Y-118369047D01*
X176274761Y-118464285D01*
X176179523Y-118511904D01*
X175989047Y-118559523D01*
X175846190Y-118559523D01*
X175655714Y-118511904D01*
X175560476Y-118464285D01*
X175465238Y-118369047D01*
X175417619Y-118226190D01*
X175417619Y-117988095D01*
X162377619Y-117988095D02*
X163377619Y-117988095D01*
X163377619Y-118226190D01*
X163330000Y-118369047D01*
X163234761Y-118464285D01*
X163139523Y-118511904D01*
X162949047Y-118559523D01*
X162806190Y-118559523D01*
X162615714Y-118511904D01*
X162520476Y-118464285D01*
X162425238Y-118369047D01*
X162377619Y-118226190D01*
X162377619Y-117988095D01*
X149337619Y-117988095D02*
X150337619Y-117988095D01*
X150337619Y-118226190D01*
X150290000Y-118369047D01*
X150194761Y-118464285D01*
X150099523Y-118511904D01*
X149909047Y-118559523D01*
X149766190Y-118559523D01*
X149575714Y-118511904D01*
X149480476Y-118464285D01*
X149385238Y-118369047D01*
X149337619Y-118226190D01*
X149337619Y-117988095D01*
X172667619Y-118107142D02*
X172667619Y-117630952D01*
X172191428Y-117583333D01*
X172239047Y-117630952D01*
X172286666Y-117726190D01*
X172286666Y-117964285D01*
X172239047Y-118059523D01*
X172191428Y-118107142D01*
X172096190Y-118154761D01*
X171858095Y-118154761D01*
X171762857Y-118107142D01*
X171715238Y-118059523D01*
X171667619Y-117964285D01*
X171667619Y-117726190D01*
X171715238Y-117630952D01*
X171762857Y-117583333D01*
X172334285Y-118488095D02*
X171667619Y-118726190D01*
X172334285Y-118964285D01*
X159627619Y-118107142D02*
X159627619Y-117630952D01*
X159151428Y-117583333D01*
X159199047Y-117630952D01*
X159246666Y-117726190D01*
X159246666Y-117964285D01*
X159199047Y-118059523D01*
X159151428Y-118107142D01*
X159056190Y-118154761D01*
X158818095Y-118154761D01*
X158722857Y-118107142D01*
X158675238Y-118059523D01*
X158627619Y-117964285D01*
X158627619Y-117726190D01*
X158675238Y-117630952D01*
X158722857Y-117583333D01*
X159294285Y-118488095D02*
X158627619Y-118726190D01*
X159294285Y-118964285D01*
X146587619Y-118107142D02*
X146587619Y-117630952D01*
X146111428Y-117583333D01*
X146159047Y-117630952D01*
X146206666Y-117726190D01*
X146206666Y-117964285D01*
X146159047Y-118059523D01*
X146111428Y-118107142D01*
X146016190Y-118154761D01*
X145778095Y-118154761D01*
X145682857Y-118107142D01*
X145635238Y-118059523D01*
X145587619Y-117964285D01*
X145587619Y-117726190D01*
X145635238Y-117630952D01*
X145682857Y-117583333D01*
X146254285Y-118488095D02*
X145587619Y-118726190D01*
X146254285Y-118964285D01*
X167965238Y-117890595D02*
X167917619Y-118033452D01*
X167917619Y-118271547D01*
X167965238Y-118366785D01*
X168012857Y-118414404D01*
X168108095Y-118462023D01*
X168203333Y-118462023D01*
X168298571Y-118414404D01*
X168346190Y-118366785D01*
X168393809Y-118271547D01*
X168441428Y-118081071D01*
X168489047Y-117985833D01*
X168536666Y-117938214D01*
X168631904Y-117890595D01*
X168727142Y-117890595D01*
X168822380Y-117938214D01*
X168870000Y-117985833D01*
X168917619Y-118081071D01*
X168917619Y-118319166D01*
X168870000Y-118462023D01*
X154925238Y-117890595D02*
X154877619Y-118033452D01*
X154877619Y-118271547D01*
X154925238Y-118366785D01*
X154972857Y-118414404D01*
X155068095Y-118462023D01*
X155163333Y-118462023D01*
X155258571Y-118414404D01*
X155306190Y-118366785D01*
X155353809Y-118271547D01*
X155401428Y-118081071D01*
X155449047Y-117985833D01*
X155496666Y-117938214D01*
X155591904Y-117890595D01*
X155687142Y-117890595D01*
X155782380Y-117938214D01*
X155830000Y-117985833D01*
X155877619Y-118081071D01*
X155877619Y-118319166D01*
X155830000Y-118462023D01*
X141885238Y-117890595D02*
X141837619Y-118033452D01*
X141837619Y-118271547D01*
X141885238Y-118366785D01*
X141932857Y-118414404D01*
X142028095Y-118462023D01*
X142123333Y-118462023D01*
X142218571Y-118414404D01*
X142266190Y-118366785D01*
X142313809Y-118271547D01*
X142361428Y-118081071D01*
X142409047Y-117985833D01*
X142456666Y-117938214D01*
X142551904Y-117890595D01*
X142647142Y-117890595D01*
X142742380Y-117938214D01*
X142790000Y-117985833D01*
X142837619Y-118081071D01*
X142837619Y-118319166D01*
X142790000Y-118462023D01*
X166500000Y-111859404D02*
X166547619Y-111764166D01*
X166547619Y-111621309D01*
X166500000Y-111478452D01*
X166404761Y-111383214D01*
X166309523Y-111335595D01*
X166119047Y-111287976D01*
X165976190Y-111287976D01*
X165785714Y-111335595D01*
X165690476Y-111383214D01*
X165595238Y-111478452D01*
X165547619Y-111621309D01*
X165547619Y-111716547D01*
X165595238Y-111859404D01*
X165642857Y-111907023D01*
X165976190Y-111907023D01*
X165976190Y-111716547D01*
X166214285Y-112335595D02*
X165547619Y-112335595D01*
X166119047Y-112335595D02*
X166166666Y-112383214D01*
X166214285Y-112478452D01*
X166214285Y-112621309D01*
X166166666Y-112716547D01*
X166071428Y-112764166D01*
X165547619Y-112764166D01*
X165547619Y-113668928D02*
X166547619Y-113668928D01*
X165595238Y-113668928D02*
X165547619Y-113573690D01*
X165547619Y-113383214D01*
X165595238Y-113287976D01*
X165642857Y-113240357D01*
X165738095Y-113192738D01*
X166023809Y-113192738D01*
X166119047Y-113240357D01*
X166166666Y-113287976D01*
X166214285Y-113383214D01*
X166214285Y-113573690D01*
X166166666Y-113668928D01*
X169047619Y-111811785D02*
X169047619Y-111335595D01*
X168571428Y-111287976D01*
X168619047Y-111335595D01*
X168666666Y-111430833D01*
X168666666Y-111668928D01*
X168619047Y-111764166D01*
X168571428Y-111811785D01*
X168476190Y-111859404D01*
X168238095Y-111859404D01*
X168142857Y-111811785D01*
X168095238Y-111764166D01*
X168047619Y-111668928D01*
X168047619Y-111430833D01*
X168095238Y-111335595D01*
X168142857Y-111287976D01*
X168714285Y-112192738D02*
X168047619Y-112430833D01*
X168714285Y-112668928D01*
X170905714Y-116678571D02*
X170905714Y-115178571D01*
X171405714Y-116250000D01*
X171905714Y-115178571D01*
X171905714Y-116678571D01*
X172477142Y-115178571D02*
X173405714Y-115178571D01*
X172905714Y-115750000D01*
X173120000Y-115750000D01*
X173262857Y-115821428D01*
X173334285Y-115892857D01*
X173405714Y-116035714D01*
X173405714Y-116392857D01*
X173334285Y-116535714D01*
X173262857Y-116607142D01*
X173120000Y-116678571D01*
X172691428Y-116678571D01*
X172548571Y-116607142D01*
X172477142Y-116535714D01*
X157865714Y-116678571D02*
X157865714Y-115178571D01*
X158365714Y-116250000D01*
X158865714Y-115178571D01*
X158865714Y-116678571D01*
X159508571Y-115321428D02*
X159580000Y-115250000D01*
X159722857Y-115178571D01*
X160080000Y-115178571D01*
X160222857Y-115250000D01*
X160294285Y-115321428D01*
X160365714Y-115464285D01*
X160365714Y-115607142D01*
X160294285Y-115821428D01*
X159437142Y-116678571D01*
X160365714Y-116678571D01*
X144825714Y-116678571D02*
X144825714Y-115178571D01*
X145325714Y-116250000D01*
X145825714Y-115178571D01*
X145825714Y-116678571D01*
X147325714Y-116678571D02*
X146468571Y-116678571D01*
X146897142Y-116678571D02*
X146897142Y-115178571D01*
X146754285Y-115392857D01*
X146611428Y-115535714D01*
X146468571Y-115607142D01*
X131785714Y-116678571D02*
X131785714Y-115178571D01*
X132285714Y-116250000D01*
X132785714Y-115178571D01*
X132785714Y-116678571D01*
X133785714Y-115178571D02*
X133928571Y-115178571D01*
X134071428Y-115250000D01*
X134142857Y-115321428D01*
X134214285Y-115464285D01*
X134285714Y-115750000D01*
X134285714Y-116107142D01*
X134214285Y-116392857D01*
X134142857Y-116535714D01*
X134071428Y-116607142D01*
X133928571Y-116678571D01*
X133785714Y-116678571D01*
X133642857Y-116607142D01*
X133571428Y-116535714D01*
X133500000Y-116392857D01*
X133428571Y-116107142D01*
X133428571Y-115750000D01*
X133500000Y-115464285D01*
X133571428Y-115321428D01*
X133642857Y-115250000D01*
X133785714Y-115178571D01*
X133547619Y-118107142D02*
X133547619Y-117630952D01*
X133071428Y-117583333D01*
X133119047Y-117630952D01*
X133166666Y-117726190D01*
X133166666Y-117964285D01*
X133119047Y-118059523D01*
X133071428Y-118107142D01*
X132976190Y-118154761D01*
X132738095Y-118154761D01*
X132642857Y-118107142D01*
X132595238Y-118059523D01*
X132547619Y-117964285D01*
X132547619Y-117726190D01*
X132595238Y-117630952D01*
X132642857Y-117583333D01*
X133214285Y-118488095D02*
X132547619Y-118726190D01*
X133214285Y-118964285D01*
X136297619Y-117988095D02*
X137297619Y-117988095D01*
X137297619Y-118226190D01*
X137250000Y-118369047D01*
X137154761Y-118464285D01*
X137059523Y-118511904D01*
X136869047Y-118559523D01*
X136726190Y-118559523D01*
X136535714Y-118511904D01*
X136440476Y-118464285D01*
X136345238Y-118369047D01*
X136297619Y-118226190D01*
X136297619Y-117988095D01*
X128845238Y-117890595D02*
X128797619Y-118033452D01*
X128797619Y-118271547D01*
X128845238Y-118366785D01*
X128892857Y-118414404D01*
X128988095Y-118462023D01*
X129083333Y-118462023D01*
X129178571Y-118414404D01*
X129226190Y-118366785D01*
X129273809Y-118271547D01*
X129321428Y-118081071D01*
X129369047Y-117985833D01*
X129416666Y-117938214D01*
X129511904Y-117890595D01*
X129607142Y-117890595D01*
X129702380Y-117938214D01*
X129750000Y-117985833D01*
X129797619Y-118081071D01*
X129797619Y-118319166D01*
X129750000Y-118462023D01*
D11*
X131230000Y-110520000D02*
X131230000Y-109250000D01*
X132500000Y-110520000D02*
X131230000Y-110520000D01*
X145580000Y-108207071D02*
X145580000Y-107810000D01*
X144820000Y-108207071D02*
X144820000Y-107810000D01*
X145580000Y-99150000D02*
X145580000Y-105150000D01*
X144820000Y-99150000D02*
X145580000Y-99150000D01*
X144820000Y-105150000D02*
X144820000Y-99150000D01*
X143930000Y-107810000D02*
X143930000Y-105150000D01*
X143040000Y-108207071D02*
X143040000Y-107810000D01*
X142280000Y-108207071D02*
X142280000Y-107810000D01*
X143040000Y-99150000D02*
X143040000Y-105150000D01*
X142280000Y-99150000D02*
X143040000Y-99150000D01*
X142280000Y-105150000D02*
X142280000Y-99150000D01*
X141390000Y-107810000D02*
X141390000Y-105150000D01*
X140500000Y-108207071D02*
X140500000Y-107810000D01*
X139740000Y-108207071D02*
X139740000Y-107810000D01*
X140500000Y-99150000D02*
X140500000Y-105150000D01*
X139740000Y-99150000D02*
X140500000Y-99150000D01*
X139740000Y-105150000D02*
X139740000Y-99150000D01*
X138850000Y-107810000D02*
X138850000Y-105150000D01*
X137960000Y-108207071D02*
X137960000Y-107810000D01*
X137200000Y-108207071D02*
X137200000Y-107810000D01*
X137960000Y-99150000D02*
X137960000Y-105150000D01*
X137200000Y-99150000D02*
X137960000Y-99150000D01*
X137200000Y-105150000D02*
X137200000Y-99150000D01*
X136310000Y-107810000D02*
X136310000Y-105150000D01*
X135420000Y-108207071D02*
X135420000Y-107810000D01*
X134660000Y-108207071D02*
X134660000Y-107810000D01*
X135420000Y-99150000D02*
X135420000Y-105150000D01*
X134660000Y-99150000D02*
X135420000Y-99150000D01*
X134660000Y-105150000D02*
X134660000Y-99150000D01*
X133770000Y-107810000D02*
X133770000Y-105150000D01*
X132880000Y-108140000D02*
X132880000Y-107810000D01*
X132120000Y-108140000D02*
X132120000Y-107810000D01*
X132780000Y-105150000D02*
X132780000Y-99150000D01*
X132660000Y-105150000D02*
X132660000Y-99150000D01*
X132540000Y-105150000D02*
X132540000Y-99150000D01*
X132420000Y-105150000D02*
X132420000Y-99150000D01*
X132300000Y-105150000D02*
X132300000Y-99150000D01*
X132180000Y-105150000D02*
X132180000Y-99150000D01*
X132880000Y-99150000D02*
X132880000Y-105150000D01*
X132120000Y-99150000D02*
X132880000Y-99150000D01*
X132120000Y-105150000D02*
X132120000Y-99150000D01*
X131170000Y-105150000D02*
X131170000Y-107810000D01*
X146530000Y-105150000D02*
X131170000Y-105150000D01*
X146530000Y-107810000D02*
X146530000Y-105150000D01*
X131170000Y-107810000D02*
X146530000Y-107810000D01*
X159480000Y-110520000D02*
X159480000Y-109250000D01*
X160750000Y-110520000D02*
X159480000Y-110520000D01*
X173830000Y-108207071D02*
X173830000Y-107810000D01*
X173070000Y-108207071D02*
X173070000Y-107810000D01*
X173830000Y-99150000D02*
X173830000Y-105150000D01*
X173070000Y-99150000D02*
X173830000Y-99150000D01*
X173070000Y-105150000D02*
X173070000Y-99150000D01*
X172180000Y-107810000D02*
X172180000Y-105150000D01*
X171290000Y-108207071D02*
X171290000Y-107810000D01*
X170530000Y-108207071D02*
X170530000Y-107810000D01*
X171290000Y-99150000D02*
X171290000Y-105150000D01*
X170530000Y-99150000D02*
X171290000Y-99150000D01*
X170530000Y-105150000D02*
X170530000Y-99150000D01*
X169640000Y-107810000D02*
X169640000Y-105150000D01*
X168750000Y-108207071D02*
X168750000Y-107810000D01*
X167990000Y-108207071D02*
X167990000Y-107810000D01*
X168750000Y-99150000D02*
X168750000Y-105150000D01*
X167990000Y-99150000D02*
X168750000Y-99150000D01*
X167990000Y-105150000D02*
X167990000Y-99150000D01*
X167100000Y-107810000D02*
X167100000Y-105150000D01*
X166210000Y-108207071D02*
X166210000Y-107810000D01*
X165450000Y-108207071D02*
X165450000Y-107810000D01*
X166210000Y-99150000D02*
X166210000Y-105150000D01*
X165450000Y-99150000D02*
X166210000Y-99150000D01*
X165450000Y-105150000D02*
X165450000Y-99150000D01*
X164560000Y-107810000D02*
X164560000Y-105150000D01*
X163670000Y-108207071D02*
X163670000Y-107810000D01*
X162910000Y-108207071D02*
X162910000Y-107810000D01*
X163670000Y-99150000D02*
X163670000Y-105150000D01*
X162910000Y-99150000D02*
X163670000Y-99150000D01*
X162910000Y-105150000D02*
X162910000Y-99150000D01*
X162020000Y-107810000D02*
X162020000Y-105150000D01*
X161130000Y-108140000D02*
X161130000Y-107810000D01*
X160370000Y-108140000D02*
X160370000Y-107810000D01*
X161030000Y-105150000D02*
X161030000Y-99150000D01*
X160910000Y-105150000D02*
X160910000Y-99150000D01*
X160790000Y-105150000D02*
X160790000Y-99150000D01*
X160670000Y-105150000D02*
X160670000Y-99150000D01*
X160550000Y-105150000D02*
X160550000Y-99150000D01*
X160430000Y-105150000D02*
X160430000Y-99150000D01*
X161130000Y-99150000D02*
X161130000Y-105150000D01*
X160370000Y-99150000D02*
X161130000Y-99150000D01*
X160370000Y-105150000D02*
X160370000Y-99150000D01*
X159420000Y-105150000D02*
X159420000Y-107810000D01*
X174780000Y-105150000D02*
X159420000Y-105150000D01*
X174780000Y-107810000D02*
X174780000Y-105150000D01*
X159420000Y-107810000D02*
X174780000Y-107810000D01*
X154911055Y-119863347D02*
X155511055Y-119863347D01*
X155211055Y-120463347D02*
X154911055Y-119863347D01*
X155511055Y-119863347D02*
X155211055Y-120463347D01*
X152501055Y-127263347D02*
X165541055Y-127263347D01*
X160071055Y-121153347D02*
X161781055Y-121153347D01*
X156261055Y-121153347D02*
X157971055Y-121153347D01*
X165541055Y-121153347D02*
X163881055Y-121153347D01*
X152501055Y-121153347D02*
X154161055Y-121153347D01*
X165541055Y-130573347D02*
X165541055Y-121153347D01*
X152501055Y-130573347D02*
X165541055Y-130573347D01*
X152501055Y-121153347D02*
X152501055Y-130573347D01*
X167951055Y-119863347D02*
X168551055Y-119863347D01*
X168251055Y-120463347D02*
X167951055Y-119863347D01*
X168551055Y-119863347D02*
X168251055Y-120463347D01*
X165541055Y-127263347D02*
X178581055Y-127263347D01*
X173111055Y-121153347D02*
X174821055Y-121153347D01*
X169301055Y-121153347D02*
X171011055Y-121153347D01*
X178581055Y-121153347D02*
X176921055Y-121153347D01*
X165541055Y-121153347D02*
X167201055Y-121153347D01*
X178581055Y-130573347D02*
X178581055Y-121153347D01*
X165541055Y-130573347D02*
X178581055Y-130573347D01*
X165541055Y-121153347D02*
X165541055Y-130573347D01*
X141871055Y-119863347D02*
X142471055Y-119863347D01*
X142171055Y-120463347D02*
X141871055Y-119863347D01*
X142471055Y-119863347D02*
X142171055Y-120463347D01*
X139461055Y-127263347D02*
X152501055Y-127263347D01*
X147031055Y-121153347D02*
X148741055Y-121153347D01*
X143221055Y-121153347D02*
X144931055Y-121153347D01*
X152501055Y-121153347D02*
X150841055Y-121153347D01*
X139461055Y-121153347D02*
X141121055Y-121153347D01*
X152501055Y-130573347D02*
X152501055Y-121153347D01*
X139461055Y-130573347D02*
X152501055Y-130573347D01*
X139461055Y-121153347D02*
X139461055Y-130573347D01*
X128831055Y-119863347D02*
X129431055Y-119863347D01*
X129131055Y-120463347D02*
X128831055Y-119863347D01*
X129431055Y-119863347D02*
X129131055Y-120463347D01*
X126421055Y-127263347D02*
X139461055Y-127263347D01*
X133991055Y-121153347D02*
X135701055Y-121153347D01*
X130181055Y-121153347D02*
X131891055Y-121153347D01*
X139461055Y-121153347D02*
X137801055Y-121153347D01*
X126421055Y-121153347D02*
X128081055Y-121153347D01*
X139461055Y-130573347D02*
X139461055Y-121153347D01*
X126421055Y-130573347D02*
X139461055Y-130573347D01*
X126421055Y-121153347D02*
X126421055Y-130573347D01*
M02*
