G04 #@! TF.GenerationSoftware,KiCad,Pcbnew,(5.1.2)-1*
G04 #@! TF.CreationDate,2020-06-05T15:04:51-04:00*
G04 #@! TF.ProjectId,Step_Direction_Board,53746570-5f44-4697-9265-6374696f6e5f,rev?*
G04 #@! TF.SameCoordinates,PX7270e00PY78a3ca0*
G04 #@! TF.FileFunction,Legend,Bot*
G04 #@! TF.FilePolarity,Positive*
%FSLAX46Y46*%
G04 Gerber Fmt 4.6, Leading zero omitted, Abs format (unit mm)*
G04 Created by KiCad (PCBNEW (5.1.2)-1) date 2020-06-05 15:04:51*
%MOMM*%
%LPD*%
G04 APERTURE LIST*
%ADD10C,0.152400*%
%ADD11C,0.150000*%
G04 APERTURE END LIST*
D10*
X49999100Y13128900D02*
X54240900Y13128900D01*
X54240900Y7871100D02*
X49999100Y7871100D01*
X36959100Y13128900D02*
X41200900Y13128900D01*
X41200900Y7871100D02*
X36959100Y7871100D01*
X23919100Y13128900D02*
X28160900Y13128900D01*
X28160900Y7871100D02*
X23919100Y7871100D01*
X10879100Y13128900D02*
X15120900Y13128900D01*
X15120900Y7871100D02*
X10879100Y7871100D01*
D11*
X47881904Y13547620D02*
X47881904Y12738096D01*
X47834285Y12642858D01*
X47786666Y12595239D01*
X47691428Y12547620D01*
X47500952Y12547620D01*
X47405714Y12595239D01*
X47358095Y12642858D01*
X47310476Y12738096D01*
X47310476Y13547620D01*
X46929523Y13547620D02*
X46310476Y13547620D01*
X46643809Y13166667D01*
X46500952Y13166667D01*
X46405714Y13119048D01*
X46358095Y13071429D01*
X46310476Y12976191D01*
X46310476Y12738096D01*
X46358095Y12642858D01*
X46405714Y12595239D01*
X46500952Y12547620D01*
X46786666Y12547620D01*
X46881904Y12595239D01*
X46929523Y12642858D01*
X53732900Y13473320D02*
X53732900Y13235224D01*
X53970995Y13330462D02*
X53732900Y13235224D01*
X53494804Y13330462D01*
X53875757Y13044748D02*
X53732900Y13235224D01*
X53590042Y13044748D01*
X53732900Y13473320D02*
X53732900Y13235224D01*
X53970995Y13330462D02*
X53732900Y13235224D01*
X53494804Y13330462D01*
X53875757Y13044748D02*
X53732900Y13235224D01*
X53590042Y13044748D01*
X34841904Y13547620D02*
X34841904Y12738096D01*
X34794285Y12642858D01*
X34746666Y12595239D01*
X34651428Y12547620D01*
X34460952Y12547620D01*
X34365714Y12595239D01*
X34318095Y12642858D01*
X34270476Y12738096D01*
X34270476Y13547620D01*
X33841904Y13452381D02*
X33794285Y13500000D01*
X33699047Y13547620D01*
X33460952Y13547620D01*
X33365714Y13500000D01*
X33318095Y13452381D01*
X33270476Y13357143D01*
X33270476Y13261905D01*
X33318095Y13119048D01*
X33889523Y12547620D01*
X33270476Y12547620D01*
X40692900Y13473320D02*
X40692900Y13235224D01*
X40930995Y13330462D02*
X40692900Y13235224D01*
X40454804Y13330462D01*
X40835757Y13044748D02*
X40692900Y13235224D01*
X40550042Y13044748D01*
X40692900Y13473320D02*
X40692900Y13235224D01*
X40930995Y13330462D02*
X40692900Y13235224D01*
X40454804Y13330462D01*
X40835757Y13044748D02*
X40692900Y13235224D01*
X40550042Y13044748D01*
X21801904Y13547620D02*
X21801904Y12738096D01*
X21754285Y12642858D01*
X21706666Y12595239D01*
X21611428Y12547620D01*
X21420952Y12547620D01*
X21325714Y12595239D01*
X21278095Y12642858D01*
X21230476Y12738096D01*
X21230476Y13547620D01*
X20230476Y12547620D02*
X20801904Y12547620D01*
X20516190Y12547620D02*
X20516190Y13547620D01*
X20611428Y13404762D01*
X20706666Y13309524D01*
X20801904Y13261905D01*
X27652900Y13473320D02*
X27652900Y13235224D01*
X27890995Y13330462D02*
X27652900Y13235224D01*
X27414804Y13330462D01*
X27795757Y13044748D02*
X27652900Y13235224D01*
X27510042Y13044748D01*
X27652900Y13473320D02*
X27652900Y13235224D01*
X27890995Y13330462D02*
X27652900Y13235224D01*
X27414804Y13330462D01*
X27795757Y13044748D02*
X27652900Y13235224D01*
X27510042Y13044748D01*
X8761904Y13547620D02*
X8761904Y12738096D01*
X8714285Y12642858D01*
X8666666Y12595239D01*
X8571428Y12547620D01*
X8380952Y12547620D01*
X8285714Y12595239D01*
X8238095Y12642858D01*
X8190476Y12738096D01*
X8190476Y13547620D01*
X7523809Y13547620D02*
X7428571Y13547620D01*
X7333333Y13500000D01*
X7285714Y13452381D01*
X7238095Y13357143D01*
X7190476Y13166667D01*
X7190476Y12928572D01*
X7238095Y12738096D01*
X7285714Y12642858D01*
X7333333Y12595239D01*
X7428571Y12547620D01*
X7523809Y12547620D01*
X7619047Y12595239D01*
X7666666Y12642858D01*
X7714285Y12738096D01*
X7761904Y12928572D01*
X7761904Y13166667D01*
X7714285Y13357143D01*
X7666666Y13452381D01*
X7619047Y13500000D01*
X7523809Y13547620D01*
X14612900Y13473320D02*
X14612900Y13235224D01*
X14850995Y13330462D02*
X14612900Y13235224D01*
X14374804Y13330462D01*
X14755757Y13044748D02*
X14612900Y13235224D01*
X14470042Y13044748D01*
X14612900Y13473320D02*
X14612900Y13235224D01*
X14850995Y13330462D02*
X14612900Y13235224D01*
X14374804Y13330462D01*
X14755757Y13044748D02*
X14612900Y13235224D01*
X14470042Y13044748D01*
M02*
