G04 #@! TF.GenerationSoftware,KiCad,Pcbnew,(5.1.2)-1*
G04 #@! TF.CreationDate,2020-06-05T15:04:51-04:00*
G04 #@! TF.ProjectId,Step_Direction_Board,53746570-5f44-4697-9265-6374696f6e5f,rev?*
G04 #@! TF.SameCoordinates,PX7270e00PY78a3ca0*
G04 #@! TF.FileFunction,Other,ECO2*
%FSLAX46Y46*%
G04 Gerber Fmt 4.6, Leading zero omitted, Abs format (unit mm)*
G04 Created by KiCad (PCBNEW (5.1.2)-1) date 2020-06-05 15:04:51*
%MOMM*%
%LPD*%
G04 APERTURE LIST*
%ADD10C,0.150000*%
G04 APERTURE END LIST*
D10*
X-4597620Y1928572D02*
X-4597620Y1357143D01*
X-4597620Y1642858D02*
X-5597620Y1642858D01*
X-5454762Y1547620D01*
X-5359524Y1452381D01*
X-5311905Y1357143D01*
X-4597620Y2880953D02*
X-4597620Y2309524D01*
X-4597620Y2595239D02*
X-5597620Y2595239D01*
X-5454762Y2500000D01*
X-5359524Y2404762D01*
X-5311905Y2309524D01*
X-4692858Y3309524D02*
X-4645239Y3357143D01*
X-4597620Y3309524D01*
X-4645239Y3261905D01*
X-4692858Y3309524D01*
X-4597620Y3309524D01*
X-5597620Y3976191D02*
X-5597620Y4071429D01*
X-5550000Y4166667D01*
X-5502381Y4214286D01*
X-5407143Y4261905D01*
X-5216667Y4309524D01*
X-4978572Y4309524D01*
X-4788096Y4261905D01*
X-4692858Y4214286D01*
X-4645239Y4166667D01*
X-4597620Y4071429D01*
X-4597620Y3976191D01*
X-4645239Y3880953D01*
X-4692858Y3833334D01*
X-4788096Y3785715D01*
X-4978572Y3738096D01*
X-5216667Y3738096D01*
X-5407143Y3785715D01*
X-5502381Y3833334D01*
X-5550000Y3880953D01*
X-5597620Y3976191D01*
X-5597620Y4928572D02*
X-5597620Y5023810D01*
X-5550000Y5119048D01*
X-5502381Y5166667D01*
X-5407143Y5214286D01*
X-5216667Y5261905D01*
X-4978572Y5261905D01*
X-4788096Y5214286D01*
X-4692858Y5166667D01*
X-4645239Y5119048D01*
X-4597620Y5023810D01*
X-4597620Y4928572D01*
X-4645239Y4833334D01*
X-4692858Y4785715D01*
X-4788096Y4738096D01*
X-4978572Y4690477D01*
X-5216667Y4690477D01*
X-5407143Y4738096D01*
X-5502381Y4785715D01*
X-5550000Y4833334D01*
X-5597620Y4928572D01*
X-5597620Y5880953D02*
X-5597620Y5976191D01*
X-5550000Y6071429D01*
X-5502381Y6119048D01*
X-5407143Y6166667D01*
X-5216667Y6214286D01*
X-4978572Y6214286D01*
X-4788096Y6166667D01*
X-4692858Y6119048D01*
X-4645239Y6071429D01*
X-4597620Y5976191D01*
X-4597620Y5880953D01*
X-4645239Y5785715D01*
X-4692858Y5738096D01*
X-4788096Y5690477D01*
X-4978572Y5642858D01*
X-5216667Y5642858D01*
X-5407143Y5690477D01*
X-5502381Y5738096D01*
X-5550000Y5785715D01*
X-5597620Y5880953D01*
X-4597620Y7404762D02*
X-5264286Y7404762D01*
X-5169048Y7404762D02*
X-5216667Y7452381D01*
X-5264286Y7547620D01*
X-5264286Y7690477D01*
X-5216667Y7785715D01*
X-5121429Y7833334D01*
X-4597620Y7833334D01*
X-5121429Y7833334D02*
X-5216667Y7880953D01*
X-5264286Y7976191D01*
X-5264286Y8119048D01*
X-5216667Y8214286D01*
X-5121429Y8261905D01*
X-4597620Y8261905D01*
X-4597620Y8738096D02*
X-5264286Y8738096D01*
X-5169048Y8738096D02*
X-5216667Y8785715D01*
X-5264286Y8880953D01*
X-5264286Y9023810D01*
X-5216667Y9119048D01*
X-5121429Y9166667D01*
X-4597620Y9166667D01*
X-5121429Y9166667D02*
X-5216667Y9214286D01*
X-5264286Y9309524D01*
X-5264286Y9452381D01*
X-5216667Y9547620D01*
X-5121429Y9595239D01*
X-4597620Y9595239D01*
X-3750000Y0D02*
X-3750000Y11000000D01*
X3000000Y0D02*
X-4336421Y0D01*
X3000000Y11000000D02*
X-4336421Y11000000D01*
X-3750000Y11000000D02*
X-3163579Y9873496D01*
X-3750000Y11000000D02*
X-4336421Y9873496D01*
X-3750000Y0D02*
X-3163579Y1126504D01*
X-3750000Y0D02*
X-4336421Y1126504D01*
X6500000Y0D02*
X3000000Y0D01*
X28880952Y-7502380D02*
X28404761Y-7502380D01*
X28357142Y-7978571D01*
X28404761Y-7930952D01*
X28500000Y-7883333D01*
X28738095Y-7883333D01*
X28833333Y-7930952D01*
X28880952Y-7978571D01*
X28928571Y-8073809D01*
X28928571Y-8311904D01*
X28880952Y-8407142D01*
X28833333Y-8454761D01*
X28738095Y-8502380D01*
X28500000Y-8502380D01*
X28404761Y-8454761D01*
X28357142Y-8407142D01*
X29404761Y-8502380D02*
X29595238Y-8502380D01*
X29690476Y-8454761D01*
X29738095Y-8407142D01*
X29833333Y-8264285D01*
X29880952Y-8073809D01*
X29880952Y-7692857D01*
X29833333Y-7597619D01*
X29785714Y-7550000D01*
X29690476Y-7502380D01*
X29500000Y-7502380D01*
X29404761Y-7550000D01*
X29357142Y-7597619D01*
X29309523Y-7692857D01*
X29309523Y-7930952D01*
X29357142Y-8026190D01*
X29404761Y-8073809D01*
X29500000Y-8121428D01*
X29690476Y-8121428D01*
X29785714Y-8073809D01*
X29833333Y-8026190D01*
X29880952Y-7930952D01*
X30309523Y-8407142D02*
X30357142Y-8454761D01*
X30309523Y-8502380D01*
X30261904Y-8454761D01*
X30309523Y-8407142D01*
X30309523Y-8502380D01*
X30976190Y-7502380D02*
X31071428Y-7502380D01*
X31166666Y-7550000D01*
X31214285Y-7597619D01*
X31261904Y-7692857D01*
X31309523Y-7883333D01*
X31309523Y-8121428D01*
X31261904Y-8311904D01*
X31214285Y-8407142D01*
X31166666Y-8454761D01*
X31071428Y-8502380D01*
X30976190Y-8502380D01*
X30880952Y-8454761D01*
X30833333Y-8407142D01*
X30785714Y-8311904D01*
X30738095Y-8121428D01*
X30738095Y-7883333D01*
X30785714Y-7692857D01*
X30833333Y-7597619D01*
X30880952Y-7550000D01*
X30976190Y-7502380D01*
X31928571Y-7502380D02*
X32023809Y-7502380D01*
X32119047Y-7550000D01*
X32166666Y-7597619D01*
X32214285Y-7692857D01*
X32261904Y-7883333D01*
X32261904Y-8121428D01*
X32214285Y-8311904D01*
X32166666Y-8407142D01*
X32119047Y-8454761D01*
X32023809Y-8502380D01*
X31928571Y-8502380D01*
X31833333Y-8454761D01*
X31785714Y-8407142D01*
X31738095Y-8311904D01*
X31690476Y-8121428D01*
X31690476Y-7883333D01*
X31738095Y-7692857D01*
X31785714Y-7597619D01*
X31833333Y-7550000D01*
X31928571Y-7502380D01*
X32880952Y-7502380D02*
X32976190Y-7502380D01*
X33071428Y-7550000D01*
X33119047Y-7597619D01*
X33166666Y-7692857D01*
X33214285Y-7883333D01*
X33214285Y-8121428D01*
X33166666Y-8311904D01*
X33119047Y-8407142D01*
X33071428Y-8454761D01*
X32976190Y-8502380D01*
X32880952Y-8502380D01*
X32785714Y-8454761D01*
X32738095Y-8407142D01*
X32690476Y-8311904D01*
X32642857Y-8121428D01*
X32642857Y-7883333D01*
X32690476Y-7692857D01*
X32738095Y-7597619D01*
X32785714Y-7550000D01*
X32880952Y-7502380D01*
X34404761Y-8502380D02*
X34404761Y-7835714D01*
X34404761Y-7930952D02*
X34452380Y-7883333D01*
X34547619Y-7835714D01*
X34690476Y-7835714D01*
X34785714Y-7883333D01*
X34833333Y-7978571D01*
X34833333Y-8502380D01*
X34833333Y-7978571D02*
X34880952Y-7883333D01*
X34976190Y-7835714D01*
X35119047Y-7835714D01*
X35214285Y-7883333D01*
X35261904Y-7978571D01*
X35261904Y-8502380D01*
X35738095Y-8502380D02*
X35738095Y-7835714D01*
X35738095Y-7930952D02*
X35785714Y-7883333D01*
X35880952Y-7835714D01*
X36023809Y-7835714D01*
X36119047Y-7883333D01*
X36166666Y-7978571D01*
X36166666Y-8502380D01*
X36166666Y-7978571D02*
X36214285Y-7883333D01*
X36309523Y-7835714D01*
X36452380Y-7835714D01*
X36547619Y-7883333D01*
X36595238Y-7978571D01*
X36595238Y-8502380D01*
X62000000Y-6750000D02*
X3000000Y-6750000D01*
X62000000Y9000000D02*
X62000000Y-7336421D01*
X3000000Y9000000D02*
X3000000Y-7336421D01*
X3000000Y-6750000D02*
X4126504Y-6163579D01*
X3000000Y-6750000D02*
X4126504Y-7336421D01*
X62000000Y-6750000D02*
X60873496Y-6163579D01*
X62000000Y-6750000D02*
X60873496Y-7336421D01*
X70347619Y13321429D02*
X70347619Y13892858D01*
X70347619Y13607143D02*
X71347619Y13607143D01*
X71204761Y13702381D01*
X71109523Y13797620D01*
X71061904Y13892858D01*
X70347619Y12845239D02*
X70347619Y12654762D01*
X70395238Y12559524D01*
X70442857Y12511905D01*
X70585714Y12416667D01*
X70776190Y12369048D01*
X71157142Y12369048D01*
X71252380Y12416667D01*
X71300000Y12464286D01*
X71347619Y12559524D01*
X71347619Y12750000D01*
X71300000Y12845239D01*
X71252380Y12892858D01*
X71157142Y12940477D01*
X70919047Y12940477D01*
X70823809Y12892858D01*
X70776190Y12845239D01*
X70728571Y12750000D01*
X70728571Y12559524D01*
X70776190Y12464286D01*
X70823809Y12416667D01*
X70919047Y12369048D01*
X70442857Y11940477D02*
X70395238Y11892858D01*
X70347619Y11940477D01*
X70395238Y11988096D01*
X70442857Y11940477D01*
X70347619Y11940477D01*
X71347619Y10988096D02*
X71347619Y11464286D01*
X70871428Y11511905D01*
X70919047Y11464286D01*
X70966666Y11369048D01*
X70966666Y11130953D01*
X70919047Y11035715D01*
X70871428Y10988096D01*
X70776190Y10940477D01*
X70538095Y10940477D01*
X70442857Y10988096D01*
X70395238Y11035715D01*
X70347619Y11130953D01*
X70347619Y11369048D01*
X70395238Y11464286D01*
X70442857Y11511905D01*
X71347619Y10321429D02*
X71347619Y10226191D01*
X71300000Y10130953D01*
X71252380Y10083334D01*
X71157142Y10035715D01*
X70966666Y9988096D01*
X70728571Y9988096D01*
X70538095Y10035715D01*
X70442857Y10083334D01*
X70395238Y10130953D01*
X70347619Y10226191D01*
X70347619Y10321429D01*
X70395238Y10416667D01*
X70442857Y10464286D01*
X70538095Y10511905D01*
X70728571Y10559524D01*
X70966666Y10559524D01*
X71157142Y10511905D01*
X71252380Y10464286D01*
X71300000Y10416667D01*
X71347619Y10321429D01*
X71347619Y9369048D02*
X71347619Y9273810D01*
X71300000Y9178572D01*
X71252380Y9130953D01*
X71157142Y9083334D01*
X70966666Y9035715D01*
X70728571Y9035715D01*
X70538095Y9083334D01*
X70442857Y9130953D01*
X70395238Y9178572D01*
X70347619Y9273810D01*
X70347619Y9369048D01*
X70395238Y9464286D01*
X70442857Y9511905D01*
X70538095Y9559524D01*
X70728571Y9607143D01*
X70966666Y9607143D01*
X71157142Y9559524D01*
X71252380Y9511905D01*
X71300000Y9464286D01*
X71347619Y9369048D01*
X70347619Y7845239D02*
X71014285Y7845239D01*
X70919047Y7845239D02*
X70966666Y7797620D01*
X71014285Y7702381D01*
X71014285Y7559524D01*
X70966666Y7464286D01*
X70871428Y7416667D01*
X70347619Y7416667D01*
X70871428Y7416667D02*
X70966666Y7369048D01*
X71014285Y7273810D01*
X71014285Y7130953D01*
X70966666Y7035715D01*
X70871428Y6988096D01*
X70347619Y6988096D01*
X70347619Y6511905D02*
X71014285Y6511905D01*
X70919047Y6511905D02*
X70966666Y6464286D01*
X71014285Y6369048D01*
X71014285Y6226191D01*
X70966666Y6130953D01*
X70871428Y6083334D01*
X70347619Y6083334D01*
X70871428Y6083334D02*
X70966666Y6035715D01*
X71014285Y5940477D01*
X71014285Y5797620D01*
X70966666Y5702381D01*
X70871428Y5654762D01*
X70347619Y5654762D01*
X69500000Y19500000D02*
X69500000Y0D01*
X63000000Y19500000D02*
X70086421Y19500000D01*
X63000000Y0D02*
X70086421Y0D01*
X69500000Y0D02*
X68913579Y1126504D01*
X69500000Y0D02*
X70086421Y1126504D01*
X69500000Y19500000D02*
X68913579Y18373496D01*
X69500000Y19500000D02*
X70086421Y18373496D01*
X28833333Y-10752380D02*
X28642857Y-10752380D01*
X28547619Y-10800000D01*
X28500000Y-10847619D01*
X28404761Y-10990476D01*
X28357142Y-11180952D01*
X28357142Y-11561904D01*
X28404761Y-11657142D01*
X28452380Y-11704761D01*
X28547619Y-11752380D01*
X28738095Y-11752380D01*
X28833333Y-11704761D01*
X28880952Y-11657142D01*
X28928571Y-11561904D01*
X28928571Y-11323809D01*
X28880952Y-11228571D01*
X28833333Y-11180952D01*
X28738095Y-11133333D01*
X28547619Y-11133333D01*
X28452380Y-11180952D01*
X28404761Y-11228571D01*
X28357142Y-11323809D01*
X29833333Y-10752380D02*
X29357142Y-10752380D01*
X29309523Y-11228571D01*
X29357142Y-11180952D01*
X29452380Y-11133333D01*
X29690476Y-11133333D01*
X29785714Y-11180952D01*
X29833333Y-11228571D01*
X29880952Y-11323809D01*
X29880952Y-11561904D01*
X29833333Y-11657142D01*
X29785714Y-11704761D01*
X29690476Y-11752380D01*
X29452380Y-11752380D01*
X29357142Y-11704761D01*
X29309523Y-11657142D01*
X30309523Y-11657142D02*
X30357142Y-11704761D01*
X30309523Y-11752380D01*
X30261904Y-11704761D01*
X30309523Y-11657142D01*
X30309523Y-11752380D01*
X30976190Y-10752380D02*
X31071428Y-10752380D01*
X31166666Y-10800000D01*
X31214285Y-10847619D01*
X31261904Y-10942857D01*
X31309523Y-11133333D01*
X31309523Y-11371428D01*
X31261904Y-11561904D01*
X31214285Y-11657142D01*
X31166666Y-11704761D01*
X31071428Y-11752380D01*
X30976190Y-11752380D01*
X30880952Y-11704761D01*
X30833333Y-11657142D01*
X30785714Y-11561904D01*
X30738095Y-11371428D01*
X30738095Y-11133333D01*
X30785714Y-10942857D01*
X30833333Y-10847619D01*
X30880952Y-10800000D01*
X30976190Y-10752380D01*
X31928571Y-10752380D02*
X32023809Y-10752380D01*
X32119047Y-10800000D01*
X32166666Y-10847619D01*
X32214285Y-10942857D01*
X32261904Y-11133333D01*
X32261904Y-11371428D01*
X32214285Y-11561904D01*
X32166666Y-11657142D01*
X32119047Y-11704761D01*
X32023809Y-11752380D01*
X31928571Y-11752380D01*
X31833333Y-11704761D01*
X31785714Y-11657142D01*
X31738095Y-11561904D01*
X31690476Y-11371428D01*
X31690476Y-11133333D01*
X31738095Y-10942857D01*
X31785714Y-10847619D01*
X31833333Y-10800000D01*
X31928571Y-10752380D01*
X32880952Y-10752380D02*
X32976190Y-10752380D01*
X33071428Y-10800000D01*
X33119047Y-10847619D01*
X33166666Y-10942857D01*
X33214285Y-11133333D01*
X33214285Y-11371428D01*
X33166666Y-11561904D01*
X33119047Y-11657142D01*
X33071428Y-11704761D01*
X32976190Y-11752380D01*
X32880952Y-11752380D01*
X32785714Y-11704761D01*
X32738095Y-11657142D01*
X32690476Y-11561904D01*
X32642857Y-11371428D01*
X32642857Y-11133333D01*
X32690476Y-10942857D01*
X32738095Y-10847619D01*
X32785714Y-10800000D01*
X32880952Y-10752380D01*
X34404761Y-11752380D02*
X34404761Y-11085714D01*
X34404761Y-11180952D02*
X34452380Y-11133333D01*
X34547619Y-11085714D01*
X34690476Y-11085714D01*
X34785714Y-11133333D01*
X34833333Y-11228571D01*
X34833333Y-11752380D01*
X34833333Y-11228571D02*
X34880952Y-11133333D01*
X34976190Y-11085714D01*
X35119047Y-11085714D01*
X35214285Y-11133333D01*
X35261904Y-11228571D01*
X35261904Y-11752380D01*
X35738095Y-11752380D02*
X35738095Y-11085714D01*
X35738095Y-11180952D02*
X35785714Y-11133333D01*
X35880952Y-11085714D01*
X36023809Y-11085714D01*
X36119047Y-11133333D01*
X36166666Y-11228571D01*
X36166666Y-11752380D01*
X36166666Y-11228571D02*
X36214285Y-11133333D01*
X36309523Y-11085714D01*
X36452380Y-11085714D01*
X36547619Y-11133333D01*
X36595238Y-11228571D01*
X36595238Y-11752380D01*
X65000000Y-10000000D02*
X0Y-10000000D01*
X65000000Y17500000D02*
X65000000Y-10586421D01*
X0Y17500000D02*
X0Y-10586421D01*
X0Y-10000000D02*
X1126504Y-9413579D01*
X0Y-10000000D02*
X1126504Y-10586421D01*
X65000000Y-10000000D02*
X63873496Y-9413579D01*
X65000000Y-10000000D02*
X63873496Y-10586421D01*
M02*
