G04 #@! TF.GenerationSoftware,KiCad,Pcbnew,(5.1.2)-1*
G04 #@! TF.CreationDate,2020-06-05T15:04:51-04:00*
G04 #@! TF.ProjectId,Step_Direction_Board,53746570-5f44-4697-9265-6374696f6e5f,rev?*
G04 #@! TF.SameCoordinates,PX7270e00PY78a3ca0*
G04 #@! TF.FileFunction,Drawing*
%FSLAX46Y46*%
G04 Gerber Fmt 4.6, Leading zero omitted, Abs format (unit mm)*
G04 Created by KiCad (PCBNEW (5.1.2)-1) date 2020-06-05 15:04:51*
%MOMM*%
%LPD*%
G04 APERTURE LIST*
%ADD10C,0.150000*%
G04 APERTURE END LIST*
D10*
X28877568Y-933702D02*
X28401377Y-933702D01*
X28353758Y-1409893D01*
X28401377Y-1362274D01*
X28496616Y-1314655D01*
X28734711Y-1314655D01*
X28829949Y-1362274D01*
X28877568Y-1409893D01*
X28925187Y-1505131D01*
X28925187Y-1743226D01*
X28877568Y-1838464D01*
X28829949Y-1886083D01*
X28734711Y-1933702D01*
X28496616Y-1933702D01*
X28401377Y-1886083D01*
X28353758Y-1838464D01*
X29306139Y-1028941D02*
X29353758Y-981322D01*
X29448996Y-933702D01*
X29687092Y-933702D01*
X29782330Y-981322D01*
X29829949Y-1028941D01*
X29877568Y-1124179D01*
X29877568Y-1219417D01*
X29829949Y-1362274D01*
X29258520Y-1933702D01*
X29877568Y-1933702D01*
X30306139Y-1838464D02*
X30353758Y-1886083D01*
X30306139Y-1933702D01*
X30258520Y-1886083D01*
X30306139Y-1838464D01*
X30306139Y-1933702D01*
X31306139Y-1933702D02*
X30734711Y-1933702D01*
X31020425Y-1933702D02*
X31020425Y-933702D01*
X30925187Y-1076560D01*
X30829949Y-1171798D01*
X30734711Y-1219417D01*
X32163282Y-933702D02*
X31972806Y-933702D01*
X31877568Y-981322D01*
X31829949Y-1028941D01*
X31734711Y-1171798D01*
X31687092Y-1362274D01*
X31687092Y-1743226D01*
X31734711Y-1838464D01*
X31782330Y-1886083D01*
X31877568Y-1933702D01*
X32068044Y-1933702D01*
X32163282Y-1886083D01*
X32210901Y-1838464D01*
X32258520Y-1743226D01*
X32258520Y-1505131D01*
X32210901Y-1409893D01*
X32163282Y-1362274D01*
X32068044Y-1314655D01*
X31877568Y-1314655D01*
X31782330Y-1362274D01*
X31734711Y-1409893D01*
X31687092Y-1505131D01*
X32877568Y-933702D02*
X32972806Y-933702D01*
X33068044Y-981322D01*
X33115663Y-1028941D01*
X33163282Y-1124179D01*
X33210901Y-1314655D01*
X33210901Y-1552750D01*
X33163282Y-1743226D01*
X33115663Y-1838464D01*
X33068044Y-1886083D01*
X32972806Y-1933702D01*
X32877568Y-1933702D01*
X32782330Y-1886083D01*
X32734711Y-1838464D01*
X32687092Y-1743226D01*
X32639473Y-1552750D01*
X32639473Y-1314655D01*
X32687092Y-1124179D01*
X32734711Y-1028941D01*
X32782330Y-981322D01*
X32877568Y-933702D01*
X34401377Y-1933702D02*
X34401377Y-1267036D01*
X34401377Y-1362274D02*
X34448996Y-1314655D01*
X34544235Y-1267036D01*
X34687092Y-1267036D01*
X34782330Y-1314655D01*
X34829949Y-1409893D01*
X34829949Y-1933702D01*
X34829949Y-1409893D02*
X34877568Y-1314655D01*
X34972806Y-1267036D01*
X35115663Y-1267036D01*
X35210901Y-1314655D01*
X35258520Y-1409893D01*
X35258520Y-1933702D01*
X35734711Y-1933702D02*
X35734711Y-1267036D01*
X35734711Y-1362274D02*
X35782330Y-1314655D01*
X35877568Y-1267036D01*
X36020425Y-1267036D01*
X36115663Y-1314655D01*
X36163282Y-1409893D01*
X36163282Y-1933702D01*
X36163282Y-1409893D02*
X36210901Y-1314655D01*
X36306139Y-1267036D01*
X36448996Y-1267036D01*
X36544235Y-1314655D01*
X36591854Y-1409893D01*
X36591854Y-1933702D01*
X6416616Y-181322D02*
X58576616Y-181322D01*
X6416616Y2708677D02*
X6416616Y-767743D01*
X58576616Y2708677D02*
X58576616Y-767743D01*
X58576616Y-181322D02*
X57450112Y-767743D01*
X58576616Y-181322D02*
X57450112Y405099D01*
X6416616Y-181322D02*
X7543120Y-767743D01*
X6416616Y-181322D02*
X7543120Y405099D01*
X48179038Y6132720D02*
X48274276Y6132720D01*
X48369514Y6085100D01*
X48417133Y6037481D01*
X48464752Y5942243D01*
X48512371Y5751767D01*
X48512371Y5513672D01*
X48464752Y5323196D01*
X48417133Y5227958D01*
X48369514Y5180339D01*
X48274276Y5132720D01*
X48179038Y5132720D01*
X48083800Y5180339D01*
X48036180Y5227958D01*
X47988561Y5323196D01*
X47940942Y5513672D01*
X47940942Y5751767D01*
X47988561Y5942243D01*
X48036180Y6037481D01*
X48083800Y6085100D01*
X48179038Y6132720D01*
X48940942Y5227958D02*
X48988561Y5180339D01*
X48940942Y5132720D01*
X48893323Y5180339D01*
X48940942Y5227958D01*
X48940942Y5132720D01*
X49607609Y6132720D02*
X49702847Y6132720D01*
X49798085Y6085100D01*
X49845704Y6037481D01*
X49893323Y5942243D01*
X49940942Y5751767D01*
X49940942Y5513672D01*
X49893323Y5323196D01*
X49845704Y5227958D01*
X49798085Y5180339D01*
X49702847Y5132720D01*
X49607609Y5132720D01*
X49512371Y5180339D01*
X49464752Y5227958D01*
X49417133Y5323196D01*
X49369514Y5513672D01*
X49369514Y5751767D01*
X49417133Y5942243D01*
X49464752Y6037481D01*
X49512371Y6085100D01*
X49607609Y6132720D01*
X50274276Y6132720D02*
X50940942Y6132720D01*
X50512371Y5132720D01*
X51464752Y5704148D02*
X51369514Y5751767D01*
X51321895Y5799386D01*
X51274276Y5894624D01*
X51274276Y5942243D01*
X51321895Y6037481D01*
X51369514Y6085100D01*
X51464752Y6132720D01*
X51655228Y6132720D01*
X51750466Y6085100D01*
X51798085Y6037481D01*
X51845704Y5942243D01*
X51845704Y5894624D01*
X51798085Y5799386D01*
X51750466Y5751767D01*
X51655228Y5704148D01*
X51464752Y5704148D01*
X51369514Y5656529D01*
X51321895Y5608910D01*
X51274276Y5513672D01*
X51274276Y5323196D01*
X51321895Y5227958D01*
X51369514Y5180339D01*
X51464752Y5132720D01*
X51655228Y5132720D01*
X51750466Y5180339D01*
X51798085Y5227958D01*
X51845704Y5323196D01*
X51845704Y5513672D01*
X51798085Y5608910D01*
X51750466Y5656529D01*
X51655228Y5704148D01*
X52274276Y5132720D02*
X52274276Y5799386D01*
X52274276Y6132720D02*
X52226657Y6085100D01*
X52274276Y6037481D01*
X52321895Y6085100D01*
X52274276Y6132720D01*
X52274276Y6037481D01*
X52750466Y5799386D02*
X52750466Y5132720D01*
X52750466Y5704148D02*
X52798085Y5751767D01*
X52893323Y5799386D01*
X53036180Y5799386D01*
X53131419Y5751767D01*
X53179038Y5656529D01*
X53179038Y5132720D01*
X54369514Y6180339D02*
X53512371Y4894624D01*
X55226657Y5132720D02*
X54655228Y5132720D01*
X54940942Y5132720D02*
X54940942Y6132720D01*
X54845704Y5989862D01*
X54750466Y5894624D01*
X54655228Y5847005D01*
X55655228Y5227958D02*
X55702847Y5180339D01*
X55655228Y5132720D01*
X55607609Y5180339D01*
X55655228Y5227958D01*
X55655228Y5132720D01*
X56179038Y5132720D02*
X56369514Y5132720D01*
X56464752Y5180339D01*
X56512371Y5227958D01*
X56607609Y5370815D01*
X56655228Y5561291D01*
X56655228Y5942243D01*
X56607609Y6037481D01*
X56559990Y6085100D01*
X56464752Y6132720D01*
X56274276Y6132720D01*
X56179038Y6085100D01*
X56131419Y6037481D01*
X56083800Y5942243D01*
X56083800Y5704148D01*
X56131419Y5608910D01*
X56179038Y5561291D01*
X56274276Y5513672D01*
X56464752Y5513672D01*
X56559990Y5561291D01*
X56607609Y5608910D01*
X56655228Y5704148D01*
X57226657Y5704148D02*
X57131419Y5751767D01*
X57083800Y5799386D01*
X57036180Y5894624D01*
X57036180Y5942243D01*
X57083800Y6037481D01*
X57131419Y6085100D01*
X57226657Y6132720D01*
X57417133Y6132720D01*
X57512371Y6085100D01*
X57559990Y6037481D01*
X57607609Y5942243D01*
X57607609Y5894624D01*
X57559990Y5799386D01*
X57512371Y5751767D01*
X57417133Y5704148D01*
X57226657Y5704148D01*
X57131419Y5656529D01*
X57083800Y5608910D01*
X57036180Y5513672D01*
X57036180Y5323196D01*
X57083800Y5227958D01*
X57131419Y5180339D01*
X57226657Y5132720D01*
X57417133Y5132720D01*
X57512371Y5180339D01*
X57559990Y5227958D01*
X57607609Y5323196D01*
X57607609Y5513672D01*
X57559990Y5608910D01*
X57512371Y5656529D01*
X57417133Y5704148D01*
X58559990Y5132720D02*
X57988561Y5132720D01*
X58274276Y5132720D02*
X58274276Y6132720D01*
X58179038Y5989862D01*
X58083800Y5894624D01*
X57988561Y5847005D01*
X58988561Y5132720D02*
X58988561Y5799386D01*
X58988561Y5704148D02*
X59036180Y5751767D01*
X59131419Y5799386D01*
X59274276Y5799386D01*
X59369514Y5751767D01*
X59417133Y5656529D01*
X59417133Y5132720D01*
X59417133Y5656529D02*
X59464752Y5751767D01*
X59559990Y5799386D01*
X59702847Y5799386D01*
X59798085Y5751767D01*
X59845704Y5656529D01*
X59845704Y5132720D01*
X60321895Y5132720D02*
X60321895Y5799386D01*
X60321895Y5704148D02*
X60369514Y5751767D01*
X60464752Y5799386D01*
X60607609Y5799386D01*
X60702847Y5751767D01*
X60750466Y5656529D01*
X60750466Y5132720D01*
X60750466Y5656529D02*
X60798085Y5751767D01*
X60893323Y5799386D01*
X61036180Y5799386D01*
X61131419Y5751767D01*
X61179038Y5656529D01*
X61179038Y5132720D01*
X45715238Y15962520D02*
X45810476Y15962520D01*
X45905714Y15914900D01*
X45953333Y15867281D01*
X46000952Y15772043D01*
X46048571Y15581567D01*
X46048571Y15343472D01*
X46000952Y15152996D01*
X45953333Y15057758D01*
X45905714Y15010139D01*
X45810476Y14962520D01*
X45715238Y14962520D01*
X45620000Y15010139D01*
X45572380Y15057758D01*
X45524761Y15152996D01*
X45477142Y15343472D01*
X45477142Y15581567D01*
X45524761Y15772043D01*
X45572380Y15867281D01*
X45620000Y15914900D01*
X45715238Y15962520D01*
X46477142Y15057758D02*
X46524761Y15010139D01*
X46477142Y14962520D01*
X46429523Y15010139D01*
X46477142Y15057758D01*
X46477142Y14962520D01*
X47477142Y14962520D02*
X46905714Y14962520D01*
X47191428Y14962520D02*
X47191428Y15962520D01*
X47096190Y15819662D01*
X47000952Y15724424D01*
X46905714Y15676805D01*
X47953333Y14962520D02*
X48143809Y14962520D01*
X48239047Y15010139D01*
X48286666Y15057758D01*
X48381904Y15200615D01*
X48429523Y15391091D01*
X48429523Y15772043D01*
X48381904Y15867281D01*
X48334285Y15914900D01*
X48239047Y15962520D01*
X48048571Y15962520D01*
X47953333Y15914900D01*
X47905714Y15867281D01*
X47858095Y15772043D01*
X47858095Y15533948D01*
X47905714Y15438710D01*
X47953333Y15391091D01*
X48048571Y15343472D01*
X48239047Y15343472D01*
X48334285Y15391091D01*
X48381904Y15438710D01*
X48429523Y15533948D01*
X49286666Y15629186D02*
X49286666Y14962520D01*
X49048571Y16010139D02*
X48810476Y15295853D01*
X49429523Y15295853D01*
X49810476Y14962520D02*
X49810476Y15629186D01*
X49810476Y15962520D02*
X49762857Y15914900D01*
X49810476Y15867281D01*
X49858095Y15914900D01*
X49810476Y15962520D01*
X49810476Y15867281D01*
X50286666Y15629186D02*
X50286666Y14962520D01*
X50286666Y15533948D02*
X50334285Y15581567D01*
X50429523Y15629186D01*
X50572380Y15629186D01*
X50667619Y15581567D01*
X50715238Y15486329D01*
X50715238Y14962520D01*
X51905714Y16010139D02*
X51048571Y14724424D01*
X52667619Y15629186D02*
X52667619Y14962520D01*
X52429523Y16010139D02*
X52191428Y15295853D01*
X52810476Y15295853D01*
X53191428Y15057758D02*
X53239047Y15010139D01*
X53191428Y14962520D01*
X53143809Y15010139D01*
X53191428Y15057758D01*
X53191428Y14962520D01*
X53715238Y14962520D02*
X53905714Y14962520D01*
X54000952Y15010139D01*
X54048571Y15057758D01*
X54143809Y15200615D01*
X54191428Y15391091D01*
X54191428Y15772043D01*
X54143809Y15867281D01*
X54096190Y15914900D01*
X54000952Y15962520D01*
X53810476Y15962520D01*
X53715238Y15914900D01*
X53667619Y15867281D01*
X53620000Y15772043D01*
X53620000Y15533948D01*
X53667619Y15438710D01*
X53715238Y15391091D01*
X53810476Y15343472D01*
X54000952Y15343472D01*
X54096190Y15391091D01*
X54143809Y15438710D01*
X54191428Y15533948D01*
X54572380Y15867281D02*
X54620000Y15914900D01*
X54715238Y15962520D01*
X54953333Y15962520D01*
X55048571Y15914900D01*
X55096190Y15867281D01*
X55143809Y15772043D01*
X55143809Y15676805D01*
X55096190Y15533948D01*
X54524761Y14962520D01*
X55143809Y14962520D01*
X55715238Y15533948D02*
X55620000Y15581567D01*
X55572380Y15629186D01*
X55524761Y15724424D01*
X55524761Y15772043D01*
X55572380Y15867281D01*
X55620000Y15914900D01*
X55715238Y15962520D01*
X55905714Y15962520D01*
X56000952Y15914900D01*
X56048571Y15867281D01*
X56096190Y15772043D01*
X56096190Y15724424D01*
X56048571Y15629186D01*
X56000952Y15581567D01*
X55905714Y15533948D01*
X55715238Y15533948D01*
X55620000Y15486329D01*
X55572380Y15438710D01*
X55524761Y15343472D01*
X55524761Y15152996D01*
X55572380Y15057758D01*
X55620000Y15010139D01*
X55715238Y14962520D01*
X55905714Y14962520D01*
X56000952Y15010139D01*
X56048571Y15057758D01*
X56096190Y15152996D01*
X56096190Y15343472D01*
X56048571Y15438710D01*
X56000952Y15486329D01*
X55905714Y15533948D01*
X56524761Y14962520D02*
X56524761Y15629186D01*
X56524761Y15533948D02*
X56572380Y15581567D01*
X56667619Y15629186D01*
X56810476Y15629186D01*
X56905714Y15581567D01*
X56953333Y15486329D01*
X56953333Y14962520D01*
X56953333Y15486329D02*
X57000952Y15581567D01*
X57096190Y15629186D01*
X57239047Y15629186D01*
X57334285Y15581567D01*
X57381904Y15486329D01*
X57381904Y14962520D01*
X57858095Y14962520D02*
X57858095Y15629186D01*
X57858095Y15533948D02*
X57905714Y15581567D01*
X58000952Y15629186D01*
X58143809Y15629186D01*
X58239047Y15581567D01*
X58286666Y15486329D01*
X58286666Y14962520D01*
X58286666Y15486329D02*
X58334285Y15581567D01*
X58429523Y15629186D01*
X58572380Y15629186D01*
X58667619Y15581567D01*
X58715238Y15486329D01*
X58715238Y14962520D01*
X40203438Y12952620D02*
X40298676Y12952620D01*
X40393914Y12905000D01*
X40441533Y12857381D01*
X40489152Y12762143D01*
X40536771Y12571667D01*
X40536771Y12333572D01*
X40489152Y12143096D01*
X40441533Y12047858D01*
X40393914Y12000239D01*
X40298676Y11952620D01*
X40203438Y11952620D01*
X40108200Y12000239D01*
X40060580Y12047858D01*
X40012961Y12143096D01*
X39965342Y12333572D01*
X39965342Y12571667D01*
X40012961Y12762143D01*
X40060580Y12857381D01*
X40108200Y12905000D01*
X40203438Y12952620D01*
X40965342Y12047858D02*
X41012961Y12000239D01*
X40965342Y11952620D01*
X40917723Y12000239D01*
X40965342Y12047858D01*
X40965342Y11952620D01*
X41632009Y12952620D02*
X41727247Y12952620D01*
X41822485Y12905000D01*
X41870104Y12857381D01*
X41917723Y12762143D01*
X41965342Y12571667D01*
X41965342Y12333572D01*
X41917723Y12143096D01*
X41870104Y12047858D01*
X41822485Y12000239D01*
X41727247Y11952620D01*
X41632009Y11952620D01*
X41536771Y12000239D01*
X41489152Y12047858D01*
X41441533Y12143096D01*
X41393914Y12333572D01*
X41393914Y12571667D01*
X41441533Y12762143D01*
X41489152Y12857381D01*
X41536771Y12905000D01*
X41632009Y12952620D01*
X42346295Y12857381D02*
X42393914Y12905000D01*
X42489152Y12952620D01*
X42727247Y12952620D01*
X42822485Y12905000D01*
X42870104Y12857381D01*
X42917723Y12762143D01*
X42917723Y12666905D01*
X42870104Y12524048D01*
X42298676Y11952620D01*
X42917723Y11952620D01*
X43298676Y12857381D02*
X43346295Y12905000D01*
X43441533Y12952620D01*
X43679628Y12952620D01*
X43774866Y12905000D01*
X43822485Y12857381D01*
X43870104Y12762143D01*
X43870104Y12666905D01*
X43822485Y12524048D01*
X43251057Y11952620D01*
X43870104Y11952620D01*
X44298676Y11952620D02*
X44298676Y12619286D01*
X44298676Y12952620D02*
X44251057Y12905000D01*
X44298676Y12857381D01*
X44346295Y12905000D01*
X44298676Y12952620D01*
X44298676Y12857381D01*
X44774866Y12619286D02*
X44774866Y11952620D01*
X44774866Y12524048D02*
X44822485Y12571667D01*
X44917723Y12619286D01*
X45060580Y12619286D01*
X45155819Y12571667D01*
X45203438Y12476429D01*
X45203438Y11952620D01*
X46393914Y13000239D02*
X45536771Y11714524D01*
X46917723Y12952620D02*
X47012961Y12952620D01*
X47108200Y12905000D01*
X47155819Y12857381D01*
X47203438Y12762143D01*
X47251057Y12571667D01*
X47251057Y12333572D01*
X47203438Y12143096D01*
X47155819Y12047858D01*
X47108200Y12000239D01*
X47012961Y11952620D01*
X46917723Y11952620D01*
X46822485Y12000239D01*
X46774866Y12047858D01*
X46727247Y12143096D01*
X46679628Y12333572D01*
X46679628Y12571667D01*
X46727247Y12762143D01*
X46774866Y12857381D01*
X46822485Y12905000D01*
X46917723Y12952620D01*
X47679628Y12047858D02*
X47727247Y12000239D01*
X47679628Y11952620D01*
X47632009Y12000239D01*
X47679628Y12047858D01*
X47679628Y11952620D01*
X48632009Y12952620D02*
X48155819Y12952620D01*
X48108200Y12476429D01*
X48155819Y12524048D01*
X48251057Y12571667D01*
X48489152Y12571667D01*
X48584390Y12524048D01*
X48632009Y12476429D01*
X48679628Y12381191D01*
X48679628Y12143096D01*
X48632009Y12047858D01*
X48584390Y12000239D01*
X48489152Y11952620D01*
X48251057Y11952620D01*
X48155819Y12000239D01*
X48108200Y12047858D01*
X49584390Y12952620D02*
X49108200Y12952620D01*
X49060580Y12476429D01*
X49108200Y12524048D01*
X49203438Y12571667D01*
X49441533Y12571667D01*
X49536771Y12524048D01*
X49584390Y12476429D01*
X49632009Y12381191D01*
X49632009Y12143096D01*
X49584390Y12047858D01*
X49536771Y12000239D01*
X49441533Y11952620D01*
X49203438Y11952620D01*
X49108200Y12000239D01*
X49060580Y12047858D01*
X50108200Y11952620D02*
X50298676Y11952620D01*
X50393914Y12000239D01*
X50441533Y12047858D01*
X50536771Y12190715D01*
X50584390Y12381191D01*
X50584390Y12762143D01*
X50536771Y12857381D01*
X50489152Y12905000D01*
X50393914Y12952620D01*
X50203438Y12952620D01*
X50108200Y12905000D01*
X50060580Y12857381D01*
X50012961Y12762143D01*
X50012961Y12524048D01*
X50060580Y12428810D01*
X50108200Y12381191D01*
X50203438Y12333572D01*
X50393914Y12333572D01*
X50489152Y12381191D01*
X50536771Y12428810D01*
X50584390Y12524048D01*
X51012961Y11952620D02*
X51012961Y12619286D01*
X51012961Y12524048D02*
X51060580Y12571667D01*
X51155819Y12619286D01*
X51298676Y12619286D01*
X51393914Y12571667D01*
X51441533Y12476429D01*
X51441533Y11952620D01*
X51441533Y12476429D02*
X51489152Y12571667D01*
X51584390Y12619286D01*
X51727247Y12619286D01*
X51822485Y12571667D01*
X51870104Y12476429D01*
X51870104Y11952620D01*
X52346295Y11952620D02*
X52346295Y12619286D01*
X52346295Y12524048D02*
X52393914Y12571667D01*
X52489152Y12619286D01*
X52632009Y12619286D01*
X52727247Y12571667D01*
X52774866Y12476429D01*
X52774866Y11952620D01*
X52774866Y12476429D02*
X52822485Y12571667D01*
X52917723Y12619286D01*
X53060580Y12619286D01*
X53155819Y12571667D01*
X53203438Y12476429D01*
X53203438Y11952620D01*
X52179419Y12317620D02*
X52274657Y12317620D01*
X52369895Y12270000D01*
X52417514Y12222381D01*
X52465133Y12127143D01*
X52512752Y11936667D01*
X52512752Y11698572D01*
X52465133Y11508096D01*
X52417514Y11412858D01*
X52369895Y11365239D01*
X52274657Y11317620D01*
X52179419Y11317620D01*
X52084180Y11365239D01*
X52036561Y11412858D01*
X51988942Y11508096D01*
X51941323Y11698572D01*
X51941323Y11936667D01*
X51988942Y12127143D01*
X52036561Y12222381D01*
X52084180Y12270000D01*
X52179419Y12317620D01*
X52941323Y11412858D02*
X52988942Y11365239D01*
X52941323Y11317620D01*
X52893704Y11365239D01*
X52941323Y11412858D01*
X52941323Y11317620D01*
X53607990Y12317620D02*
X53703228Y12317620D01*
X53798466Y12270000D01*
X53846085Y12222381D01*
X53893704Y12127143D01*
X53941323Y11936667D01*
X53941323Y11698572D01*
X53893704Y11508096D01*
X53846085Y11412858D01*
X53798466Y11365239D01*
X53703228Y11317620D01*
X53607990Y11317620D01*
X53512752Y11365239D01*
X53465133Y11412858D01*
X53417514Y11508096D01*
X53369895Y11698572D01*
X53369895Y11936667D01*
X53417514Y12127143D01*
X53465133Y12222381D01*
X53512752Y12270000D01*
X53607990Y12317620D01*
X54846085Y12317620D02*
X54369895Y12317620D01*
X54322276Y11841429D01*
X54369895Y11889048D01*
X54465133Y11936667D01*
X54703228Y11936667D01*
X54798466Y11889048D01*
X54846085Y11841429D01*
X54893704Y11746191D01*
X54893704Y11508096D01*
X54846085Y11412858D01*
X54798466Y11365239D01*
X54703228Y11317620D01*
X54465133Y11317620D01*
X54369895Y11365239D01*
X54322276Y11412858D01*
X55322276Y11317620D02*
X55322276Y11984286D01*
X55322276Y12317620D02*
X55274657Y12270000D01*
X55322276Y12222381D01*
X55369895Y12270000D01*
X55322276Y12317620D01*
X55322276Y12222381D01*
X55798466Y11984286D02*
X55798466Y11317620D01*
X55798466Y11889048D02*
X55846085Y11936667D01*
X55941323Y11984286D01*
X56084180Y11984286D01*
X56179419Y11936667D01*
X56227038Y11841429D01*
X56227038Y11317620D01*
X57417514Y12365239D02*
X56560371Y11079524D01*
X58274657Y11317620D02*
X57703228Y11317620D01*
X57988942Y11317620D02*
X57988942Y12317620D01*
X57893704Y12174762D01*
X57798466Y12079524D01*
X57703228Y12031905D01*
X58703228Y11412858D02*
X58750847Y11365239D01*
X58703228Y11317620D01*
X58655609Y11365239D01*
X58703228Y11412858D01*
X58703228Y11317620D01*
X59131800Y12222381D02*
X59179419Y12270000D01*
X59274657Y12317620D01*
X59512752Y12317620D01*
X59607990Y12270000D01*
X59655609Y12222381D01*
X59703228Y12127143D01*
X59703228Y12031905D01*
X59655609Y11889048D01*
X59084180Y11317620D01*
X59703228Y11317620D01*
X60036561Y12317620D02*
X60703228Y12317620D01*
X60274657Y11317620D01*
X61084180Y11317620D02*
X61084180Y11984286D01*
X61084180Y11889048D02*
X61131800Y11936667D01*
X61227038Y11984286D01*
X61369895Y11984286D01*
X61465133Y11936667D01*
X61512752Y11841429D01*
X61512752Y11317620D01*
X61512752Y11841429D02*
X61560371Y11936667D01*
X61655609Y11984286D01*
X61798466Y11984286D01*
X61893704Y11936667D01*
X61941323Y11841429D01*
X61941323Y11317620D01*
X62417514Y11317620D02*
X62417514Y11984286D01*
X62417514Y11889048D02*
X62465133Y11936667D01*
X62560371Y11984286D01*
X62703228Y11984286D01*
X62798466Y11936667D01*
X62846085Y11841429D01*
X62846085Y11317620D01*
X62846085Y11841429D02*
X62893704Y11936667D01*
X62988942Y11984286D01*
X63131800Y11984286D01*
X63227038Y11936667D01*
X63274657Y11841429D01*
X63274657Y11317620D01*
X35139038Y6132720D02*
X35234276Y6132720D01*
X35329514Y6085100D01*
X35377133Y6037481D01*
X35424752Y5942243D01*
X35472371Y5751767D01*
X35472371Y5513672D01*
X35424752Y5323196D01*
X35377133Y5227958D01*
X35329514Y5180339D01*
X35234276Y5132720D01*
X35139038Y5132720D01*
X35043800Y5180339D01*
X34996180Y5227958D01*
X34948561Y5323196D01*
X34900942Y5513672D01*
X34900942Y5751767D01*
X34948561Y5942243D01*
X34996180Y6037481D01*
X35043800Y6085100D01*
X35139038Y6132720D01*
X35900942Y5227958D02*
X35948561Y5180339D01*
X35900942Y5132720D01*
X35853323Y5180339D01*
X35900942Y5227958D01*
X35900942Y5132720D01*
X36567609Y6132720D02*
X36662847Y6132720D01*
X36758085Y6085100D01*
X36805704Y6037481D01*
X36853323Y5942243D01*
X36900942Y5751767D01*
X36900942Y5513672D01*
X36853323Y5323196D01*
X36805704Y5227958D01*
X36758085Y5180339D01*
X36662847Y5132720D01*
X36567609Y5132720D01*
X36472371Y5180339D01*
X36424752Y5227958D01*
X36377133Y5323196D01*
X36329514Y5513672D01*
X36329514Y5751767D01*
X36377133Y5942243D01*
X36424752Y6037481D01*
X36472371Y6085100D01*
X36567609Y6132720D01*
X37234276Y6132720D02*
X37900942Y6132720D01*
X37472371Y5132720D01*
X38424752Y5704148D02*
X38329514Y5751767D01*
X38281895Y5799386D01*
X38234276Y5894624D01*
X38234276Y5942243D01*
X38281895Y6037481D01*
X38329514Y6085100D01*
X38424752Y6132720D01*
X38615228Y6132720D01*
X38710466Y6085100D01*
X38758085Y6037481D01*
X38805704Y5942243D01*
X38805704Y5894624D01*
X38758085Y5799386D01*
X38710466Y5751767D01*
X38615228Y5704148D01*
X38424752Y5704148D01*
X38329514Y5656529D01*
X38281895Y5608910D01*
X38234276Y5513672D01*
X38234276Y5323196D01*
X38281895Y5227958D01*
X38329514Y5180339D01*
X38424752Y5132720D01*
X38615228Y5132720D01*
X38710466Y5180339D01*
X38758085Y5227958D01*
X38805704Y5323196D01*
X38805704Y5513672D01*
X38758085Y5608910D01*
X38710466Y5656529D01*
X38615228Y5704148D01*
X39234276Y5132720D02*
X39234276Y5799386D01*
X39234276Y6132720D02*
X39186657Y6085100D01*
X39234276Y6037481D01*
X39281895Y6085100D01*
X39234276Y6132720D01*
X39234276Y6037481D01*
X39710466Y5799386D02*
X39710466Y5132720D01*
X39710466Y5704148D02*
X39758085Y5751767D01*
X39853323Y5799386D01*
X39996180Y5799386D01*
X40091419Y5751767D01*
X40139038Y5656529D01*
X40139038Y5132720D01*
X41329514Y6180339D02*
X40472371Y4894624D01*
X42186657Y5132720D02*
X41615228Y5132720D01*
X41900942Y5132720D02*
X41900942Y6132720D01*
X41805704Y5989862D01*
X41710466Y5894624D01*
X41615228Y5847005D01*
X42615228Y5227958D02*
X42662847Y5180339D01*
X42615228Y5132720D01*
X42567609Y5180339D01*
X42615228Y5227958D01*
X42615228Y5132720D01*
X43139038Y5132720D02*
X43329514Y5132720D01*
X43424752Y5180339D01*
X43472371Y5227958D01*
X43567609Y5370815D01*
X43615228Y5561291D01*
X43615228Y5942243D01*
X43567609Y6037481D01*
X43519990Y6085100D01*
X43424752Y6132720D01*
X43234276Y6132720D01*
X43139038Y6085100D01*
X43091419Y6037481D01*
X43043800Y5942243D01*
X43043800Y5704148D01*
X43091419Y5608910D01*
X43139038Y5561291D01*
X43234276Y5513672D01*
X43424752Y5513672D01*
X43519990Y5561291D01*
X43567609Y5608910D01*
X43615228Y5704148D01*
X44186657Y5704148D02*
X44091419Y5751767D01*
X44043800Y5799386D01*
X43996180Y5894624D01*
X43996180Y5942243D01*
X44043800Y6037481D01*
X44091419Y6085100D01*
X44186657Y6132720D01*
X44377133Y6132720D01*
X44472371Y6085100D01*
X44519990Y6037481D01*
X44567609Y5942243D01*
X44567609Y5894624D01*
X44519990Y5799386D01*
X44472371Y5751767D01*
X44377133Y5704148D01*
X44186657Y5704148D01*
X44091419Y5656529D01*
X44043800Y5608910D01*
X43996180Y5513672D01*
X43996180Y5323196D01*
X44043800Y5227958D01*
X44091419Y5180339D01*
X44186657Y5132720D01*
X44377133Y5132720D01*
X44472371Y5180339D01*
X44519990Y5227958D01*
X44567609Y5323196D01*
X44567609Y5513672D01*
X44519990Y5608910D01*
X44472371Y5656529D01*
X44377133Y5704148D01*
X45519990Y5132720D02*
X44948561Y5132720D01*
X45234276Y5132720D02*
X45234276Y6132720D01*
X45139038Y5989862D01*
X45043800Y5894624D01*
X44948561Y5847005D01*
X45948561Y5132720D02*
X45948561Y5799386D01*
X45948561Y5704148D02*
X45996180Y5751767D01*
X46091419Y5799386D01*
X46234276Y5799386D01*
X46329514Y5751767D01*
X46377133Y5656529D01*
X46377133Y5132720D01*
X46377133Y5656529D02*
X46424752Y5751767D01*
X46519990Y5799386D01*
X46662847Y5799386D01*
X46758085Y5751767D01*
X46805704Y5656529D01*
X46805704Y5132720D01*
X47281895Y5132720D02*
X47281895Y5799386D01*
X47281895Y5704148D02*
X47329514Y5751767D01*
X47424752Y5799386D01*
X47567609Y5799386D01*
X47662847Y5751767D01*
X47710466Y5656529D01*
X47710466Y5132720D01*
X47710466Y5656529D02*
X47758085Y5751767D01*
X47853323Y5799386D01*
X47996180Y5799386D01*
X48091419Y5751767D01*
X48139038Y5656529D01*
X48139038Y5132720D01*
X32675238Y15962520D02*
X32770476Y15962520D01*
X32865714Y15914900D01*
X32913333Y15867281D01*
X32960952Y15772043D01*
X33008571Y15581567D01*
X33008571Y15343472D01*
X32960952Y15152996D01*
X32913333Y15057758D01*
X32865714Y15010139D01*
X32770476Y14962520D01*
X32675238Y14962520D01*
X32580000Y15010139D01*
X32532380Y15057758D01*
X32484761Y15152996D01*
X32437142Y15343472D01*
X32437142Y15581567D01*
X32484761Y15772043D01*
X32532380Y15867281D01*
X32580000Y15914900D01*
X32675238Y15962520D01*
X33437142Y15057758D02*
X33484761Y15010139D01*
X33437142Y14962520D01*
X33389523Y15010139D01*
X33437142Y15057758D01*
X33437142Y14962520D01*
X34437142Y14962520D02*
X33865714Y14962520D01*
X34151428Y14962520D02*
X34151428Y15962520D01*
X34056190Y15819662D01*
X33960952Y15724424D01*
X33865714Y15676805D01*
X34913333Y14962520D02*
X35103809Y14962520D01*
X35199047Y15010139D01*
X35246666Y15057758D01*
X35341904Y15200615D01*
X35389523Y15391091D01*
X35389523Y15772043D01*
X35341904Y15867281D01*
X35294285Y15914900D01*
X35199047Y15962520D01*
X35008571Y15962520D01*
X34913333Y15914900D01*
X34865714Y15867281D01*
X34818095Y15772043D01*
X34818095Y15533948D01*
X34865714Y15438710D01*
X34913333Y15391091D01*
X35008571Y15343472D01*
X35199047Y15343472D01*
X35294285Y15391091D01*
X35341904Y15438710D01*
X35389523Y15533948D01*
X36246666Y15629186D02*
X36246666Y14962520D01*
X36008571Y16010139D02*
X35770476Y15295853D01*
X36389523Y15295853D01*
X36770476Y14962520D02*
X36770476Y15629186D01*
X36770476Y15962520D02*
X36722857Y15914900D01*
X36770476Y15867281D01*
X36818095Y15914900D01*
X36770476Y15962520D01*
X36770476Y15867281D01*
X37246666Y15629186D02*
X37246666Y14962520D01*
X37246666Y15533948D02*
X37294285Y15581567D01*
X37389523Y15629186D01*
X37532380Y15629186D01*
X37627619Y15581567D01*
X37675238Y15486329D01*
X37675238Y14962520D01*
X38865714Y16010139D02*
X38008571Y14724424D01*
X39627619Y15629186D02*
X39627619Y14962520D01*
X39389523Y16010139D02*
X39151428Y15295853D01*
X39770476Y15295853D01*
X40151428Y15057758D02*
X40199047Y15010139D01*
X40151428Y14962520D01*
X40103809Y15010139D01*
X40151428Y15057758D01*
X40151428Y14962520D01*
X40675238Y14962520D02*
X40865714Y14962520D01*
X40960952Y15010139D01*
X41008571Y15057758D01*
X41103809Y15200615D01*
X41151428Y15391091D01*
X41151428Y15772043D01*
X41103809Y15867281D01*
X41056190Y15914900D01*
X40960952Y15962520D01*
X40770476Y15962520D01*
X40675238Y15914900D01*
X40627619Y15867281D01*
X40580000Y15772043D01*
X40580000Y15533948D01*
X40627619Y15438710D01*
X40675238Y15391091D01*
X40770476Y15343472D01*
X40960952Y15343472D01*
X41056190Y15391091D01*
X41103809Y15438710D01*
X41151428Y15533948D01*
X41532380Y15867281D02*
X41580000Y15914900D01*
X41675238Y15962520D01*
X41913333Y15962520D01*
X42008571Y15914900D01*
X42056190Y15867281D01*
X42103809Y15772043D01*
X42103809Y15676805D01*
X42056190Y15533948D01*
X41484761Y14962520D01*
X42103809Y14962520D01*
X42675238Y15533948D02*
X42580000Y15581567D01*
X42532380Y15629186D01*
X42484761Y15724424D01*
X42484761Y15772043D01*
X42532380Y15867281D01*
X42580000Y15914900D01*
X42675238Y15962520D01*
X42865714Y15962520D01*
X42960952Y15914900D01*
X43008571Y15867281D01*
X43056190Y15772043D01*
X43056190Y15724424D01*
X43008571Y15629186D01*
X42960952Y15581567D01*
X42865714Y15533948D01*
X42675238Y15533948D01*
X42580000Y15486329D01*
X42532380Y15438710D01*
X42484761Y15343472D01*
X42484761Y15152996D01*
X42532380Y15057758D01*
X42580000Y15010139D01*
X42675238Y14962520D01*
X42865714Y14962520D01*
X42960952Y15010139D01*
X43008571Y15057758D01*
X43056190Y15152996D01*
X43056190Y15343472D01*
X43008571Y15438710D01*
X42960952Y15486329D01*
X42865714Y15533948D01*
X43484761Y14962520D02*
X43484761Y15629186D01*
X43484761Y15533948D02*
X43532380Y15581567D01*
X43627619Y15629186D01*
X43770476Y15629186D01*
X43865714Y15581567D01*
X43913333Y15486329D01*
X43913333Y14962520D01*
X43913333Y15486329D02*
X43960952Y15581567D01*
X44056190Y15629186D01*
X44199047Y15629186D01*
X44294285Y15581567D01*
X44341904Y15486329D01*
X44341904Y14962520D01*
X44818095Y14962520D02*
X44818095Y15629186D01*
X44818095Y15533948D02*
X44865714Y15581567D01*
X44960952Y15629186D01*
X45103809Y15629186D01*
X45199047Y15581567D01*
X45246666Y15486329D01*
X45246666Y14962520D01*
X45246666Y15486329D02*
X45294285Y15581567D01*
X45389523Y15629186D01*
X45532380Y15629186D01*
X45627619Y15581567D01*
X45675238Y15486329D01*
X45675238Y14962520D01*
X27163438Y12952620D02*
X27258676Y12952620D01*
X27353914Y12905000D01*
X27401533Y12857381D01*
X27449152Y12762143D01*
X27496771Y12571667D01*
X27496771Y12333572D01*
X27449152Y12143096D01*
X27401533Y12047858D01*
X27353914Y12000239D01*
X27258676Y11952620D01*
X27163438Y11952620D01*
X27068200Y12000239D01*
X27020580Y12047858D01*
X26972961Y12143096D01*
X26925342Y12333572D01*
X26925342Y12571667D01*
X26972961Y12762143D01*
X27020580Y12857381D01*
X27068200Y12905000D01*
X27163438Y12952620D01*
X27925342Y12047858D02*
X27972961Y12000239D01*
X27925342Y11952620D01*
X27877723Y12000239D01*
X27925342Y12047858D01*
X27925342Y11952620D01*
X28592009Y12952620D02*
X28687247Y12952620D01*
X28782485Y12905000D01*
X28830104Y12857381D01*
X28877723Y12762143D01*
X28925342Y12571667D01*
X28925342Y12333572D01*
X28877723Y12143096D01*
X28830104Y12047858D01*
X28782485Y12000239D01*
X28687247Y11952620D01*
X28592009Y11952620D01*
X28496771Y12000239D01*
X28449152Y12047858D01*
X28401533Y12143096D01*
X28353914Y12333572D01*
X28353914Y12571667D01*
X28401533Y12762143D01*
X28449152Y12857381D01*
X28496771Y12905000D01*
X28592009Y12952620D01*
X29306295Y12857381D02*
X29353914Y12905000D01*
X29449152Y12952620D01*
X29687247Y12952620D01*
X29782485Y12905000D01*
X29830104Y12857381D01*
X29877723Y12762143D01*
X29877723Y12666905D01*
X29830104Y12524048D01*
X29258676Y11952620D01*
X29877723Y11952620D01*
X30258676Y12857381D02*
X30306295Y12905000D01*
X30401533Y12952620D01*
X30639628Y12952620D01*
X30734866Y12905000D01*
X30782485Y12857381D01*
X30830104Y12762143D01*
X30830104Y12666905D01*
X30782485Y12524048D01*
X30211057Y11952620D01*
X30830104Y11952620D01*
X31258676Y11952620D02*
X31258676Y12619286D01*
X31258676Y12952620D02*
X31211057Y12905000D01*
X31258676Y12857381D01*
X31306295Y12905000D01*
X31258676Y12952620D01*
X31258676Y12857381D01*
X31734866Y12619286D02*
X31734866Y11952620D01*
X31734866Y12524048D02*
X31782485Y12571667D01*
X31877723Y12619286D01*
X32020580Y12619286D01*
X32115819Y12571667D01*
X32163438Y12476429D01*
X32163438Y11952620D01*
X33353914Y13000239D02*
X32496771Y11714524D01*
X33877723Y12952620D02*
X33972961Y12952620D01*
X34068200Y12905000D01*
X34115819Y12857381D01*
X34163438Y12762143D01*
X34211057Y12571667D01*
X34211057Y12333572D01*
X34163438Y12143096D01*
X34115819Y12047858D01*
X34068200Y12000239D01*
X33972961Y11952620D01*
X33877723Y11952620D01*
X33782485Y12000239D01*
X33734866Y12047858D01*
X33687247Y12143096D01*
X33639628Y12333572D01*
X33639628Y12571667D01*
X33687247Y12762143D01*
X33734866Y12857381D01*
X33782485Y12905000D01*
X33877723Y12952620D01*
X34639628Y12047858D02*
X34687247Y12000239D01*
X34639628Y11952620D01*
X34592009Y12000239D01*
X34639628Y12047858D01*
X34639628Y11952620D01*
X35592009Y12952620D02*
X35115819Y12952620D01*
X35068200Y12476429D01*
X35115819Y12524048D01*
X35211057Y12571667D01*
X35449152Y12571667D01*
X35544390Y12524048D01*
X35592009Y12476429D01*
X35639628Y12381191D01*
X35639628Y12143096D01*
X35592009Y12047858D01*
X35544390Y12000239D01*
X35449152Y11952620D01*
X35211057Y11952620D01*
X35115819Y12000239D01*
X35068200Y12047858D01*
X36544390Y12952620D02*
X36068200Y12952620D01*
X36020580Y12476429D01*
X36068200Y12524048D01*
X36163438Y12571667D01*
X36401533Y12571667D01*
X36496771Y12524048D01*
X36544390Y12476429D01*
X36592009Y12381191D01*
X36592009Y12143096D01*
X36544390Y12047858D01*
X36496771Y12000239D01*
X36401533Y11952620D01*
X36163438Y11952620D01*
X36068200Y12000239D01*
X36020580Y12047858D01*
X37068200Y11952620D02*
X37258676Y11952620D01*
X37353914Y12000239D01*
X37401533Y12047858D01*
X37496771Y12190715D01*
X37544390Y12381191D01*
X37544390Y12762143D01*
X37496771Y12857381D01*
X37449152Y12905000D01*
X37353914Y12952620D01*
X37163438Y12952620D01*
X37068200Y12905000D01*
X37020580Y12857381D01*
X36972961Y12762143D01*
X36972961Y12524048D01*
X37020580Y12428810D01*
X37068200Y12381191D01*
X37163438Y12333572D01*
X37353914Y12333572D01*
X37449152Y12381191D01*
X37496771Y12428810D01*
X37544390Y12524048D01*
X37972961Y11952620D02*
X37972961Y12619286D01*
X37972961Y12524048D02*
X38020580Y12571667D01*
X38115819Y12619286D01*
X38258676Y12619286D01*
X38353914Y12571667D01*
X38401533Y12476429D01*
X38401533Y11952620D01*
X38401533Y12476429D02*
X38449152Y12571667D01*
X38544390Y12619286D01*
X38687247Y12619286D01*
X38782485Y12571667D01*
X38830104Y12476429D01*
X38830104Y11952620D01*
X39306295Y11952620D02*
X39306295Y12619286D01*
X39306295Y12524048D02*
X39353914Y12571667D01*
X39449152Y12619286D01*
X39592009Y12619286D01*
X39687247Y12571667D01*
X39734866Y12476429D01*
X39734866Y11952620D01*
X39734866Y12476429D02*
X39782485Y12571667D01*
X39877723Y12619286D01*
X40020580Y12619286D01*
X40115819Y12571667D01*
X40163438Y12476429D01*
X40163438Y11952620D01*
X39139419Y12317620D02*
X39234657Y12317620D01*
X39329895Y12270000D01*
X39377514Y12222381D01*
X39425133Y12127143D01*
X39472752Y11936667D01*
X39472752Y11698572D01*
X39425133Y11508096D01*
X39377514Y11412858D01*
X39329895Y11365239D01*
X39234657Y11317620D01*
X39139419Y11317620D01*
X39044180Y11365239D01*
X38996561Y11412858D01*
X38948942Y11508096D01*
X38901323Y11698572D01*
X38901323Y11936667D01*
X38948942Y12127143D01*
X38996561Y12222381D01*
X39044180Y12270000D01*
X39139419Y12317620D01*
X39901323Y11412858D02*
X39948942Y11365239D01*
X39901323Y11317620D01*
X39853704Y11365239D01*
X39901323Y11412858D01*
X39901323Y11317620D01*
X40567990Y12317620D02*
X40663228Y12317620D01*
X40758466Y12270000D01*
X40806085Y12222381D01*
X40853704Y12127143D01*
X40901323Y11936667D01*
X40901323Y11698572D01*
X40853704Y11508096D01*
X40806085Y11412858D01*
X40758466Y11365239D01*
X40663228Y11317620D01*
X40567990Y11317620D01*
X40472752Y11365239D01*
X40425133Y11412858D01*
X40377514Y11508096D01*
X40329895Y11698572D01*
X40329895Y11936667D01*
X40377514Y12127143D01*
X40425133Y12222381D01*
X40472752Y12270000D01*
X40567990Y12317620D01*
X41806085Y12317620D02*
X41329895Y12317620D01*
X41282276Y11841429D01*
X41329895Y11889048D01*
X41425133Y11936667D01*
X41663228Y11936667D01*
X41758466Y11889048D01*
X41806085Y11841429D01*
X41853704Y11746191D01*
X41853704Y11508096D01*
X41806085Y11412858D01*
X41758466Y11365239D01*
X41663228Y11317620D01*
X41425133Y11317620D01*
X41329895Y11365239D01*
X41282276Y11412858D01*
X42282276Y11317620D02*
X42282276Y11984286D01*
X42282276Y12317620D02*
X42234657Y12270000D01*
X42282276Y12222381D01*
X42329895Y12270000D01*
X42282276Y12317620D01*
X42282276Y12222381D01*
X42758466Y11984286D02*
X42758466Y11317620D01*
X42758466Y11889048D02*
X42806085Y11936667D01*
X42901323Y11984286D01*
X43044180Y11984286D01*
X43139419Y11936667D01*
X43187038Y11841429D01*
X43187038Y11317620D01*
X44377514Y12365239D02*
X43520371Y11079524D01*
X45234657Y11317620D02*
X44663228Y11317620D01*
X44948942Y11317620D02*
X44948942Y12317620D01*
X44853704Y12174762D01*
X44758466Y12079524D01*
X44663228Y12031905D01*
X45663228Y11412858D02*
X45710847Y11365239D01*
X45663228Y11317620D01*
X45615609Y11365239D01*
X45663228Y11412858D01*
X45663228Y11317620D01*
X46091800Y12222381D02*
X46139419Y12270000D01*
X46234657Y12317620D01*
X46472752Y12317620D01*
X46567990Y12270000D01*
X46615609Y12222381D01*
X46663228Y12127143D01*
X46663228Y12031905D01*
X46615609Y11889048D01*
X46044180Y11317620D01*
X46663228Y11317620D01*
X46996561Y12317620D02*
X47663228Y12317620D01*
X47234657Y11317620D01*
X48044180Y11317620D02*
X48044180Y11984286D01*
X48044180Y11889048D02*
X48091800Y11936667D01*
X48187038Y11984286D01*
X48329895Y11984286D01*
X48425133Y11936667D01*
X48472752Y11841429D01*
X48472752Y11317620D01*
X48472752Y11841429D02*
X48520371Y11936667D01*
X48615609Y11984286D01*
X48758466Y11984286D01*
X48853704Y11936667D01*
X48901323Y11841429D01*
X48901323Y11317620D01*
X49377514Y11317620D02*
X49377514Y11984286D01*
X49377514Y11889048D02*
X49425133Y11936667D01*
X49520371Y11984286D01*
X49663228Y11984286D01*
X49758466Y11936667D01*
X49806085Y11841429D01*
X49806085Y11317620D01*
X49806085Y11841429D02*
X49853704Y11936667D01*
X49948942Y11984286D01*
X50091800Y11984286D01*
X50187038Y11936667D01*
X50234657Y11841429D01*
X50234657Y11317620D01*
X22099038Y6132720D02*
X22194276Y6132720D01*
X22289514Y6085100D01*
X22337133Y6037481D01*
X22384752Y5942243D01*
X22432371Y5751767D01*
X22432371Y5513672D01*
X22384752Y5323196D01*
X22337133Y5227958D01*
X22289514Y5180339D01*
X22194276Y5132720D01*
X22099038Y5132720D01*
X22003800Y5180339D01*
X21956180Y5227958D01*
X21908561Y5323196D01*
X21860942Y5513672D01*
X21860942Y5751767D01*
X21908561Y5942243D01*
X21956180Y6037481D01*
X22003800Y6085100D01*
X22099038Y6132720D01*
X22860942Y5227958D02*
X22908561Y5180339D01*
X22860942Y5132720D01*
X22813323Y5180339D01*
X22860942Y5227958D01*
X22860942Y5132720D01*
X23527609Y6132720D02*
X23622847Y6132720D01*
X23718085Y6085100D01*
X23765704Y6037481D01*
X23813323Y5942243D01*
X23860942Y5751767D01*
X23860942Y5513672D01*
X23813323Y5323196D01*
X23765704Y5227958D01*
X23718085Y5180339D01*
X23622847Y5132720D01*
X23527609Y5132720D01*
X23432371Y5180339D01*
X23384752Y5227958D01*
X23337133Y5323196D01*
X23289514Y5513672D01*
X23289514Y5751767D01*
X23337133Y5942243D01*
X23384752Y6037481D01*
X23432371Y6085100D01*
X23527609Y6132720D01*
X24194276Y6132720D02*
X24860942Y6132720D01*
X24432371Y5132720D01*
X25384752Y5704148D02*
X25289514Y5751767D01*
X25241895Y5799386D01*
X25194276Y5894624D01*
X25194276Y5942243D01*
X25241895Y6037481D01*
X25289514Y6085100D01*
X25384752Y6132720D01*
X25575228Y6132720D01*
X25670466Y6085100D01*
X25718085Y6037481D01*
X25765704Y5942243D01*
X25765704Y5894624D01*
X25718085Y5799386D01*
X25670466Y5751767D01*
X25575228Y5704148D01*
X25384752Y5704148D01*
X25289514Y5656529D01*
X25241895Y5608910D01*
X25194276Y5513672D01*
X25194276Y5323196D01*
X25241895Y5227958D01*
X25289514Y5180339D01*
X25384752Y5132720D01*
X25575228Y5132720D01*
X25670466Y5180339D01*
X25718085Y5227958D01*
X25765704Y5323196D01*
X25765704Y5513672D01*
X25718085Y5608910D01*
X25670466Y5656529D01*
X25575228Y5704148D01*
X26194276Y5132720D02*
X26194276Y5799386D01*
X26194276Y6132720D02*
X26146657Y6085100D01*
X26194276Y6037481D01*
X26241895Y6085100D01*
X26194276Y6132720D01*
X26194276Y6037481D01*
X26670466Y5799386D02*
X26670466Y5132720D01*
X26670466Y5704148D02*
X26718085Y5751767D01*
X26813323Y5799386D01*
X26956180Y5799386D01*
X27051419Y5751767D01*
X27099038Y5656529D01*
X27099038Y5132720D01*
X28289514Y6180339D02*
X27432371Y4894624D01*
X29146657Y5132720D02*
X28575228Y5132720D01*
X28860942Y5132720D02*
X28860942Y6132720D01*
X28765704Y5989862D01*
X28670466Y5894624D01*
X28575228Y5847005D01*
X29575228Y5227958D02*
X29622847Y5180339D01*
X29575228Y5132720D01*
X29527609Y5180339D01*
X29575228Y5227958D01*
X29575228Y5132720D01*
X30099038Y5132720D02*
X30289514Y5132720D01*
X30384752Y5180339D01*
X30432371Y5227958D01*
X30527609Y5370815D01*
X30575228Y5561291D01*
X30575228Y5942243D01*
X30527609Y6037481D01*
X30479990Y6085100D01*
X30384752Y6132720D01*
X30194276Y6132720D01*
X30099038Y6085100D01*
X30051419Y6037481D01*
X30003800Y5942243D01*
X30003800Y5704148D01*
X30051419Y5608910D01*
X30099038Y5561291D01*
X30194276Y5513672D01*
X30384752Y5513672D01*
X30479990Y5561291D01*
X30527609Y5608910D01*
X30575228Y5704148D01*
X31146657Y5704148D02*
X31051419Y5751767D01*
X31003800Y5799386D01*
X30956180Y5894624D01*
X30956180Y5942243D01*
X31003800Y6037481D01*
X31051419Y6085100D01*
X31146657Y6132720D01*
X31337133Y6132720D01*
X31432371Y6085100D01*
X31479990Y6037481D01*
X31527609Y5942243D01*
X31527609Y5894624D01*
X31479990Y5799386D01*
X31432371Y5751767D01*
X31337133Y5704148D01*
X31146657Y5704148D01*
X31051419Y5656529D01*
X31003800Y5608910D01*
X30956180Y5513672D01*
X30956180Y5323196D01*
X31003800Y5227958D01*
X31051419Y5180339D01*
X31146657Y5132720D01*
X31337133Y5132720D01*
X31432371Y5180339D01*
X31479990Y5227958D01*
X31527609Y5323196D01*
X31527609Y5513672D01*
X31479990Y5608910D01*
X31432371Y5656529D01*
X31337133Y5704148D01*
X32479990Y5132720D02*
X31908561Y5132720D01*
X32194276Y5132720D02*
X32194276Y6132720D01*
X32099038Y5989862D01*
X32003800Y5894624D01*
X31908561Y5847005D01*
X32908561Y5132720D02*
X32908561Y5799386D01*
X32908561Y5704148D02*
X32956180Y5751767D01*
X33051419Y5799386D01*
X33194276Y5799386D01*
X33289514Y5751767D01*
X33337133Y5656529D01*
X33337133Y5132720D01*
X33337133Y5656529D02*
X33384752Y5751767D01*
X33479990Y5799386D01*
X33622847Y5799386D01*
X33718085Y5751767D01*
X33765704Y5656529D01*
X33765704Y5132720D01*
X34241895Y5132720D02*
X34241895Y5799386D01*
X34241895Y5704148D02*
X34289514Y5751767D01*
X34384752Y5799386D01*
X34527609Y5799386D01*
X34622847Y5751767D01*
X34670466Y5656529D01*
X34670466Y5132720D01*
X34670466Y5656529D02*
X34718085Y5751767D01*
X34813323Y5799386D01*
X34956180Y5799386D01*
X35051419Y5751767D01*
X35099038Y5656529D01*
X35099038Y5132720D01*
X19635238Y15962520D02*
X19730476Y15962520D01*
X19825714Y15914900D01*
X19873333Y15867281D01*
X19920952Y15772043D01*
X19968571Y15581567D01*
X19968571Y15343472D01*
X19920952Y15152996D01*
X19873333Y15057758D01*
X19825714Y15010139D01*
X19730476Y14962520D01*
X19635238Y14962520D01*
X19540000Y15010139D01*
X19492380Y15057758D01*
X19444761Y15152996D01*
X19397142Y15343472D01*
X19397142Y15581567D01*
X19444761Y15772043D01*
X19492380Y15867281D01*
X19540000Y15914900D01*
X19635238Y15962520D01*
X20397142Y15057758D02*
X20444761Y15010139D01*
X20397142Y14962520D01*
X20349523Y15010139D01*
X20397142Y15057758D01*
X20397142Y14962520D01*
X21397142Y14962520D02*
X20825714Y14962520D01*
X21111428Y14962520D02*
X21111428Y15962520D01*
X21016190Y15819662D01*
X20920952Y15724424D01*
X20825714Y15676805D01*
X21873333Y14962520D02*
X22063809Y14962520D01*
X22159047Y15010139D01*
X22206666Y15057758D01*
X22301904Y15200615D01*
X22349523Y15391091D01*
X22349523Y15772043D01*
X22301904Y15867281D01*
X22254285Y15914900D01*
X22159047Y15962520D01*
X21968571Y15962520D01*
X21873333Y15914900D01*
X21825714Y15867281D01*
X21778095Y15772043D01*
X21778095Y15533948D01*
X21825714Y15438710D01*
X21873333Y15391091D01*
X21968571Y15343472D01*
X22159047Y15343472D01*
X22254285Y15391091D01*
X22301904Y15438710D01*
X22349523Y15533948D01*
X23206666Y15629186D02*
X23206666Y14962520D01*
X22968571Y16010139D02*
X22730476Y15295853D01*
X23349523Y15295853D01*
X23730476Y14962520D02*
X23730476Y15629186D01*
X23730476Y15962520D02*
X23682857Y15914900D01*
X23730476Y15867281D01*
X23778095Y15914900D01*
X23730476Y15962520D01*
X23730476Y15867281D01*
X24206666Y15629186D02*
X24206666Y14962520D01*
X24206666Y15533948D02*
X24254285Y15581567D01*
X24349523Y15629186D01*
X24492380Y15629186D01*
X24587619Y15581567D01*
X24635238Y15486329D01*
X24635238Y14962520D01*
X25825714Y16010139D02*
X24968571Y14724424D01*
X26587619Y15629186D02*
X26587619Y14962520D01*
X26349523Y16010139D02*
X26111428Y15295853D01*
X26730476Y15295853D01*
X27111428Y15057758D02*
X27159047Y15010139D01*
X27111428Y14962520D01*
X27063809Y15010139D01*
X27111428Y15057758D01*
X27111428Y14962520D01*
X27635238Y14962520D02*
X27825714Y14962520D01*
X27920952Y15010139D01*
X27968571Y15057758D01*
X28063809Y15200615D01*
X28111428Y15391091D01*
X28111428Y15772043D01*
X28063809Y15867281D01*
X28016190Y15914900D01*
X27920952Y15962520D01*
X27730476Y15962520D01*
X27635238Y15914900D01*
X27587619Y15867281D01*
X27540000Y15772043D01*
X27540000Y15533948D01*
X27587619Y15438710D01*
X27635238Y15391091D01*
X27730476Y15343472D01*
X27920952Y15343472D01*
X28016190Y15391091D01*
X28063809Y15438710D01*
X28111428Y15533948D01*
X28492380Y15867281D02*
X28540000Y15914900D01*
X28635238Y15962520D01*
X28873333Y15962520D01*
X28968571Y15914900D01*
X29016190Y15867281D01*
X29063809Y15772043D01*
X29063809Y15676805D01*
X29016190Y15533948D01*
X28444761Y14962520D01*
X29063809Y14962520D01*
X29635238Y15533948D02*
X29540000Y15581567D01*
X29492380Y15629186D01*
X29444761Y15724424D01*
X29444761Y15772043D01*
X29492380Y15867281D01*
X29540000Y15914900D01*
X29635238Y15962520D01*
X29825714Y15962520D01*
X29920952Y15914900D01*
X29968571Y15867281D01*
X30016190Y15772043D01*
X30016190Y15724424D01*
X29968571Y15629186D01*
X29920952Y15581567D01*
X29825714Y15533948D01*
X29635238Y15533948D01*
X29540000Y15486329D01*
X29492380Y15438710D01*
X29444761Y15343472D01*
X29444761Y15152996D01*
X29492380Y15057758D01*
X29540000Y15010139D01*
X29635238Y14962520D01*
X29825714Y14962520D01*
X29920952Y15010139D01*
X29968571Y15057758D01*
X30016190Y15152996D01*
X30016190Y15343472D01*
X29968571Y15438710D01*
X29920952Y15486329D01*
X29825714Y15533948D01*
X30444761Y14962520D02*
X30444761Y15629186D01*
X30444761Y15533948D02*
X30492380Y15581567D01*
X30587619Y15629186D01*
X30730476Y15629186D01*
X30825714Y15581567D01*
X30873333Y15486329D01*
X30873333Y14962520D01*
X30873333Y15486329D02*
X30920952Y15581567D01*
X31016190Y15629186D01*
X31159047Y15629186D01*
X31254285Y15581567D01*
X31301904Y15486329D01*
X31301904Y14962520D01*
X31778095Y14962520D02*
X31778095Y15629186D01*
X31778095Y15533948D02*
X31825714Y15581567D01*
X31920952Y15629186D01*
X32063809Y15629186D01*
X32159047Y15581567D01*
X32206666Y15486329D01*
X32206666Y14962520D01*
X32206666Y15486329D02*
X32254285Y15581567D01*
X32349523Y15629186D01*
X32492380Y15629186D01*
X32587619Y15581567D01*
X32635238Y15486329D01*
X32635238Y14962520D01*
X14123438Y12952620D02*
X14218676Y12952620D01*
X14313914Y12905000D01*
X14361533Y12857381D01*
X14409152Y12762143D01*
X14456771Y12571667D01*
X14456771Y12333572D01*
X14409152Y12143096D01*
X14361533Y12047858D01*
X14313914Y12000239D01*
X14218676Y11952620D01*
X14123438Y11952620D01*
X14028200Y12000239D01*
X13980580Y12047858D01*
X13932961Y12143096D01*
X13885342Y12333572D01*
X13885342Y12571667D01*
X13932961Y12762143D01*
X13980580Y12857381D01*
X14028200Y12905000D01*
X14123438Y12952620D01*
X14885342Y12047858D02*
X14932961Y12000239D01*
X14885342Y11952620D01*
X14837723Y12000239D01*
X14885342Y12047858D01*
X14885342Y11952620D01*
X15552009Y12952620D02*
X15647247Y12952620D01*
X15742485Y12905000D01*
X15790104Y12857381D01*
X15837723Y12762143D01*
X15885342Y12571667D01*
X15885342Y12333572D01*
X15837723Y12143096D01*
X15790104Y12047858D01*
X15742485Y12000239D01*
X15647247Y11952620D01*
X15552009Y11952620D01*
X15456771Y12000239D01*
X15409152Y12047858D01*
X15361533Y12143096D01*
X15313914Y12333572D01*
X15313914Y12571667D01*
X15361533Y12762143D01*
X15409152Y12857381D01*
X15456771Y12905000D01*
X15552009Y12952620D01*
X16266295Y12857381D02*
X16313914Y12905000D01*
X16409152Y12952620D01*
X16647247Y12952620D01*
X16742485Y12905000D01*
X16790104Y12857381D01*
X16837723Y12762143D01*
X16837723Y12666905D01*
X16790104Y12524048D01*
X16218676Y11952620D01*
X16837723Y11952620D01*
X17218676Y12857381D02*
X17266295Y12905000D01*
X17361533Y12952620D01*
X17599628Y12952620D01*
X17694866Y12905000D01*
X17742485Y12857381D01*
X17790104Y12762143D01*
X17790104Y12666905D01*
X17742485Y12524048D01*
X17171057Y11952620D01*
X17790104Y11952620D01*
X18218676Y11952620D02*
X18218676Y12619286D01*
X18218676Y12952620D02*
X18171057Y12905000D01*
X18218676Y12857381D01*
X18266295Y12905000D01*
X18218676Y12952620D01*
X18218676Y12857381D01*
X18694866Y12619286D02*
X18694866Y11952620D01*
X18694866Y12524048D02*
X18742485Y12571667D01*
X18837723Y12619286D01*
X18980580Y12619286D01*
X19075819Y12571667D01*
X19123438Y12476429D01*
X19123438Y11952620D01*
X20313914Y13000239D02*
X19456771Y11714524D01*
X20837723Y12952620D02*
X20932961Y12952620D01*
X21028200Y12905000D01*
X21075819Y12857381D01*
X21123438Y12762143D01*
X21171057Y12571667D01*
X21171057Y12333572D01*
X21123438Y12143096D01*
X21075819Y12047858D01*
X21028200Y12000239D01*
X20932961Y11952620D01*
X20837723Y11952620D01*
X20742485Y12000239D01*
X20694866Y12047858D01*
X20647247Y12143096D01*
X20599628Y12333572D01*
X20599628Y12571667D01*
X20647247Y12762143D01*
X20694866Y12857381D01*
X20742485Y12905000D01*
X20837723Y12952620D01*
X21599628Y12047858D02*
X21647247Y12000239D01*
X21599628Y11952620D01*
X21552009Y12000239D01*
X21599628Y12047858D01*
X21599628Y11952620D01*
X22552009Y12952620D02*
X22075819Y12952620D01*
X22028200Y12476429D01*
X22075819Y12524048D01*
X22171057Y12571667D01*
X22409152Y12571667D01*
X22504390Y12524048D01*
X22552009Y12476429D01*
X22599628Y12381191D01*
X22599628Y12143096D01*
X22552009Y12047858D01*
X22504390Y12000239D01*
X22409152Y11952620D01*
X22171057Y11952620D01*
X22075819Y12000239D01*
X22028200Y12047858D01*
X23504390Y12952620D02*
X23028200Y12952620D01*
X22980580Y12476429D01*
X23028200Y12524048D01*
X23123438Y12571667D01*
X23361533Y12571667D01*
X23456771Y12524048D01*
X23504390Y12476429D01*
X23552009Y12381191D01*
X23552009Y12143096D01*
X23504390Y12047858D01*
X23456771Y12000239D01*
X23361533Y11952620D01*
X23123438Y11952620D01*
X23028200Y12000239D01*
X22980580Y12047858D01*
X24028200Y11952620D02*
X24218676Y11952620D01*
X24313914Y12000239D01*
X24361533Y12047858D01*
X24456771Y12190715D01*
X24504390Y12381191D01*
X24504390Y12762143D01*
X24456771Y12857381D01*
X24409152Y12905000D01*
X24313914Y12952620D01*
X24123438Y12952620D01*
X24028200Y12905000D01*
X23980580Y12857381D01*
X23932961Y12762143D01*
X23932961Y12524048D01*
X23980580Y12428810D01*
X24028200Y12381191D01*
X24123438Y12333572D01*
X24313914Y12333572D01*
X24409152Y12381191D01*
X24456771Y12428810D01*
X24504390Y12524048D01*
X24932961Y11952620D02*
X24932961Y12619286D01*
X24932961Y12524048D02*
X24980580Y12571667D01*
X25075819Y12619286D01*
X25218676Y12619286D01*
X25313914Y12571667D01*
X25361533Y12476429D01*
X25361533Y11952620D01*
X25361533Y12476429D02*
X25409152Y12571667D01*
X25504390Y12619286D01*
X25647247Y12619286D01*
X25742485Y12571667D01*
X25790104Y12476429D01*
X25790104Y11952620D01*
X26266295Y11952620D02*
X26266295Y12619286D01*
X26266295Y12524048D02*
X26313914Y12571667D01*
X26409152Y12619286D01*
X26552009Y12619286D01*
X26647247Y12571667D01*
X26694866Y12476429D01*
X26694866Y11952620D01*
X26694866Y12476429D02*
X26742485Y12571667D01*
X26837723Y12619286D01*
X26980580Y12619286D01*
X27075819Y12571667D01*
X27123438Y12476429D01*
X27123438Y11952620D01*
X26099419Y12317620D02*
X26194657Y12317620D01*
X26289895Y12270000D01*
X26337514Y12222381D01*
X26385133Y12127143D01*
X26432752Y11936667D01*
X26432752Y11698572D01*
X26385133Y11508096D01*
X26337514Y11412858D01*
X26289895Y11365239D01*
X26194657Y11317620D01*
X26099419Y11317620D01*
X26004180Y11365239D01*
X25956561Y11412858D01*
X25908942Y11508096D01*
X25861323Y11698572D01*
X25861323Y11936667D01*
X25908942Y12127143D01*
X25956561Y12222381D01*
X26004180Y12270000D01*
X26099419Y12317620D01*
X26861323Y11412858D02*
X26908942Y11365239D01*
X26861323Y11317620D01*
X26813704Y11365239D01*
X26861323Y11412858D01*
X26861323Y11317620D01*
X27527990Y12317620D02*
X27623228Y12317620D01*
X27718466Y12270000D01*
X27766085Y12222381D01*
X27813704Y12127143D01*
X27861323Y11936667D01*
X27861323Y11698572D01*
X27813704Y11508096D01*
X27766085Y11412858D01*
X27718466Y11365239D01*
X27623228Y11317620D01*
X27527990Y11317620D01*
X27432752Y11365239D01*
X27385133Y11412858D01*
X27337514Y11508096D01*
X27289895Y11698572D01*
X27289895Y11936667D01*
X27337514Y12127143D01*
X27385133Y12222381D01*
X27432752Y12270000D01*
X27527990Y12317620D01*
X28766085Y12317620D02*
X28289895Y12317620D01*
X28242276Y11841429D01*
X28289895Y11889048D01*
X28385133Y11936667D01*
X28623228Y11936667D01*
X28718466Y11889048D01*
X28766085Y11841429D01*
X28813704Y11746191D01*
X28813704Y11508096D01*
X28766085Y11412858D01*
X28718466Y11365239D01*
X28623228Y11317620D01*
X28385133Y11317620D01*
X28289895Y11365239D01*
X28242276Y11412858D01*
X29242276Y11317620D02*
X29242276Y11984286D01*
X29242276Y12317620D02*
X29194657Y12270000D01*
X29242276Y12222381D01*
X29289895Y12270000D01*
X29242276Y12317620D01*
X29242276Y12222381D01*
X29718466Y11984286D02*
X29718466Y11317620D01*
X29718466Y11889048D02*
X29766085Y11936667D01*
X29861323Y11984286D01*
X30004180Y11984286D01*
X30099419Y11936667D01*
X30147038Y11841429D01*
X30147038Y11317620D01*
X31337514Y12365239D02*
X30480371Y11079524D01*
X32194657Y11317620D02*
X31623228Y11317620D01*
X31908942Y11317620D02*
X31908942Y12317620D01*
X31813704Y12174762D01*
X31718466Y12079524D01*
X31623228Y12031905D01*
X32623228Y11412858D02*
X32670847Y11365239D01*
X32623228Y11317620D01*
X32575609Y11365239D01*
X32623228Y11412858D01*
X32623228Y11317620D01*
X33051800Y12222381D02*
X33099419Y12270000D01*
X33194657Y12317620D01*
X33432752Y12317620D01*
X33527990Y12270000D01*
X33575609Y12222381D01*
X33623228Y12127143D01*
X33623228Y12031905D01*
X33575609Y11889048D01*
X33004180Y11317620D01*
X33623228Y11317620D01*
X33956561Y12317620D02*
X34623228Y12317620D01*
X34194657Y11317620D01*
X35004180Y11317620D02*
X35004180Y11984286D01*
X35004180Y11889048D02*
X35051800Y11936667D01*
X35147038Y11984286D01*
X35289895Y11984286D01*
X35385133Y11936667D01*
X35432752Y11841429D01*
X35432752Y11317620D01*
X35432752Y11841429D02*
X35480371Y11936667D01*
X35575609Y11984286D01*
X35718466Y11984286D01*
X35813704Y11936667D01*
X35861323Y11841429D01*
X35861323Y11317620D01*
X36337514Y11317620D02*
X36337514Y11984286D01*
X36337514Y11889048D02*
X36385133Y11936667D01*
X36480371Y11984286D01*
X36623228Y11984286D01*
X36718466Y11936667D01*
X36766085Y11841429D01*
X36766085Y11317620D01*
X36766085Y11841429D02*
X36813704Y11936667D01*
X36908942Y11984286D01*
X37051800Y11984286D01*
X37147038Y11936667D01*
X37194657Y11841429D01*
X37194657Y11317620D01*
X9059038Y6132720D02*
X9154276Y6132720D01*
X9249514Y6085100D01*
X9297133Y6037481D01*
X9344752Y5942243D01*
X9392371Y5751767D01*
X9392371Y5513672D01*
X9344752Y5323196D01*
X9297133Y5227958D01*
X9249514Y5180339D01*
X9154276Y5132720D01*
X9059038Y5132720D01*
X8963800Y5180339D01*
X8916180Y5227958D01*
X8868561Y5323196D01*
X8820942Y5513672D01*
X8820942Y5751767D01*
X8868561Y5942243D01*
X8916180Y6037481D01*
X8963800Y6085100D01*
X9059038Y6132720D01*
X9820942Y5227958D02*
X9868561Y5180339D01*
X9820942Y5132720D01*
X9773323Y5180339D01*
X9820942Y5227958D01*
X9820942Y5132720D01*
X10487609Y6132720D02*
X10582847Y6132720D01*
X10678085Y6085100D01*
X10725704Y6037481D01*
X10773323Y5942243D01*
X10820942Y5751767D01*
X10820942Y5513672D01*
X10773323Y5323196D01*
X10725704Y5227958D01*
X10678085Y5180339D01*
X10582847Y5132720D01*
X10487609Y5132720D01*
X10392371Y5180339D01*
X10344752Y5227958D01*
X10297133Y5323196D01*
X10249514Y5513672D01*
X10249514Y5751767D01*
X10297133Y5942243D01*
X10344752Y6037481D01*
X10392371Y6085100D01*
X10487609Y6132720D01*
X11154276Y6132720D02*
X11820942Y6132720D01*
X11392371Y5132720D01*
X12344752Y5704148D02*
X12249514Y5751767D01*
X12201895Y5799386D01*
X12154276Y5894624D01*
X12154276Y5942243D01*
X12201895Y6037481D01*
X12249514Y6085100D01*
X12344752Y6132720D01*
X12535228Y6132720D01*
X12630466Y6085100D01*
X12678085Y6037481D01*
X12725704Y5942243D01*
X12725704Y5894624D01*
X12678085Y5799386D01*
X12630466Y5751767D01*
X12535228Y5704148D01*
X12344752Y5704148D01*
X12249514Y5656529D01*
X12201895Y5608910D01*
X12154276Y5513672D01*
X12154276Y5323196D01*
X12201895Y5227958D01*
X12249514Y5180339D01*
X12344752Y5132720D01*
X12535228Y5132720D01*
X12630466Y5180339D01*
X12678085Y5227958D01*
X12725704Y5323196D01*
X12725704Y5513672D01*
X12678085Y5608910D01*
X12630466Y5656529D01*
X12535228Y5704148D01*
X13154276Y5132720D02*
X13154276Y5799386D01*
X13154276Y6132720D02*
X13106657Y6085100D01*
X13154276Y6037481D01*
X13201895Y6085100D01*
X13154276Y6132720D01*
X13154276Y6037481D01*
X13630466Y5799386D02*
X13630466Y5132720D01*
X13630466Y5704148D02*
X13678085Y5751767D01*
X13773323Y5799386D01*
X13916180Y5799386D01*
X14011419Y5751767D01*
X14059038Y5656529D01*
X14059038Y5132720D01*
X15249514Y6180339D02*
X14392371Y4894624D01*
X16106657Y5132720D02*
X15535228Y5132720D01*
X15820942Y5132720D02*
X15820942Y6132720D01*
X15725704Y5989862D01*
X15630466Y5894624D01*
X15535228Y5847005D01*
X16535228Y5227958D02*
X16582847Y5180339D01*
X16535228Y5132720D01*
X16487609Y5180339D01*
X16535228Y5227958D01*
X16535228Y5132720D01*
X17059038Y5132720D02*
X17249514Y5132720D01*
X17344752Y5180339D01*
X17392371Y5227958D01*
X17487609Y5370815D01*
X17535228Y5561291D01*
X17535228Y5942243D01*
X17487609Y6037481D01*
X17439990Y6085100D01*
X17344752Y6132720D01*
X17154276Y6132720D01*
X17059038Y6085100D01*
X17011419Y6037481D01*
X16963800Y5942243D01*
X16963800Y5704148D01*
X17011419Y5608910D01*
X17059038Y5561291D01*
X17154276Y5513672D01*
X17344752Y5513672D01*
X17439990Y5561291D01*
X17487609Y5608910D01*
X17535228Y5704148D01*
X18106657Y5704148D02*
X18011419Y5751767D01*
X17963800Y5799386D01*
X17916180Y5894624D01*
X17916180Y5942243D01*
X17963800Y6037481D01*
X18011419Y6085100D01*
X18106657Y6132720D01*
X18297133Y6132720D01*
X18392371Y6085100D01*
X18439990Y6037481D01*
X18487609Y5942243D01*
X18487609Y5894624D01*
X18439990Y5799386D01*
X18392371Y5751767D01*
X18297133Y5704148D01*
X18106657Y5704148D01*
X18011419Y5656529D01*
X17963800Y5608910D01*
X17916180Y5513672D01*
X17916180Y5323196D01*
X17963800Y5227958D01*
X18011419Y5180339D01*
X18106657Y5132720D01*
X18297133Y5132720D01*
X18392371Y5180339D01*
X18439990Y5227958D01*
X18487609Y5323196D01*
X18487609Y5513672D01*
X18439990Y5608910D01*
X18392371Y5656529D01*
X18297133Y5704148D01*
X19439990Y5132720D02*
X18868561Y5132720D01*
X19154276Y5132720D02*
X19154276Y6132720D01*
X19059038Y5989862D01*
X18963800Y5894624D01*
X18868561Y5847005D01*
X19868561Y5132720D02*
X19868561Y5799386D01*
X19868561Y5704148D02*
X19916180Y5751767D01*
X20011419Y5799386D01*
X20154276Y5799386D01*
X20249514Y5751767D01*
X20297133Y5656529D01*
X20297133Y5132720D01*
X20297133Y5656529D02*
X20344752Y5751767D01*
X20439990Y5799386D01*
X20582847Y5799386D01*
X20678085Y5751767D01*
X20725704Y5656529D01*
X20725704Y5132720D01*
X21201895Y5132720D02*
X21201895Y5799386D01*
X21201895Y5704148D02*
X21249514Y5751767D01*
X21344752Y5799386D01*
X21487609Y5799386D01*
X21582847Y5751767D01*
X21630466Y5656529D01*
X21630466Y5132720D01*
X21630466Y5656529D02*
X21678085Y5751767D01*
X21773323Y5799386D01*
X21916180Y5799386D01*
X22011419Y5751767D01*
X22059038Y5656529D01*
X22059038Y5132720D01*
X6595238Y15962520D02*
X6690476Y15962520D01*
X6785714Y15914900D01*
X6833333Y15867281D01*
X6880952Y15772043D01*
X6928571Y15581567D01*
X6928571Y15343472D01*
X6880952Y15152996D01*
X6833333Y15057758D01*
X6785714Y15010139D01*
X6690476Y14962520D01*
X6595238Y14962520D01*
X6500000Y15010139D01*
X6452380Y15057758D01*
X6404761Y15152996D01*
X6357142Y15343472D01*
X6357142Y15581567D01*
X6404761Y15772043D01*
X6452380Y15867281D01*
X6500000Y15914900D01*
X6595238Y15962520D01*
X7357142Y15057758D02*
X7404761Y15010139D01*
X7357142Y14962520D01*
X7309523Y15010139D01*
X7357142Y15057758D01*
X7357142Y14962520D01*
X8357142Y14962520D02*
X7785714Y14962520D01*
X8071428Y14962520D02*
X8071428Y15962520D01*
X7976190Y15819662D01*
X7880952Y15724424D01*
X7785714Y15676805D01*
X8833333Y14962520D02*
X9023809Y14962520D01*
X9119047Y15010139D01*
X9166666Y15057758D01*
X9261904Y15200615D01*
X9309523Y15391091D01*
X9309523Y15772043D01*
X9261904Y15867281D01*
X9214285Y15914900D01*
X9119047Y15962520D01*
X8928571Y15962520D01*
X8833333Y15914900D01*
X8785714Y15867281D01*
X8738095Y15772043D01*
X8738095Y15533948D01*
X8785714Y15438710D01*
X8833333Y15391091D01*
X8928571Y15343472D01*
X9119047Y15343472D01*
X9214285Y15391091D01*
X9261904Y15438710D01*
X9309523Y15533948D01*
X10166666Y15629186D02*
X10166666Y14962520D01*
X9928571Y16010139D02*
X9690476Y15295853D01*
X10309523Y15295853D01*
X10690476Y14962520D02*
X10690476Y15629186D01*
X10690476Y15962520D02*
X10642857Y15914900D01*
X10690476Y15867281D01*
X10738095Y15914900D01*
X10690476Y15962520D01*
X10690476Y15867281D01*
X11166666Y15629186D02*
X11166666Y14962520D01*
X11166666Y15533948D02*
X11214285Y15581567D01*
X11309523Y15629186D01*
X11452380Y15629186D01*
X11547619Y15581567D01*
X11595238Y15486329D01*
X11595238Y14962520D01*
X12785714Y16010139D02*
X11928571Y14724424D01*
X13547619Y15629186D02*
X13547619Y14962520D01*
X13309523Y16010139D02*
X13071428Y15295853D01*
X13690476Y15295853D01*
X14071428Y15057758D02*
X14119047Y15010139D01*
X14071428Y14962520D01*
X14023809Y15010139D01*
X14071428Y15057758D01*
X14071428Y14962520D01*
X14595238Y14962520D02*
X14785714Y14962520D01*
X14880952Y15010139D01*
X14928571Y15057758D01*
X15023809Y15200615D01*
X15071428Y15391091D01*
X15071428Y15772043D01*
X15023809Y15867281D01*
X14976190Y15914900D01*
X14880952Y15962520D01*
X14690476Y15962520D01*
X14595238Y15914900D01*
X14547619Y15867281D01*
X14500000Y15772043D01*
X14500000Y15533948D01*
X14547619Y15438710D01*
X14595238Y15391091D01*
X14690476Y15343472D01*
X14880952Y15343472D01*
X14976190Y15391091D01*
X15023809Y15438710D01*
X15071428Y15533948D01*
X15452380Y15867281D02*
X15500000Y15914900D01*
X15595238Y15962520D01*
X15833333Y15962520D01*
X15928571Y15914900D01*
X15976190Y15867281D01*
X16023809Y15772043D01*
X16023809Y15676805D01*
X15976190Y15533948D01*
X15404761Y14962520D01*
X16023809Y14962520D01*
X16595238Y15533948D02*
X16500000Y15581567D01*
X16452380Y15629186D01*
X16404761Y15724424D01*
X16404761Y15772043D01*
X16452380Y15867281D01*
X16500000Y15914900D01*
X16595238Y15962520D01*
X16785714Y15962520D01*
X16880952Y15914900D01*
X16928571Y15867281D01*
X16976190Y15772043D01*
X16976190Y15724424D01*
X16928571Y15629186D01*
X16880952Y15581567D01*
X16785714Y15533948D01*
X16595238Y15533948D01*
X16500000Y15486329D01*
X16452380Y15438710D01*
X16404761Y15343472D01*
X16404761Y15152996D01*
X16452380Y15057758D01*
X16500000Y15010139D01*
X16595238Y14962520D01*
X16785714Y14962520D01*
X16880952Y15010139D01*
X16928571Y15057758D01*
X16976190Y15152996D01*
X16976190Y15343472D01*
X16928571Y15438710D01*
X16880952Y15486329D01*
X16785714Y15533948D01*
X17404761Y14962520D02*
X17404761Y15629186D01*
X17404761Y15533948D02*
X17452380Y15581567D01*
X17547619Y15629186D01*
X17690476Y15629186D01*
X17785714Y15581567D01*
X17833333Y15486329D01*
X17833333Y14962520D01*
X17833333Y15486329D02*
X17880952Y15581567D01*
X17976190Y15629186D01*
X18119047Y15629186D01*
X18214285Y15581567D01*
X18261904Y15486329D01*
X18261904Y14962520D01*
X18738095Y14962520D02*
X18738095Y15629186D01*
X18738095Y15533948D02*
X18785714Y15581567D01*
X18880952Y15629186D01*
X19023809Y15629186D01*
X19119047Y15581567D01*
X19166666Y15486329D01*
X19166666Y14962520D01*
X19166666Y15486329D02*
X19214285Y15581567D01*
X19309523Y15629186D01*
X19452380Y15629186D01*
X19547619Y15581567D01*
X19595238Y15486329D01*
X19595238Y14962520D01*
X1083438Y12952620D02*
X1178676Y12952620D01*
X1273914Y12905000D01*
X1321533Y12857381D01*
X1369152Y12762143D01*
X1416771Y12571667D01*
X1416771Y12333572D01*
X1369152Y12143096D01*
X1321533Y12047858D01*
X1273914Y12000239D01*
X1178676Y11952620D01*
X1083438Y11952620D01*
X988200Y12000239D01*
X940580Y12047858D01*
X892961Y12143096D01*
X845342Y12333572D01*
X845342Y12571667D01*
X892961Y12762143D01*
X940580Y12857381D01*
X988200Y12905000D01*
X1083438Y12952620D01*
X1845342Y12047858D02*
X1892961Y12000239D01*
X1845342Y11952620D01*
X1797723Y12000239D01*
X1845342Y12047858D01*
X1845342Y11952620D01*
X2512009Y12952620D02*
X2607247Y12952620D01*
X2702485Y12905000D01*
X2750104Y12857381D01*
X2797723Y12762143D01*
X2845342Y12571667D01*
X2845342Y12333572D01*
X2797723Y12143096D01*
X2750104Y12047858D01*
X2702485Y12000239D01*
X2607247Y11952620D01*
X2512009Y11952620D01*
X2416771Y12000239D01*
X2369152Y12047858D01*
X2321533Y12143096D01*
X2273914Y12333572D01*
X2273914Y12571667D01*
X2321533Y12762143D01*
X2369152Y12857381D01*
X2416771Y12905000D01*
X2512009Y12952620D01*
X3226295Y12857381D02*
X3273914Y12905000D01*
X3369152Y12952620D01*
X3607247Y12952620D01*
X3702485Y12905000D01*
X3750104Y12857381D01*
X3797723Y12762143D01*
X3797723Y12666905D01*
X3750104Y12524048D01*
X3178676Y11952620D01*
X3797723Y11952620D01*
X4178676Y12857381D02*
X4226295Y12905000D01*
X4321533Y12952620D01*
X4559628Y12952620D01*
X4654866Y12905000D01*
X4702485Y12857381D01*
X4750104Y12762143D01*
X4750104Y12666905D01*
X4702485Y12524048D01*
X4131057Y11952620D01*
X4750104Y11952620D01*
X5178676Y11952620D02*
X5178676Y12619286D01*
X5178676Y12952620D02*
X5131057Y12905000D01*
X5178676Y12857381D01*
X5226295Y12905000D01*
X5178676Y12952620D01*
X5178676Y12857381D01*
X5654866Y12619286D02*
X5654866Y11952620D01*
X5654866Y12524048D02*
X5702485Y12571667D01*
X5797723Y12619286D01*
X5940580Y12619286D01*
X6035819Y12571667D01*
X6083438Y12476429D01*
X6083438Y11952620D01*
X7273914Y13000239D02*
X6416771Y11714524D01*
X7797723Y12952620D02*
X7892961Y12952620D01*
X7988200Y12905000D01*
X8035819Y12857381D01*
X8083438Y12762143D01*
X8131057Y12571667D01*
X8131057Y12333572D01*
X8083438Y12143096D01*
X8035819Y12047858D01*
X7988200Y12000239D01*
X7892961Y11952620D01*
X7797723Y11952620D01*
X7702485Y12000239D01*
X7654866Y12047858D01*
X7607247Y12143096D01*
X7559628Y12333572D01*
X7559628Y12571667D01*
X7607247Y12762143D01*
X7654866Y12857381D01*
X7702485Y12905000D01*
X7797723Y12952620D01*
X8559628Y12047858D02*
X8607247Y12000239D01*
X8559628Y11952620D01*
X8512009Y12000239D01*
X8559628Y12047858D01*
X8559628Y11952620D01*
X9512009Y12952620D02*
X9035819Y12952620D01*
X8988200Y12476429D01*
X9035819Y12524048D01*
X9131057Y12571667D01*
X9369152Y12571667D01*
X9464390Y12524048D01*
X9512009Y12476429D01*
X9559628Y12381191D01*
X9559628Y12143096D01*
X9512009Y12047858D01*
X9464390Y12000239D01*
X9369152Y11952620D01*
X9131057Y11952620D01*
X9035819Y12000239D01*
X8988200Y12047858D01*
X10464390Y12952620D02*
X9988200Y12952620D01*
X9940580Y12476429D01*
X9988200Y12524048D01*
X10083438Y12571667D01*
X10321533Y12571667D01*
X10416771Y12524048D01*
X10464390Y12476429D01*
X10512009Y12381191D01*
X10512009Y12143096D01*
X10464390Y12047858D01*
X10416771Y12000239D01*
X10321533Y11952620D01*
X10083438Y11952620D01*
X9988200Y12000239D01*
X9940580Y12047858D01*
X10988200Y11952620D02*
X11178676Y11952620D01*
X11273914Y12000239D01*
X11321533Y12047858D01*
X11416771Y12190715D01*
X11464390Y12381191D01*
X11464390Y12762143D01*
X11416771Y12857381D01*
X11369152Y12905000D01*
X11273914Y12952620D01*
X11083438Y12952620D01*
X10988200Y12905000D01*
X10940580Y12857381D01*
X10892961Y12762143D01*
X10892961Y12524048D01*
X10940580Y12428810D01*
X10988200Y12381191D01*
X11083438Y12333572D01*
X11273914Y12333572D01*
X11369152Y12381191D01*
X11416771Y12428810D01*
X11464390Y12524048D01*
X11892961Y11952620D02*
X11892961Y12619286D01*
X11892961Y12524048D02*
X11940580Y12571667D01*
X12035819Y12619286D01*
X12178676Y12619286D01*
X12273914Y12571667D01*
X12321533Y12476429D01*
X12321533Y11952620D01*
X12321533Y12476429D02*
X12369152Y12571667D01*
X12464390Y12619286D01*
X12607247Y12619286D01*
X12702485Y12571667D01*
X12750104Y12476429D01*
X12750104Y11952620D01*
X13226295Y11952620D02*
X13226295Y12619286D01*
X13226295Y12524048D02*
X13273914Y12571667D01*
X13369152Y12619286D01*
X13512009Y12619286D01*
X13607247Y12571667D01*
X13654866Y12476429D01*
X13654866Y11952620D01*
X13654866Y12476429D02*
X13702485Y12571667D01*
X13797723Y12619286D01*
X13940580Y12619286D01*
X14035819Y12571667D01*
X14083438Y12476429D01*
X14083438Y11952620D01*
X13059419Y12317620D02*
X13154657Y12317620D01*
X13249895Y12270000D01*
X13297514Y12222381D01*
X13345133Y12127143D01*
X13392752Y11936667D01*
X13392752Y11698572D01*
X13345133Y11508096D01*
X13297514Y11412858D01*
X13249895Y11365239D01*
X13154657Y11317620D01*
X13059419Y11317620D01*
X12964180Y11365239D01*
X12916561Y11412858D01*
X12868942Y11508096D01*
X12821323Y11698572D01*
X12821323Y11936667D01*
X12868942Y12127143D01*
X12916561Y12222381D01*
X12964180Y12270000D01*
X13059419Y12317620D01*
X13821323Y11412858D02*
X13868942Y11365239D01*
X13821323Y11317620D01*
X13773704Y11365239D01*
X13821323Y11412858D01*
X13821323Y11317620D01*
X14487990Y12317620D02*
X14583228Y12317620D01*
X14678466Y12270000D01*
X14726085Y12222381D01*
X14773704Y12127143D01*
X14821323Y11936667D01*
X14821323Y11698572D01*
X14773704Y11508096D01*
X14726085Y11412858D01*
X14678466Y11365239D01*
X14583228Y11317620D01*
X14487990Y11317620D01*
X14392752Y11365239D01*
X14345133Y11412858D01*
X14297514Y11508096D01*
X14249895Y11698572D01*
X14249895Y11936667D01*
X14297514Y12127143D01*
X14345133Y12222381D01*
X14392752Y12270000D01*
X14487990Y12317620D01*
X15726085Y12317620D02*
X15249895Y12317620D01*
X15202276Y11841429D01*
X15249895Y11889048D01*
X15345133Y11936667D01*
X15583228Y11936667D01*
X15678466Y11889048D01*
X15726085Y11841429D01*
X15773704Y11746191D01*
X15773704Y11508096D01*
X15726085Y11412858D01*
X15678466Y11365239D01*
X15583228Y11317620D01*
X15345133Y11317620D01*
X15249895Y11365239D01*
X15202276Y11412858D01*
X16202276Y11317620D02*
X16202276Y11984286D01*
X16202276Y12317620D02*
X16154657Y12270000D01*
X16202276Y12222381D01*
X16249895Y12270000D01*
X16202276Y12317620D01*
X16202276Y12222381D01*
X16678466Y11984286D02*
X16678466Y11317620D01*
X16678466Y11889048D02*
X16726085Y11936667D01*
X16821323Y11984286D01*
X16964180Y11984286D01*
X17059419Y11936667D01*
X17107038Y11841429D01*
X17107038Y11317620D01*
X18297514Y12365239D02*
X17440371Y11079524D01*
X19154657Y11317620D02*
X18583228Y11317620D01*
X18868942Y11317620D02*
X18868942Y12317620D01*
X18773704Y12174762D01*
X18678466Y12079524D01*
X18583228Y12031905D01*
X19583228Y11412858D02*
X19630847Y11365239D01*
X19583228Y11317620D01*
X19535609Y11365239D01*
X19583228Y11412858D01*
X19583228Y11317620D01*
X20011800Y12222381D02*
X20059419Y12270000D01*
X20154657Y12317620D01*
X20392752Y12317620D01*
X20487990Y12270000D01*
X20535609Y12222381D01*
X20583228Y12127143D01*
X20583228Y12031905D01*
X20535609Y11889048D01*
X19964180Y11317620D01*
X20583228Y11317620D01*
X20916561Y12317620D02*
X21583228Y12317620D01*
X21154657Y11317620D01*
X21964180Y11317620D02*
X21964180Y11984286D01*
X21964180Y11889048D02*
X22011800Y11936667D01*
X22107038Y11984286D01*
X22249895Y11984286D01*
X22345133Y11936667D01*
X22392752Y11841429D01*
X22392752Y11317620D01*
X22392752Y11841429D02*
X22440371Y11936667D01*
X22535609Y11984286D01*
X22678466Y11984286D01*
X22773704Y11936667D01*
X22821323Y11841429D01*
X22821323Y11317620D01*
X23297514Y11317620D02*
X23297514Y11984286D01*
X23297514Y11889048D02*
X23345133Y11936667D01*
X23440371Y11984286D01*
X23583228Y11984286D01*
X23678466Y11936667D01*
X23726085Y11841429D01*
X23726085Y11317620D01*
X23726085Y11841429D02*
X23773704Y11936667D01*
X23868942Y11984286D01*
X24011800Y11984286D01*
X24107038Y11936667D01*
X24154657Y11841429D01*
X24154657Y11317620D01*
M02*
