G04 #@! TF.GenerationSoftware,KiCad,Pcbnew,(5.1.2)-1*
G04 #@! TF.CreationDate,2020-06-05T15:14:38-04:00*
G04 #@! TF.ProjectId,Step_Direction_Board,53746570-5f44-4697-9265-6374696f6e5f,rev?*
G04 #@! TF.SameCoordinates,Original*
G04 #@! TF.FileFunction,Copper,L2,Bot*
G04 #@! TF.FilePolarity,Positive*
%FSLAX46Y46*%
G04 Gerber Fmt 4.6, Leading zero omitted, Abs format (unit mm)*
G04 Created by KiCad (PCBNEW (5.1.2)-1) date 2020-06-05 15:14:38*
%MOMM*%
%LPD*%
G04 APERTURE LIST*
%ADD10O,1.700000X1.700000*%
%ADD11R,1.700000X1.700000*%
%ADD12C,0.100000*%
%ADD13C,1.150000*%
%ADD14R,1.981200X0.558800*%
%ADD15O,1.800000X3.600000*%
%ADD16C,1.800000*%
%ADD17C,5.700000*%
%ADD18C,1.000000*%
%ADD19C,0.700000*%
%ADD20C,0.600000*%
%ADD21C,0.500000*%
G04 APERTURE END LIST*
D10*
X145200000Y-109250000D03*
X142660000Y-109250000D03*
X140120000Y-109250000D03*
X137580000Y-109250000D03*
X135040000Y-109250000D03*
D11*
X132500000Y-109250000D03*
D10*
X173450000Y-109250000D03*
X170910000Y-109250000D03*
X168370000Y-109250000D03*
X165830000Y-109250000D03*
X163290000Y-109250000D03*
D11*
X160750000Y-109250000D03*
D12*
G36*
X154374505Y-113401204D02*
G01*
X154398773Y-113404804D01*
X154422572Y-113410765D01*
X154445671Y-113419030D01*
X154467850Y-113429520D01*
X154488893Y-113442132D01*
X154508599Y-113456747D01*
X154526777Y-113473223D01*
X154543253Y-113491401D01*
X154557868Y-113511107D01*
X154570480Y-113532150D01*
X154580970Y-113554329D01*
X154589235Y-113577428D01*
X154595196Y-113601227D01*
X154598796Y-113625495D01*
X154600000Y-113649999D01*
X154600000Y-114550001D01*
X154598796Y-114574505D01*
X154595196Y-114598773D01*
X154589235Y-114622572D01*
X154580970Y-114645671D01*
X154570480Y-114667850D01*
X154557868Y-114688893D01*
X154543253Y-114708599D01*
X154526777Y-114726777D01*
X154508599Y-114743253D01*
X154488893Y-114757868D01*
X154467850Y-114770480D01*
X154445671Y-114780970D01*
X154422572Y-114789235D01*
X154398773Y-114795196D01*
X154374505Y-114798796D01*
X154350001Y-114800000D01*
X153699999Y-114800000D01*
X153675495Y-114798796D01*
X153651227Y-114795196D01*
X153627428Y-114789235D01*
X153604329Y-114780970D01*
X153582150Y-114770480D01*
X153561107Y-114757868D01*
X153541401Y-114743253D01*
X153523223Y-114726777D01*
X153506747Y-114708599D01*
X153492132Y-114688893D01*
X153479520Y-114667850D01*
X153469030Y-114645671D01*
X153460765Y-114622572D01*
X153454804Y-114598773D01*
X153451204Y-114574505D01*
X153450000Y-114550001D01*
X153450000Y-113649999D01*
X153451204Y-113625495D01*
X153454804Y-113601227D01*
X153460765Y-113577428D01*
X153469030Y-113554329D01*
X153479520Y-113532150D01*
X153492132Y-113511107D01*
X153506747Y-113491401D01*
X153523223Y-113473223D01*
X153541401Y-113456747D01*
X153561107Y-113442132D01*
X153582150Y-113429520D01*
X153604329Y-113419030D01*
X153627428Y-113410765D01*
X153651227Y-113404804D01*
X153675495Y-113401204D01*
X153699999Y-113400000D01*
X154350001Y-113400000D01*
X154374505Y-113401204D01*
X154374505Y-113401204D01*
G37*
D13*
X154025000Y-114100000D03*
D12*
G36*
X152324505Y-113401204D02*
G01*
X152348773Y-113404804D01*
X152372572Y-113410765D01*
X152395671Y-113419030D01*
X152417850Y-113429520D01*
X152438893Y-113442132D01*
X152458599Y-113456747D01*
X152476777Y-113473223D01*
X152493253Y-113491401D01*
X152507868Y-113511107D01*
X152520480Y-113532150D01*
X152530970Y-113554329D01*
X152539235Y-113577428D01*
X152545196Y-113601227D01*
X152548796Y-113625495D01*
X152550000Y-113649999D01*
X152550000Y-114550001D01*
X152548796Y-114574505D01*
X152545196Y-114598773D01*
X152539235Y-114622572D01*
X152530970Y-114645671D01*
X152520480Y-114667850D01*
X152507868Y-114688893D01*
X152493253Y-114708599D01*
X152476777Y-114726777D01*
X152458599Y-114743253D01*
X152438893Y-114757868D01*
X152417850Y-114770480D01*
X152395671Y-114780970D01*
X152372572Y-114789235D01*
X152348773Y-114795196D01*
X152324505Y-114798796D01*
X152300001Y-114800000D01*
X151649999Y-114800000D01*
X151625495Y-114798796D01*
X151601227Y-114795196D01*
X151577428Y-114789235D01*
X151554329Y-114780970D01*
X151532150Y-114770480D01*
X151511107Y-114757868D01*
X151491401Y-114743253D01*
X151473223Y-114726777D01*
X151456747Y-114708599D01*
X151442132Y-114688893D01*
X151429520Y-114667850D01*
X151419030Y-114645671D01*
X151410765Y-114622572D01*
X151404804Y-114598773D01*
X151401204Y-114574505D01*
X151400000Y-114550001D01*
X151400000Y-113649999D01*
X151401204Y-113625495D01*
X151404804Y-113601227D01*
X151410765Y-113577428D01*
X151419030Y-113554329D01*
X151429520Y-113532150D01*
X151442132Y-113511107D01*
X151456747Y-113491401D01*
X151473223Y-113473223D01*
X151491401Y-113456747D01*
X151511107Y-113442132D01*
X151532150Y-113429520D01*
X151554329Y-113419030D01*
X151577428Y-113410765D01*
X151601227Y-113404804D01*
X151625495Y-113401204D01*
X151649999Y-113400000D01*
X152300001Y-113400000D01*
X152324505Y-113401204D01*
X152324505Y-113401204D01*
G37*
D13*
X151975000Y-114100000D03*
D14*
X156616200Y-114095000D03*
X156616200Y-115365000D03*
X156616200Y-116635000D03*
X156616200Y-117905000D03*
X161543800Y-117905000D03*
X161543800Y-116635000D03*
X161543800Y-115365000D03*
X161543800Y-114095000D03*
D12*
G36*
X167424505Y-113401204D02*
G01*
X167448773Y-113404804D01*
X167472572Y-113410765D01*
X167495671Y-113419030D01*
X167517850Y-113429520D01*
X167538893Y-113442132D01*
X167558599Y-113456747D01*
X167576777Y-113473223D01*
X167593253Y-113491401D01*
X167607868Y-113511107D01*
X167620480Y-113532150D01*
X167630970Y-113554329D01*
X167639235Y-113577428D01*
X167645196Y-113601227D01*
X167648796Y-113625495D01*
X167650000Y-113649999D01*
X167650000Y-114550001D01*
X167648796Y-114574505D01*
X167645196Y-114598773D01*
X167639235Y-114622572D01*
X167630970Y-114645671D01*
X167620480Y-114667850D01*
X167607868Y-114688893D01*
X167593253Y-114708599D01*
X167576777Y-114726777D01*
X167558599Y-114743253D01*
X167538893Y-114757868D01*
X167517850Y-114770480D01*
X167495671Y-114780970D01*
X167472572Y-114789235D01*
X167448773Y-114795196D01*
X167424505Y-114798796D01*
X167400001Y-114800000D01*
X166749999Y-114800000D01*
X166725495Y-114798796D01*
X166701227Y-114795196D01*
X166677428Y-114789235D01*
X166654329Y-114780970D01*
X166632150Y-114770480D01*
X166611107Y-114757868D01*
X166591401Y-114743253D01*
X166573223Y-114726777D01*
X166556747Y-114708599D01*
X166542132Y-114688893D01*
X166529520Y-114667850D01*
X166519030Y-114645671D01*
X166510765Y-114622572D01*
X166504804Y-114598773D01*
X166501204Y-114574505D01*
X166500000Y-114550001D01*
X166500000Y-113649999D01*
X166501204Y-113625495D01*
X166504804Y-113601227D01*
X166510765Y-113577428D01*
X166519030Y-113554329D01*
X166529520Y-113532150D01*
X166542132Y-113511107D01*
X166556747Y-113491401D01*
X166573223Y-113473223D01*
X166591401Y-113456747D01*
X166611107Y-113442132D01*
X166632150Y-113429520D01*
X166654329Y-113419030D01*
X166677428Y-113410765D01*
X166701227Y-113404804D01*
X166725495Y-113401204D01*
X166749999Y-113400000D01*
X167400001Y-113400000D01*
X167424505Y-113401204D01*
X167424505Y-113401204D01*
G37*
D13*
X167075000Y-114100000D03*
D12*
G36*
X165374505Y-113401204D02*
G01*
X165398773Y-113404804D01*
X165422572Y-113410765D01*
X165445671Y-113419030D01*
X165467850Y-113429520D01*
X165488893Y-113442132D01*
X165508599Y-113456747D01*
X165526777Y-113473223D01*
X165543253Y-113491401D01*
X165557868Y-113511107D01*
X165570480Y-113532150D01*
X165580970Y-113554329D01*
X165589235Y-113577428D01*
X165595196Y-113601227D01*
X165598796Y-113625495D01*
X165600000Y-113649999D01*
X165600000Y-114550001D01*
X165598796Y-114574505D01*
X165595196Y-114598773D01*
X165589235Y-114622572D01*
X165580970Y-114645671D01*
X165570480Y-114667850D01*
X165557868Y-114688893D01*
X165543253Y-114708599D01*
X165526777Y-114726777D01*
X165508599Y-114743253D01*
X165488893Y-114757868D01*
X165467850Y-114770480D01*
X165445671Y-114780970D01*
X165422572Y-114789235D01*
X165398773Y-114795196D01*
X165374505Y-114798796D01*
X165350001Y-114800000D01*
X164699999Y-114800000D01*
X164675495Y-114798796D01*
X164651227Y-114795196D01*
X164627428Y-114789235D01*
X164604329Y-114780970D01*
X164582150Y-114770480D01*
X164561107Y-114757868D01*
X164541401Y-114743253D01*
X164523223Y-114726777D01*
X164506747Y-114708599D01*
X164492132Y-114688893D01*
X164479520Y-114667850D01*
X164469030Y-114645671D01*
X164460765Y-114622572D01*
X164454804Y-114598773D01*
X164451204Y-114574505D01*
X164450000Y-114550001D01*
X164450000Y-113649999D01*
X164451204Y-113625495D01*
X164454804Y-113601227D01*
X164460765Y-113577428D01*
X164469030Y-113554329D01*
X164479520Y-113532150D01*
X164492132Y-113511107D01*
X164506747Y-113491401D01*
X164523223Y-113473223D01*
X164541401Y-113456747D01*
X164561107Y-113442132D01*
X164582150Y-113429520D01*
X164604329Y-113419030D01*
X164627428Y-113410765D01*
X164651227Y-113404804D01*
X164675495Y-113401204D01*
X164699999Y-113400000D01*
X165350001Y-113400000D01*
X165374505Y-113401204D01*
X165374505Y-113401204D01*
G37*
D13*
X165025000Y-114100000D03*
D12*
G36*
X141349505Y-113401204D02*
G01*
X141373773Y-113404804D01*
X141397572Y-113410765D01*
X141420671Y-113419030D01*
X141442850Y-113429520D01*
X141463893Y-113442132D01*
X141483599Y-113456747D01*
X141501777Y-113473223D01*
X141518253Y-113491401D01*
X141532868Y-113511107D01*
X141545480Y-113532150D01*
X141555970Y-113554329D01*
X141564235Y-113577428D01*
X141570196Y-113601227D01*
X141573796Y-113625495D01*
X141575000Y-113649999D01*
X141575000Y-114550001D01*
X141573796Y-114574505D01*
X141570196Y-114598773D01*
X141564235Y-114622572D01*
X141555970Y-114645671D01*
X141545480Y-114667850D01*
X141532868Y-114688893D01*
X141518253Y-114708599D01*
X141501777Y-114726777D01*
X141483599Y-114743253D01*
X141463893Y-114757868D01*
X141442850Y-114770480D01*
X141420671Y-114780970D01*
X141397572Y-114789235D01*
X141373773Y-114795196D01*
X141349505Y-114798796D01*
X141325001Y-114800000D01*
X140674999Y-114800000D01*
X140650495Y-114798796D01*
X140626227Y-114795196D01*
X140602428Y-114789235D01*
X140579329Y-114780970D01*
X140557150Y-114770480D01*
X140536107Y-114757868D01*
X140516401Y-114743253D01*
X140498223Y-114726777D01*
X140481747Y-114708599D01*
X140467132Y-114688893D01*
X140454520Y-114667850D01*
X140444030Y-114645671D01*
X140435765Y-114622572D01*
X140429804Y-114598773D01*
X140426204Y-114574505D01*
X140425000Y-114550001D01*
X140425000Y-113649999D01*
X140426204Y-113625495D01*
X140429804Y-113601227D01*
X140435765Y-113577428D01*
X140444030Y-113554329D01*
X140454520Y-113532150D01*
X140467132Y-113511107D01*
X140481747Y-113491401D01*
X140498223Y-113473223D01*
X140516401Y-113456747D01*
X140536107Y-113442132D01*
X140557150Y-113429520D01*
X140579329Y-113419030D01*
X140602428Y-113410765D01*
X140626227Y-113404804D01*
X140650495Y-113401204D01*
X140674999Y-113400000D01*
X141325001Y-113400000D01*
X141349505Y-113401204D01*
X141349505Y-113401204D01*
G37*
D13*
X141000000Y-114100000D03*
D12*
G36*
X139299505Y-113401204D02*
G01*
X139323773Y-113404804D01*
X139347572Y-113410765D01*
X139370671Y-113419030D01*
X139392850Y-113429520D01*
X139413893Y-113442132D01*
X139433599Y-113456747D01*
X139451777Y-113473223D01*
X139468253Y-113491401D01*
X139482868Y-113511107D01*
X139495480Y-113532150D01*
X139505970Y-113554329D01*
X139514235Y-113577428D01*
X139520196Y-113601227D01*
X139523796Y-113625495D01*
X139525000Y-113649999D01*
X139525000Y-114550001D01*
X139523796Y-114574505D01*
X139520196Y-114598773D01*
X139514235Y-114622572D01*
X139505970Y-114645671D01*
X139495480Y-114667850D01*
X139482868Y-114688893D01*
X139468253Y-114708599D01*
X139451777Y-114726777D01*
X139433599Y-114743253D01*
X139413893Y-114757868D01*
X139392850Y-114770480D01*
X139370671Y-114780970D01*
X139347572Y-114789235D01*
X139323773Y-114795196D01*
X139299505Y-114798796D01*
X139275001Y-114800000D01*
X138624999Y-114800000D01*
X138600495Y-114798796D01*
X138576227Y-114795196D01*
X138552428Y-114789235D01*
X138529329Y-114780970D01*
X138507150Y-114770480D01*
X138486107Y-114757868D01*
X138466401Y-114743253D01*
X138448223Y-114726777D01*
X138431747Y-114708599D01*
X138417132Y-114688893D01*
X138404520Y-114667850D01*
X138394030Y-114645671D01*
X138385765Y-114622572D01*
X138379804Y-114598773D01*
X138376204Y-114574505D01*
X138375000Y-114550001D01*
X138375000Y-113649999D01*
X138376204Y-113625495D01*
X138379804Y-113601227D01*
X138385765Y-113577428D01*
X138394030Y-113554329D01*
X138404520Y-113532150D01*
X138417132Y-113511107D01*
X138431747Y-113491401D01*
X138448223Y-113473223D01*
X138466401Y-113456747D01*
X138486107Y-113442132D01*
X138507150Y-113429520D01*
X138529329Y-113419030D01*
X138552428Y-113410765D01*
X138576227Y-113404804D01*
X138600495Y-113401204D01*
X138624999Y-113400000D01*
X139275001Y-113400000D01*
X139299505Y-113401204D01*
X139299505Y-113401204D01*
G37*
D13*
X138950000Y-114100000D03*
D12*
G36*
X128299505Y-113526204D02*
G01*
X128323773Y-113529804D01*
X128347572Y-113535765D01*
X128370671Y-113544030D01*
X128392850Y-113554520D01*
X128413893Y-113567132D01*
X128433599Y-113581747D01*
X128451777Y-113598223D01*
X128468253Y-113616401D01*
X128482868Y-113636107D01*
X128495480Y-113657150D01*
X128505970Y-113679329D01*
X128514235Y-113702428D01*
X128520196Y-113726227D01*
X128523796Y-113750495D01*
X128525000Y-113774999D01*
X128525000Y-114425001D01*
X128523796Y-114449505D01*
X128520196Y-114473773D01*
X128514235Y-114497572D01*
X128505970Y-114520671D01*
X128495480Y-114542850D01*
X128482868Y-114563893D01*
X128468253Y-114583599D01*
X128451777Y-114601777D01*
X128433599Y-114618253D01*
X128413893Y-114632868D01*
X128392850Y-114645480D01*
X128370671Y-114655970D01*
X128347572Y-114664235D01*
X128323773Y-114670196D01*
X128299505Y-114673796D01*
X128275001Y-114675000D01*
X127374999Y-114675000D01*
X127350495Y-114673796D01*
X127326227Y-114670196D01*
X127302428Y-114664235D01*
X127279329Y-114655970D01*
X127257150Y-114645480D01*
X127236107Y-114632868D01*
X127216401Y-114618253D01*
X127198223Y-114601777D01*
X127181747Y-114583599D01*
X127167132Y-114563893D01*
X127154520Y-114542850D01*
X127144030Y-114520671D01*
X127135765Y-114497572D01*
X127129804Y-114473773D01*
X127126204Y-114449505D01*
X127125000Y-114425001D01*
X127125000Y-113774999D01*
X127126204Y-113750495D01*
X127129804Y-113726227D01*
X127135765Y-113702428D01*
X127144030Y-113679329D01*
X127154520Y-113657150D01*
X127167132Y-113636107D01*
X127181747Y-113616401D01*
X127198223Y-113598223D01*
X127216401Y-113581747D01*
X127236107Y-113567132D01*
X127257150Y-113554520D01*
X127279329Y-113544030D01*
X127302428Y-113535765D01*
X127326227Y-113529804D01*
X127350495Y-113526204D01*
X127374999Y-113525000D01*
X128275001Y-113525000D01*
X128299505Y-113526204D01*
X128299505Y-113526204D01*
G37*
D13*
X127825000Y-114100000D03*
D12*
G36*
X128299505Y-111476204D02*
G01*
X128323773Y-111479804D01*
X128347572Y-111485765D01*
X128370671Y-111494030D01*
X128392850Y-111504520D01*
X128413893Y-111517132D01*
X128433599Y-111531747D01*
X128451777Y-111548223D01*
X128468253Y-111566401D01*
X128482868Y-111586107D01*
X128495480Y-111607150D01*
X128505970Y-111629329D01*
X128514235Y-111652428D01*
X128520196Y-111676227D01*
X128523796Y-111700495D01*
X128525000Y-111724999D01*
X128525000Y-112375001D01*
X128523796Y-112399505D01*
X128520196Y-112423773D01*
X128514235Y-112447572D01*
X128505970Y-112470671D01*
X128495480Y-112492850D01*
X128482868Y-112513893D01*
X128468253Y-112533599D01*
X128451777Y-112551777D01*
X128433599Y-112568253D01*
X128413893Y-112582868D01*
X128392850Y-112595480D01*
X128370671Y-112605970D01*
X128347572Y-112614235D01*
X128323773Y-112620196D01*
X128299505Y-112623796D01*
X128275001Y-112625000D01*
X127374999Y-112625000D01*
X127350495Y-112623796D01*
X127326227Y-112620196D01*
X127302428Y-112614235D01*
X127279329Y-112605970D01*
X127257150Y-112595480D01*
X127236107Y-112582868D01*
X127216401Y-112568253D01*
X127198223Y-112551777D01*
X127181747Y-112533599D01*
X127167132Y-112513893D01*
X127154520Y-112492850D01*
X127144030Y-112470671D01*
X127135765Y-112447572D01*
X127129804Y-112423773D01*
X127126204Y-112399505D01*
X127125000Y-112375001D01*
X127125000Y-111724999D01*
X127126204Y-111700495D01*
X127129804Y-111676227D01*
X127135765Y-111652428D01*
X127144030Y-111629329D01*
X127154520Y-111607150D01*
X127167132Y-111586107D01*
X127181747Y-111566401D01*
X127198223Y-111548223D01*
X127216401Y-111531747D01*
X127236107Y-111517132D01*
X127257150Y-111504520D01*
X127279329Y-111494030D01*
X127302428Y-111485765D01*
X127326227Y-111479804D01*
X127350495Y-111476204D01*
X127374999Y-111475000D01*
X128275001Y-111475000D01*
X128299505Y-111476204D01*
X128299505Y-111476204D01*
G37*
D13*
X127825000Y-112050000D03*
D15*
X162831055Y-122463347D03*
X159021055Y-122463347D03*
D12*
G36*
X155885559Y-120664551D02*
G01*
X155909828Y-120668151D01*
X155933626Y-120674112D01*
X155956726Y-120682377D01*
X155978904Y-120692867D01*
X155999948Y-120705480D01*
X156019653Y-120720094D01*
X156037832Y-120736570D01*
X156054308Y-120754749D01*
X156068922Y-120774454D01*
X156081535Y-120795498D01*
X156092025Y-120817676D01*
X156100290Y-120840776D01*
X156106251Y-120864574D01*
X156109851Y-120888843D01*
X156111055Y-120913347D01*
X156111055Y-124013347D01*
X156109851Y-124037851D01*
X156106251Y-124062120D01*
X156100290Y-124085918D01*
X156092025Y-124109018D01*
X156081535Y-124131196D01*
X156068922Y-124152240D01*
X156054308Y-124171945D01*
X156037832Y-124190124D01*
X156019653Y-124206600D01*
X155999948Y-124221214D01*
X155978904Y-124233827D01*
X155956726Y-124244317D01*
X155933626Y-124252582D01*
X155909828Y-124258543D01*
X155885559Y-124262143D01*
X155861055Y-124263347D01*
X154561055Y-124263347D01*
X154536551Y-124262143D01*
X154512282Y-124258543D01*
X154488484Y-124252582D01*
X154465384Y-124244317D01*
X154443206Y-124233827D01*
X154422162Y-124221214D01*
X154402457Y-124206600D01*
X154384278Y-124190124D01*
X154367802Y-124171945D01*
X154353188Y-124152240D01*
X154340575Y-124131196D01*
X154330085Y-124109018D01*
X154321820Y-124085918D01*
X154315859Y-124062120D01*
X154312259Y-124037851D01*
X154311055Y-124013347D01*
X154311055Y-120913347D01*
X154312259Y-120888843D01*
X154315859Y-120864574D01*
X154321820Y-120840776D01*
X154330085Y-120817676D01*
X154340575Y-120795498D01*
X154353188Y-120774454D01*
X154367802Y-120754749D01*
X154384278Y-120736570D01*
X154402457Y-120720094D01*
X154422162Y-120705480D01*
X154443206Y-120692867D01*
X154465384Y-120682377D01*
X154488484Y-120674112D01*
X154512282Y-120668151D01*
X154536551Y-120664551D01*
X154561055Y-120663347D01*
X155861055Y-120663347D01*
X155885559Y-120664551D01*
X155885559Y-120664551D01*
G37*
D16*
X155211055Y-122463347D03*
D15*
X175871055Y-122463347D03*
X172061055Y-122463347D03*
D12*
G36*
X168925559Y-120664551D02*
G01*
X168949828Y-120668151D01*
X168973626Y-120674112D01*
X168996726Y-120682377D01*
X169018904Y-120692867D01*
X169039948Y-120705480D01*
X169059653Y-120720094D01*
X169077832Y-120736570D01*
X169094308Y-120754749D01*
X169108922Y-120774454D01*
X169121535Y-120795498D01*
X169132025Y-120817676D01*
X169140290Y-120840776D01*
X169146251Y-120864574D01*
X169149851Y-120888843D01*
X169151055Y-120913347D01*
X169151055Y-124013347D01*
X169149851Y-124037851D01*
X169146251Y-124062120D01*
X169140290Y-124085918D01*
X169132025Y-124109018D01*
X169121535Y-124131196D01*
X169108922Y-124152240D01*
X169094308Y-124171945D01*
X169077832Y-124190124D01*
X169059653Y-124206600D01*
X169039948Y-124221214D01*
X169018904Y-124233827D01*
X168996726Y-124244317D01*
X168973626Y-124252582D01*
X168949828Y-124258543D01*
X168925559Y-124262143D01*
X168901055Y-124263347D01*
X167601055Y-124263347D01*
X167576551Y-124262143D01*
X167552282Y-124258543D01*
X167528484Y-124252582D01*
X167505384Y-124244317D01*
X167483206Y-124233827D01*
X167462162Y-124221214D01*
X167442457Y-124206600D01*
X167424278Y-124190124D01*
X167407802Y-124171945D01*
X167393188Y-124152240D01*
X167380575Y-124131196D01*
X167370085Y-124109018D01*
X167361820Y-124085918D01*
X167355859Y-124062120D01*
X167352259Y-124037851D01*
X167351055Y-124013347D01*
X167351055Y-120913347D01*
X167352259Y-120888843D01*
X167355859Y-120864574D01*
X167361820Y-120840776D01*
X167370085Y-120817676D01*
X167380575Y-120795498D01*
X167393188Y-120774454D01*
X167407802Y-120754749D01*
X167424278Y-120736570D01*
X167442457Y-120720094D01*
X167462162Y-120705480D01*
X167483206Y-120692867D01*
X167505384Y-120682377D01*
X167528484Y-120674112D01*
X167552282Y-120668151D01*
X167576551Y-120664551D01*
X167601055Y-120663347D01*
X168901055Y-120663347D01*
X168925559Y-120664551D01*
X168925559Y-120664551D01*
G37*
D16*
X168251055Y-122463347D03*
D15*
X149791055Y-122463347D03*
X145981055Y-122463347D03*
D12*
G36*
X142845559Y-120664551D02*
G01*
X142869828Y-120668151D01*
X142893626Y-120674112D01*
X142916726Y-120682377D01*
X142938904Y-120692867D01*
X142959948Y-120705480D01*
X142979653Y-120720094D01*
X142997832Y-120736570D01*
X143014308Y-120754749D01*
X143028922Y-120774454D01*
X143041535Y-120795498D01*
X143052025Y-120817676D01*
X143060290Y-120840776D01*
X143066251Y-120864574D01*
X143069851Y-120888843D01*
X143071055Y-120913347D01*
X143071055Y-124013347D01*
X143069851Y-124037851D01*
X143066251Y-124062120D01*
X143060290Y-124085918D01*
X143052025Y-124109018D01*
X143041535Y-124131196D01*
X143028922Y-124152240D01*
X143014308Y-124171945D01*
X142997832Y-124190124D01*
X142979653Y-124206600D01*
X142959948Y-124221214D01*
X142938904Y-124233827D01*
X142916726Y-124244317D01*
X142893626Y-124252582D01*
X142869828Y-124258543D01*
X142845559Y-124262143D01*
X142821055Y-124263347D01*
X141521055Y-124263347D01*
X141496551Y-124262143D01*
X141472282Y-124258543D01*
X141448484Y-124252582D01*
X141425384Y-124244317D01*
X141403206Y-124233827D01*
X141382162Y-124221214D01*
X141362457Y-124206600D01*
X141344278Y-124190124D01*
X141327802Y-124171945D01*
X141313188Y-124152240D01*
X141300575Y-124131196D01*
X141290085Y-124109018D01*
X141281820Y-124085918D01*
X141275859Y-124062120D01*
X141272259Y-124037851D01*
X141271055Y-124013347D01*
X141271055Y-120913347D01*
X141272259Y-120888843D01*
X141275859Y-120864574D01*
X141281820Y-120840776D01*
X141290085Y-120817676D01*
X141300575Y-120795498D01*
X141313188Y-120774454D01*
X141327802Y-120754749D01*
X141344278Y-120736570D01*
X141362457Y-120720094D01*
X141382162Y-120705480D01*
X141403206Y-120692867D01*
X141425384Y-120682377D01*
X141448484Y-120674112D01*
X141472282Y-120668151D01*
X141496551Y-120664551D01*
X141521055Y-120663347D01*
X142821055Y-120663347D01*
X142845559Y-120664551D01*
X142845559Y-120664551D01*
G37*
D16*
X142171055Y-122463347D03*
D15*
X136751055Y-122463347D03*
X132941055Y-122463347D03*
D12*
G36*
X129805559Y-120664551D02*
G01*
X129829828Y-120668151D01*
X129853626Y-120674112D01*
X129876726Y-120682377D01*
X129898904Y-120692867D01*
X129919948Y-120705480D01*
X129939653Y-120720094D01*
X129957832Y-120736570D01*
X129974308Y-120754749D01*
X129988922Y-120774454D01*
X130001535Y-120795498D01*
X130012025Y-120817676D01*
X130020290Y-120840776D01*
X130026251Y-120864574D01*
X130029851Y-120888843D01*
X130031055Y-120913347D01*
X130031055Y-124013347D01*
X130029851Y-124037851D01*
X130026251Y-124062120D01*
X130020290Y-124085918D01*
X130012025Y-124109018D01*
X130001535Y-124131196D01*
X129988922Y-124152240D01*
X129974308Y-124171945D01*
X129957832Y-124190124D01*
X129939653Y-124206600D01*
X129919948Y-124221214D01*
X129898904Y-124233827D01*
X129876726Y-124244317D01*
X129853626Y-124252582D01*
X129829828Y-124258543D01*
X129805559Y-124262143D01*
X129781055Y-124263347D01*
X128481055Y-124263347D01*
X128456551Y-124262143D01*
X128432282Y-124258543D01*
X128408484Y-124252582D01*
X128385384Y-124244317D01*
X128363206Y-124233827D01*
X128342162Y-124221214D01*
X128322457Y-124206600D01*
X128304278Y-124190124D01*
X128287802Y-124171945D01*
X128273188Y-124152240D01*
X128260575Y-124131196D01*
X128250085Y-124109018D01*
X128241820Y-124085918D01*
X128235859Y-124062120D01*
X128232259Y-124037851D01*
X128231055Y-124013347D01*
X128231055Y-120913347D01*
X128232259Y-120888843D01*
X128235859Y-120864574D01*
X128241820Y-120840776D01*
X128250085Y-120817676D01*
X128260575Y-120795498D01*
X128273188Y-120774454D01*
X128287802Y-120754749D01*
X128304278Y-120736570D01*
X128322457Y-120720094D01*
X128342162Y-120705480D01*
X128363206Y-120692867D01*
X128385384Y-120682377D01*
X128408484Y-120674112D01*
X128432282Y-120668151D01*
X128456551Y-120664551D01*
X128481055Y-120663347D01*
X129781055Y-120663347D01*
X129805559Y-120664551D01*
X129805559Y-120664551D01*
G37*
D16*
X129131055Y-122463347D03*
D14*
X169656200Y-114095000D03*
X169656200Y-115365000D03*
X169656200Y-116635000D03*
X169656200Y-117905000D03*
X174583800Y-117905000D03*
X174583800Y-116635000D03*
X174583800Y-115365000D03*
X174583800Y-114095000D03*
X143576200Y-114095000D03*
X143576200Y-115365000D03*
X143576200Y-116635000D03*
X143576200Y-117905000D03*
X148503800Y-117905000D03*
X148503800Y-116635000D03*
X148503800Y-115365000D03*
X148503800Y-114095000D03*
X130536200Y-114095000D03*
X130536200Y-115365000D03*
X130536200Y-116635000D03*
X130536200Y-117905000D03*
X135463800Y-117905000D03*
X135463800Y-116635000D03*
X135463800Y-115365000D03*
X135463800Y-114095000D03*
D17*
X182000000Y-115500000D03*
X123000000Y-115500000D03*
D18*
X132951065Y-125273357D02*
X132941055Y-125263347D01*
X132941055Y-125263347D02*
X132941055Y-122463347D01*
X145981055Y-122463347D02*
X145981055Y-125273357D01*
X159021055Y-122463347D02*
X159021055Y-125273357D01*
D19*
X167005000Y-114095000D02*
X167000000Y-114100000D01*
D18*
X132931045Y-125273357D02*
X132941055Y-125263347D01*
X127959139Y-125273357D02*
X132931045Y-125273357D01*
X127221045Y-124535263D02*
X127959139Y-125273357D01*
X127221045Y-115278955D02*
X127221045Y-124535263D01*
X127825000Y-114675000D02*
X127221045Y-115278955D01*
X127825000Y-114100000D02*
X127825000Y-114675000D01*
X154025000Y-114800000D02*
X154025000Y-114100000D01*
X153048357Y-115776643D02*
X154025000Y-114800000D01*
X153048357Y-125273357D02*
X153048357Y-115776643D01*
X153048357Y-125273357D02*
X141276643Y-125273357D01*
X167075000Y-114800000D02*
X167075000Y-114100000D01*
X166176643Y-115698357D02*
X167075000Y-114800000D01*
X166176643Y-125273357D02*
X166176643Y-115698357D01*
X166176643Y-125273357D02*
X153048357Y-125273357D01*
X141000000Y-114800000D02*
X141000000Y-114100000D01*
X140076643Y-125273357D02*
X140076643Y-115723357D01*
X140076643Y-125273357D02*
X132951065Y-125273357D01*
X140076643Y-115723357D02*
X141000000Y-114800000D01*
X141276643Y-125273357D02*
X140076643Y-125273357D01*
X172061055Y-125273357D02*
X172061055Y-122463347D01*
X166176643Y-125273357D02*
X172061055Y-125273357D01*
X168370000Y-112805000D02*
X167075000Y-114100000D01*
X168370000Y-109250000D02*
X168370000Y-112805000D01*
D20*
X127830000Y-114095000D02*
X127825000Y-114100000D01*
X130536200Y-114095000D02*
X127830000Y-114095000D01*
X141005000Y-114095000D02*
X141000000Y-114100000D01*
X143576200Y-114095000D02*
X141005000Y-114095000D01*
X154030000Y-114095000D02*
X154025000Y-114100000D01*
X156616200Y-114095000D02*
X154030000Y-114095000D01*
X167080000Y-114095000D02*
X167075000Y-114100000D01*
X169656200Y-114095000D02*
X167080000Y-114095000D01*
D18*
X140120000Y-109250000D02*
X140120000Y-107000000D01*
X140120000Y-109250000D02*
X140120000Y-111000000D01*
X137580000Y-109250000D02*
X137580000Y-107000000D01*
X137580000Y-109250000D02*
X137580000Y-111000000D01*
X140120000Y-109250000D02*
X137580000Y-109250000D01*
X165830000Y-109250000D02*
X165830000Y-107500000D01*
X165830000Y-109250000D02*
X165830000Y-111000000D01*
D19*
X133613199Y-116795001D02*
X133773200Y-116635000D01*
X133773200Y-116635000D02*
X135463800Y-116635000D01*
X136751055Y-122051055D02*
X133613199Y-118913199D01*
X133613199Y-118913199D02*
X133613199Y-116795001D01*
X136751055Y-122463347D02*
X136751055Y-122051055D01*
X146653199Y-118903199D02*
X146653199Y-116795001D01*
X146813200Y-116635000D02*
X148503800Y-116635000D01*
X146653199Y-116795001D02*
X146813200Y-116635000D01*
X149791055Y-122041055D02*
X146653199Y-118903199D01*
X149791055Y-122463347D02*
X149791055Y-122041055D01*
X159853200Y-116635000D02*
X161543800Y-116635000D01*
X159693199Y-116795001D02*
X159853200Y-116635000D01*
X159693199Y-118872401D02*
X159693199Y-116795001D01*
X162831055Y-122010257D02*
X159693199Y-118872401D01*
X162831055Y-122463347D02*
X162831055Y-122010257D01*
X172893200Y-116635000D02*
X174583800Y-116635000D01*
X172716811Y-116811389D02*
X172893200Y-116635000D01*
X172716811Y-118891811D02*
X172716811Y-116811389D01*
X175871055Y-122463347D02*
X175871055Y-122046055D01*
X175871055Y-122046055D02*
X172716811Y-118891811D01*
X129131055Y-119310145D02*
X130536200Y-117905000D01*
X129131055Y-122463347D02*
X129131055Y-119310145D01*
D18*
X142171055Y-119530754D02*
X143576200Y-118125609D01*
X142171055Y-122463347D02*
X142171055Y-119530754D01*
X155211055Y-119530754D02*
X156616200Y-118125609D01*
X155211055Y-122463347D02*
X155211055Y-119530754D01*
X168251055Y-119530754D02*
X169656200Y-118125609D01*
X168251055Y-122463347D02*
X168251055Y-119530754D01*
D19*
X173450000Y-112961200D02*
X174583800Y-114095000D01*
X173450000Y-109250000D02*
X173450000Y-112961200D01*
X174583800Y-114095000D02*
X174583800Y-115365000D01*
X171346800Y-115365000D02*
X169656200Y-115365000D01*
X171506801Y-111048882D02*
X171506801Y-115204999D01*
X170910000Y-110452081D02*
X171506801Y-111048882D01*
X171506801Y-115204999D02*
X171346800Y-115365000D01*
X170910000Y-109250000D02*
X170910000Y-110452081D01*
X169656200Y-115365000D02*
X169656200Y-116635000D01*
X161543800Y-114095000D02*
X161543800Y-115365000D01*
X163290000Y-112348800D02*
X163290000Y-109250000D01*
X161543800Y-114095000D02*
X163290000Y-112348800D01*
X156616200Y-115365000D02*
X156616200Y-116635000D01*
X158306800Y-115365000D02*
X156616200Y-115365000D01*
X159693199Y-111856801D02*
X159693199Y-113978601D01*
X160750000Y-110800000D02*
X159693199Y-111856801D01*
X159693199Y-113978601D02*
X158306800Y-115365000D01*
X160750000Y-109250000D02*
X160750000Y-110800000D01*
X148503800Y-114095000D02*
X148503800Y-115365000D01*
X148503800Y-114095000D02*
X148503800Y-112000000D01*
X148503800Y-111641719D02*
X148503800Y-112000000D01*
X146112081Y-109250000D02*
X148503800Y-111641719D01*
X144910000Y-109250000D02*
X146112081Y-109250000D01*
X143576200Y-115365000D02*
X143576200Y-116635000D01*
X145500000Y-112380000D02*
X142370000Y-109250000D01*
X143576200Y-115365000D02*
X145500000Y-115365000D01*
X145500000Y-115365000D02*
X145500000Y-112380000D01*
X135463800Y-115365000D02*
X135463800Y-114095000D01*
X135463800Y-109673800D02*
X135040000Y-109250000D01*
X135463800Y-114095000D02*
X135463800Y-109673800D01*
X130536200Y-116635000D02*
X130536200Y-115365000D01*
X132500000Y-110800000D02*
X132500000Y-109250000D01*
X132500000Y-114949202D02*
X132500000Y-110800000D01*
X132084202Y-115365000D02*
X132500000Y-114949202D01*
X130536200Y-115365000D02*
X132084202Y-115365000D01*
D21*
G36*
X183735260Y-105811832D02*
G01*
X183961568Y-105880158D01*
X184170288Y-105991137D01*
X184353478Y-106140544D01*
X184504162Y-106322688D01*
X184616592Y-106530624D01*
X184686496Y-106756447D01*
X184715001Y-107027656D01*
X184715000Y-113239659D01*
X184434189Y-113072882D01*
X182007071Y-115500000D01*
X184434189Y-117927118D01*
X184715000Y-117760341D01*
X184715000Y-117961612D01*
X184688168Y-118235262D01*
X184619843Y-118461565D01*
X184508864Y-118670288D01*
X184359458Y-118853477D01*
X184177314Y-119004159D01*
X183969377Y-119116591D01*
X183743552Y-119186496D01*
X183472353Y-119215000D01*
X179461439Y-119215000D01*
X179428305Y-119218264D01*
X179425364Y-119218243D01*
X179414456Y-119219312D01*
X179366691Y-119224332D01*
X179346113Y-119226359D01*
X179345427Y-119226567D01*
X179317407Y-119229512D01*
X179247691Y-119243822D01*
X179177824Y-119257151D01*
X179167331Y-119260318D01*
X179074112Y-119289174D01*
X179008464Y-119316770D01*
X178942551Y-119343401D01*
X178932881Y-119348542D01*
X178932878Y-119348543D01*
X178932876Y-119348545D01*
X178932873Y-119348546D01*
X178847035Y-119394959D01*
X178788022Y-119434764D01*
X178728519Y-119473702D01*
X178720027Y-119480627D01*
X178720023Y-119480630D01*
X178720019Y-119480634D01*
X178644836Y-119542831D01*
X178594684Y-119593335D01*
X178543874Y-119643091D01*
X178536888Y-119651535D01*
X178536882Y-119651541D01*
X178536877Y-119651548D01*
X178475212Y-119727156D01*
X178435836Y-119786420D01*
X178395636Y-119845132D01*
X178390423Y-119854773D01*
X178344611Y-119940934D01*
X178317489Y-120006737D01*
X178289474Y-120072102D01*
X178286232Y-120082572D01*
X178258027Y-120175990D01*
X178244209Y-120245776D01*
X178229414Y-120315383D01*
X178228268Y-120326283D01*
X178218746Y-120423401D01*
X178218746Y-120423407D01*
X178215000Y-120461440D01*
X178215001Y-125715000D01*
X173243780Y-125715000D01*
X173302823Y-125520360D01*
X173327151Y-125273357D01*
X173321055Y-125211464D01*
X173321055Y-124444706D01*
X173447973Y-124290056D01*
X173602116Y-124001675D01*
X173697036Y-123688764D01*
X173721055Y-123444897D01*
X173721055Y-121481797D01*
X173719311Y-121464087D01*
X174211055Y-121955832D01*
X174211055Y-123444897D01*
X174235075Y-123688764D01*
X174329995Y-124001675D01*
X174484138Y-124290056D01*
X174691579Y-124542824D01*
X174944347Y-124750265D01*
X175232728Y-124904408D01*
X175545639Y-124999328D01*
X175871055Y-125031379D01*
X176196472Y-124999328D01*
X176509383Y-124904408D01*
X176797764Y-124750265D01*
X177050532Y-124542824D01*
X177257973Y-124290056D01*
X177412116Y-124001675D01*
X177507036Y-123688764D01*
X177531055Y-123444897D01*
X177531055Y-121481797D01*
X177507036Y-121237930D01*
X177412116Y-120925019D01*
X177257973Y-120636638D01*
X177050532Y-120383870D01*
X176797763Y-120176429D01*
X176509382Y-120022286D01*
X176196471Y-119927366D01*
X175871055Y-119895315D01*
X175545638Y-119927366D01*
X175374160Y-119979383D01*
X174339405Y-118944628D01*
X174388800Y-118944400D01*
X174578800Y-118754400D01*
X174578800Y-117910000D01*
X174588800Y-117910000D01*
X174588800Y-118754400D01*
X174778800Y-118944400D01*
X175574400Y-118948077D01*
X175723386Y-118933403D01*
X175866647Y-118889946D01*
X175998676Y-118819374D01*
X176114401Y-118724401D01*
X176209374Y-118608676D01*
X176279946Y-118476647D01*
X176323403Y-118333386D01*
X176338077Y-118184400D01*
X176334400Y-118100000D01*
X176168589Y-117934189D01*
X179572882Y-117934189D01*
X179871875Y-118437619D01*
X180485867Y-118796350D01*
X181158047Y-119028404D01*
X181862583Y-119124863D01*
X182572399Y-119082021D01*
X183260218Y-118901524D01*
X183899608Y-118590308D01*
X184128125Y-118437619D01*
X184427118Y-117934189D01*
X182000000Y-115507071D01*
X179572882Y-117934189D01*
X176168589Y-117934189D01*
X176144400Y-117910000D01*
X174588800Y-117910000D01*
X174578800Y-117910000D01*
X174558800Y-117910000D01*
X174558800Y-117900000D01*
X174578800Y-117900000D01*
X174578800Y-117880000D01*
X174588800Y-117880000D01*
X174588800Y-117900000D01*
X176144400Y-117900000D01*
X176334400Y-117710000D01*
X176338077Y-117625600D01*
X176323403Y-117476614D01*
X176279946Y-117333353D01*
X176246083Y-117270000D01*
X176279946Y-117206647D01*
X176323403Y-117063386D01*
X176338077Y-116914400D01*
X176338077Y-116355600D01*
X176323403Y-116206614D01*
X176279946Y-116063353D01*
X176246083Y-116000000D01*
X176279946Y-115936647D01*
X176323403Y-115793386D01*
X176338077Y-115644400D01*
X176338077Y-115362583D01*
X178375137Y-115362583D01*
X178417979Y-116072399D01*
X178598476Y-116760218D01*
X178909692Y-117399608D01*
X179062381Y-117628125D01*
X179565811Y-117927118D01*
X181992929Y-115500000D01*
X179565811Y-113072882D01*
X179062381Y-113371875D01*
X178703650Y-113985867D01*
X178471596Y-114658047D01*
X178375137Y-115362583D01*
X176338077Y-115362583D01*
X176338077Y-115085600D01*
X176323403Y-114936614D01*
X176279946Y-114793353D01*
X176246083Y-114730000D01*
X176279946Y-114666647D01*
X176323403Y-114523386D01*
X176338077Y-114374400D01*
X176338077Y-113815600D01*
X176323403Y-113666614D01*
X176279946Y-113523353D01*
X176209374Y-113391324D01*
X176114401Y-113275599D01*
X175998676Y-113180626D01*
X175866647Y-113110054D01*
X175723386Y-113066597D01*
X175715406Y-113065811D01*
X179572882Y-113065811D01*
X182000000Y-115492929D01*
X184427118Y-113065811D01*
X184128125Y-112562381D01*
X183514133Y-112203650D01*
X182841953Y-111971596D01*
X182137417Y-111875137D01*
X181427601Y-111917979D01*
X180739782Y-112098476D01*
X180100392Y-112409692D01*
X179871875Y-112562381D01*
X179572882Y-113065811D01*
X175715406Y-113065811D01*
X175574400Y-113051923D01*
X175110500Y-113051923D01*
X174560000Y-112501424D01*
X174560000Y-110421812D01*
X174593950Y-110393950D01*
X174795143Y-110148796D01*
X174944643Y-109869101D01*
X175036705Y-109565615D01*
X175067790Y-109250000D01*
X175036705Y-108934385D01*
X174944643Y-108630899D01*
X174795143Y-108351204D01*
X174593950Y-108106050D01*
X174348796Y-107904857D01*
X174069101Y-107755357D01*
X173765615Y-107663295D01*
X173529094Y-107640000D01*
X173370906Y-107640000D01*
X173134385Y-107663295D01*
X172830899Y-107755357D01*
X172551204Y-107904857D01*
X172306050Y-108106050D01*
X172180000Y-108259642D01*
X172053950Y-108106050D01*
X171808796Y-107904857D01*
X171529101Y-107755357D01*
X171225615Y-107663295D01*
X170989094Y-107640000D01*
X170830906Y-107640000D01*
X170594385Y-107663295D01*
X170290899Y-107755357D01*
X170011204Y-107904857D01*
X169766050Y-108106050D01*
X169640000Y-108259642D01*
X169513950Y-108106050D01*
X169268796Y-107904857D01*
X168989101Y-107755357D01*
X168685615Y-107663295D01*
X168449094Y-107640000D01*
X168290906Y-107640000D01*
X168054385Y-107663295D01*
X167750899Y-107755357D01*
X167471204Y-107904857D01*
X167226050Y-108106050D01*
X167094686Y-108266117D01*
X167008859Y-108153464D01*
X166772284Y-107944550D01*
X166499498Y-107785803D01*
X166200983Y-107683325D01*
X166086797Y-107660612D01*
X165835000Y-107830009D01*
X165835000Y-109245000D01*
X165855000Y-109245000D01*
X165855000Y-109255000D01*
X165835000Y-109255000D01*
X165835000Y-110669991D01*
X166086797Y-110839388D01*
X166200983Y-110816675D01*
X166499498Y-110714197D01*
X166772284Y-110555450D01*
X167008859Y-110346536D01*
X167094686Y-110233883D01*
X167110000Y-110252543D01*
X167110001Y-112283090D01*
X166756769Y-112636323D01*
X166749999Y-112636323D01*
X166552241Y-112655801D01*
X166362082Y-112713484D01*
X166186831Y-112807158D01*
X166131223Y-112852795D01*
X166024276Y-112765026D01*
X165892247Y-112694454D01*
X165748986Y-112650997D01*
X165600000Y-112636323D01*
X165220000Y-112640000D01*
X165030000Y-112830000D01*
X165030000Y-114095000D01*
X165050000Y-114095000D01*
X165050000Y-114105000D01*
X165030000Y-114105000D01*
X165030000Y-114125000D01*
X165020000Y-114125000D01*
X165020000Y-114105000D01*
X163880000Y-114105000D01*
X163690000Y-114295000D01*
X163686323Y-114800000D01*
X163700997Y-114948986D01*
X163744454Y-115092247D01*
X163815026Y-115224276D01*
X163909999Y-115340001D01*
X164025724Y-115434974D01*
X164157753Y-115505546D01*
X164301014Y-115549003D01*
X164450000Y-115563677D01*
X164830000Y-115560000D01*
X164934464Y-115455536D01*
X164910548Y-115698357D01*
X164916644Y-115760250D01*
X164916643Y-124013357D01*
X164365872Y-124013357D01*
X164372116Y-124001675D01*
X164467036Y-123688764D01*
X164491055Y-123444897D01*
X164491055Y-121481797D01*
X164467036Y-121237930D01*
X164372116Y-120925019D01*
X164217973Y-120636638D01*
X164010532Y-120383870D01*
X163757763Y-120176429D01*
X163469382Y-120022286D01*
X163156471Y-119927366D01*
X162831055Y-119895315D01*
X162505638Y-119927366D01*
X162361626Y-119971051D01*
X161335038Y-118944464D01*
X161348800Y-118944400D01*
X161538800Y-118754400D01*
X161538800Y-117910000D01*
X161548800Y-117910000D01*
X161548800Y-118754400D01*
X161738800Y-118944400D01*
X162534400Y-118948077D01*
X162683386Y-118933403D01*
X162826647Y-118889946D01*
X162958676Y-118819374D01*
X163074401Y-118724401D01*
X163169374Y-118608676D01*
X163239946Y-118476647D01*
X163283403Y-118333386D01*
X163298077Y-118184400D01*
X163294400Y-118100000D01*
X163104400Y-117910000D01*
X161548800Y-117910000D01*
X161538800Y-117910000D01*
X161518800Y-117910000D01*
X161518800Y-117900000D01*
X161538800Y-117900000D01*
X161538800Y-117880000D01*
X161548800Y-117880000D01*
X161548800Y-117900000D01*
X163104400Y-117900000D01*
X163294400Y-117710000D01*
X163298077Y-117625600D01*
X163283403Y-117476614D01*
X163239946Y-117333353D01*
X163206083Y-117270000D01*
X163239946Y-117206647D01*
X163283403Y-117063386D01*
X163298077Y-116914400D01*
X163298077Y-116355600D01*
X163283403Y-116206614D01*
X163239946Y-116063353D01*
X163206083Y-116000000D01*
X163239946Y-115936647D01*
X163283403Y-115793386D01*
X163298077Y-115644400D01*
X163298077Y-115085600D01*
X163283403Y-114936614D01*
X163239946Y-114793353D01*
X163206083Y-114730000D01*
X163239946Y-114666647D01*
X163283403Y-114523386D01*
X163298077Y-114374400D01*
X163298077Y-113910500D01*
X163687207Y-113521370D01*
X163690000Y-113905000D01*
X163880000Y-114095000D01*
X165020000Y-114095000D01*
X165020000Y-112830000D01*
X164830000Y-112640000D01*
X164450000Y-112636323D01*
X164360039Y-112645183D01*
X164383938Y-112566398D01*
X164397684Y-112426833D01*
X164405370Y-112348800D01*
X164400000Y-112294279D01*
X164400000Y-110421812D01*
X164433950Y-110393950D01*
X164565314Y-110233883D01*
X164651141Y-110346536D01*
X164887716Y-110555450D01*
X165160502Y-110714197D01*
X165459017Y-110816675D01*
X165573203Y-110839388D01*
X165825000Y-110669991D01*
X165825000Y-109255000D01*
X165805000Y-109255000D01*
X165805000Y-109245000D01*
X165825000Y-109245000D01*
X165825000Y-107830009D01*
X165573203Y-107660612D01*
X165459017Y-107683325D01*
X165160502Y-107785803D01*
X164887716Y-107944550D01*
X164651141Y-108153464D01*
X164565314Y-108266117D01*
X164433950Y-108106050D01*
X164188796Y-107904857D01*
X163909101Y-107755357D01*
X163605615Y-107663295D01*
X163369094Y-107640000D01*
X163210906Y-107640000D01*
X162974385Y-107663295D01*
X162670899Y-107755357D01*
X162391204Y-107904857D01*
X162256281Y-108015586D01*
X162234974Y-107975724D01*
X162140001Y-107859999D01*
X162024276Y-107765026D01*
X161892247Y-107694454D01*
X161748986Y-107650997D01*
X161600000Y-107636323D01*
X159900000Y-107636323D01*
X159751014Y-107650997D01*
X159607753Y-107694454D01*
X159475724Y-107765026D01*
X159359999Y-107859999D01*
X159265026Y-107975724D01*
X159194454Y-108107753D01*
X159150997Y-108251014D01*
X159136323Y-108400000D01*
X159136323Y-110100000D01*
X159150997Y-110248986D01*
X159194454Y-110392247D01*
X159265026Y-110524276D01*
X159351085Y-110629139D01*
X158946871Y-111033353D01*
X158904513Y-111068115D01*
X158765803Y-111237135D01*
X158689261Y-111380334D01*
X158662731Y-111429968D01*
X158599261Y-111639204D01*
X158577829Y-111856801D01*
X158583199Y-111911323D01*
X158583200Y-113518823D01*
X158362941Y-113739083D01*
X158355803Y-113666614D01*
X158312346Y-113523353D01*
X158241774Y-113391324D01*
X158146801Y-113275599D01*
X158031076Y-113180626D01*
X157899047Y-113110054D01*
X157755786Y-113066597D01*
X157606800Y-113051923D01*
X156829221Y-113051923D01*
X156823996Y-113050338D01*
X156668266Y-113035000D01*
X155150305Y-113035000D01*
X155066778Y-112933222D01*
X154913169Y-112807158D01*
X154737918Y-112713484D01*
X154547759Y-112655801D01*
X154350001Y-112636323D01*
X153699999Y-112636323D01*
X153502241Y-112655801D01*
X153312082Y-112713484D01*
X153136831Y-112807158D01*
X153081223Y-112852795D01*
X152974276Y-112765026D01*
X152842247Y-112694454D01*
X152698986Y-112650997D01*
X152550000Y-112636323D01*
X152170000Y-112640000D01*
X151980000Y-112830000D01*
X151980000Y-114095000D01*
X152000000Y-114095000D01*
X152000000Y-114105000D01*
X151980000Y-114105000D01*
X151980000Y-114125000D01*
X151970000Y-114125000D01*
X151970000Y-114105000D01*
X150830000Y-114105000D01*
X150640000Y-114295000D01*
X150636323Y-114800000D01*
X150650997Y-114948986D01*
X150694454Y-115092247D01*
X150765026Y-115224276D01*
X150859999Y-115340001D01*
X150975724Y-115434974D01*
X151107753Y-115505546D01*
X151251014Y-115549003D01*
X151400000Y-115563677D01*
X151780000Y-115560000D01*
X151806178Y-115533822D01*
X151782262Y-115776643D01*
X151788358Y-115838536D01*
X151788357Y-124013357D01*
X151325872Y-124013357D01*
X151332116Y-124001675D01*
X151427036Y-123688764D01*
X151451055Y-123444897D01*
X151451055Y-121481797D01*
X151427036Y-121237930D01*
X151332116Y-120925019D01*
X151177973Y-120636638D01*
X150970532Y-120383870D01*
X150717763Y-120176429D01*
X150429382Y-120022286D01*
X150116471Y-119927366D01*
X149791055Y-119895315D01*
X149465638Y-119927366D01*
X149297996Y-119978219D01*
X148264382Y-118944605D01*
X148308800Y-118944400D01*
X148498800Y-118754400D01*
X148498800Y-117910000D01*
X148508800Y-117910000D01*
X148508800Y-118754400D01*
X148698800Y-118944400D01*
X149494400Y-118948077D01*
X149643386Y-118933403D01*
X149786647Y-118889946D01*
X149918676Y-118819374D01*
X150034401Y-118724401D01*
X150129374Y-118608676D01*
X150199946Y-118476647D01*
X150243403Y-118333386D01*
X150258077Y-118184400D01*
X150254400Y-118100000D01*
X150064400Y-117910000D01*
X148508800Y-117910000D01*
X148498800Y-117910000D01*
X148478800Y-117910000D01*
X148478800Y-117900000D01*
X148498800Y-117900000D01*
X148498800Y-117880000D01*
X148508800Y-117880000D01*
X148508800Y-117900000D01*
X150064400Y-117900000D01*
X150254400Y-117710000D01*
X150258077Y-117625600D01*
X150243403Y-117476614D01*
X150199946Y-117333353D01*
X150166083Y-117270000D01*
X150199946Y-117206647D01*
X150243403Y-117063386D01*
X150258077Y-116914400D01*
X150258077Y-116355600D01*
X150243403Y-116206614D01*
X150199946Y-116063353D01*
X150166083Y-116000000D01*
X150199946Y-115936647D01*
X150243403Y-115793386D01*
X150258077Y-115644400D01*
X150258077Y-115085600D01*
X150243403Y-114936614D01*
X150199946Y-114793353D01*
X150166083Y-114730000D01*
X150199946Y-114666647D01*
X150243403Y-114523386D01*
X150258077Y-114374400D01*
X150258077Y-113815600D01*
X150243403Y-113666614D01*
X150199946Y-113523353D01*
X150134012Y-113400000D01*
X150636323Y-113400000D01*
X150640000Y-113905000D01*
X150830000Y-114095000D01*
X151970000Y-114095000D01*
X151970000Y-112830000D01*
X151780000Y-112640000D01*
X151400000Y-112636323D01*
X151251014Y-112650997D01*
X151107753Y-112694454D01*
X150975724Y-112765026D01*
X150859999Y-112859999D01*
X150765026Y-112975724D01*
X150694454Y-113107753D01*
X150650997Y-113251014D01*
X150636323Y-113400000D01*
X150134012Y-113400000D01*
X150129374Y-113391324D01*
X150034401Y-113275599D01*
X149918676Y-113180626D01*
X149786647Y-113110054D01*
X149643386Y-113066597D01*
X149613800Y-113063683D01*
X149613800Y-111696237D01*
X149619170Y-111641718D01*
X149611855Y-111567451D01*
X149597738Y-111424121D01*
X149534268Y-111214885D01*
X149431196Y-111022053D01*
X149292486Y-110853033D01*
X149250133Y-110818275D01*
X146935529Y-108503672D01*
X146900767Y-108461314D01*
X146731747Y-108322604D01*
X146538915Y-108219532D01*
X146403329Y-108178403D01*
X146343950Y-108106050D01*
X146098796Y-107904857D01*
X145819101Y-107755357D01*
X145515615Y-107663295D01*
X145279094Y-107640000D01*
X145120906Y-107640000D01*
X144884385Y-107663295D01*
X144580899Y-107755357D01*
X144301204Y-107904857D01*
X144056050Y-108106050D01*
X143930000Y-108259642D01*
X143803950Y-108106050D01*
X143558796Y-107904857D01*
X143279101Y-107755357D01*
X142975615Y-107663295D01*
X142739094Y-107640000D01*
X142580906Y-107640000D01*
X142344385Y-107663295D01*
X142040899Y-107755357D01*
X141761204Y-107904857D01*
X141516050Y-108106050D01*
X141384686Y-108266117D01*
X141298859Y-108153464D01*
X141062284Y-107944550D01*
X140789498Y-107785803D01*
X140490983Y-107683325D01*
X140376797Y-107660612D01*
X140125000Y-107830009D01*
X140125000Y-109245000D01*
X140145000Y-109245000D01*
X140145000Y-109255000D01*
X140125000Y-109255000D01*
X140125000Y-110669991D01*
X140376797Y-110839388D01*
X140490983Y-110816675D01*
X140789498Y-110714197D01*
X141062284Y-110555450D01*
X141298859Y-110346536D01*
X141384686Y-110233883D01*
X141516050Y-110393950D01*
X141761204Y-110595143D01*
X142040899Y-110744643D01*
X142344385Y-110836705D01*
X142391577Y-110841353D01*
X144390001Y-112839778D01*
X144390001Y-113051923D01*
X143789221Y-113051923D01*
X143783996Y-113050338D01*
X143628266Y-113035000D01*
X142125305Y-113035000D01*
X142041778Y-112933222D01*
X141888169Y-112807158D01*
X141712918Y-112713484D01*
X141522759Y-112655801D01*
X141325001Y-112636323D01*
X140674999Y-112636323D01*
X140477241Y-112655801D01*
X140287082Y-112713484D01*
X140111831Y-112807158D01*
X140056223Y-112852795D01*
X139949276Y-112765026D01*
X139817247Y-112694454D01*
X139673986Y-112650997D01*
X139525000Y-112636323D01*
X139145000Y-112640000D01*
X138955000Y-112830000D01*
X138955000Y-114095000D01*
X138975000Y-114095000D01*
X138975000Y-114105000D01*
X138955000Y-114105000D01*
X138955000Y-114125000D01*
X138945000Y-114125000D01*
X138945000Y-114105000D01*
X137805000Y-114105000D01*
X137615000Y-114295000D01*
X137611323Y-114800000D01*
X137625997Y-114948986D01*
X137669454Y-115092247D01*
X137740026Y-115224276D01*
X137834999Y-115340001D01*
X137950724Y-115434974D01*
X138082753Y-115505546D01*
X138226014Y-115549003D01*
X138375000Y-115563677D01*
X138755000Y-115560000D01*
X138834464Y-115480536D01*
X138810548Y-115723357D01*
X138816644Y-115785250D01*
X138816643Y-124013357D01*
X138285872Y-124013357D01*
X138292116Y-124001675D01*
X138387036Y-123688764D01*
X138411055Y-123444897D01*
X138411055Y-121481797D01*
X138387036Y-121237930D01*
X138292116Y-120925019D01*
X138137973Y-120636638D01*
X137930532Y-120383870D01*
X137677763Y-120176429D01*
X137389382Y-120022286D01*
X137076471Y-119927366D01*
X136751055Y-119895315D01*
X136425638Y-119927366D01*
X136250324Y-119980547D01*
X135214428Y-118944651D01*
X135268800Y-118944400D01*
X135458800Y-118754400D01*
X135458800Y-117910000D01*
X135468800Y-117910000D01*
X135468800Y-118754400D01*
X135658800Y-118944400D01*
X136454400Y-118948077D01*
X136603386Y-118933403D01*
X136746647Y-118889946D01*
X136878676Y-118819374D01*
X136994401Y-118724401D01*
X137089374Y-118608676D01*
X137159946Y-118476647D01*
X137203403Y-118333386D01*
X137218077Y-118184400D01*
X137214400Y-118100000D01*
X137024400Y-117910000D01*
X135468800Y-117910000D01*
X135458800Y-117910000D01*
X135438800Y-117910000D01*
X135438800Y-117900000D01*
X135458800Y-117900000D01*
X135458800Y-117880000D01*
X135468800Y-117880000D01*
X135468800Y-117900000D01*
X137024400Y-117900000D01*
X137214400Y-117710000D01*
X137218077Y-117625600D01*
X137203403Y-117476614D01*
X137159946Y-117333353D01*
X137126083Y-117270000D01*
X137159946Y-117206647D01*
X137203403Y-117063386D01*
X137218077Y-116914400D01*
X137218077Y-116355600D01*
X137203403Y-116206614D01*
X137159946Y-116063353D01*
X137126083Y-116000000D01*
X137159946Y-115936647D01*
X137203403Y-115793386D01*
X137218077Y-115644400D01*
X137218077Y-115085600D01*
X137203403Y-114936614D01*
X137159946Y-114793353D01*
X137126083Y-114730000D01*
X137159946Y-114666647D01*
X137203403Y-114523386D01*
X137218077Y-114374400D01*
X137218077Y-113815600D01*
X137203403Y-113666614D01*
X137159946Y-113523353D01*
X137094012Y-113400000D01*
X137611323Y-113400000D01*
X137615000Y-113905000D01*
X137805000Y-114095000D01*
X138945000Y-114095000D01*
X138945000Y-112830000D01*
X138755000Y-112640000D01*
X138375000Y-112636323D01*
X138226014Y-112650997D01*
X138082753Y-112694454D01*
X137950724Y-112765026D01*
X137834999Y-112859999D01*
X137740026Y-112975724D01*
X137669454Y-113107753D01*
X137625997Y-113251014D01*
X137611323Y-113400000D01*
X137094012Y-113400000D01*
X137089374Y-113391324D01*
X136994401Y-113275599D01*
X136878676Y-113180626D01*
X136746647Y-113110054D01*
X136603386Y-113066597D01*
X136573800Y-113063683D01*
X136573800Y-110499007D01*
X136637716Y-110555450D01*
X136910502Y-110714197D01*
X137209017Y-110816675D01*
X137323203Y-110839388D01*
X137575000Y-110669991D01*
X137575000Y-109255000D01*
X137585000Y-109255000D01*
X137585000Y-110669991D01*
X137836797Y-110839388D01*
X137950983Y-110816675D01*
X138249498Y-110714197D01*
X138522284Y-110555450D01*
X138758859Y-110346536D01*
X138850000Y-110226909D01*
X138941141Y-110346536D01*
X139177716Y-110555450D01*
X139450502Y-110714197D01*
X139749017Y-110816675D01*
X139863203Y-110839388D01*
X140115000Y-110669991D01*
X140115000Y-109255000D01*
X137585000Y-109255000D01*
X137575000Y-109255000D01*
X137555000Y-109255000D01*
X137555000Y-109245000D01*
X137575000Y-109245000D01*
X137575000Y-107830009D01*
X137585000Y-107830009D01*
X137585000Y-109245000D01*
X140115000Y-109245000D01*
X140115000Y-107830009D01*
X139863203Y-107660612D01*
X139749017Y-107683325D01*
X139450502Y-107785803D01*
X139177716Y-107944550D01*
X138941141Y-108153464D01*
X138850000Y-108273091D01*
X138758859Y-108153464D01*
X138522284Y-107944550D01*
X138249498Y-107785803D01*
X137950983Y-107683325D01*
X137836797Y-107660612D01*
X137585000Y-107830009D01*
X137575000Y-107830009D01*
X137323203Y-107660612D01*
X137209017Y-107683325D01*
X136910502Y-107785803D01*
X136637716Y-107944550D01*
X136401141Y-108153464D01*
X136315314Y-108266117D01*
X136183950Y-108106050D01*
X135938796Y-107904857D01*
X135659101Y-107755357D01*
X135355615Y-107663295D01*
X135119094Y-107640000D01*
X134960906Y-107640000D01*
X134724385Y-107663295D01*
X134420899Y-107755357D01*
X134141204Y-107904857D01*
X134006281Y-108015586D01*
X133984974Y-107975724D01*
X133890001Y-107859999D01*
X133774276Y-107765026D01*
X133642247Y-107694454D01*
X133498986Y-107650997D01*
X133350000Y-107636323D01*
X131650000Y-107636323D01*
X131501014Y-107650997D01*
X131357753Y-107694454D01*
X131225724Y-107765026D01*
X131109999Y-107859999D01*
X131015026Y-107975724D01*
X130944454Y-108107753D01*
X130900997Y-108251014D01*
X130886323Y-108400000D01*
X130886323Y-110100000D01*
X130900997Y-110248986D01*
X130944454Y-110392247D01*
X131015026Y-110524276D01*
X131109999Y-110640001D01*
X131225724Y-110734974D01*
X131357753Y-110805546D01*
X131390000Y-110815328D01*
X131390000Y-110854520D01*
X131390001Y-110854530D01*
X131390000Y-113051923D01*
X130749221Y-113051923D01*
X130743996Y-113050338D01*
X130588266Y-113035000D01*
X129167605Y-113035000D01*
X129230546Y-112917247D01*
X129274003Y-112773986D01*
X129288677Y-112625000D01*
X129285000Y-112245000D01*
X129095000Y-112055000D01*
X127830000Y-112055000D01*
X127830000Y-112075000D01*
X127820000Y-112075000D01*
X127820000Y-112055000D01*
X126555000Y-112055000D01*
X126365000Y-112245000D01*
X126361323Y-112625000D01*
X126375997Y-112773986D01*
X126419454Y-112917247D01*
X126490026Y-113049276D01*
X126577795Y-113156223D01*
X126532158Y-113211831D01*
X126438484Y-113387082D01*
X126380801Y-113577241D01*
X126361323Y-113774999D01*
X126361323Y-114157189D01*
X126090308Y-113600392D01*
X125937619Y-113371875D01*
X125434189Y-113072882D01*
X123007071Y-115500000D01*
X125434189Y-117927118D01*
X125937619Y-117628125D01*
X125961045Y-117588029D01*
X125961045Y-119303681D01*
X125927898Y-119289474D01*
X125917428Y-119286232D01*
X125824010Y-119258027D01*
X125754224Y-119244209D01*
X125684617Y-119229414D01*
X125673717Y-119228268D01*
X125576599Y-119218746D01*
X125576594Y-119218746D01*
X125538561Y-119215000D01*
X121538388Y-119215000D01*
X121264738Y-119188168D01*
X121038435Y-119119843D01*
X120829712Y-119008864D01*
X120646523Y-118859458D01*
X120495841Y-118677314D01*
X120383409Y-118469377D01*
X120313504Y-118243552D01*
X120285000Y-117972353D01*
X120285000Y-117934189D01*
X120572882Y-117934189D01*
X120871875Y-118437619D01*
X121485867Y-118796350D01*
X122158047Y-119028404D01*
X122862583Y-119124863D01*
X123572399Y-119082021D01*
X124260218Y-118901524D01*
X124899608Y-118590308D01*
X125128125Y-118437619D01*
X125427118Y-117934189D01*
X123000000Y-115507071D01*
X120572882Y-117934189D01*
X120285000Y-117934189D01*
X120285000Y-117760341D01*
X120565811Y-117927118D01*
X122992929Y-115500000D01*
X120565811Y-113072882D01*
X120285000Y-113239659D01*
X120285000Y-113065811D01*
X120572882Y-113065811D01*
X123000000Y-115492929D01*
X125427118Y-113065811D01*
X125128125Y-112562381D01*
X124514133Y-112203650D01*
X123841953Y-111971596D01*
X123137417Y-111875137D01*
X122427601Y-111917979D01*
X121739782Y-112098476D01*
X121100392Y-112409692D01*
X120871875Y-112562381D01*
X120572882Y-113065811D01*
X120285000Y-113065811D01*
X120285000Y-111475000D01*
X126361323Y-111475000D01*
X126365000Y-111855000D01*
X126555000Y-112045000D01*
X127820000Y-112045000D01*
X127820000Y-110905000D01*
X127830000Y-110905000D01*
X127830000Y-112045000D01*
X129095000Y-112045000D01*
X129285000Y-111855000D01*
X129288677Y-111475000D01*
X129274003Y-111326014D01*
X129230546Y-111182753D01*
X129159974Y-111050724D01*
X129065001Y-110934999D01*
X128949276Y-110840026D01*
X128817247Y-110769454D01*
X128673986Y-110725997D01*
X128525000Y-110711323D01*
X128020000Y-110715000D01*
X127830000Y-110905000D01*
X127820000Y-110905000D01*
X127630000Y-110715000D01*
X127125000Y-110711323D01*
X126976014Y-110725997D01*
X126832753Y-110769454D01*
X126700724Y-110840026D01*
X126584999Y-110934999D01*
X126490026Y-111050724D01*
X126419454Y-111182753D01*
X126375997Y-111326014D01*
X126361323Y-111475000D01*
X120285000Y-111475000D01*
X120285000Y-107038388D01*
X120311832Y-106764740D01*
X120380158Y-106538432D01*
X120491137Y-106329712D01*
X120640544Y-106146522D01*
X120822688Y-105995838D01*
X121030624Y-105883408D01*
X121256447Y-105813504D01*
X121527647Y-105785000D01*
X183461612Y-105785000D01*
X183735260Y-105811832D01*
X183735260Y-105811832D01*
G37*
X183735260Y-105811832D02*
X183961568Y-105880158D01*
X184170288Y-105991137D01*
X184353478Y-106140544D01*
X184504162Y-106322688D01*
X184616592Y-106530624D01*
X184686496Y-106756447D01*
X184715001Y-107027656D01*
X184715000Y-113239659D01*
X184434189Y-113072882D01*
X182007071Y-115500000D01*
X184434189Y-117927118D01*
X184715000Y-117760341D01*
X184715000Y-117961612D01*
X184688168Y-118235262D01*
X184619843Y-118461565D01*
X184508864Y-118670288D01*
X184359458Y-118853477D01*
X184177314Y-119004159D01*
X183969377Y-119116591D01*
X183743552Y-119186496D01*
X183472353Y-119215000D01*
X179461439Y-119215000D01*
X179428305Y-119218264D01*
X179425364Y-119218243D01*
X179414456Y-119219312D01*
X179366691Y-119224332D01*
X179346113Y-119226359D01*
X179345427Y-119226567D01*
X179317407Y-119229512D01*
X179247691Y-119243822D01*
X179177824Y-119257151D01*
X179167331Y-119260318D01*
X179074112Y-119289174D01*
X179008464Y-119316770D01*
X178942551Y-119343401D01*
X178932881Y-119348542D01*
X178932878Y-119348543D01*
X178932876Y-119348545D01*
X178932873Y-119348546D01*
X178847035Y-119394959D01*
X178788022Y-119434764D01*
X178728519Y-119473702D01*
X178720027Y-119480627D01*
X178720023Y-119480630D01*
X178720019Y-119480634D01*
X178644836Y-119542831D01*
X178594684Y-119593335D01*
X178543874Y-119643091D01*
X178536888Y-119651535D01*
X178536882Y-119651541D01*
X178536877Y-119651548D01*
X178475212Y-119727156D01*
X178435836Y-119786420D01*
X178395636Y-119845132D01*
X178390423Y-119854773D01*
X178344611Y-119940934D01*
X178317489Y-120006737D01*
X178289474Y-120072102D01*
X178286232Y-120082572D01*
X178258027Y-120175990D01*
X178244209Y-120245776D01*
X178229414Y-120315383D01*
X178228268Y-120326283D01*
X178218746Y-120423401D01*
X178218746Y-120423407D01*
X178215000Y-120461440D01*
X178215001Y-125715000D01*
X173243780Y-125715000D01*
X173302823Y-125520360D01*
X173327151Y-125273357D01*
X173321055Y-125211464D01*
X173321055Y-124444706D01*
X173447973Y-124290056D01*
X173602116Y-124001675D01*
X173697036Y-123688764D01*
X173721055Y-123444897D01*
X173721055Y-121481797D01*
X173719311Y-121464087D01*
X174211055Y-121955832D01*
X174211055Y-123444897D01*
X174235075Y-123688764D01*
X174329995Y-124001675D01*
X174484138Y-124290056D01*
X174691579Y-124542824D01*
X174944347Y-124750265D01*
X175232728Y-124904408D01*
X175545639Y-124999328D01*
X175871055Y-125031379D01*
X176196472Y-124999328D01*
X176509383Y-124904408D01*
X176797764Y-124750265D01*
X177050532Y-124542824D01*
X177257973Y-124290056D01*
X177412116Y-124001675D01*
X177507036Y-123688764D01*
X177531055Y-123444897D01*
X177531055Y-121481797D01*
X177507036Y-121237930D01*
X177412116Y-120925019D01*
X177257973Y-120636638D01*
X177050532Y-120383870D01*
X176797763Y-120176429D01*
X176509382Y-120022286D01*
X176196471Y-119927366D01*
X175871055Y-119895315D01*
X175545638Y-119927366D01*
X175374160Y-119979383D01*
X174339405Y-118944628D01*
X174388800Y-118944400D01*
X174578800Y-118754400D01*
X174578800Y-117910000D01*
X174588800Y-117910000D01*
X174588800Y-118754400D01*
X174778800Y-118944400D01*
X175574400Y-118948077D01*
X175723386Y-118933403D01*
X175866647Y-118889946D01*
X175998676Y-118819374D01*
X176114401Y-118724401D01*
X176209374Y-118608676D01*
X176279946Y-118476647D01*
X176323403Y-118333386D01*
X176338077Y-118184400D01*
X176334400Y-118100000D01*
X176168589Y-117934189D01*
X179572882Y-117934189D01*
X179871875Y-118437619D01*
X180485867Y-118796350D01*
X181158047Y-119028404D01*
X181862583Y-119124863D01*
X182572399Y-119082021D01*
X183260218Y-118901524D01*
X183899608Y-118590308D01*
X184128125Y-118437619D01*
X184427118Y-117934189D01*
X182000000Y-115507071D01*
X179572882Y-117934189D01*
X176168589Y-117934189D01*
X176144400Y-117910000D01*
X174588800Y-117910000D01*
X174578800Y-117910000D01*
X174558800Y-117910000D01*
X174558800Y-117900000D01*
X174578800Y-117900000D01*
X174578800Y-117880000D01*
X174588800Y-117880000D01*
X174588800Y-117900000D01*
X176144400Y-117900000D01*
X176334400Y-117710000D01*
X176338077Y-117625600D01*
X176323403Y-117476614D01*
X176279946Y-117333353D01*
X176246083Y-117270000D01*
X176279946Y-117206647D01*
X176323403Y-117063386D01*
X176338077Y-116914400D01*
X176338077Y-116355600D01*
X176323403Y-116206614D01*
X176279946Y-116063353D01*
X176246083Y-116000000D01*
X176279946Y-115936647D01*
X176323403Y-115793386D01*
X176338077Y-115644400D01*
X176338077Y-115362583D01*
X178375137Y-115362583D01*
X178417979Y-116072399D01*
X178598476Y-116760218D01*
X178909692Y-117399608D01*
X179062381Y-117628125D01*
X179565811Y-117927118D01*
X181992929Y-115500000D01*
X179565811Y-113072882D01*
X179062381Y-113371875D01*
X178703650Y-113985867D01*
X178471596Y-114658047D01*
X178375137Y-115362583D01*
X176338077Y-115362583D01*
X176338077Y-115085600D01*
X176323403Y-114936614D01*
X176279946Y-114793353D01*
X176246083Y-114730000D01*
X176279946Y-114666647D01*
X176323403Y-114523386D01*
X176338077Y-114374400D01*
X176338077Y-113815600D01*
X176323403Y-113666614D01*
X176279946Y-113523353D01*
X176209374Y-113391324D01*
X176114401Y-113275599D01*
X175998676Y-113180626D01*
X175866647Y-113110054D01*
X175723386Y-113066597D01*
X175715406Y-113065811D01*
X179572882Y-113065811D01*
X182000000Y-115492929D01*
X184427118Y-113065811D01*
X184128125Y-112562381D01*
X183514133Y-112203650D01*
X182841953Y-111971596D01*
X182137417Y-111875137D01*
X181427601Y-111917979D01*
X180739782Y-112098476D01*
X180100392Y-112409692D01*
X179871875Y-112562381D01*
X179572882Y-113065811D01*
X175715406Y-113065811D01*
X175574400Y-113051923D01*
X175110500Y-113051923D01*
X174560000Y-112501424D01*
X174560000Y-110421812D01*
X174593950Y-110393950D01*
X174795143Y-110148796D01*
X174944643Y-109869101D01*
X175036705Y-109565615D01*
X175067790Y-109250000D01*
X175036705Y-108934385D01*
X174944643Y-108630899D01*
X174795143Y-108351204D01*
X174593950Y-108106050D01*
X174348796Y-107904857D01*
X174069101Y-107755357D01*
X173765615Y-107663295D01*
X173529094Y-107640000D01*
X173370906Y-107640000D01*
X173134385Y-107663295D01*
X172830899Y-107755357D01*
X172551204Y-107904857D01*
X172306050Y-108106050D01*
X172180000Y-108259642D01*
X172053950Y-108106050D01*
X171808796Y-107904857D01*
X171529101Y-107755357D01*
X171225615Y-107663295D01*
X170989094Y-107640000D01*
X170830906Y-107640000D01*
X170594385Y-107663295D01*
X170290899Y-107755357D01*
X170011204Y-107904857D01*
X169766050Y-108106050D01*
X169640000Y-108259642D01*
X169513950Y-108106050D01*
X169268796Y-107904857D01*
X168989101Y-107755357D01*
X168685615Y-107663295D01*
X168449094Y-107640000D01*
X168290906Y-107640000D01*
X168054385Y-107663295D01*
X167750899Y-107755357D01*
X167471204Y-107904857D01*
X167226050Y-108106050D01*
X167094686Y-108266117D01*
X167008859Y-108153464D01*
X166772284Y-107944550D01*
X166499498Y-107785803D01*
X166200983Y-107683325D01*
X166086797Y-107660612D01*
X165835000Y-107830009D01*
X165835000Y-109245000D01*
X165855000Y-109245000D01*
X165855000Y-109255000D01*
X165835000Y-109255000D01*
X165835000Y-110669991D01*
X166086797Y-110839388D01*
X166200983Y-110816675D01*
X166499498Y-110714197D01*
X166772284Y-110555450D01*
X167008859Y-110346536D01*
X167094686Y-110233883D01*
X167110000Y-110252543D01*
X167110001Y-112283090D01*
X166756769Y-112636323D01*
X166749999Y-112636323D01*
X166552241Y-112655801D01*
X166362082Y-112713484D01*
X166186831Y-112807158D01*
X166131223Y-112852795D01*
X166024276Y-112765026D01*
X165892247Y-112694454D01*
X165748986Y-112650997D01*
X165600000Y-112636323D01*
X165220000Y-112640000D01*
X165030000Y-112830000D01*
X165030000Y-114095000D01*
X165050000Y-114095000D01*
X165050000Y-114105000D01*
X165030000Y-114105000D01*
X165030000Y-114125000D01*
X165020000Y-114125000D01*
X165020000Y-114105000D01*
X163880000Y-114105000D01*
X163690000Y-114295000D01*
X163686323Y-114800000D01*
X163700997Y-114948986D01*
X163744454Y-115092247D01*
X163815026Y-115224276D01*
X163909999Y-115340001D01*
X164025724Y-115434974D01*
X164157753Y-115505546D01*
X164301014Y-115549003D01*
X164450000Y-115563677D01*
X164830000Y-115560000D01*
X164934464Y-115455536D01*
X164910548Y-115698357D01*
X164916644Y-115760250D01*
X164916643Y-124013357D01*
X164365872Y-124013357D01*
X164372116Y-124001675D01*
X164467036Y-123688764D01*
X164491055Y-123444897D01*
X164491055Y-121481797D01*
X164467036Y-121237930D01*
X164372116Y-120925019D01*
X164217973Y-120636638D01*
X164010532Y-120383870D01*
X163757763Y-120176429D01*
X163469382Y-120022286D01*
X163156471Y-119927366D01*
X162831055Y-119895315D01*
X162505638Y-119927366D01*
X162361626Y-119971051D01*
X161335038Y-118944464D01*
X161348800Y-118944400D01*
X161538800Y-118754400D01*
X161538800Y-117910000D01*
X161548800Y-117910000D01*
X161548800Y-118754400D01*
X161738800Y-118944400D01*
X162534400Y-118948077D01*
X162683386Y-118933403D01*
X162826647Y-118889946D01*
X162958676Y-118819374D01*
X163074401Y-118724401D01*
X163169374Y-118608676D01*
X163239946Y-118476647D01*
X163283403Y-118333386D01*
X163298077Y-118184400D01*
X163294400Y-118100000D01*
X163104400Y-117910000D01*
X161548800Y-117910000D01*
X161538800Y-117910000D01*
X161518800Y-117910000D01*
X161518800Y-117900000D01*
X161538800Y-117900000D01*
X161538800Y-117880000D01*
X161548800Y-117880000D01*
X161548800Y-117900000D01*
X163104400Y-117900000D01*
X163294400Y-117710000D01*
X163298077Y-117625600D01*
X163283403Y-117476614D01*
X163239946Y-117333353D01*
X163206083Y-117270000D01*
X163239946Y-117206647D01*
X163283403Y-117063386D01*
X163298077Y-116914400D01*
X163298077Y-116355600D01*
X163283403Y-116206614D01*
X163239946Y-116063353D01*
X163206083Y-116000000D01*
X163239946Y-115936647D01*
X163283403Y-115793386D01*
X163298077Y-115644400D01*
X163298077Y-115085600D01*
X163283403Y-114936614D01*
X163239946Y-114793353D01*
X163206083Y-114730000D01*
X163239946Y-114666647D01*
X163283403Y-114523386D01*
X163298077Y-114374400D01*
X163298077Y-113910500D01*
X163687207Y-113521370D01*
X163690000Y-113905000D01*
X163880000Y-114095000D01*
X165020000Y-114095000D01*
X165020000Y-112830000D01*
X164830000Y-112640000D01*
X164450000Y-112636323D01*
X164360039Y-112645183D01*
X164383938Y-112566398D01*
X164397684Y-112426833D01*
X164405370Y-112348800D01*
X164400000Y-112294279D01*
X164400000Y-110421812D01*
X164433950Y-110393950D01*
X164565314Y-110233883D01*
X164651141Y-110346536D01*
X164887716Y-110555450D01*
X165160502Y-110714197D01*
X165459017Y-110816675D01*
X165573203Y-110839388D01*
X165825000Y-110669991D01*
X165825000Y-109255000D01*
X165805000Y-109255000D01*
X165805000Y-109245000D01*
X165825000Y-109245000D01*
X165825000Y-107830009D01*
X165573203Y-107660612D01*
X165459017Y-107683325D01*
X165160502Y-107785803D01*
X164887716Y-107944550D01*
X164651141Y-108153464D01*
X164565314Y-108266117D01*
X164433950Y-108106050D01*
X164188796Y-107904857D01*
X163909101Y-107755357D01*
X163605615Y-107663295D01*
X163369094Y-107640000D01*
X163210906Y-107640000D01*
X162974385Y-107663295D01*
X162670899Y-107755357D01*
X162391204Y-107904857D01*
X162256281Y-108015586D01*
X162234974Y-107975724D01*
X162140001Y-107859999D01*
X162024276Y-107765026D01*
X161892247Y-107694454D01*
X161748986Y-107650997D01*
X161600000Y-107636323D01*
X159900000Y-107636323D01*
X159751014Y-107650997D01*
X159607753Y-107694454D01*
X159475724Y-107765026D01*
X159359999Y-107859999D01*
X159265026Y-107975724D01*
X159194454Y-108107753D01*
X159150997Y-108251014D01*
X159136323Y-108400000D01*
X159136323Y-110100000D01*
X159150997Y-110248986D01*
X159194454Y-110392247D01*
X159265026Y-110524276D01*
X159351085Y-110629139D01*
X158946871Y-111033353D01*
X158904513Y-111068115D01*
X158765803Y-111237135D01*
X158689261Y-111380334D01*
X158662731Y-111429968D01*
X158599261Y-111639204D01*
X158577829Y-111856801D01*
X158583199Y-111911323D01*
X158583200Y-113518823D01*
X158362941Y-113739083D01*
X158355803Y-113666614D01*
X158312346Y-113523353D01*
X158241774Y-113391324D01*
X158146801Y-113275599D01*
X158031076Y-113180626D01*
X157899047Y-113110054D01*
X157755786Y-113066597D01*
X157606800Y-113051923D01*
X156829221Y-113051923D01*
X156823996Y-113050338D01*
X156668266Y-113035000D01*
X155150305Y-113035000D01*
X155066778Y-112933222D01*
X154913169Y-112807158D01*
X154737918Y-112713484D01*
X154547759Y-112655801D01*
X154350001Y-112636323D01*
X153699999Y-112636323D01*
X153502241Y-112655801D01*
X153312082Y-112713484D01*
X153136831Y-112807158D01*
X153081223Y-112852795D01*
X152974276Y-112765026D01*
X152842247Y-112694454D01*
X152698986Y-112650997D01*
X152550000Y-112636323D01*
X152170000Y-112640000D01*
X151980000Y-112830000D01*
X151980000Y-114095000D01*
X152000000Y-114095000D01*
X152000000Y-114105000D01*
X151980000Y-114105000D01*
X151980000Y-114125000D01*
X151970000Y-114125000D01*
X151970000Y-114105000D01*
X150830000Y-114105000D01*
X150640000Y-114295000D01*
X150636323Y-114800000D01*
X150650997Y-114948986D01*
X150694454Y-115092247D01*
X150765026Y-115224276D01*
X150859999Y-115340001D01*
X150975724Y-115434974D01*
X151107753Y-115505546D01*
X151251014Y-115549003D01*
X151400000Y-115563677D01*
X151780000Y-115560000D01*
X151806178Y-115533822D01*
X151782262Y-115776643D01*
X151788358Y-115838536D01*
X151788357Y-124013357D01*
X151325872Y-124013357D01*
X151332116Y-124001675D01*
X151427036Y-123688764D01*
X151451055Y-123444897D01*
X151451055Y-121481797D01*
X151427036Y-121237930D01*
X151332116Y-120925019D01*
X151177973Y-120636638D01*
X150970532Y-120383870D01*
X150717763Y-120176429D01*
X150429382Y-120022286D01*
X150116471Y-119927366D01*
X149791055Y-119895315D01*
X149465638Y-119927366D01*
X149297996Y-119978219D01*
X148264382Y-118944605D01*
X148308800Y-118944400D01*
X148498800Y-118754400D01*
X148498800Y-117910000D01*
X148508800Y-117910000D01*
X148508800Y-118754400D01*
X148698800Y-118944400D01*
X149494400Y-118948077D01*
X149643386Y-118933403D01*
X149786647Y-118889946D01*
X149918676Y-118819374D01*
X150034401Y-118724401D01*
X150129374Y-118608676D01*
X150199946Y-118476647D01*
X150243403Y-118333386D01*
X150258077Y-118184400D01*
X150254400Y-118100000D01*
X150064400Y-117910000D01*
X148508800Y-117910000D01*
X148498800Y-117910000D01*
X148478800Y-117910000D01*
X148478800Y-117900000D01*
X148498800Y-117900000D01*
X148498800Y-117880000D01*
X148508800Y-117880000D01*
X148508800Y-117900000D01*
X150064400Y-117900000D01*
X150254400Y-117710000D01*
X150258077Y-117625600D01*
X150243403Y-117476614D01*
X150199946Y-117333353D01*
X150166083Y-117270000D01*
X150199946Y-117206647D01*
X150243403Y-117063386D01*
X150258077Y-116914400D01*
X150258077Y-116355600D01*
X150243403Y-116206614D01*
X150199946Y-116063353D01*
X150166083Y-116000000D01*
X150199946Y-115936647D01*
X150243403Y-115793386D01*
X150258077Y-115644400D01*
X150258077Y-115085600D01*
X150243403Y-114936614D01*
X150199946Y-114793353D01*
X150166083Y-114730000D01*
X150199946Y-114666647D01*
X150243403Y-114523386D01*
X150258077Y-114374400D01*
X150258077Y-113815600D01*
X150243403Y-113666614D01*
X150199946Y-113523353D01*
X150134012Y-113400000D01*
X150636323Y-113400000D01*
X150640000Y-113905000D01*
X150830000Y-114095000D01*
X151970000Y-114095000D01*
X151970000Y-112830000D01*
X151780000Y-112640000D01*
X151400000Y-112636323D01*
X151251014Y-112650997D01*
X151107753Y-112694454D01*
X150975724Y-112765026D01*
X150859999Y-112859999D01*
X150765026Y-112975724D01*
X150694454Y-113107753D01*
X150650997Y-113251014D01*
X150636323Y-113400000D01*
X150134012Y-113400000D01*
X150129374Y-113391324D01*
X150034401Y-113275599D01*
X149918676Y-113180626D01*
X149786647Y-113110054D01*
X149643386Y-113066597D01*
X149613800Y-113063683D01*
X149613800Y-111696237D01*
X149619170Y-111641718D01*
X149611855Y-111567451D01*
X149597738Y-111424121D01*
X149534268Y-111214885D01*
X149431196Y-111022053D01*
X149292486Y-110853033D01*
X149250133Y-110818275D01*
X146935529Y-108503672D01*
X146900767Y-108461314D01*
X146731747Y-108322604D01*
X146538915Y-108219532D01*
X146403329Y-108178403D01*
X146343950Y-108106050D01*
X146098796Y-107904857D01*
X145819101Y-107755357D01*
X145515615Y-107663295D01*
X145279094Y-107640000D01*
X145120906Y-107640000D01*
X144884385Y-107663295D01*
X144580899Y-107755357D01*
X144301204Y-107904857D01*
X144056050Y-108106050D01*
X143930000Y-108259642D01*
X143803950Y-108106050D01*
X143558796Y-107904857D01*
X143279101Y-107755357D01*
X142975615Y-107663295D01*
X142739094Y-107640000D01*
X142580906Y-107640000D01*
X142344385Y-107663295D01*
X142040899Y-107755357D01*
X141761204Y-107904857D01*
X141516050Y-108106050D01*
X141384686Y-108266117D01*
X141298859Y-108153464D01*
X141062284Y-107944550D01*
X140789498Y-107785803D01*
X140490983Y-107683325D01*
X140376797Y-107660612D01*
X140125000Y-107830009D01*
X140125000Y-109245000D01*
X140145000Y-109245000D01*
X140145000Y-109255000D01*
X140125000Y-109255000D01*
X140125000Y-110669991D01*
X140376797Y-110839388D01*
X140490983Y-110816675D01*
X140789498Y-110714197D01*
X141062284Y-110555450D01*
X141298859Y-110346536D01*
X141384686Y-110233883D01*
X141516050Y-110393950D01*
X141761204Y-110595143D01*
X142040899Y-110744643D01*
X142344385Y-110836705D01*
X142391577Y-110841353D01*
X144390001Y-112839778D01*
X144390001Y-113051923D01*
X143789221Y-113051923D01*
X143783996Y-113050338D01*
X143628266Y-113035000D01*
X142125305Y-113035000D01*
X142041778Y-112933222D01*
X141888169Y-112807158D01*
X141712918Y-112713484D01*
X141522759Y-112655801D01*
X141325001Y-112636323D01*
X140674999Y-112636323D01*
X140477241Y-112655801D01*
X140287082Y-112713484D01*
X140111831Y-112807158D01*
X140056223Y-112852795D01*
X139949276Y-112765026D01*
X139817247Y-112694454D01*
X139673986Y-112650997D01*
X139525000Y-112636323D01*
X139145000Y-112640000D01*
X138955000Y-112830000D01*
X138955000Y-114095000D01*
X138975000Y-114095000D01*
X138975000Y-114105000D01*
X138955000Y-114105000D01*
X138955000Y-114125000D01*
X138945000Y-114125000D01*
X138945000Y-114105000D01*
X137805000Y-114105000D01*
X137615000Y-114295000D01*
X137611323Y-114800000D01*
X137625997Y-114948986D01*
X137669454Y-115092247D01*
X137740026Y-115224276D01*
X137834999Y-115340001D01*
X137950724Y-115434974D01*
X138082753Y-115505546D01*
X138226014Y-115549003D01*
X138375000Y-115563677D01*
X138755000Y-115560000D01*
X138834464Y-115480536D01*
X138810548Y-115723357D01*
X138816644Y-115785250D01*
X138816643Y-124013357D01*
X138285872Y-124013357D01*
X138292116Y-124001675D01*
X138387036Y-123688764D01*
X138411055Y-123444897D01*
X138411055Y-121481797D01*
X138387036Y-121237930D01*
X138292116Y-120925019D01*
X138137973Y-120636638D01*
X137930532Y-120383870D01*
X137677763Y-120176429D01*
X137389382Y-120022286D01*
X137076471Y-119927366D01*
X136751055Y-119895315D01*
X136425638Y-119927366D01*
X136250324Y-119980547D01*
X135214428Y-118944651D01*
X135268800Y-118944400D01*
X135458800Y-118754400D01*
X135458800Y-117910000D01*
X135468800Y-117910000D01*
X135468800Y-118754400D01*
X135658800Y-118944400D01*
X136454400Y-118948077D01*
X136603386Y-118933403D01*
X136746647Y-118889946D01*
X136878676Y-118819374D01*
X136994401Y-118724401D01*
X137089374Y-118608676D01*
X137159946Y-118476647D01*
X137203403Y-118333386D01*
X137218077Y-118184400D01*
X137214400Y-118100000D01*
X137024400Y-117910000D01*
X135468800Y-117910000D01*
X135458800Y-117910000D01*
X135438800Y-117910000D01*
X135438800Y-117900000D01*
X135458800Y-117900000D01*
X135458800Y-117880000D01*
X135468800Y-117880000D01*
X135468800Y-117900000D01*
X137024400Y-117900000D01*
X137214400Y-117710000D01*
X137218077Y-117625600D01*
X137203403Y-117476614D01*
X137159946Y-117333353D01*
X137126083Y-117270000D01*
X137159946Y-117206647D01*
X137203403Y-117063386D01*
X137218077Y-116914400D01*
X137218077Y-116355600D01*
X137203403Y-116206614D01*
X137159946Y-116063353D01*
X137126083Y-116000000D01*
X137159946Y-115936647D01*
X137203403Y-115793386D01*
X137218077Y-115644400D01*
X137218077Y-115085600D01*
X137203403Y-114936614D01*
X137159946Y-114793353D01*
X137126083Y-114730000D01*
X137159946Y-114666647D01*
X137203403Y-114523386D01*
X137218077Y-114374400D01*
X137218077Y-113815600D01*
X137203403Y-113666614D01*
X137159946Y-113523353D01*
X137094012Y-113400000D01*
X137611323Y-113400000D01*
X137615000Y-113905000D01*
X137805000Y-114095000D01*
X138945000Y-114095000D01*
X138945000Y-112830000D01*
X138755000Y-112640000D01*
X138375000Y-112636323D01*
X138226014Y-112650997D01*
X138082753Y-112694454D01*
X137950724Y-112765026D01*
X137834999Y-112859999D01*
X137740026Y-112975724D01*
X137669454Y-113107753D01*
X137625997Y-113251014D01*
X137611323Y-113400000D01*
X137094012Y-113400000D01*
X137089374Y-113391324D01*
X136994401Y-113275599D01*
X136878676Y-113180626D01*
X136746647Y-113110054D01*
X136603386Y-113066597D01*
X136573800Y-113063683D01*
X136573800Y-110499007D01*
X136637716Y-110555450D01*
X136910502Y-110714197D01*
X137209017Y-110816675D01*
X137323203Y-110839388D01*
X137575000Y-110669991D01*
X137575000Y-109255000D01*
X137585000Y-109255000D01*
X137585000Y-110669991D01*
X137836797Y-110839388D01*
X137950983Y-110816675D01*
X138249498Y-110714197D01*
X138522284Y-110555450D01*
X138758859Y-110346536D01*
X138850000Y-110226909D01*
X138941141Y-110346536D01*
X139177716Y-110555450D01*
X139450502Y-110714197D01*
X139749017Y-110816675D01*
X139863203Y-110839388D01*
X140115000Y-110669991D01*
X140115000Y-109255000D01*
X137585000Y-109255000D01*
X137575000Y-109255000D01*
X137555000Y-109255000D01*
X137555000Y-109245000D01*
X137575000Y-109245000D01*
X137575000Y-107830009D01*
X137585000Y-107830009D01*
X137585000Y-109245000D01*
X140115000Y-109245000D01*
X140115000Y-107830009D01*
X139863203Y-107660612D01*
X139749017Y-107683325D01*
X139450502Y-107785803D01*
X139177716Y-107944550D01*
X138941141Y-108153464D01*
X138850000Y-108273091D01*
X138758859Y-108153464D01*
X138522284Y-107944550D01*
X138249498Y-107785803D01*
X137950983Y-107683325D01*
X137836797Y-107660612D01*
X137585000Y-107830009D01*
X137575000Y-107830009D01*
X137323203Y-107660612D01*
X137209017Y-107683325D01*
X136910502Y-107785803D01*
X136637716Y-107944550D01*
X136401141Y-108153464D01*
X136315314Y-108266117D01*
X136183950Y-108106050D01*
X135938796Y-107904857D01*
X135659101Y-107755357D01*
X135355615Y-107663295D01*
X135119094Y-107640000D01*
X134960906Y-107640000D01*
X134724385Y-107663295D01*
X134420899Y-107755357D01*
X134141204Y-107904857D01*
X134006281Y-108015586D01*
X133984974Y-107975724D01*
X133890001Y-107859999D01*
X133774276Y-107765026D01*
X133642247Y-107694454D01*
X133498986Y-107650997D01*
X133350000Y-107636323D01*
X131650000Y-107636323D01*
X131501014Y-107650997D01*
X131357753Y-107694454D01*
X131225724Y-107765026D01*
X131109999Y-107859999D01*
X131015026Y-107975724D01*
X130944454Y-108107753D01*
X130900997Y-108251014D01*
X130886323Y-108400000D01*
X130886323Y-110100000D01*
X130900997Y-110248986D01*
X130944454Y-110392247D01*
X131015026Y-110524276D01*
X131109999Y-110640001D01*
X131225724Y-110734974D01*
X131357753Y-110805546D01*
X131390000Y-110815328D01*
X131390000Y-110854520D01*
X131390001Y-110854530D01*
X131390000Y-113051923D01*
X130749221Y-113051923D01*
X130743996Y-113050338D01*
X130588266Y-113035000D01*
X129167605Y-113035000D01*
X129230546Y-112917247D01*
X129274003Y-112773986D01*
X129288677Y-112625000D01*
X129285000Y-112245000D01*
X129095000Y-112055000D01*
X127830000Y-112055000D01*
X127830000Y-112075000D01*
X127820000Y-112075000D01*
X127820000Y-112055000D01*
X126555000Y-112055000D01*
X126365000Y-112245000D01*
X126361323Y-112625000D01*
X126375997Y-112773986D01*
X126419454Y-112917247D01*
X126490026Y-113049276D01*
X126577795Y-113156223D01*
X126532158Y-113211831D01*
X126438484Y-113387082D01*
X126380801Y-113577241D01*
X126361323Y-113774999D01*
X126361323Y-114157189D01*
X126090308Y-113600392D01*
X125937619Y-113371875D01*
X125434189Y-113072882D01*
X123007071Y-115500000D01*
X125434189Y-117927118D01*
X125937619Y-117628125D01*
X125961045Y-117588029D01*
X125961045Y-119303681D01*
X125927898Y-119289474D01*
X125917428Y-119286232D01*
X125824010Y-119258027D01*
X125754224Y-119244209D01*
X125684617Y-119229414D01*
X125673717Y-119228268D01*
X125576599Y-119218746D01*
X125576594Y-119218746D01*
X125538561Y-119215000D01*
X121538388Y-119215000D01*
X121264738Y-119188168D01*
X121038435Y-119119843D01*
X120829712Y-119008864D01*
X120646523Y-118859458D01*
X120495841Y-118677314D01*
X120383409Y-118469377D01*
X120313504Y-118243552D01*
X120285000Y-117972353D01*
X120285000Y-117934189D01*
X120572882Y-117934189D01*
X120871875Y-118437619D01*
X121485867Y-118796350D01*
X122158047Y-119028404D01*
X122862583Y-119124863D01*
X123572399Y-119082021D01*
X124260218Y-118901524D01*
X124899608Y-118590308D01*
X125128125Y-118437619D01*
X125427118Y-117934189D01*
X123000000Y-115507071D01*
X120572882Y-117934189D01*
X120285000Y-117934189D01*
X120285000Y-117760341D01*
X120565811Y-117927118D01*
X122992929Y-115500000D01*
X120565811Y-113072882D01*
X120285000Y-113239659D01*
X120285000Y-113065811D01*
X120572882Y-113065811D01*
X123000000Y-115492929D01*
X125427118Y-113065811D01*
X125128125Y-112562381D01*
X124514133Y-112203650D01*
X123841953Y-111971596D01*
X123137417Y-111875137D01*
X122427601Y-111917979D01*
X121739782Y-112098476D01*
X121100392Y-112409692D01*
X120871875Y-112562381D01*
X120572882Y-113065811D01*
X120285000Y-113065811D01*
X120285000Y-111475000D01*
X126361323Y-111475000D01*
X126365000Y-111855000D01*
X126555000Y-112045000D01*
X127820000Y-112045000D01*
X127820000Y-110905000D01*
X127830000Y-110905000D01*
X127830000Y-112045000D01*
X129095000Y-112045000D01*
X129285000Y-111855000D01*
X129288677Y-111475000D01*
X129274003Y-111326014D01*
X129230546Y-111182753D01*
X129159974Y-111050724D01*
X129065001Y-110934999D01*
X128949276Y-110840026D01*
X128817247Y-110769454D01*
X128673986Y-110725997D01*
X128525000Y-110711323D01*
X128020000Y-110715000D01*
X127830000Y-110905000D01*
X127820000Y-110905000D01*
X127630000Y-110715000D01*
X127125000Y-110711323D01*
X126976014Y-110725997D01*
X126832753Y-110769454D01*
X126700724Y-110840026D01*
X126584999Y-110934999D01*
X126490026Y-111050724D01*
X126419454Y-111182753D01*
X126375997Y-111326014D01*
X126361323Y-111475000D01*
X120285000Y-111475000D01*
X120285000Y-107038388D01*
X120311832Y-106764740D01*
X120380158Y-106538432D01*
X120491137Y-106329712D01*
X120640544Y-106146522D01*
X120822688Y-105995838D01*
X121030624Y-105883408D01*
X121256447Y-105813504D01*
X121527647Y-105785000D01*
X183461612Y-105785000D01*
X183735260Y-105811832D01*
M02*
