G04 #@! TF.GenerationSoftware,KiCad,Pcbnew,(5.1.2)-1*
G04 #@! TF.CreationDate,2020-06-05T15:14:38-04:00*
G04 #@! TF.ProjectId,Step_Direction_Board,53746570-5f44-4697-9265-6374696f6e5f,rev?*
G04 #@! TF.SameCoordinates,Original*
G04 #@! TF.FileFunction,Paste,Bot*
G04 #@! TF.FilePolarity,Positive*
%FSLAX46Y46*%
G04 Gerber Fmt 4.6, Leading zero omitted, Abs format (unit mm)*
G04 Created by KiCad (PCBNEW (5.1.2)-1) date 2020-06-05 15:14:38*
%MOMM*%
%LPD*%
G04 APERTURE LIST*
%ADD10C,0.100000*%
%ADD11C,1.150000*%
%ADD12R,1.981200X0.558800*%
G04 APERTURE END LIST*
D10*
G36*
X154374505Y-113401204D02*
G01*
X154398773Y-113404804D01*
X154422572Y-113410765D01*
X154445671Y-113419030D01*
X154467850Y-113429520D01*
X154488893Y-113442132D01*
X154508599Y-113456747D01*
X154526777Y-113473223D01*
X154543253Y-113491401D01*
X154557868Y-113511107D01*
X154570480Y-113532150D01*
X154580970Y-113554329D01*
X154589235Y-113577428D01*
X154595196Y-113601227D01*
X154598796Y-113625495D01*
X154600000Y-113649999D01*
X154600000Y-114550001D01*
X154598796Y-114574505D01*
X154595196Y-114598773D01*
X154589235Y-114622572D01*
X154580970Y-114645671D01*
X154570480Y-114667850D01*
X154557868Y-114688893D01*
X154543253Y-114708599D01*
X154526777Y-114726777D01*
X154508599Y-114743253D01*
X154488893Y-114757868D01*
X154467850Y-114770480D01*
X154445671Y-114780970D01*
X154422572Y-114789235D01*
X154398773Y-114795196D01*
X154374505Y-114798796D01*
X154350001Y-114800000D01*
X153699999Y-114800000D01*
X153675495Y-114798796D01*
X153651227Y-114795196D01*
X153627428Y-114789235D01*
X153604329Y-114780970D01*
X153582150Y-114770480D01*
X153561107Y-114757868D01*
X153541401Y-114743253D01*
X153523223Y-114726777D01*
X153506747Y-114708599D01*
X153492132Y-114688893D01*
X153479520Y-114667850D01*
X153469030Y-114645671D01*
X153460765Y-114622572D01*
X153454804Y-114598773D01*
X153451204Y-114574505D01*
X153450000Y-114550001D01*
X153450000Y-113649999D01*
X153451204Y-113625495D01*
X153454804Y-113601227D01*
X153460765Y-113577428D01*
X153469030Y-113554329D01*
X153479520Y-113532150D01*
X153492132Y-113511107D01*
X153506747Y-113491401D01*
X153523223Y-113473223D01*
X153541401Y-113456747D01*
X153561107Y-113442132D01*
X153582150Y-113429520D01*
X153604329Y-113419030D01*
X153627428Y-113410765D01*
X153651227Y-113404804D01*
X153675495Y-113401204D01*
X153699999Y-113400000D01*
X154350001Y-113400000D01*
X154374505Y-113401204D01*
X154374505Y-113401204D01*
G37*
D11*
X154025000Y-114100000D03*
D10*
G36*
X152324505Y-113401204D02*
G01*
X152348773Y-113404804D01*
X152372572Y-113410765D01*
X152395671Y-113419030D01*
X152417850Y-113429520D01*
X152438893Y-113442132D01*
X152458599Y-113456747D01*
X152476777Y-113473223D01*
X152493253Y-113491401D01*
X152507868Y-113511107D01*
X152520480Y-113532150D01*
X152530970Y-113554329D01*
X152539235Y-113577428D01*
X152545196Y-113601227D01*
X152548796Y-113625495D01*
X152550000Y-113649999D01*
X152550000Y-114550001D01*
X152548796Y-114574505D01*
X152545196Y-114598773D01*
X152539235Y-114622572D01*
X152530970Y-114645671D01*
X152520480Y-114667850D01*
X152507868Y-114688893D01*
X152493253Y-114708599D01*
X152476777Y-114726777D01*
X152458599Y-114743253D01*
X152438893Y-114757868D01*
X152417850Y-114770480D01*
X152395671Y-114780970D01*
X152372572Y-114789235D01*
X152348773Y-114795196D01*
X152324505Y-114798796D01*
X152300001Y-114800000D01*
X151649999Y-114800000D01*
X151625495Y-114798796D01*
X151601227Y-114795196D01*
X151577428Y-114789235D01*
X151554329Y-114780970D01*
X151532150Y-114770480D01*
X151511107Y-114757868D01*
X151491401Y-114743253D01*
X151473223Y-114726777D01*
X151456747Y-114708599D01*
X151442132Y-114688893D01*
X151429520Y-114667850D01*
X151419030Y-114645671D01*
X151410765Y-114622572D01*
X151404804Y-114598773D01*
X151401204Y-114574505D01*
X151400000Y-114550001D01*
X151400000Y-113649999D01*
X151401204Y-113625495D01*
X151404804Y-113601227D01*
X151410765Y-113577428D01*
X151419030Y-113554329D01*
X151429520Y-113532150D01*
X151442132Y-113511107D01*
X151456747Y-113491401D01*
X151473223Y-113473223D01*
X151491401Y-113456747D01*
X151511107Y-113442132D01*
X151532150Y-113429520D01*
X151554329Y-113419030D01*
X151577428Y-113410765D01*
X151601227Y-113404804D01*
X151625495Y-113401204D01*
X151649999Y-113400000D01*
X152300001Y-113400000D01*
X152324505Y-113401204D01*
X152324505Y-113401204D01*
G37*
D11*
X151975000Y-114100000D03*
D12*
X156616200Y-114095000D03*
X156616200Y-115365000D03*
X156616200Y-116635000D03*
X156616200Y-117905000D03*
X161543800Y-117905000D03*
X161543800Y-116635000D03*
X161543800Y-115365000D03*
X161543800Y-114095000D03*
D10*
G36*
X167424505Y-113401204D02*
G01*
X167448773Y-113404804D01*
X167472572Y-113410765D01*
X167495671Y-113419030D01*
X167517850Y-113429520D01*
X167538893Y-113442132D01*
X167558599Y-113456747D01*
X167576777Y-113473223D01*
X167593253Y-113491401D01*
X167607868Y-113511107D01*
X167620480Y-113532150D01*
X167630970Y-113554329D01*
X167639235Y-113577428D01*
X167645196Y-113601227D01*
X167648796Y-113625495D01*
X167650000Y-113649999D01*
X167650000Y-114550001D01*
X167648796Y-114574505D01*
X167645196Y-114598773D01*
X167639235Y-114622572D01*
X167630970Y-114645671D01*
X167620480Y-114667850D01*
X167607868Y-114688893D01*
X167593253Y-114708599D01*
X167576777Y-114726777D01*
X167558599Y-114743253D01*
X167538893Y-114757868D01*
X167517850Y-114770480D01*
X167495671Y-114780970D01*
X167472572Y-114789235D01*
X167448773Y-114795196D01*
X167424505Y-114798796D01*
X167400001Y-114800000D01*
X166749999Y-114800000D01*
X166725495Y-114798796D01*
X166701227Y-114795196D01*
X166677428Y-114789235D01*
X166654329Y-114780970D01*
X166632150Y-114770480D01*
X166611107Y-114757868D01*
X166591401Y-114743253D01*
X166573223Y-114726777D01*
X166556747Y-114708599D01*
X166542132Y-114688893D01*
X166529520Y-114667850D01*
X166519030Y-114645671D01*
X166510765Y-114622572D01*
X166504804Y-114598773D01*
X166501204Y-114574505D01*
X166500000Y-114550001D01*
X166500000Y-113649999D01*
X166501204Y-113625495D01*
X166504804Y-113601227D01*
X166510765Y-113577428D01*
X166519030Y-113554329D01*
X166529520Y-113532150D01*
X166542132Y-113511107D01*
X166556747Y-113491401D01*
X166573223Y-113473223D01*
X166591401Y-113456747D01*
X166611107Y-113442132D01*
X166632150Y-113429520D01*
X166654329Y-113419030D01*
X166677428Y-113410765D01*
X166701227Y-113404804D01*
X166725495Y-113401204D01*
X166749999Y-113400000D01*
X167400001Y-113400000D01*
X167424505Y-113401204D01*
X167424505Y-113401204D01*
G37*
D11*
X167075000Y-114100000D03*
D10*
G36*
X165374505Y-113401204D02*
G01*
X165398773Y-113404804D01*
X165422572Y-113410765D01*
X165445671Y-113419030D01*
X165467850Y-113429520D01*
X165488893Y-113442132D01*
X165508599Y-113456747D01*
X165526777Y-113473223D01*
X165543253Y-113491401D01*
X165557868Y-113511107D01*
X165570480Y-113532150D01*
X165580970Y-113554329D01*
X165589235Y-113577428D01*
X165595196Y-113601227D01*
X165598796Y-113625495D01*
X165600000Y-113649999D01*
X165600000Y-114550001D01*
X165598796Y-114574505D01*
X165595196Y-114598773D01*
X165589235Y-114622572D01*
X165580970Y-114645671D01*
X165570480Y-114667850D01*
X165557868Y-114688893D01*
X165543253Y-114708599D01*
X165526777Y-114726777D01*
X165508599Y-114743253D01*
X165488893Y-114757868D01*
X165467850Y-114770480D01*
X165445671Y-114780970D01*
X165422572Y-114789235D01*
X165398773Y-114795196D01*
X165374505Y-114798796D01*
X165350001Y-114800000D01*
X164699999Y-114800000D01*
X164675495Y-114798796D01*
X164651227Y-114795196D01*
X164627428Y-114789235D01*
X164604329Y-114780970D01*
X164582150Y-114770480D01*
X164561107Y-114757868D01*
X164541401Y-114743253D01*
X164523223Y-114726777D01*
X164506747Y-114708599D01*
X164492132Y-114688893D01*
X164479520Y-114667850D01*
X164469030Y-114645671D01*
X164460765Y-114622572D01*
X164454804Y-114598773D01*
X164451204Y-114574505D01*
X164450000Y-114550001D01*
X164450000Y-113649999D01*
X164451204Y-113625495D01*
X164454804Y-113601227D01*
X164460765Y-113577428D01*
X164469030Y-113554329D01*
X164479520Y-113532150D01*
X164492132Y-113511107D01*
X164506747Y-113491401D01*
X164523223Y-113473223D01*
X164541401Y-113456747D01*
X164561107Y-113442132D01*
X164582150Y-113429520D01*
X164604329Y-113419030D01*
X164627428Y-113410765D01*
X164651227Y-113404804D01*
X164675495Y-113401204D01*
X164699999Y-113400000D01*
X165350001Y-113400000D01*
X165374505Y-113401204D01*
X165374505Y-113401204D01*
G37*
D11*
X165025000Y-114100000D03*
D10*
G36*
X141349505Y-113401204D02*
G01*
X141373773Y-113404804D01*
X141397572Y-113410765D01*
X141420671Y-113419030D01*
X141442850Y-113429520D01*
X141463893Y-113442132D01*
X141483599Y-113456747D01*
X141501777Y-113473223D01*
X141518253Y-113491401D01*
X141532868Y-113511107D01*
X141545480Y-113532150D01*
X141555970Y-113554329D01*
X141564235Y-113577428D01*
X141570196Y-113601227D01*
X141573796Y-113625495D01*
X141575000Y-113649999D01*
X141575000Y-114550001D01*
X141573796Y-114574505D01*
X141570196Y-114598773D01*
X141564235Y-114622572D01*
X141555970Y-114645671D01*
X141545480Y-114667850D01*
X141532868Y-114688893D01*
X141518253Y-114708599D01*
X141501777Y-114726777D01*
X141483599Y-114743253D01*
X141463893Y-114757868D01*
X141442850Y-114770480D01*
X141420671Y-114780970D01*
X141397572Y-114789235D01*
X141373773Y-114795196D01*
X141349505Y-114798796D01*
X141325001Y-114800000D01*
X140674999Y-114800000D01*
X140650495Y-114798796D01*
X140626227Y-114795196D01*
X140602428Y-114789235D01*
X140579329Y-114780970D01*
X140557150Y-114770480D01*
X140536107Y-114757868D01*
X140516401Y-114743253D01*
X140498223Y-114726777D01*
X140481747Y-114708599D01*
X140467132Y-114688893D01*
X140454520Y-114667850D01*
X140444030Y-114645671D01*
X140435765Y-114622572D01*
X140429804Y-114598773D01*
X140426204Y-114574505D01*
X140425000Y-114550001D01*
X140425000Y-113649999D01*
X140426204Y-113625495D01*
X140429804Y-113601227D01*
X140435765Y-113577428D01*
X140444030Y-113554329D01*
X140454520Y-113532150D01*
X140467132Y-113511107D01*
X140481747Y-113491401D01*
X140498223Y-113473223D01*
X140516401Y-113456747D01*
X140536107Y-113442132D01*
X140557150Y-113429520D01*
X140579329Y-113419030D01*
X140602428Y-113410765D01*
X140626227Y-113404804D01*
X140650495Y-113401204D01*
X140674999Y-113400000D01*
X141325001Y-113400000D01*
X141349505Y-113401204D01*
X141349505Y-113401204D01*
G37*
D11*
X141000000Y-114100000D03*
D10*
G36*
X139299505Y-113401204D02*
G01*
X139323773Y-113404804D01*
X139347572Y-113410765D01*
X139370671Y-113419030D01*
X139392850Y-113429520D01*
X139413893Y-113442132D01*
X139433599Y-113456747D01*
X139451777Y-113473223D01*
X139468253Y-113491401D01*
X139482868Y-113511107D01*
X139495480Y-113532150D01*
X139505970Y-113554329D01*
X139514235Y-113577428D01*
X139520196Y-113601227D01*
X139523796Y-113625495D01*
X139525000Y-113649999D01*
X139525000Y-114550001D01*
X139523796Y-114574505D01*
X139520196Y-114598773D01*
X139514235Y-114622572D01*
X139505970Y-114645671D01*
X139495480Y-114667850D01*
X139482868Y-114688893D01*
X139468253Y-114708599D01*
X139451777Y-114726777D01*
X139433599Y-114743253D01*
X139413893Y-114757868D01*
X139392850Y-114770480D01*
X139370671Y-114780970D01*
X139347572Y-114789235D01*
X139323773Y-114795196D01*
X139299505Y-114798796D01*
X139275001Y-114800000D01*
X138624999Y-114800000D01*
X138600495Y-114798796D01*
X138576227Y-114795196D01*
X138552428Y-114789235D01*
X138529329Y-114780970D01*
X138507150Y-114770480D01*
X138486107Y-114757868D01*
X138466401Y-114743253D01*
X138448223Y-114726777D01*
X138431747Y-114708599D01*
X138417132Y-114688893D01*
X138404520Y-114667850D01*
X138394030Y-114645671D01*
X138385765Y-114622572D01*
X138379804Y-114598773D01*
X138376204Y-114574505D01*
X138375000Y-114550001D01*
X138375000Y-113649999D01*
X138376204Y-113625495D01*
X138379804Y-113601227D01*
X138385765Y-113577428D01*
X138394030Y-113554329D01*
X138404520Y-113532150D01*
X138417132Y-113511107D01*
X138431747Y-113491401D01*
X138448223Y-113473223D01*
X138466401Y-113456747D01*
X138486107Y-113442132D01*
X138507150Y-113429520D01*
X138529329Y-113419030D01*
X138552428Y-113410765D01*
X138576227Y-113404804D01*
X138600495Y-113401204D01*
X138624999Y-113400000D01*
X139275001Y-113400000D01*
X139299505Y-113401204D01*
X139299505Y-113401204D01*
G37*
D11*
X138950000Y-114100000D03*
D10*
G36*
X128299505Y-113526204D02*
G01*
X128323773Y-113529804D01*
X128347572Y-113535765D01*
X128370671Y-113544030D01*
X128392850Y-113554520D01*
X128413893Y-113567132D01*
X128433599Y-113581747D01*
X128451777Y-113598223D01*
X128468253Y-113616401D01*
X128482868Y-113636107D01*
X128495480Y-113657150D01*
X128505970Y-113679329D01*
X128514235Y-113702428D01*
X128520196Y-113726227D01*
X128523796Y-113750495D01*
X128525000Y-113774999D01*
X128525000Y-114425001D01*
X128523796Y-114449505D01*
X128520196Y-114473773D01*
X128514235Y-114497572D01*
X128505970Y-114520671D01*
X128495480Y-114542850D01*
X128482868Y-114563893D01*
X128468253Y-114583599D01*
X128451777Y-114601777D01*
X128433599Y-114618253D01*
X128413893Y-114632868D01*
X128392850Y-114645480D01*
X128370671Y-114655970D01*
X128347572Y-114664235D01*
X128323773Y-114670196D01*
X128299505Y-114673796D01*
X128275001Y-114675000D01*
X127374999Y-114675000D01*
X127350495Y-114673796D01*
X127326227Y-114670196D01*
X127302428Y-114664235D01*
X127279329Y-114655970D01*
X127257150Y-114645480D01*
X127236107Y-114632868D01*
X127216401Y-114618253D01*
X127198223Y-114601777D01*
X127181747Y-114583599D01*
X127167132Y-114563893D01*
X127154520Y-114542850D01*
X127144030Y-114520671D01*
X127135765Y-114497572D01*
X127129804Y-114473773D01*
X127126204Y-114449505D01*
X127125000Y-114425001D01*
X127125000Y-113774999D01*
X127126204Y-113750495D01*
X127129804Y-113726227D01*
X127135765Y-113702428D01*
X127144030Y-113679329D01*
X127154520Y-113657150D01*
X127167132Y-113636107D01*
X127181747Y-113616401D01*
X127198223Y-113598223D01*
X127216401Y-113581747D01*
X127236107Y-113567132D01*
X127257150Y-113554520D01*
X127279329Y-113544030D01*
X127302428Y-113535765D01*
X127326227Y-113529804D01*
X127350495Y-113526204D01*
X127374999Y-113525000D01*
X128275001Y-113525000D01*
X128299505Y-113526204D01*
X128299505Y-113526204D01*
G37*
D11*
X127825000Y-114100000D03*
D10*
G36*
X128299505Y-111476204D02*
G01*
X128323773Y-111479804D01*
X128347572Y-111485765D01*
X128370671Y-111494030D01*
X128392850Y-111504520D01*
X128413893Y-111517132D01*
X128433599Y-111531747D01*
X128451777Y-111548223D01*
X128468253Y-111566401D01*
X128482868Y-111586107D01*
X128495480Y-111607150D01*
X128505970Y-111629329D01*
X128514235Y-111652428D01*
X128520196Y-111676227D01*
X128523796Y-111700495D01*
X128525000Y-111724999D01*
X128525000Y-112375001D01*
X128523796Y-112399505D01*
X128520196Y-112423773D01*
X128514235Y-112447572D01*
X128505970Y-112470671D01*
X128495480Y-112492850D01*
X128482868Y-112513893D01*
X128468253Y-112533599D01*
X128451777Y-112551777D01*
X128433599Y-112568253D01*
X128413893Y-112582868D01*
X128392850Y-112595480D01*
X128370671Y-112605970D01*
X128347572Y-112614235D01*
X128323773Y-112620196D01*
X128299505Y-112623796D01*
X128275001Y-112625000D01*
X127374999Y-112625000D01*
X127350495Y-112623796D01*
X127326227Y-112620196D01*
X127302428Y-112614235D01*
X127279329Y-112605970D01*
X127257150Y-112595480D01*
X127236107Y-112582868D01*
X127216401Y-112568253D01*
X127198223Y-112551777D01*
X127181747Y-112533599D01*
X127167132Y-112513893D01*
X127154520Y-112492850D01*
X127144030Y-112470671D01*
X127135765Y-112447572D01*
X127129804Y-112423773D01*
X127126204Y-112399505D01*
X127125000Y-112375001D01*
X127125000Y-111724999D01*
X127126204Y-111700495D01*
X127129804Y-111676227D01*
X127135765Y-111652428D01*
X127144030Y-111629329D01*
X127154520Y-111607150D01*
X127167132Y-111586107D01*
X127181747Y-111566401D01*
X127198223Y-111548223D01*
X127216401Y-111531747D01*
X127236107Y-111517132D01*
X127257150Y-111504520D01*
X127279329Y-111494030D01*
X127302428Y-111485765D01*
X127326227Y-111479804D01*
X127350495Y-111476204D01*
X127374999Y-111475000D01*
X128275001Y-111475000D01*
X128299505Y-111476204D01*
X128299505Y-111476204D01*
G37*
D11*
X127825000Y-112050000D03*
D12*
X169656200Y-114095000D03*
X169656200Y-115365000D03*
X169656200Y-116635000D03*
X169656200Y-117905000D03*
X174583800Y-117905000D03*
X174583800Y-116635000D03*
X174583800Y-115365000D03*
X174583800Y-114095000D03*
X143576200Y-114095000D03*
X143576200Y-115365000D03*
X143576200Y-116635000D03*
X143576200Y-117905000D03*
X148503800Y-117905000D03*
X148503800Y-116635000D03*
X148503800Y-115365000D03*
X148503800Y-114095000D03*
X130536200Y-114095000D03*
X130536200Y-115365000D03*
X130536200Y-116635000D03*
X130536200Y-117905000D03*
X135463800Y-117905000D03*
X135463800Y-116635000D03*
X135463800Y-115365000D03*
X135463800Y-114095000D03*
M02*
