G04 #@! TF.GenerationSoftware,KiCad,Pcbnew,(5.1.2)-1*
G04 #@! TF.CreationDate,2020-06-05T15:14:38-04:00*
G04 #@! TF.ProjectId,Step_Direction_Board,53746570-5f44-4697-9265-6374696f6e5f,rev?*
G04 #@! TF.SameCoordinates,Original*
G04 #@! TF.FileFunction,Soldermask,Top*
G04 #@! TF.FilePolarity,Negative*
%FSLAX46Y46*%
G04 Gerber Fmt 4.6, Leading zero omitted, Abs format (unit mm)*
G04 Created by KiCad (PCBNEW (5.1.2)-1) date 2020-06-05 15:14:38*
%MOMM*%
%LPD*%
G04 APERTURE LIST*
%ADD10C,0.100000*%
G04 APERTURE END LIST*
D10*
G36*
X163017479Y-120626107D02*
G01*
X163017482Y-120626108D01*
X163017483Y-120626108D01*
X163196747Y-120680487D01*
X163196750Y-120680489D01*
X163196751Y-120680489D01*
X163361958Y-120768793D01*
X163506767Y-120887635D01*
X163625609Y-121032444D01*
X163713913Y-121197650D01*
X163713915Y-121197654D01*
X163713915Y-121197655D01*
X163768295Y-121376922D01*
X163782055Y-121516629D01*
X163782055Y-123410065D01*
X163768295Y-123549772D01*
X163768294Y-123549775D01*
X163768294Y-123549776D01*
X163713915Y-123729040D01*
X163713913Y-123729043D01*
X163713913Y-123729044D01*
X163625609Y-123894250D01*
X163506767Y-124039059D01*
X163361958Y-124157901D01*
X163214480Y-124236729D01*
X163196748Y-124246207D01*
X163017484Y-124300586D01*
X163017483Y-124300586D01*
X163017480Y-124300587D01*
X162831055Y-124318948D01*
X162644631Y-124300587D01*
X162644628Y-124300586D01*
X162644627Y-124300586D01*
X162465363Y-124246207D01*
X162447631Y-124236729D01*
X162300153Y-124157901D01*
X162155344Y-124039059D01*
X162036502Y-123894250D01*
X161948198Y-123729044D01*
X161948198Y-123729043D01*
X161948196Y-123729040D01*
X161893817Y-123549776D01*
X161893817Y-123549775D01*
X161893816Y-123549772D01*
X161880055Y-123410064D01*
X161880055Y-121516630D01*
X161893815Y-121376923D01*
X161893816Y-121376919D01*
X161948195Y-121197655D01*
X161948198Y-121197650D01*
X162036501Y-121032444D01*
X162155343Y-120887635D01*
X162300152Y-120768793D01*
X162465358Y-120680489D01*
X162465359Y-120680489D01*
X162465362Y-120680487D01*
X162644626Y-120626108D01*
X162644627Y-120626108D01*
X162644630Y-120626107D01*
X162831055Y-120607746D01*
X163017479Y-120626107D01*
X163017479Y-120626107D01*
G37*
G36*
X159207479Y-120626107D02*
G01*
X159207482Y-120626108D01*
X159207483Y-120626108D01*
X159386747Y-120680487D01*
X159386750Y-120680489D01*
X159386751Y-120680489D01*
X159551958Y-120768793D01*
X159696767Y-120887635D01*
X159815609Y-121032444D01*
X159903913Y-121197650D01*
X159903915Y-121197654D01*
X159903915Y-121197655D01*
X159958295Y-121376922D01*
X159972055Y-121516629D01*
X159972055Y-123410065D01*
X159958295Y-123549772D01*
X159958294Y-123549775D01*
X159958294Y-123549776D01*
X159903915Y-123729040D01*
X159903913Y-123729043D01*
X159903913Y-123729044D01*
X159815609Y-123894250D01*
X159696767Y-124039059D01*
X159551958Y-124157901D01*
X159404480Y-124236729D01*
X159386748Y-124246207D01*
X159207484Y-124300586D01*
X159207483Y-124300586D01*
X159207480Y-124300587D01*
X159021055Y-124318948D01*
X158834631Y-124300587D01*
X158834628Y-124300586D01*
X158834627Y-124300586D01*
X158655363Y-124246207D01*
X158637631Y-124236729D01*
X158490153Y-124157901D01*
X158345344Y-124039059D01*
X158226502Y-123894250D01*
X158138198Y-123729044D01*
X158138198Y-123729043D01*
X158138196Y-123729040D01*
X158083817Y-123549776D01*
X158083817Y-123549775D01*
X158083816Y-123549772D01*
X158070055Y-123410064D01*
X158070055Y-121516630D01*
X158083815Y-121376923D01*
X158083816Y-121376919D01*
X158138195Y-121197655D01*
X158138198Y-121197650D01*
X158226501Y-121032444D01*
X158345343Y-120887635D01*
X158490152Y-120768793D01*
X158655358Y-120680489D01*
X158655359Y-120680489D01*
X158655362Y-120680487D01*
X158834626Y-120626108D01*
X158834627Y-120626108D01*
X158834630Y-120626107D01*
X159021055Y-120607746D01*
X159207479Y-120626107D01*
X159207479Y-120626107D01*
G37*
G36*
X176057479Y-120626107D02*
G01*
X176057482Y-120626108D01*
X176057483Y-120626108D01*
X176236747Y-120680487D01*
X176236750Y-120680489D01*
X176236751Y-120680489D01*
X176401958Y-120768793D01*
X176546767Y-120887635D01*
X176665609Y-121032444D01*
X176753913Y-121197650D01*
X176753915Y-121197654D01*
X176753915Y-121197655D01*
X176808295Y-121376922D01*
X176822055Y-121516629D01*
X176822055Y-123410065D01*
X176808295Y-123549772D01*
X176808294Y-123549775D01*
X176808294Y-123549776D01*
X176753915Y-123729040D01*
X176753913Y-123729043D01*
X176753913Y-123729044D01*
X176665609Y-123894250D01*
X176546767Y-124039059D01*
X176401958Y-124157901D01*
X176254480Y-124236729D01*
X176236748Y-124246207D01*
X176057484Y-124300586D01*
X176057483Y-124300586D01*
X176057480Y-124300587D01*
X175871055Y-124318948D01*
X175684631Y-124300587D01*
X175684628Y-124300586D01*
X175684627Y-124300586D01*
X175505363Y-124246207D01*
X175487631Y-124236729D01*
X175340153Y-124157901D01*
X175195344Y-124039059D01*
X175076502Y-123894250D01*
X174988198Y-123729044D01*
X174988198Y-123729043D01*
X174988196Y-123729040D01*
X174933817Y-123549776D01*
X174933817Y-123549775D01*
X174933816Y-123549772D01*
X174920055Y-123410064D01*
X174920055Y-121516630D01*
X174933815Y-121376923D01*
X174933816Y-121376919D01*
X174988195Y-121197655D01*
X174988198Y-121197650D01*
X175076501Y-121032444D01*
X175195343Y-120887635D01*
X175340152Y-120768793D01*
X175505358Y-120680489D01*
X175505359Y-120680489D01*
X175505362Y-120680487D01*
X175684626Y-120626108D01*
X175684627Y-120626108D01*
X175684630Y-120626107D01*
X175871055Y-120607746D01*
X176057479Y-120626107D01*
X176057479Y-120626107D01*
G37*
G36*
X172247479Y-120626107D02*
G01*
X172247482Y-120626108D01*
X172247483Y-120626108D01*
X172426747Y-120680487D01*
X172426750Y-120680489D01*
X172426751Y-120680489D01*
X172591958Y-120768793D01*
X172736767Y-120887635D01*
X172855609Y-121032444D01*
X172943913Y-121197650D01*
X172943915Y-121197654D01*
X172943915Y-121197655D01*
X172998295Y-121376922D01*
X173012055Y-121516629D01*
X173012055Y-123410065D01*
X172998295Y-123549772D01*
X172998294Y-123549775D01*
X172998294Y-123549776D01*
X172943915Y-123729040D01*
X172943913Y-123729043D01*
X172943913Y-123729044D01*
X172855609Y-123894250D01*
X172736767Y-124039059D01*
X172591958Y-124157901D01*
X172444480Y-124236729D01*
X172426748Y-124246207D01*
X172247484Y-124300586D01*
X172247483Y-124300586D01*
X172247480Y-124300587D01*
X172061055Y-124318948D01*
X171874631Y-124300587D01*
X171874628Y-124300586D01*
X171874627Y-124300586D01*
X171695363Y-124246207D01*
X171677631Y-124236729D01*
X171530153Y-124157901D01*
X171385344Y-124039059D01*
X171266502Y-123894250D01*
X171178198Y-123729044D01*
X171178198Y-123729043D01*
X171178196Y-123729040D01*
X171123817Y-123549776D01*
X171123817Y-123549775D01*
X171123816Y-123549772D01*
X171110055Y-123410064D01*
X171110055Y-121516630D01*
X171123815Y-121376923D01*
X171123816Y-121376919D01*
X171178195Y-121197655D01*
X171178198Y-121197650D01*
X171266501Y-121032444D01*
X171385343Y-120887635D01*
X171530152Y-120768793D01*
X171695358Y-120680489D01*
X171695359Y-120680489D01*
X171695362Y-120680487D01*
X171874626Y-120626108D01*
X171874627Y-120626108D01*
X171874630Y-120626107D01*
X172061055Y-120607746D01*
X172247479Y-120626107D01*
X172247479Y-120626107D01*
G37*
G36*
X149977479Y-120626107D02*
G01*
X149977482Y-120626108D01*
X149977483Y-120626108D01*
X150156747Y-120680487D01*
X150156750Y-120680489D01*
X150156751Y-120680489D01*
X150321958Y-120768793D01*
X150466767Y-120887635D01*
X150585609Y-121032444D01*
X150673913Y-121197650D01*
X150673915Y-121197654D01*
X150673915Y-121197655D01*
X150728295Y-121376922D01*
X150742055Y-121516629D01*
X150742055Y-123410065D01*
X150728295Y-123549772D01*
X150728294Y-123549775D01*
X150728294Y-123549776D01*
X150673915Y-123729040D01*
X150673913Y-123729043D01*
X150673913Y-123729044D01*
X150585609Y-123894250D01*
X150466767Y-124039059D01*
X150321958Y-124157901D01*
X150174480Y-124236729D01*
X150156748Y-124246207D01*
X149977484Y-124300586D01*
X149977483Y-124300586D01*
X149977480Y-124300587D01*
X149791055Y-124318948D01*
X149604631Y-124300587D01*
X149604628Y-124300586D01*
X149604627Y-124300586D01*
X149425363Y-124246207D01*
X149407631Y-124236729D01*
X149260153Y-124157901D01*
X149115344Y-124039059D01*
X148996502Y-123894250D01*
X148908198Y-123729044D01*
X148908198Y-123729043D01*
X148908196Y-123729040D01*
X148853817Y-123549776D01*
X148853817Y-123549775D01*
X148853816Y-123549772D01*
X148840055Y-123410064D01*
X148840055Y-121516630D01*
X148853815Y-121376923D01*
X148853816Y-121376919D01*
X148908195Y-121197655D01*
X148908198Y-121197650D01*
X148996501Y-121032444D01*
X149115343Y-120887635D01*
X149260152Y-120768793D01*
X149425358Y-120680489D01*
X149425359Y-120680489D01*
X149425362Y-120680487D01*
X149604626Y-120626108D01*
X149604627Y-120626108D01*
X149604630Y-120626107D01*
X149791055Y-120607746D01*
X149977479Y-120626107D01*
X149977479Y-120626107D01*
G37*
G36*
X146167479Y-120626107D02*
G01*
X146167482Y-120626108D01*
X146167483Y-120626108D01*
X146346747Y-120680487D01*
X146346750Y-120680489D01*
X146346751Y-120680489D01*
X146511958Y-120768793D01*
X146656767Y-120887635D01*
X146775609Y-121032444D01*
X146863913Y-121197650D01*
X146863915Y-121197654D01*
X146863915Y-121197655D01*
X146918295Y-121376922D01*
X146932055Y-121516629D01*
X146932055Y-123410065D01*
X146918295Y-123549772D01*
X146918294Y-123549775D01*
X146918294Y-123549776D01*
X146863915Y-123729040D01*
X146863913Y-123729043D01*
X146863913Y-123729044D01*
X146775609Y-123894250D01*
X146656767Y-124039059D01*
X146511958Y-124157901D01*
X146364480Y-124236729D01*
X146346748Y-124246207D01*
X146167484Y-124300586D01*
X146167483Y-124300586D01*
X146167480Y-124300587D01*
X145981055Y-124318948D01*
X145794631Y-124300587D01*
X145794628Y-124300586D01*
X145794627Y-124300586D01*
X145615363Y-124246207D01*
X145597631Y-124236729D01*
X145450153Y-124157901D01*
X145305344Y-124039059D01*
X145186502Y-123894250D01*
X145098198Y-123729044D01*
X145098198Y-123729043D01*
X145098196Y-123729040D01*
X145043817Y-123549776D01*
X145043817Y-123549775D01*
X145043816Y-123549772D01*
X145030055Y-123410064D01*
X145030055Y-121516630D01*
X145043815Y-121376923D01*
X145043816Y-121376919D01*
X145098195Y-121197655D01*
X145098198Y-121197650D01*
X145186501Y-121032444D01*
X145305343Y-120887635D01*
X145450152Y-120768793D01*
X145615358Y-120680489D01*
X145615359Y-120680489D01*
X145615362Y-120680487D01*
X145794626Y-120626108D01*
X145794627Y-120626108D01*
X145794630Y-120626107D01*
X145981055Y-120607746D01*
X146167479Y-120626107D01*
X146167479Y-120626107D01*
G37*
G36*
X133127479Y-120626107D02*
G01*
X133127482Y-120626108D01*
X133127483Y-120626108D01*
X133306747Y-120680487D01*
X133306750Y-120680489D01*
X133306751Y-120680489D01*
X133471958Y-120768793D01*
X133616767Y-120887635D01*
X133735609Y-121032444D01*
X133823913Y-121197650D01*
X133823915Y-121197654D01*
X133823915Y-121197655D01*
X133878295Y-121376922D01*
X133892055Y-121516629D01*
X133892055Y-123410065D01*
X133878295Y-123549772D01*
X133878294Y-123549775D01*
X133878294Y-123549776D01*
X133823915Y-123729040D01*
X133823913Y-123729043D01*
X133823913Y-123729044D01*
X133735609Y-123894250D01*
X133616767Y-124039059D01*
X133471958Y-124157901D01*
X133324480Y-124236729D01*
X133306748Y-124246207D01*
X133127484Y-124300586D01*
X133127483Y-124300586D01*
X133127480Y-124300587D01*
X132941055Y-124318948D01*
X132754631Y-124300587D01*
X132754628Y-124300586D01*
X132754627Y-124300586D01*
X132575363Y-124246207D01*
X132557631Y-124236729D01*
X132410153Y-124157901D01*
X132265344Y-124039059D01*
X132146502Y-123894250D01*
X132058198Y-123729044D01*
X132058198Y-123729043D01*
X132058196Y-123729040D01*
X132003817Y-123549776D01*
X132003817Y-123549775D01*
X132003816Y-123549772D01*
X131990055Y-123410064D01*
X131990055Y-121516630D01*
X132003815Y-121376923D01*
X132003816Y-121376919D01*
X132058195Y-121197655D01*
X132058198Y-121197650D01*
X132146501Y-121032444D01*
X132265343Y-120887635D01*
X132410152Y-120768793D01*
X132575358Y-120680489D01*
X132575359Y-120680489D01*
X132575362Y-120680487D01*
X132754626Y-120626108D01*
X132754627Y-120626108D01*
X132754630Y-120626107D01*
X132941055Y-120607746D01*
X133127479Y-120626107D01*
X133127479Y-120626107D01*
G37*
G36*
X136937479Y-120626107D02*
G01*
X136937482Y-120626108D01*
X136937483Y-120626108D01*
X137116747Y-120680487D01*
X137116750Y-120680489D01*
X137116751Y-120680489D01*
X137281958Y-120768793D01*
X137426767Y-120887635D01*
X137545609Y-121032444D01*
X137633913Y-121197650D01*
X137633915Y-121197654D01*
X137633915Y-121197655D01*
X137688295Y-121376922D01*
X137702055Y-121516629D01*
X137702055Y-123410065D01*
X137688295Y-123549772D01*
X137688294Y-123549775D01*
X137688294Y-123549776D01*
X137633915Y-123729040D01*
X137633913Y-123729043D01*
X137633913Y-123729044D01*
X137545609Y-123894250D01*
X137426767Y-124039059D01*
X137281958Y-124157901D01*
X137134480Y-124236729D01*
X137116748Y-124246207D01*
X136937484Y-124300586D01*
X136937483Y-124300586D01*
X136937480Y-124300587D01*
X136751055Y-124318948D01*
X136564631Y-124300587D01*
X136564628Y-124300586D01*
X136564627Y-124300586D01*
X136385363Y-124246207D01*
X136367631Y-124236729D01*
X136220153Y-124157901D01*
X136075344Y-124039059D01*
X135956502Y-123894250D01*
X135868198Y-123729044D01*
X135868198Y-123729043D01*
X135868196Y-123729040D01*
X135813817Y-123549776D01*
X135813817Y-123549775D01*
X135813816Y-123549772D01*
X135800055Y-123410064D01*
X135800055Y-121516630D01*
X135813815Y-121376923D01*
X135813816Y-121376919D01*
X135868195Y-121197655D01*
X135868198Y-121197650D01*
X135956501Y-121032444D01*
X136075343Y-120887635D01*
X136220152Y-120768793D01*
X136385358Y-120680489D01*
X136385359Y-120680489D01*
X136385362Y-120680487D01*
X136564626Y-120626108D01*
X136564627Y-120626108D01*
X136564630Y-120626107D01*
X136751055Y-120607746D01*
X136937479Y-120626107D01*
X136937479Y-120626107D01*
G37*
G36*
X142981970Y-120616281D02*
G01*
X143014479Y-120626142D01*
X143044437Y-120642156D01*
X143070696Y-120663706D01*
X143092246Y-120689965D01*
X143108260Y-120719923D01*
X143118121Y-120752432D01*
X143122055Y-120792376D01*
X143122055Y-124134318D01*
X143118121Y-124174262D01*
X143108260Y-124206771D01*
X143092246Y-124236729D01*
X143070696Y-124262988D01*
X143044437Y-124284538D01*
X143014479Y-124300552D01*
X142981970Y-124310413D01*
X142942026Y-124314347D01*
X141400084Y-124314347D01*
X141360140Y-124310413D01*
X141327631Y-124300552D01*
X141297673Y-124284538D01*
X141271414Y-124262988D01*
X141249864Y-124236729D01*
X141233850Y-124206771D01*
X141223989Y-124174262D01*
X141220055Y-124134318D01*
X141220055Y-120792376D01*
X141223989Y-120752432D01*
X141233850Y-120719923D01*
X141249864Y-120689965D01*
X141271414Y-120663706D01*
X141297673Y-120642156D01*
X141327631Y-120626142D01*
X141360140Y-120616281D01*
X141400084Y-120612347D01*
X142942026Y-120612347D01*
X142981970Y-120616281D01*
X142981970Y-120616281D01*
G37*
G36*
X129941970Y-120616281D02*
G01*
X129974479Y-120626142D01*
X130004437Y-120642156D01*
X130030696Y-120663706D01*
X130052246Y-120689965D01*
X130068260Y-120719923D01*
X130078121Y-120752432D01*
X130082055Y-120792376D01*
X130082055Y-124134318D01*
X130078121Y-124174262D01*
X130068260Y-124206771D01*
X130052246Y-124236729D01*
X130030696Y-124262988D01*
X130004437Y-124284538D01*
X129974479Y-124300552D01*
X129941970Y-124310413D01*
X129902026Y-124314347D01*
X128360084Y-124314347D01*
X128320140Y-124310413D01*
X128287631Y-124300552D01*
X128257673Y-124284538D01*
X128231414Y-124262988D01*
X128209864Y-124236729D01*
X128193850Y-124206771D01*
X128183989Y-124174262D01*
X128180055Y-124134318D01*
X128180055Y-120792376D01*
X128183989Y-120752432D01*
X128193850Y-120719923D01*
X128209864Y-120689965D01*
X128231414Y-120663706D01*
X128257673Y-120642156D01*
X128287631Y-120626142D01*
X128320140Y-120616281D01*
X128360084Y-120612347D01*
X129902026Y-120612347D01*
X129941970Y-120616281D01*
X129941970Y-120616281D01*
G37*
G36*
X156021970Y-120616281D02*
G01*
X156054479Y-120626142D01*
X156084437Y-120642156D01*
X156110696Y-120663706D01*
X156132246Y-120689965D01*
X156148260Y-120719923D01*
X156158121Y-120752432D01*
X156162055Y-120792376D01*
X156162055Y-124134318D01*
X156158121Y-124174262D01*
X156148260Y-124206771D01*
X156132246Y-124236729D01*
X156110696Y-124262988D01*
X156084437Y-124284538D01*
X156054479Y-124300552D01*
X156021970Y-124310413D01*
X155982026Y-124314347D01*
X154440084Y-124314347D01*
X154400140Y-124310413D01*
X154367631Y-124300552D01*
X154337673Y-124284538D01*
X154311414Y-124262988D01*
X154289864Y-124236729D01*
X154273850Y-124206771D01*
X154263989Y-124174262D01*
X154260055Y-124134318D01*
X154260055Y-120792376D01*
X154263989Y-120752432D01*
X154273850Y-120719923D01*
X154289864Y-120689965D01*
X154311414Y-120663706D01*
X154337673Y-120642156D01*
X154367631Y-120626142D01*
X154400140Y-120616281D01*
X154440084Y-120612347D01*
X155982026Y-120612347D01*
X156021970Y-120616281D01*
X156021970Y-120616281D01*
G37*
G36*
X169061970Y-120616281D02*
G01*
X169094479Y-120626142D01*
X169124437Y-120642156D01*
X169150696Y-120663706D01*
X169172246Y-120689965D01*
X169188260Y-120719923D01*
X169198121Y-120752432D01*
X169202055Y-120792376D01*
X169202055Y-124134318D01*
X169198121Y-124174262D01*
X169188260Y-124206771D01*
X169172246Y-124236729D01*
X169150696Y-124262988D01*
X169124437Y-124284538D01*
X169094479Y-124300552D01*
X169061970Y-124310413D01*
X169022026Y-124314347D01*
X167480084Y-124314347D01*
X167440140Y-124310413D01*
X167407631Y-124300552D01*
X167377673Y-124284538D01*
X167351414Y-124262988D01*
X167329864Y-124236729D01*
X167313850Y-124206771D01*
X167303989Y-124174262D01*
X167300055Y-124134318D01*
X167300055Y-120792376D01*
X167303989Y-120752432D01*
X167313850Y-120719923D01*
X167329864Y-120689965D01*
X167351414Y-120663706D01*
X167377673Y-120642156D01*
X167407631Y-120626142D01*
X167440140Y-120616281D01*
X167480084Y-120612347D01*
X169022026Y-120612347D01*
X169061970Y-120616281D01*
X169061970Y-120616281D01*
G37*
G36*
X123846189Y-112710483D02*
G01*
X123846192Y-112710484D01*
X123846191Y-112710484D01*
X124374139Y-112929167D01*
X124849280Y-113246646D01*
X125253354Y-113650720D01*
X125570833Y-114125861D01*
X125570834Y-114125863D01*
X125789517Y-114653811D01*
X125901000Y-115214275D01*
X125901000Y-115785725D01*
X125789517Y-116346189D01*
X125789516Y-116346191D01*
X125570833Y-116874139D01*
X125253354Y-117349280D01*
X124849280Y-117753354D01*
X124374139Y-118070833D01*
X124374138Y-118070834D01*
X124374137Y-118070834D01*
X123846189Y-118289517D01*
X123285725Y-118401000D01*
X122714275Y-118401000D01*
X122153811Y-118289517D01*
X121625863Y-118070834D01*
X121625862Y-118070834D01*
X121625861Y-118070833D01*
X121150720Y-117753354D01*
X120746646Y-117349280D01*
X120429167Y-116874139D01*
X120210484Y-116346191D01*
X120210483Y-116346189D01*
X120099000Y-115785725D01*
X120099000Y-115214275D01*
X120210483Y-114653811D01*
X120429166Y-114125863D01*
X120429167Y-114125861D01*
X120746646Y-113650720D01*
X121150720Y-113246646D01*
X121625861Y-112929167D01*
X122153809Y-112710484D01*
X122153808Y-112710484D01*
X122153811Y-112710483D01*
X122714275Y-112599000D01*
X123285725Y-112599000D01*
X123846189Y-112710483D01*
X123846189Y-112710483D01*
G37*
G36*
X182846189Y-112710483D02*
G01*
X182846192Y-112710484D01*
X182846191Y-112710484D01*
X183374139Y-112929167D01*
X183849280Y-113246646D01*
X184253354Y-113650720D01*
X184570833Y-114125861D01*
X184570834Y-114125863D01*
X184789517Y-114653811D01*
X184901000Y-115214275D01*
X184901000Y-115785725D01*
X184789517Y-116346189D01*
X184789516Y-116346191D01*
X184570833Y-116874139D01*
X184253354Y-117349280D01*
X183849280Y-117753354D01*
X183374139Y-118070833D01*
X183374138Y-118070834D01*
X183374137Y-118070834D01*
X182846189Y-118289517D01*
X182285725Y-118401000D01*
X181714275Y-118401000D01*
X181153811Y-118289517D01*
X180625863Y-118070834D01*
X180625862Y-118070834D01*
X180625861Y-118070833D01*
X180150720Y-117753354D01*
X179746646Y-117349280D01*
X179429167Y-116874139D01*
X179210484Y-116346191D01*
X179210483Y-116346189D01*
X179099000Y-115785725D01*
X179099000Y-115214275D01*
X179210483Y-114653811D01*
X179429166Y-114125863D01*
X179429167Y-114125861D01*
X179746646Y-113650720D01*
X180150720Y-113246646D01*
X180625861Y-112929167D01*
X181153809Y-112710484D01*
X181153808Y-112710484D01*
X181153811Y-112710483D01*
X181714275Y-112599000D01*
X182285725Y-112599000D01*
X182846189Y-112710483D01*
X182846189Y-112710483D01*
G37*
G36*
X135150443Y-108355519D02*
G01*
X135216627Y-108362037D01*
X135386466Y-108413557D01*
X135542991Y-108497222D01*
X135578729Y-108526552D01*
X135680186Y-108609814D01*
X135763448Y-108711271D01*
X135792778Y-108747009D01*
X135876443Y-108903534D01*
X135927963Y-109073373D01*
X135945359Y-109250000D01*
X135927963Y-109426627D01*
X135876443Y-109596466D01*
X135792778Y-109752991D01*
X135763448Y-109788729D01*
X135680186Y-109890186D01*
X135578729Y-109973448D01*
X135542991Y-110002778D01*
X135386466Y-110086443D01*
X135216627Y-110137963D01*
X135150443Y-110144481D01*
X135084260Y-110151000D01*
X134995740Y-110151000D01*
X134929557Y-110144481D01*
X134863373Y-110137963D01*
X134693534Y-110086443D01*
X134537009Y-110002778D01*
X134501271Y-109973448D01*
X134399814Y-109890186D01*
X134316552Y-109788729D01*
X134287222Y-109752991D01*
X134203557Y-109596466D01*
X134152037Y-109426627D01*
X134134641Y-109250000D01*
X134152037Y-109073373D01*
X134203557Y-108903534D01*
X134287222Y-108747009D01*
X134316552Y-108711271D01*
X134399814Y-108609814D01*
X134501271Y-108526552D01*
X134537009Y-108497222D01*
X134693534Y-108413557D01*
X134863373Y-108362037D01*
X134929557Y-108355519D01*
X134995740Y-108349000D01*
X135084260Y-108349000D01*
X135150443Y-108355519D01*
X135150443Y-108355519D01*
G37*
G36*
X173560443Y-108355519D02*
G01*
X173626627Y-108362037D01*
X173796466Y-108413557D01*
X173952991Y-108497222D01*
X173988729Y-108526552D01*
X174090186Y-108609814D01*
X174173448Y-108711271D01*
X174202778Y-108747009D01*
X174286443Y-108903534D01*
X174337963Y-109073373D01*
X174355359Y-109250000D01*
X174337963Y-109426627D01*
X174286443Y-109596466D01*
X174202778Y-109752991D01*
X174173448Y-109788729D01*
X174090186Y-109890186D01*
X173988729Y-109973448D01*
X173952991Y-110002778D01*
X173796466Y-110086443D01*
X173626627Y-110137963D01*
X173560443Y-110144481D01*
X173494260Y-110151000D01*
X173405740Y-110151000D01*
X173339557Y-110144481D01*
X173273373Y-110137963D01*
X173103534Y-110086443D01*
X172947009Y-110002778D01*
X172911271Y-109973448D01*
X172809814Y-109890186D01*
X172726552Y-109788729D01*
X172697222Y-109752991D01*
X172613557Y-109596466D01*
X172562037Y-109426627D01*
X172544641Y-109250000D01*
X172562037Y-109073373D01*
X172613557Y-108903534D01*
X172697222Y-108747009D01*
X172726552Y-108711271D01*
X172809814Y-108609814D01*
X172911271Y-108526552D01*
X172947009Y-108497222D01*
X173103534Y-108413557D01*
X173273373Y-108362037D01*
X173339557Y-108355519D01*
X173405740Y-108349000D01*
X173494260Y-108349000D01*
X173560443Y-108355519D01*
X173560443Y-108355519D01*
G37*
G36*
X171020443Y-108355519D02*
G01*
X171086627Y-108362037D01*
X171256466Y-108413557D01*
X171412991Y-108497222D01*
X171448729Y-108526552D01*
X171550186Y-108609814D01*
X171633448Y-108711271D01*
X171662778Y-108747009D01*
X171746443Y-108903534D01*
X171797963Y-109073373D01*
X171815359Y-109250000D01*
X171797963Y-109426627D01*
X171746443Y-109596466D01*
X171662778Y-109752991D01*
X171633448Y-109788729D01*
X171550186Y-109890186D01*
X171448729Y-109973448D01*
X171412991Y-110002778D01*
X171256466Y-110086443D01*
X171086627Y-110137963D01*
X171020443Y-110144481D01*
X170954260Y-110151000D01*
X170865740Y-110151000D01*
X170799557Y-110144481D01*
X170733373Y-110137963D01*
X170563534Y-110086443D01*
X170407009Y-110002778D01*
X170371271Y-109973448D01*
X170269814Y-109890186D01*
X170186552Y-109788729D01*
X170157222Y-109752991D01*
X170073557Y-109596466D01*
X170022037Y-109426627D01*
X170004641Y-109250000D01*
X170022037Y-109073373D01*
X170073557Y-108903534D01*
X170157222Y-108747009D01*
X170186552Y-108711271D01*
X170269814Y-108609814D01*
X170371271Y-108526552D01*
X170407009Y-108497222D01*
X170563534Y-108413557D01*
X170733373Y-108362037D01*
X170799557Y-108355519D01*
X170865740Y-108349000D01*
X170954260Y-108349000D01*
X171020443Y-108355519D01*
X171020443Y-108355519D01*
G37*
G36*
X168480443Y-108355519D02*
G01*
X168546627Y-108362037D01*
X168716466Y-108413557D01*
X168872991Y-108497222D01*
X168908729Y-108526552D01*
X169010186Y-108609814D01*
X169093448Y-108711271D01*
X169122778Y-108747009D01*
X169206443Y-108903534D01*
X169257963Y-109073373D01*
X169275359Y-109250000D01*
X169257963Y-109426627D01*
X169206443Y-109596466D01*
X169122778Y-109752991D01*
X169093448Y-109788729D01*
X169010186Y-109890186D01*
X168908729Y-109973448D01*
X168872991Y-110002778D01*
X168716466Y-110086443D01*
X168546627Y-110137963D01*
X168480443Y-110144481D01*
X168414260Y-110151000D01*
X168325740Y-110151000D01*
X168259557Y-110144481D01*
X168193373Y-110137963D01*
X168023534Y-110086443D01*
X167867009Y-110002778D01*
X167831271Y-109973448D01*
X167729814Y-109890186D01*
X167646552Y-109788729D01*
X167617222Y-109752991D01*
X167533557Y-109596466D01*
X167482037Y-109426627D01*
X167464641Y-109250000D01*
X167482037Y-109073373D01*
X167533557Y-108903534D01*
X167617222Y-108747009D01*
X167646552Y-108711271D01*
X167729814Y-108609814D01*
X167831271Y-108526552D01*
X167867009Y-108497222D01*
X168023534Y-108413557D01*
X168193373Y-108362037D01*
X168259557Y-108355519D01*
X168325740Y-108349000D01*
X168414260Y-108349000D01*
X168480443Y-108355519D01*
X168480443Y-108355519D01*
G37*
G36*
X165940443Y-108355519D02*
G01*
X166006627Y-108362037D01*
X166176466Y-108413557D01*
X166332991Y-108497222D01*
X166368729Y-108526552D01*
X166470186Y-108609814D01*
X166553448Y-108711271D01*
X166582778Y-108747009D01*
X166666443Y-108903534D01*
X166717963Y-109073373D01*
X166735359Y-109250000D01*
X166717963Y-109426627D01*
X166666443Y-109596466D01*
X166582778Y-109752991D01*
X166553448Y-109788729D01*
X166470186Y-109890186D01*
X166368729Y-109973448D01*
X166332991Y-110002778D01*
X166176466Y-110086443D01*
X166006627Y-110137963D01*
X165940443Y-110144481D01*
X165874260Y-110151000D01*
X165785740Y-110151000D01*
X165719557Y-110144481D01*
X165653373Y-110137963D01*
X165483534Y-110086443D01*
X165327009Y-110002778D01*
X165291271Y-109973448D01*
X165189814Y-109890186D01*
X165106552Y-109788729D01*
X165077222Y-109752991D01*
X164993557Y-109596466D01*
X164942037Y-109426627D01*
X164924641Y-109250000D01*
X164942037Y-109073373D01*
X164993557Y-108903534D01*
X165077222Y-108747009D01*
X165106552Y-108711271D01*
X165189814Y-108609814D01*
X165291271Y-108526552D01*
X165327009Y-108497222D01*
X165483534Y-108413557D01*
X165653373Y-108362037D01*
X165719557Y-108355519D01*
X165785740Y-108349000D01*
X165874260Y-108349000D01*
X165940443Y-108355519D01*
X165940443Y-108355519D01*
G37*
G36*
X163400443Y-108355519D02*
G01*
X163466627Y-108362037D01*
X163636466Y-108413557D01*
X163792991Y-108497222D01*
X163828729Y-108526552D01*
X163930186Y-108609814D01*
X164013448Y-108711271D01*
X164042778Y-108747009D01*
X164126443Y-108903534D01*
X164177963Y-109073373D01*
X164195359Y-109250000D01*
X164177963Y-109426627D01*
X164126443Y-109596466D01*
X164042778Y-109752991D01*
X164013448Y-109788729D01*
X163930186Y-109890186D01*
X163828729Y-109973448D01*
X163792991Y-110002778D01*
X163636466Y-110086443D01*
X163466627Y-110137963D01*
X163400443Y-110144481D01*
X163334260Y-110151000D01*
X163245740Y-110151000D01*
X163179557Y-110144481D01*
X163113373Y-110137963D01*
X162943534Y-110086443D01*
X162787009Y-110002778D01*
X162751271Y-109973448D01*
X162649814Y-109890186D01*
X162566552Y-109788729D01*
X162537222Y-109752991D01*
X162453557Y-109596466D01*
X162402037Y-109426627D01*
X162384641Y-109250000D01*
X162402037Y-109073373D01*
X162453557Y-108903534D01*
X162537222Y-108747009D01*
X162566552Y-108711271D01*
X162649814Y-108609814D01*
X162751271Y-108526552D01*
X162787009Y-108497222D01*
X162943534Y-108413557D01*
X163113373Y-108362037D01*
X163179557Y-108355519D01*
X163245740Y-108349000D01*
X163334260Y-108349000D01*
X163400443Y-108355519D01*
X163400443Y-108355519D01*
G37*
G36*
X161651000Y-110151000D02*
G01*
X159849000Y-110151000D01*
X159849000Y-108349000D01*
X161651000Y-108349000D01*
X161651000Y-110151000D01*
X161651000Y-110151000D01*
G37*
G36*
X145310443Y-108355519D02*
G01*
X145376627Y-108362037D01*
X145546466Y-108413557D01*
X145702991Y-108497222D01*
X145738729Y-108526552D01*
X145840186Y-108609814D01*
X145923448Y-108711271D01*
X145952778Y-108747009D01*
X146036443Y-108903534D01*
X146087963Y-109073373D01*
X146105359Y-109250000D01*
X146087963Y-109426627D01*
X146036443Y-109596466D01*
X145952778Y-109752991D01*
X145923448Y-109788729D01*
X145840186Y-109890186D01*
X145738729Y-109973448D01*
X145702991Y-110002778D01*
X145546466Y-110086443D01*
X145376627Y-110137963D01*
X145310443Y-110144481D01*
X145244260Y-110151000D01*
X145155740Y-110151000D01*
X145089557Y-110144481D01*
X145023373Y-110137963D01*
X144853534Y-110086443D01*
X144697009Y-110002778D01*
X144661271Y-109973448D01*
X144559814Y-109890186D01*
X144476552Y-109788729D01*
X144447222Y-109752991D01*
X144363557Y-109596466D01*
X144312037Y-109426627D01*
X144294641Y-109250000D01*
X144312037Y-109073373D01*
X144363557Y-108903534D01*
X144447222Y-108747009D01*
X144476552Y-108711271D01*
X144559814Y-108609814D01*
X144661271Y-108526552D01*
X144697009Y-108497222D01*
X144853534Y-108413557D01*
X145023373Y-108362037D01*
X145089557Y-108355519D01*
X145155740Y-108349000D01*
X145244260Y-108349000D01*
X145310443Y-108355519D01*
X145310443Y-108355519D01*
G37*
G36*
X142770443Y-108355519D02*
G01*
X142836627Y-108362037D01*
X143006466Y-108413557D01*
X143162991Y-108497222D01*
X143198729Y-108526552D01*
X143300186Y-108609814D01*
X143383448Y-108711271D01*
X143412778Y-108747009D01*
X143496443Y-108903534D01*
X143547963Y-109073373D01*
X143565359Y-109250000D01*
X143547963Y-109426627D01*
X143496443Y-109596466D01*
X143412778Y-109752991D01*
X143383448Y-109788729D01*
X143300186Y-109890186D01*
X143198729Y-109973448D01*
X143162991Y-110002778D01*
X143006466Y-110086443D01*
X142836627Y-110137963D01*
X142770443Y-110144481D01*
X142704260Y-110151000D01*
X142615740Y-110151000D01*
X142549557Y-110144481D01*
X142483373Y-110137963D01*
X142313534Y-110086443D01*
X142157009Y-110002778D01*
X142121271Y-109973448D01*
X142019814Y-109890186D01*
X141936552Y-109788729D01*
X141907222Y-109752991D01*
X141823557Y-109596466D01*
X141772037Y-109426627D01*
X141754641Y-109250000D01*
X141772037Y-109073373D01*
X141823557Y-108903534D01*
X141907222Y-108747009D01*
X141936552Y-108711271D01*
X142019814Y-108609814D01*
X142121271Y-108526552D01*
X142157009Y-108497222D01*
X142313534Y-108413557D01*
X142483373Y-108362037D01*
X142549557Y-108355519D01*
X142615740Y-108349000D01*
X142704260Y-108349000D01*
X142770443Y-108355519D01*
X142770443Y-108355519D01*
G37*
G36*
X140230443Y-108355519D02*
G01*
X140296627Y-108362037D01*
X140466466Y-108413557D01*
X140622991Y-108497222D01*
X140658729Y-108526552D01*
X140760186Y-108609814D01*
X140843448Y-108711271D01*
X140872778Y-108747009D01*
X140956443Y-108903534D01*
X141007963Y-109073373D01*
X141025359Y-109250000D01*
X141007963Y-109426627D01*
X140956443Y-109596466D01*
X140872778Y-109752991D01*
X140843448Y-109788729D01*
X140760186Y-109890186D01*
X140658729Y-109973448D01*
X140622991Y-110002778D01*
X140466466Y-110086443D01*
X140296627Y-110137963D01*
X140230443Y-110144481D01*
X140164260Y-110151000D01*
X140075740Y-110151000D01*
X140009557Y-110144481D01*
X139943373Y-110137963D01*
X139773534Y-110086443D01*
X139617009Y-110002778D01*
X139581271Y-109973448D01*
X139479814Y-109890186D01*
X139396552Y-109788729D01*
X139367222Y-109752991D01*
X139283557Y-109596466D01*
X139232037Y-109426627D01*
X139214641Y-109250000D01*
X139232037Y-109073373D01*
X139283557Y-108903534D01*
X139367222Y-108747009D01*
X139396552Y-108711271D01*
X139479814Y-108609814D01*
X139581271Y-108526552D01*
X139617009Y-108497222D01*
X139773534Y-108413557D01*
X139943373Y-108362037D01*
X140009557Y-108355519D01*
X140075740Y-108349000D01*
X140164260Y-108349000D01*
X140230443Y-108355519D01*
X140230443Y-108355519D01*
G37*
G36*
X137690443Y-108355519D02*
G01*
X137756627Y-108362037D01*
X137926466Y-108413557D01*
X138082991Y-108497222D01*
X138118729Y-108526552D01*
X138220186Y-108609814D01*
X138303448Y-108711271D01*
X138332778Y-108747009D01*
X138416443Y-108903534D01*
X138467963Y-109073373D01*
X138485359Y-109250000D01*
X138467963Y-109426627D01*
X138416443Y-109596466D01*
X138332778Y-109752991D01*
X138303448Y-109788729D01*
X138220186Y-109890186D01*
X138118729Y-109973448D01*
X138082991Y-110002778D01*
X137926466Y-110086443D01*
X137756627Y-110137963D01*
X137690443Y-110144481D01*
X137624260Y-110151000D01*
X137535740Y-110151000D01*
X137469557Y-110144481D01*
X137403373Y-110137963D01*
X137233534Y-110086443D01*
X137077009Y-110002778D01*
X137041271Y-109973448D01*
X136939814Y-109890186D01*
X136856552Y-109788729D01*
X136827222Y-109752991D01*
X136743557Y-109596466D01*
X136692037Y-109426627D01*
X136674641Y-109250000D01*
X136692037Y-109073373D01*
X136743557Y-108903534D01*
X136827222Y-108747009D01*
X136856552Y-108711271D01*
X136939814Y-108609814D01*
X137041271Y-108526552D01*
X137077009Y-108497222D01*
X137233534Y-108413557D01*
X137403373Y-108362037D01*
X137469557Y-108355519D01*
X137535740Y-108349000D01*
X137624260Y-108349000D01*
X137690443Y-108355519D01*
X137690443Y-108355519D01*
G37*
G36*
X133401000Y-110151000D02*
G01*
X131599000Y-110151000D01*
X131599000Y-108349000D01*
X133401000Y-108349000D01*
X133401000Y-110151000D01*
X133401000Y-110151000D01*
G37*
M02*
