M48
; DRILL file {KiCad (5.1.2)-1} date 6/5/2020 3:04:55 PM
; FORMAT={-:-/ absolute / metric / decimal}
; #@! TF.CreationDate,2020-06-05T15:04:55-04:00
; #@! TF.GenerationSoftware,Kicad,Pcbnew,(5.1.2)-1
FMAT,2
METRIC
T1C1.000
T2C1.200
T3C3.200
%
G90
G05
T1
X53.324Y15.376
X59.0Y15.376
X61.54Y15.376
X24.704Y15.376
X27.244Y15.376
X37.744Y15.376
X40.284Y15.376
X50.784Y15.376
X11.664Y15.376
X14.204Y15.376
T2
X22.171Y4.037
X25.981Y4.037
X29.791Y4.037
X48.251Y4.037
X52.061Y4.037
X55.871Y4.037
X9.131Y4.037
X12.941Y4.037
X16.751Y4.037
X35.211Y4.037
X39.021Y4.037
X42.831Y4.037
T3
X62.0Y11.0
X3.0Y11.0
T0
M30
