M48
; DRILL file {KiCad (5.1.2)-1} date 6/5/2020 3:14:40 PM
; FORMAT={-:-/ absolute / metric / decimal}
; #@! TF.CreationDate,2020-06-05T15:14:40-04:00
; #@! TF.GenerationSoftware,Kicad,Pcbnew,(5.1.2)-1
FMAT,2
METRIC
T1C1.000
T2C1.200
T3C3.200
%
G90
G05
T1
X160.75Y-109.25
X163.29Y-109.25
X165.83Y-109.25
X168.37Y-109.25
X170.91Y-109.25
X173.45Y-109.25
X132.5Y-109.25
X135.04Y-109.25
X137.58Y-109.25
X140.12Y-109.25
X142.66Y-109.25
X145.2Y-109.25
T2
X142.171Y-122.463
X145.981Y-122.463
X149.791Y-122.463
X155.211Y-122.463
X159.021Y-122.463
X162.831Y-122.463
X168.251Y-122.463
X172.061Y-122.463
X175.871Y-122.463
X129.131Y-122.463
X132.941Y-122.463
X136.751Y-122.463
T3
X182.0Y-115.5
X123.0Y-115.5
T0
M30
