G04 #@! TF.GenerationSoftware,KiCad,Pcbnew,(5.1.2)-1*
G04 #@! TF.CreationDate,2020-06-05T15:04:51-04:00*
G04 #@! TF.ProjectId,Step_Direction_Board,53746570-5f44-4697-9265-6374696f6e5f,rev?*
G04 #@! TF.SameCoordinates,PX7270e00PY78a3ca0*
G04 #@! TF.FileFunction,Copper,L2,Bot*
G04 #@! TF.FilePolarity,Positive*
%FSLAX46Y46*%
G04 Gerber Fmt 4.6, Leading zero omitted, Abs format (unit mm)*
G04 Created by KiCad (PCBNEW (5.1.2)-1) date 2020-06-05 15:04:51*
%MOMM*%
%LPD*%
G04 APERTURE LIST*
%ADD10O,1.700000X1.700000*%
%ADD11R,1.700000X1.700000*%
%ADD12O,1.800000X3.600000*%
%ADD13C,0.100000*%
%ADD14C,1.800000*%
%ADD15R,1.981200X0.558800*%
%ADD16C,5.700000*%
%ADD17C,0.500000*%
G04 APERTURE END LIST*
D10*
X53323846Y15376036D03*
D11*
X50783846Y15376036D03*
D10*
X40283846Y15376036D03*
D11*
X37743846Y15376036D03*
D10*
X27243846Y15376036D03*
D11*
X24703846Y15376036D03*
D10*
X14203846Y15376036D03*
D11*
X11663846Y15376036D03*
D10*
X61540000Y15376036D03*
D11*
X59000000Y15376036D03*
D12*
X55871055Y4036653D03*
X52061055Y4036653D03*
D13*
G36*
X48925559Y5835449D02*
G01*
X48949828Y5831849D01*
X48973626Y5825888D01*
X48996726Y5817623D01*
X49018904Y5807133D01*
X49039948Y5794520D01*
X49059653Y5779906D01*
X49077832Y5763430D01*
X49094308Y5745251D01*
X49108922Y5725546D01*
X49121535Y5704502D01*
X49132025Y5682324D01*
X49140290Y5659224D01*
X49146251Y5635426D01*
X49149851Y5611157D01*
X49151055Y5586653D01*
X49151055Y2486653D01*
X49149851Y2462149D01*
X49146251Y2437880D01*
X49140290Y2414082D01*
X49132025Y2390982D01*
X49121535Y2368804D01*
X49108922Y2347760D01*
X49094308Y2328055D01*
X49077832Y2309876D01*
X49059653Y2293400D01*
X49039948Y2278786D01*
X49018904Y2266173D01*
X48996726Y2255683D01*
X48973626Y2247418D01*
X48949828Y2241457D01*
X48925559Y2237857D01*
X48901055Y2236653D01*
X47601055Y2236653D01*
X47576551Y2237857D01*
X47552282Y2241457D01*
X47528484Y2247418D01*
X47505384Y2255683D01*
X47483206Y2266173D01*
X47462162Y2278786D01*
X47442457Y2293400D01*
X47424278Y2309876D01*
X47407802Y2328055D01*
X47393188Y2347760D01*
X47380575Y2368804D01*
X47370085Y2390982D01*
X47361820Y2414082D01*
X47355859Y2437880D01*
X47352259Y2462149D01*
X47351055Y2486653D01*
X47351055Y5586653D01*
X47352259Y5611157D01*
X47355859Y5635426D01*
X47361820Y5659224D01*
X47370085Y5682324D01*
X47380575Y5704502D01*
X47393188Y5725546D01*
X47407802Y5745251D01*
X47424278Y5763430D01*
X47442457Y5779906D01*
X47462162Y5794520D01*
X47483206Y5807133D01*
X47505384Y5817623D01*
X47528484Y5825888D01*
X47552282Y5831849D01*
X47576551Y5835449D01*
X47601055Y5836653D01*
X48901055Y5836653D01*
X48925559Y5835449D01*
X48925559Y5835449D01*
G37*
D14*
X48251055Y4036653D03*
D12*
X42831055Y4036653D03*
X39021055Y4036653D03*
D13*
G36*
X35885559Y5835449D02*
G01*
X35909828Y5831849D01*
X35933626Y5825888D01*
X35956726Y5817623D01*
X35978904Y5807133D01*
X35999948Y5794520D01*
X36019653Y5779906D01*
X36037832Y5763430D01*
X36054308Y5745251D01*
X36068922Y5725546D01*
X36081535Y5704502D01*
X36092025Y5682324D01*
X36100290Y5659224D01*
X36106251Y5635426D01*
X36109851Y5611157D01*
X36111055Y5586653D01*
X36111055Y2486653D01*
X36109851Y2462149D01*
X36106251Y2437880D01*
X36100290Y2414082D01*
X36092025Y2390982D01*
X36081535Y2368804D01*
X36068922Y2347760D01*
X36054308Y2328055D01*
X36037832Y2309876D01*
X36019653Y2293400D01*
X35999948Y2278786D01*
X35978904Y2266173D01*
X35956726Y2255683D01*
X35933626Y2247418D01*
X35909828Y2241457D01*
X35885559Y2237857D01*
X35861055Y2236653D01*
X34561055Y2236653D01*
X34536551Y2237857D01*
X34512282Y2241457D01*
X34488484Y2247418D01*
X34465384Y2255683D01*
X34443206Y2266173D01*
X34422162Y2278786D01*
X34402457Y2293400D01*
X34384278Y2309876D01*
X34367802Y2328055D01*
X34353188Y2347760D01*
X34340575Y2368804D01*
X34330085Y2390982D01*
X34321820Y2414082D01*
X34315859Y2437880D01*
X34312259Y2462149D01*
X34311055Y2486653D01*
X34311055Y5586653D01*
X34312259Y5611157D01*
X34315859Y5635426D01*
X34321820Y5659224D01*
X34330085Y5682324D01*
X34340575Y5704502D01*
X34353188Y5725546D01*
X34367802Y5745251D01*
X34384278Y5763430D01*
X34402457Y5779906D01*
X34422162Y5794520D01*
X34443206Y5807133D01*
X34465384Y5817623D01*
X34488484Y5825888D01*
X34512282Y5831849D01*
X34536551Y5835449D01*
X34561055Y5836653D01*
X35861055Y5836653D01*
X35885559Y5835449D01*
X35885559Y5835449D01*
G37*
D14*
X35211055Y4036653D03*
D12*
X29791055Y4036653D03*
X25981055Y4036653D03*
D13*
G36*
X22845559Y5835449D02*
G01*
X22869828Y5831849D01*
X22893626Y5825888D01*
X22916726Y5817623D01*
X22938904Y5807133D01*
X22959948Y5794520D01*
X22979653Y5779906D01*
X22997832Y5763430D01*
X23014308Y5745251D01*
X23028922Y5725546D01*
X23041535Y5704502D01*
X23052025Y5682324D01*
X23060290Y5659224D01*
X23066251Y5635426D01*
X23069851Y5611157D01*
X23071055Y5586653D01*
X23071055Y2486653D01*
X23069851Y2462149D01*
X23066251Y2437880D01*
X23060290Y2414082D01*
X23052025Y2390982D01*
X23041535Y2368804D01*
X23028922Y2347760D01*
X23014308Y2328055D01*
X22997832Y2309876D01*
X22979653Y2293400D01*
X22959948Y2278786D01*
X22938904Y2266173D01*
X22916726Y2255683D01*
X22893626Y2247418D01*
X22869828Y2241457D01*
X22845559Y2237857D01*
X22821055Y2236653D01*
X21521055Y2236653D01*
X21496551Y2237857D01*
X21472282Y2241457D01*
X21448484Y2247418D01*
X21425384Y2255683D01*
X21403206Y2266173D01*
X21382162Y2278786D01*
X21362457Y2293400D01*
X21344278Y2309876D01*
X21327802Y2328055D01*
X21313188Y2347760D01*
X21300575Y2368804D01*
X21290085Y2390982D01*
X21281820Y2414082D01*
X21275859Y2437880D01*
X21272259Y2462149D01*
X21271055Y2486653D01*
X21271055Y5586653D01*
X21272259Y5611157D01*
X21275859Y5635426D01*
X21281820Y5659224D01*
X21290085Y5682324D01*
X21300575Y5704502D01*
X21313188Y5725546D01*
X21327802Y5745251D01*
X21344278Y5763430D01*
X21362457Y5779906D01*
X21382162Y5794520D01*
X21403206Y5807133D01*
X21425384Y5817623D01*
X21448484Y5825888D01*
X21472282Y5831849D01*
X21496551Y5835449D01*
X21521055Y5836653D01*
X22821055Y5836653D01*
X22845559Y5835449D01*
X22845559Y5835449D01*
G37*
D14*
X22171055Y4036653D03*
D12*
X16751055Y4036653D03*
X12941055Y4036653D03*
D13*
G36*
X9805559Y5835449D02*
G01*
X9829828Y5831849D01*
X9853626Y5825888D01*
X9876726Y5817623D01*
X9898904Y5807133D01*
X9919948Y5794520D01*
X9939653Y5779906D01*
X9957832Y5763430D01*
X9974308Y5745251D01*
X9988922Y5725546D01*
X10001535Y5704502D01*
X10012025Y5682324D01*
X10020290Y5659224D01*
X10026251Y5635426D01*
X10029851Y5611157D01*
X10031055Y5586653D01*
X10031055Y2486653D01*
X10029851Y2462149D01*
X10026251Y2437880D01*
X10020290Y2414082D01*
X10012025Y2390982D01*
X10001535Y2368804D01*
X9988922Y2347760D01*
X9974308Y2328055D01*
X9957832Y2309876D01*
X9939653Y2293400D01*
X9919948Y2278786D01*
X9898904Y2266173D01*
X9876726Y2255683D01*
X9853626Y2247418D01*
X9829828Y2241457D01*
X9805559Y2237857D01*
X9781055Y2236653D01*
X8481055Y2236653D01*
X8456551Y2237857D01*
X8432282Y2241457D01*
X8408484Y2247418D01*
X8385384Y2255683D01*
X8363206Y2266173D01*
X8342162Y2278786D01*
X8322457Y2293400D01*
X8304278Y2309876D01*
X8287802Y2328055D01*
X8273188Y2347760D01*
X8260575Y2368804D01*
X8250085Y2390982D01*
X8241820Y2414082D01*
X8235859Y2437880D01*
X8232259Y2462149D01*
X8231055Y2486653D01*
X8231055Y5586653D01*
X8232259Y5611157D01*
X8235859Y5635426D01*
X8241820Y5659224D01*
X8250085Y5682324D01*
X8260575Y5704502D01*
X8273188Y5725546D01*
X8287802Y5745251D01*
X8304278Y5763430D01*
X8322457Y5779906D01*
X8342162Y5794520D01*
X8363206Y5807133D01*
X8385384Y5817623D01*
X8408484Y5825888D01*
X8432282Y5831849D01*
X8456551Y5835449D01*
X8481055Y5836653D01*
X9781055Y5836653D01*
X9805559Y5835449D01*
X9805559Y5835449D01*
G37*
D14*
X9131055Y4036653D03*
D15*
X49656200Y12405000D03*
X49656200Y11135000D03*
X49656200Y9865000D03*
X49656200Y8595000D03*
X54583800Y8595000D03*
X54583800Y9865000D03*
X54583800Y11135000D03*
X54583800Y12405000D03*
X36616200Y12405000D03*
X36616200Y11135000D03*
X36616200Y9865000D03*
X36616200Y8595000D03*
X41543800Y8595000D03*
X41543800Y9865000D03*
X41543800Y11135000D03*
X41543800Y12405000D03*
X23576200Y12405000D03*
X23576200Y11135000D03*
X23576200Y9865000D03*
X23576200Y8595000D03*
X28503800Y8595000D03*
X28503800Y9865000D03*
X28503800Y11135000D03*
X28503800Y12405000D03*
X10536200Y12405000D03*
X10536200Y11135000D03*
X10536200Y9865000D03*
X10536200Y8595000D03*
X15463800Y8595000D03*
X15463800Y9865000D03*
X15463800Y11135000D03*
X15463800Y12405000D03*
D16*
X62000000Y11000000D03*
X3000000Y11000000D03*
D17*
X12941055Y6336653D02*
X12941055Y4036653D01*
X12703189Y11606013D02*
X12703189Y6574519D01*
X11904202Y12405000D02*
X12703189Y11606013D01*
X12703189Y6574519D02*
X12941055Y6336653D01*
X10536200Y12405000D02*
X11904202Y12405000D01*
X12941055Y1736653D02*
X13892698Y785010D01*
X12941055Y4036653D02*
X12941055Y1736653D01*
X52061055Y1346065D02*
X52061055Y4036653D01*
X51500000Y785010D02*
X52061055Y1346065D01*
X39021055Y4036653D02*
X39021055Y785010D01*
X25981055Y4036653D02*
X25981055Y785010D01*
X25981055Y6336653D02*
X25981055Y4036653D01*
X25743189Y6574519D02*
X25981055Y6336653D01*
X25066800Y12405000D02*
X25743189Y11728611D01*
X25743189Y11728611D02*
X25743189Y6574519D01*
X23576200Y12405000D02*
X25066800Y12405000D01*
X39021055Y6336653D02*
X39021055Y4036653D01*
X38783189Y11728611D02*
X38783189Y6574519D01*
X38783189Y6574519D02*
X39021055Y6336653D01*
X38106800Y12405000D02*
X38783189Y11728611D01*
X36616200Y12405000D02*
X38106800Y12405000D01*
X52061055Y6336653D02*
X52061055Y4036653D01*
X51823189Y6574519D02*
X52061055Y6336653D01*
X51823189Y11728611D02*
X51823189Y6574519D01*
X51146800Y12405000D02*
X51823189Y11728611D01*
X49656200Y12405000D02*
X51146800Y12405000D01*
X57531065Y2449055D02*
X55867020Y785010D01*
X57531065Y12557101D02*
X57531065Y2449055D01*
X59000000Y14026036D02*
X57531065Y12557101D01*
X55867020Y785010D02*
X51285010Y785010D01*
X59000000Y15376036D02*
X59000000Y14026036D01*
X51285010Y785010D02*
X51500000Y785010D01*
X13892698Y785010D02*
X51285010Y785010D01*
X23576200Y9865000D02*
X23576200Y11135000D01*
X23353846Y15376036D02*
X24703846Y15376036D01*
X21825599Y13847789D02*
X23353846Y15376036D01*
X21825599Y11517599D02*
X21825599Y13847789D01*
X22208198Y11135000D02*
X21825599Y11517599D01*
X23576200Y11135000D02*
X22208198Y11135000D01*
X28503800Y14116082D02*
X27243846Y15376036D01*
X28503800Y12405000D02*
X28503800Y14116082D01*
X28503800Y11135000D02*
X28503800Y12405000D01*
X15463800Y12405000D02*
X15463800Y11135000D01*
X15463800Y14116082D02*
X14203846Y15376036D01*
X15463800Y12405000D02*
X15463800Y14116082D01*
X10536200Y11135000D02*
X10536200Y9865000D01*
X10313846Y15376036D02*
X11663846Y15376036D01*
X8785599Y11517599D02*
X8785599Y13847789D01*
X9168198Y11135000D02*
X8785599Y11517599D01*
X8785599Y13847789D02*
X10313846Y15376036D01*
X10536200Y11135000D02*
X9168198Y11135000D01*
X41543800Y14116082D02*
X40283846Y15376036D01*
X41543800Y12405000D02*
X41543800Y14116082D01*
X41543800Y11135000D02*
X41543800Y12405000D01*
X36616200Y9865000D02*
X36616200Y11135000D01*
X34865599Y13847789D02*
X36393846Y15376036D01*
X34865599Y11517599D02*
X34865599Y13847789D01*
X35248198Y11135000D02*
X34865599Y11517599D01*
X36393846Y15376036D02*
X37743846Y15376036D01*
X36616200Y11135000D02*
X35248198Y11135000D01*
X54583800Y11135000D02*
X54583800Y12405000D01*
X54583800Y14116082D02*
X53323846Y15376036D01*
X54583800Y12405000D02*
X54583800Y14116082D01*
X49656200Y9865000D02*
X49656200Y11135000D01*
X49433846Y15376036D02*
X50783846Y15376036D01*
X47905599Y13847789D02*
X49433846Y15376036D01*
X47905599Y11395001D02*
X47905599Y13847789D01*
X48165600Y11135000D02*
X47905599Y11395001D01*
X49656200Y11135000D02*
X48165600Y11135000D01*
X16751055Y4936653D02*
X16751055Y4036653D01*
X13713199Y7974509D02*
X16751055Y4936653D01*
X13973200Y9865000D02*
X13713199Y9604999D01*
X13713199Y9604999D02*
X13713199Y7974509D01*
X15463800Y9865000D02*
X13973200Y9865000D01*
X26753199Y7974509D02*
X29791055Y4936653D01*
X26753199Y9482401D02*
X26753199Y7974509D01*
X29791055Y4936653D02*
X29791055Y4036653D01*
X27135798Y9865000D02*
X26753199Y9482401D01*
X28503800Y9865000D02*
X27135798Y9865000D01*
X42831055Y4936653D02*
X42831055Y4036653D01*
X39793199Y7974509D02*
X42831055Y4936653D01*
X39793199Y9482401D02*
X39793199Y7974509D01*
X40175798Y9865000D02*
X39793199Y9482401D01*
X41543800Y9865000D02*
X40175798Y9865000D01*
X55871055Y4936653D02*
X55871055Y4036653D01*
X52833199Y7974509D02*
X55871055Y4936653D01*
X53215798Y9865000D02*
X52833199Y9482401D01*
X52833199Y9482401D02*
X52833199Y7974509D01*
X54583800Y9865000D02*
X53215798Y9865000D01*
X10536200Y5441798D02*
X9131055Y4036653D01*
X10536200Y8595000D02*
X10536200Y5441798D01*
X23576200Y5441798D02*
X22171055Y4036653D01*
X23576200Y8595000D02*
X23576200Y5441798D01*
X36616200Y5441798D02*
X35211055Y4036653D01*
X36616200Y8595000D02*
X36616200Y5441798D01*
X49656200Y5441798D02*
X48251055Y4036653D01*
X49656200Y8595000D02*
X49656200Y5441798D01*
G36*
X63235260Y18688168D02*
G01*
X63461568Y18619842D01*
X63670288Y18508863D01*
X63853478Y18359456D01*
X64004162Y18177312D01*
X64116592Y17969376D01*
X64186496Y17743553D01*
X64215001Y17472344D01*
X64215000Y8538389D01*
X64188168Y8264738D01*
X64119843Y8038435D01*
X64008864Y7829712D01*
X63859458Y7646523D01*
X63677314Y7495841D01*
X63469377Y7383409D01*
X63243552Y7313504D01*
X62972353Y7285000D01*
X59461439Y7285000D01*
X59428305Y7281736D01*
X59425364Y7281757D01*
X59414456Y7280688D01*
X59366691Y7275668D01*
X59346113Y7273641D01*
X59345427Y7273433D01*
X59317407Y7270488D01*
X59247691Y7256178D01*
X59177824Y7242849D01*
X59167331Y7239682D01*
X59074112Y7210826D01*
X59008464Y7183230D01*
X58942551Y7156599D01*
X58932881Y7151458D01*
X58932878Y7151457D01*
X58932876Y7151455D01*
X58932873Y7151454D01*
X58847035Y7105041D01*
X58788022Y7065236D01*
X58728519Y7026298D01*
X58720027Y7019373D01*
X58720023Y7019370D01*
X58720019Y7019366D01*
X58644836Y6957169D01*
X58594684Y6906665D01*
X58543874Y6856909D01*
X58541065Y6853514D01*
X58541065Y12138746D01*
X59679099Y13276780D01*
X59717633Y13308403D01*
X59843847Y13462196D01*
X59937632Y13637656D01*
X59941314Y13649795D01*
X59979324Y13775096D01*
X59998986Y13777033D01*
X60142247Y13820490D01*
X60274276Y13891062D01*
X60390001Y13986035D01*
X60484974Y14101760D01*
X60509806Y14148217D01*
X60597716Y14070586D01*
X60870502Y13911839D01*
X61169017Y13809361D01*
X61283203Y13786648D01*
X61535000Y13956045D01*
X61535000Y15371036D01*
X61545000Y15371036D01*
X61545000Y13956045D01*
X61796797Y13786648D01*
X61910983Y13809361D01*
X62209498Y13911839D01*
X62482284Y14070586D01*
X62718859Y14279500D01*
X62910131Y14530554D01*
X63048750Y14814099D01*
X63129388Y15119239D01*
X62959992Y15371036D01*
X61545000Y15371036D01*
X61535000Y15371036D01*
X61515000Y15371036D01*
X61515000Y15381036D01*
X61535000Y15381036D01*
X61535000Y16796027D01*
X61545000Y16796027D01*
X61545000Y15381036D01*
X62959992Y15381036D01*
X63129388Y15632833D01*
X63048750Y15937973D01*
X62910131Y16221518D01*
X62718859Y16472572D01*
X62482284Y16681486D01*
X62209498Y16840233D01*
X61910983Y16942711D01*
X61796797Y16965424D01*
X61545000Y16796027D01*
X61535000Y16796027D01*
X61283203Y16965424D01*
X61169017Y16942711D01*
X60870502Y16840233D01*
X60597716Y16681486D01*
X60509806Y16603855D01*
X60484974Y16650312D01*
X60390001Y16766037D01*
X60274276Y16861010D01*
X60142247Y16931582D01*
X59998986Y16975039D01*
X59850000Y16989713D01*
X58150000Y16989713D01*
X58001014Y16975039D01*
X57857753Y16931582D01*
X57725724Y16861010D01*
X57609999Y16766037D01*
X57515026Y16650312D01*
X57444454Y16518283D01*
X57400997Y16375022D01*
X57386323Y16226036D01*
X57386323Y14526036D01*
X57400997Y14377050D01*
X57444454Y14233789D01*
X57515026Y14101760D01*
X57574680Y14029071D01*
X56851971Y13306362D01*
X56813432Y13274734D01*
X56687218Y13120941D01*
X56628534Y13011150D01*
X56593433Y12945480D01*
X56535680Y12755095D01*
X56516179Y12557101D01*
X56521065Y12507493D01*
X56521066Y6471469D01*
X56509382Y6477714D01*
X56196471Y6572634D01*
X55871055Y6604685D01*
X55652868Y6583195D01*
X54588802Y7647261D01*
X54588802Y7745598D01*
X54778800Y7555600D01*
X55574400Y7551923D01*
X55723386Y7566597D01*
X55866647Y7610054D01*
X55998676Y7680626D01*
X56114401Y7775599D01*
X56209374Y7891324D01*
X56279946Y8023353D01*
X56323403Y8166614D01*
X56338077Y8315600D01*
X56334400Y8400000D01*
X56144400Y8590000D01*
X54588800Y8590000D01*
X54588800Y8570000D01*
X54578800Y8570000D01*
X54578800Y8590000D01*
X54558800Y8590000D01*
X54558800Y8600000D01*
X54578800Y8600000D01*
X54578800Y8620000D01*
X54588800Y8620000D01*
X54588800Y8600000D01*
X56144400Y8600000D01*
X56334400Y8790000D01*
X56338077Y8874400D01*
X56323403Y9023386D01*
X56279946Y9166647D01*
X56246083Y9230000D01*
X56279946Y9293353D01*
X56323403Y9436614D01*
X56338077Y9585600D01*
X56338077Y10144400D01*
X56323403Y10293386D01*
X56279946Y10436647D01*
X56246083Y10500000D01*
X56279946Y10563353D01*
X56323403Y10706614D01*
X56338077Y10855600D01*
X56338077Y11414400D01*
X56323403Y11563386D01*
X56279946Y11706647D01*
X56246083Y11770000D01*
X56279946Y11833353D01*
X56323403Y11976614D01*
X56338077Y12125600D01*
X56338077Y12684400D01*
X56323403Y12833386D01*
X56279946Y12976647D01*
X56209374Y13108676D01*
X56114401Y13224401D01*
X55998676Y13319374D01*
X55866647Y13389946D01*
X55723386Y13433403D01*
X55593800Y13446166D01*
X55593800Y14066478D01*
X55598686Y14116083D01*
X55593800Y14165690D01*
X55579185Y14314076D01*
X55521432Y14504462D01*
X55427647Y14679922D01*
X55301433Y14833715D01*
X55262894Y14865343D01*
X54924651Y15203586D01*
X54941636Y15376036D01*
X54910551Y15691651D01*
X54818489Y15995137D01*
X54668989Y16274832D01*
X54467796Y16519986D01*
X54222642Y16721179D01*
X53942947Y16870679D01*
X53639461Y16962741D01*
X53402940Y16986036D01*
X53244752Y16986036D01*
X53008231Y16962741D01*
X52704745Y16870679D01*
X52425050Y16721179D01*
X52290127Y16610450D01*
X52268820Y16650312D01*
X52173847Y16766037D01*
X52058122Y16861010D01*
X51926093Y16931582D01*
X51782832Y16975039D01*
X51633846Y16989713D01*
X49933846Y16989713D01*
X49784860Y16975039D01*
X49641599Y16931582D01*
X49509570Y16861010D01*
X49393845Y16766037D01*
X49298872Y16650312D01*
X49228300Y16518283D01*
X49184843Y16375022D01*
X49182906Y16355360D01*
X49045466Y16313668D01*
X48870006Y16219883D01*
X48716213Y16093669D01*
X48684590Y16055135D01*
X47226500Y14597045D01*
X47187967Y14565422D01*
X47156344Y14526889D01*
X47156343Y14526888D01*
X47061753Y14411629D01*
X46967967Y14236168D01*
X46910214Y14045783D01*
X46890713Y13847789D01*
X46895600Y13798172D01*
X46895599Y11444609D01*
X46890713Y11395001D01*
X46910214Y11197007D01*
X46944072Y11085393D01*
X46967967Y11006622D01*
X47061752Y10831161D01*
X47187966Y10677368D01*
X47226505Y10645740D01*
X47416339Y10455906D01*
X47447967Y10417367D01*
X47601760Y10291153D01*
X47777220Y10197368D01*
X47871267Y10168839D01*
X47903371Y10159100D01*
X47901923Y10144400D01*
X47901923Y9585600D01*
X47916597Y9436614D01*
X47960054Y9293353D01*
X47993917Y9230000D01*
X47960054Y9166647D01*
X47916597Y9023386D01*
X47901923Y8874400D01*
X47901923Y8315600D01*
X47916597Y8166614D01*
X47960054Y8023353D01*
X48030626Y7891324D01*
X48125599Y7775599D01*
X48241324Y7680626D01*
X48373353Y7610054D01*
X48516614Y7566597D01*
X48646200Y7553834D01*
X48646201Y6600330D01*
X47601055Y6600330D01*
X47403296Y6580852D01*
X47213138Y6523168D01*
X47037886Y6429495D01*
X46884277Y6303431D01*
X46758213Y6149822D01*
X46664540Y5974570D01*
X46606856Y5784412D01*
X46587378Y5586653D01*
X46587378Y2486653D01*
X46606856Y2288894D01*
X46664540Y2098736D01*
X46758213Y1923484D01*
X46863649Y1795010D01*
X43812932Y1795010D01*
X44010532Y1957176D01*
X44217973Y2209944D01*
X44372116Y2498325D01*
X44467036Y2811236D01*
X44491055Y3055103D01*
X44491055Y5018203D01*
X44467036Y5262070D01*
X44372116Y5574981D01*
X44217973Y5863362D01*
X44010532Y6116130D01*
X43757763Y6323571D01*
X43469382Y6477714D01*
X43156471Y6572634D01*
X42831055Y6604685D01*
X42612868Y6583195D01*
X41548802Y7647261D01*
X41548802Y7745598D01*
X41738800Y7555600D01*
X42534400Y7551923D01*
X42683386Y7566597D01*
X42826647Y7610054D01*
X42958676Y7680626D01*
X43074401Y7775599D01*
X43169374Y7891324D01*
X43239946Y8023353D01*
X43283403Y8166614D01*
X43298077Y8315600D01*
X43294400Y8400000D01*
X43104400Y8590000D01*
X41548800Y8590000D01*
X41548800Y8570000D01*
X41538800Y8570000D01*
X41538800Y8590000D01*
X41518800Y8590000D01*
X41518800Y8600000D01*
X41538800Y8600000D01*
X41538800Y8620000D01*
X41548800Y8620000D01*
X41548800Y8600000D01*
X43104400Y8600000D01*
X43294400Y8790000D01*
X43298077Y8874400D01*
X43283403Y9023386D01*
X43239946Y9166647D01*
X43206083Y9230000D01*
X43239946Y9293353D01*
X43283403Y9436614D01*
X43298077Y9585600D01*
X43298077Y10144400D01*
X43283403Y10293386D01*
X43239946Y10436647D01*
X43206083Y10500000D01*
X43239946Y10563353D01*
X43283403Y10706614D01*
X43298077Y10855600D01*
X43298077Y11414400D01*
X43283403Y11563386D01*
X43239946Y11706647D01*
X43206083Y11770000D01*
X43239946Y11833353D01*
X43283403Y11976614D01*
X43298077Y12125600D01*
X43298077Y12684400D01*
X43283403Y12833386D01*
X43239946Y12976647D01*
X43169374Y13108676D01*
X43074401Y13224401D01*
X42958676Y13319374D01*
X42826647Y13389946D01*
X42683386Y13433403D01*
X42553800Y13446166D01*
X42553800Y14066478D01*
X42558686Y14116083D01*
X42553800Y14165690D01*
X42539185Y14314076D01*
X42481432Y14504462D01*
X42387647Y14679922D01*
X42261433Y14833715D01*
X42222894Y14865343D01*
X41884651Y15203586D01*
X41901636Y15376036D01*
X41870551Y15691651D01*
X41778489Y15995137D01*
X41628989Y16274832D01*
X41427796Y16519986D01*
X41182642Y16721179D01*
X40902947Y16870679D01*
X40599461Y16962741D01*
X40362940Y16986036D01*
X40204752Y16986036D01*
X39968231Y16962741D01*
X39664745Y16870679D01*
X39385050Y16721179D01*
X39250127Y16610450D01*
X39228820Y16650312D01*
X39133847Y16766037D01*
X39018122Y16861010D01*
X38886093Y16931582D01*
X38742832Y16975039D01*
X38593846Y16989713D01*
X36893846Y16989713D01*
X36744860Y16975039D01*
X36601599Y16931582D01*
X36469570Y16861010D01*
X36353845Y16766037D01*
X36258872Y16650312D01*
X36188300Y16518283D01*
X36144843Y16375022D01*
X36142906Y16355360D01*
X36005466Y16313668D01*
X35830006Y16219883D01*
X35676213Y16093669D01*
X35644590Y16055135D01*
X34186500Y14597045D01*
X34147967Y14565422D01*
X34116344Y14526889D01*
X34116343Y14526888D01*
X34021753Y14411629D01*
X33927967Y14236168D01*
X33870214Y14045783D01*
X33850713Y13847789D01*
X33855600Y13798172D01*
X33855599Y11567207D01*
X33850713Y11517599D01*
X33870214Y11319605D01*
X33917183Y11164771D01*
X33927967Y11129220D01*
X34021752Y10953759D01*
X34147966Y10799966D01*
X34186505Y10768338D01*
X34498937Y10455906D01*
X34530565Y10417367D01*
X34684358Y10291153D01*
X34859818Y10197368D01*
X34866928Y10195211D01*
X34861923Y10144400D01*
X34861923Y9585600D01*
X34876597Y9436614D01*
X34920054Y9293353D01*
X34953917Y9230000D01*
X34920054Y9166647D01*
X34876597Y9023386D01*
X34861923Y8874400D01*
X34861923Y8315600D01*
X34876597Y8166614D01*
X34920054Y8023353D01*
X34990626Y7891324D01*
X35085599Y7775599D01*
X35201324Y7680626D01*
X35333353Y7610054D01*
X35476614Y7566597D01*
X35606200Y7553834D01*
X35606201Y6600330D01*
X34561055Y6600330D01*
X34363296Y6580852D01*
X34173138Y6523168D01*
X33997886Y6429495D01*
X33844277Y6303431D01*
X33718213Y6149822D01*
X33624540Y5974570D01*
X33566856Y5784412D01*
X33547378Y5586653D01*
X33547378Y2486653D01*
X33566856Y2288894D01*
X33624540Y2098736D01*
X33718213Y1923484D01*
X33823649Y1795010D01*
X30772932Y1795010D01*
X30970532Y1957176D01*
X31177973Y2209944D01*
X31332116Y2498325D01*
X31427036Y2811236D01*
X31451055Y3055103D01*
X31451055Y5018203D01*
X31427036Y5262070D01*
X31332116Y5574981D01*
X31177973Y5863362D01*
X30970532Y6116130D01*
X30717763Y6323571D01*
X30429382Y6477714D01*
X30116471Y6572634D01*
X29791055Y6604685D01*
X29572868Y6583195D01*
X28508802Y7647261D01*
X28508802Y7745598D01*
X28698800Y7555600D01*
X29494400Y7551923D01*
X29643386Y7566597D01*
X29786647Y7610054D01*
X29918676Y7680626D01*
X30034401Y7775599D01*
X30129374Y7891324D01*
X30199946Y8023353D01*
X30243403Y8166614D01*
X30258077Y8315600D01*
X30254400Y8400000D01*
X30064400Y8590000D01*
X28508800Y8590000D01*
X28508800Y8570000D01*
X28498800Y8570000D01*
X28498800Y8590000D01*
X28478800Y8590000D01*
X28478800Y8600000D01*
X28498800Y8600000D01*
X28498800Y8620000D01*
X28508800Y8620000D01*
X28508800Y8600000D01*
X30064400Y8600000D01*
X30254400Y8790000D01*
X30258077Y8874400D01*
X30243403Y9023386D01*
X30199946Y9166647D01*
X30166083Y9230000D01*
X30199946Y9293353D01*
X30243403Y9436614D01*
X30258077Y9585600D01*
X30258077Y10144400D01*
X30243403Y10293386D01*
X30199946Y10436647D01*
X30166083Y10500000D01*
X30199946Y10563353D01*
X30243403Y10706614D01*
X30258077Y10855600D01*
X30258077Y11414400D01*
X30243403Y11563386D01*
X30199946Y11706647D01*
X30166083Y11770000D01*
X30199946Y11833353D01*
X30243403Y11976614D01*
X30258077Y12125600D01*
X30258077Y12684400D01*
X30243403Y12833386D01*
X30199946Y12976647D01*
X30129374Y13108676D01*
X30034401Y13224401D01*
X29918676Y13319374D01*
X29786647Y13389946D01*
X29643386Y13433403D01*
X29513800Y13446166D01*
X29513800Y14066478D01*
X29518686Y14116083D01*
X29513800Y14165690D01*
X29499185Y14314076D01*
X29441432Y14504462D01*
X29347647Y14679922D01*
X29221433Y14833715D01*
X29182894Y14865343D01*
X28844651Y15203586D01*
X28861636Y15376036D01*
X28830551Y15691651D01*
X28738489Y15995137D01*
X28588989Y16274832D01*
X28387796Y16519986D01*
X28142642Y16721179D01*
X27862947Y16870679D01*
X27559461Y16962741D01*
X27322940Y16986036D01*
X27164752Y16986036D01*
X26928231Y16962741D01*
X26624745Y16870679D01*
X26345050Y16721179D01*
X26210127Y16610450D01*
X26188820Y16650312D01*
X26093847Y16766037D01*
X25978122Y16861010D01*
X25846093Y16931582D01*
X25702832Y16975039D01*
X25553846Y16989713D01*
X23853846Y16989713D01*
X23704860Y16975039D01*
X23561599Y16931582D01*
X23429570Y16861010D01*
X23313845Y16766037D01*
X23218872Y16650312D01*
X23148300Y16518283D01*
X23104843Y16375022D01*
X23102906Y16355360D01*
X22965466Y16313668D01*
X22790006Y16219883D01*
X22636213Y16093669D01*
X22604590Y16055135D01*
X21146500Y14597045D01*
X21107967Y14565422D01*
X21076344Y14526889D01*
X21076343Y14526888D01*
X20981753Y14411629D01*
X20887967Y14236168D01*
X20830214Y14045783D01*
X20810713Y13847789D01*
X20815600Y13798172D01*
X20815599Y11567207D01*
X20810713Y11517599D01*
X20830214Y11319605D01*
X20877183Y11164771D01*
X20887967Y11129220D01*
X20981752Y10953759D01*
X21107966Y10799966D01*
X21146505Y10768338D01*
X21458937Y10455906D01*
X21490565Y10417367D01*
X21644358Y10291153D01*
X21819818Y10197368D01*
X21826928Y10195211D01*
X21821923Y10144400D01*
X21821923Y9585600D01*
X21836597Y9436614D01*
X21880054Y9293353D01*
X21913917Y9230000D01*
X21880054Y9166647D01*
X21836597Y9023386D01*
X21821923Y8874400D01*
X21821923Y8315600D01*
X21836597Y8166614D01*
X21880054Y8023353D01*
X21950626Y7891324D01*
X22045599Y7775599D01*
X22161324Y7680626D01*
X22293353Y7610054D01*
X22436614Y7566597D01*
X22566200Y7553834D01*
X22566201Y6600330D01*
X21521055Y6600330D01*
X21323296Y6580852D01*
X21133138Y6523168D01*
X20957886Y6429495D01*
X20804277Y6303431D01*
X20678213Y6149822D01*
X20584540Y5974570D01*
X20526856Y5784412D01*
X20507378Y5586653D01*
X20507378Y2486653D01*
X20526856Y2288894D01*
X20584540Y2098736D01*
X20678213Y1923484D01*
X20783649Y1795010D01*
X17732932Y1795010D01*
X17930532Y1957176D01*
X18137973Y2209944D01*
X18292116Y2498325D01*
X18387036Y2811236D01*
X18411055Y3055103D01*
X18411055Y5018203D01*
X18387036Y5262070D01*
X18292116Y5574981D01*
X18137973Y5863362D01*
X17930532Y6116130D01*
X17677763Y6323571D01*
X17389382Y6477714D01*
X17076471Y6572634D01*
X16751055Y6604685D01*
X16532868Y6583195D01*
X15468802Y7647261D01*
X15468802Y7745598D01*
X15658800Y7555600D01*
X16454400Y7551923D01*
X16603386Y7566597D01*
X16746647Y7610054D01*
X16878676Y7680626D01*
X16994401Y7775599D01*
X17089374Y7891324D01*
X17159946Y8023353D01*
X17203403Y8166614D01*
X17218077Y8315600D01*
X17214400Y8400000D01*
X17024400Y8590000D01*
X15468800Y8590000D01*
X15468800Y8570000D01*
X15458800Y8570000D01*
X15458800Y8590000D01*
X15438800Y8590000D01*
X15438800Y8600000D01*
X15458800Y8600000D01*
X15458800Y8620000D01*
X15468800Y8620000D01*
X15468800Y8600000D01*
X17024400Y8600000D01*
X17214400Y8790000D01*
X17218077Y8874400D01*
X17203403Y9023386D01*
X17159946Y9166647D01*
X17126083Y9230000D01*
X17159946Y9293353D01*
X17203403Y9436614D01*
X17218077Y9585600D01*
X17218077Y10144400D01*
X17203403Y10293386D01*
X17159946Y10436647D01*
X17126083Y10500000D01*
X17159946Y10563353D01*
X17203403Y10706614D01*
X17218077Y10855600D01*
X17218077Y11414400D01*
X17203403Y11563386D01*
X17159946Y11706647D01*
X17126083Y11770000D01*
X17159946Y11833353D01*
X17203403Y11976614D01*
X17218077Y12125600D01*
X17218077Y12684400D01*
X17203403Y12833386D01*
X17159946Y12976647D01*
X17089374Y13108676D01*
X16994401Y13224401D01*
X16878676Y13319374D01*
X16746647Y13389946D01*
X16603386Y13433403D01*
X16473800Y13446166D01*
X16473800Y14066478D01*
X16478686Y14116083D01*
X16473800Y14165690D01*
X16459185Y14314076D01*
X16401432Y14504462D01*
X16307647Y14679922D01*
X16181433Y14833715D01*
X16142894Y14865343D01*
X15804651Y15203586D01*
X15821636Y15376036D01*
X15790551Y15691651D01*
X15698489Y15995137D01*
X15548989Y16274832D01*
X15347796Y16519986D01*
X15102642Y16721179D01*
X14822947Y16870679D01*
X14519461Y16962741D01*
X14282940Y16986036D01*
X14124752Y16986036D01*
X13888231Y16962741D01*
X13584745Y16870679D01*
X13305050Y16721179D01*
X13170127Y16610450D01*
X13148820Y16650312D01*
X13053847Y16766037D01*
X12938122Y16861010D01*
X12806093Y16931582D01*
X12662832Y16975039D01*
X12513846Y16989713D01*
X10813846Y16989713D01*
X10664860Y16975039D01*
X10521599Y16931582D01*
X10389570Y16861010D01*
X10273845Y16766037D01*
X10178872Y16650312D01*
X10108300Y16518283D01*
X10064843Y16375022D01*
X10062906Y16355360D01*
X9925466Y16313668D01*
X9750006Y16219883D01*
X9596213Y16093669D01*
X9564590Y16055135D01*
X8106500Y14597045D01*
X8067967Y14565422D01*
X8036344Y14526889D01*
X8036343Y14526888D01*
X7941753Y14411629D01*
X7847967Y14236168D01*
X7790214Y14045783D01*
X7770713Y13847789D01*
X7775600Y13798172D01*
X7775599Y11567207D01*
X7770713Y11517599D01*
X7790214Y11319605D01*
X7837183Y11164771D01*
X7847967Y11129220D01*
X7941752Y10953759D01*
X8067966Y10799966D01*
X8106505Y10768338D01*
X8418937Y10455906D01*
X8450565Y10417367D01*
X8604358Y10291153D01*
X8779818Y10197368D01*
X8786928Y10195211D01*
X8781923Y10144400D01*
X8781923Y9585600D01*
X8796597Y9436614D01*
X8840054Y9293353D01*
X8873917Y9230000D01*
X8840054Y9166647D01*
X8796597Y9023386D01*
X8781923Y8874400D01*
X8781923Y8315600D01*
X8796597Y8166614D01*
X8840054Y8023353D01*
X8910626Y7891324D01*
X9005599Y7775599D01*
X9121324Y7680626D01*
X9253353Y7610054D01*
X9396614Y7566597D01*
X9526200Y7553834D01*
X9526201Y6600330D01*
X8481055Y6600330D01*
X8283296Y6580852D01*
X8093138Y6523168D01*
X7917886Y6429495D01*
X7764277Y6303431D01*
X7638213Y6149822D01*
X7544540Y5974570D01*
X7486856Y5784412D01*
X7467378Y5586653D01*
X7467378Y2486653D01*
X7486856Y2288894D01*
X7544540Y2098736D01*
X7638213Y1923484D01*
X7764277Y1769875D01*
X7917886Y1643811D01*
X8093138Y1550138D01*
X8283296Y1492454D01*
X8481055Y1472976D01*
X9781055Y1472976D01*
X9978814Y1492454D01*
X10168972Y1550138D01*
X10344224Y1643811D01*
X10497833Y1769875D01*
X10623897Y1923484D01*
X10717570Y2098736D01*
X10775254Y2288894D01*
X10794732Y2486653D01*
X10794732Y4271975D01*
X11215294Y4692537D01*
X11253833Y4724165D01*
X11281055Y4757335D01*
X11281055Y3055103D01*
X11305075Y2811236D01*
X11399995Y2498325D01*
X11554138Y2209944D01*
X11761579Y1957176D01*
X11931056Y1818090D01*
X11931056Y1786270D01*
X11926169Y1736653D01*
X11945670Y1538659D01*
X12003423Y1348274D01*
X12097209Y1172813D01*
X12187720Y1062525D01*
X12223423Y1019020D01*
X12261956Y987397D01*
X12464353Y785000D01*
X6785000Y785000D01*
X6785000Y6038561D01*
X6781736Y6071695D01*
X6781757Y6074636D01*
X6780688Y6085544D01*
X6775668Y6133309D01*
X6773641Y6153887D01*
X6773433Y6154573D01*
X6770488Y6182593D01*
X6756178Y6252309D01*
X6742849Y6322176D01*
X6739682Y6332669D01*
X6710826Y6425888D01*
X6683230Y6491536D01*
X6656599Y6557449D01*
X6651454Y6567127D01*
X6605041Y6652965D01*
X6565236Y6711978D01*
X6526298Y6771481D01*
X6519371Y6779975D01*
X6519370Y6779977D01*
X6519366Y6779981D01*
X6457169Y6855164D01*
X6406665Y6905316D01*
X6356909Y6956126D01*
X6348465Y6963112D01*
X6348459Y6963118D01*
X6348452Y6963123D01*
X6272844Y7024788D01*
X6213580Y7064164D01*
X6154868Y7104364D01*
X6145240Y7109570D01*
X6145237Y7109572D01*
X6145234Y7109573D01*
X6145227Y7109577D01*
X6059066Y7155389D01*
X5993263Y7182511D01*
X5927898Y7210526D01*
X5917428Y7213768D01*
X5824010Y7241973D01*
X5754224Y7255791D01*
X5684617Y7270586D01*
X5673717Y7271732D01*
X5576599Y7281254D01*
X5576594Y7281254D01*
X5538561Y7285000D01*
X2038388Y7285000D01*
X1764738Y7311832D01*
X1538435Y7380157D01*
X1329712Y7491136D01*
X1146523Y7640542D01*
X995841Y7822686D01*
X883409Y8030623D01*
X813504Y8256448D01*
X785000Y8527647D01*
X785000Y17461612D01*
X811832Y17735260D01*
X880158Y17961568D01*
X991137Y18170288D01*
X1140544Y18353478D01*
X1322688Y18504162D01*
X1530624Y18616592D01*
X1756447Y18686496D01*
X2027647Y18715000D01*
X62961612Y18715000D01*
X63235260Y18688168D01*
X63235260Y18688168D01*
G37*
X63235260Y18688168D02*
X63461568Y18619842D01*
X63670288Y18508863D01*
X63853478Y18359456D01*
X64004162Y18177312D01*
X64116592Y17969376D01*
X64186496Y17743553D01*
X64215001Y17472344D01*
X64215000Y8538389D01*
X64188168Y8264738D01*
X64119843Y8038435D01*
X64008864Y7829712D01*
X63859458Y7646523D01*
X63677314Y7495841D01*
X63469377Y7383409D01*
X63243552Y7313504D01*
X62972353Y7285000D01*
X59461439Y7285000D01*
X59428305Y7281736D01*
X59425364Y7281757D01*
X59414456Y7280688D01*
X59366691Y7275668D01*
X59346113Y7273641D01*
X59345427Y7273433D01*
X59317407Y7270488D01*
X59247691Y7256178D01*
X59177824Y7242849D01*
X59167331Y7239682D01*
X59074112Y7210826D01*
X59008464Y7183230D01*
X58942551Y7156599D01*
X58932881Y7151458D01*
X58932878Y7151457D01*
X58932876Y7151455D01*
X58932873Y7151454D01*
X58847035Y7105041D01*
X58788022Y7065236D01*
X58728519Y7026298D01*
X58720027Y7019373D01*
X58720023Y7019370D01*
X58720019Y7019366D01*
X58644836Y6957169D01*
X58594684Y6906665D01*
X58543874Y6856909D01*
X58541065Y6853514D01*
X58541065Y12138746D01*
X59679099Y13276780D01*
X59717633Y13308403D01*
X59843847Y13462196D01*
X59937632Y13637656D01*
X59941314Y13649795D01*
X59979324Y13775096D01*
X59998986Y13777033D01*
X60142247Y13820490D01*
X60274276Y13891062D01*
X60390001Y13986035D01*
X60484974Y14101760D01*
X60509806Y14148217D01*
X60597716Y14070586D01*
X60870502Y13911839D01*
X61169017Y13809361D01*
X61283203Y13786648D01*
X61535000Y13956045D01*
X61535000Y15371036D01*
X61545000Y15371036D01*
X61545000Y13956045D01*
X61796797Y13786648D01*
X61910983Y13809361D01*
X62209498Y13911839D01*
X62482284Y14070586D01*
X62718859Y14279500D01*
X62910131Y14530554D01*
X63048750Y14814099D01*
X63129388Y15119239D01*
X62959992Y15371036D01*
X61545000Y15371036D01*
X61535000Y15371036D01*
X61515000Y15371036D01*
X61515000Y15381036D01*
X61535000Y15381036D01*
X61535000Y16796027D01*
X61545000Y16796027D01*
X61545000Y15381036D01*
X62959992Y15381036D01*
X63129388Y15632833D01*
X63048750Y15937973D01*
X62910131Y16221518D01*
X62718859Y16472572D01*
X62482284Y16681486D01*
X62209498Y16840233D01*
X61910983Y16942711D01*
X61796797Y16965424D01*
X61545000Y16796027D01*
X61535000Y16796027D01*
X61283203Y16965424D01*
X61169017Y16942711D01*
X60870502Y16840233D01*
X60597716Y16681486D01*
X60509806Y16603855D01*
X60484974Y16650312D01*
X60390001Y16766037D01*
X60274276Y16861010D01*
X60142247Y16931582D01*
X59998986Y16975039D01*
X59850000Y16989713D01*
X58150000Y16989713D01*
X58001014Y16975039D01*
X57857753Y16931582D01*
X57725724Y16861010D01*
X57609999Y16766037D01*
X57515026Y16650312D01*
X57444454Y16518283D01*
X57400997Y16375022D01*
X57386323Y16226036D01*
X57386323Y14526036D01*
X57400997Y14377050D01*
X57444454Y14233789D01*
X57515026Y14101760D01*
X57574680Y14029071D01*
X56851971Y13306362D01*
X56813432Y13274734D01*
X56687218Y13120941D01*
X56628534Y13011150D01*
X56593433Y12945480D01*
X56535680Y12755095D01*
X56516179Y12557101D01*
X56521065Y12507493D01*
X56521066Y6471469D01*
X56509382Y6477714D01*
X56196471Y6572634D01*
X55871055Y6604685D01*
X55652868Y6583195D01*
X54588802Y7647261D01*
X54588802Y7745598D01*
X54778800Y7555600D01*
X55574400Y7551923D01*
X55723386Y7566597D01*
X55866647Y7610054D01*
X55998676Y7680626D01*
X56114401Y7775599D01*
X56209374Y7891324D01*
X56279946Y8023353D01*
X56323403Y8166614D01*
X56338077Y8315600D01*
X56334400Y8400000D01*
X56144400Y8590000D01*
X54588800Y8590000D01*
X54588800Y8570000D01*
X54578800Y8570000D01*
X54578800Y8590000D01*
X54558800Y8590000D01*
X54558800Y8600000D01*
X54578800Y8600000D01*
X54578800Y8620000D01*
X54588800Y8620000D01*
X54588800Y8600000D01*
X56144400Y8600000D01*
X56334400Y8790000D01*
X56338077Y8874400D01*
X56323403Y9023386D01*
X56279946Y9166647D01*
X56246083Y9230000D01*
X56279946Y9293353D01*
X56323403Y9436614D01*
X56338077Y9585600D01*
X56338077Y10144400D01*
X56323403Y10293386D01*
X56279946Y10436647D01*
X56246083Y10500000D01*
X56279946Y10563353D01*
X56323403Y10706614D01*
X56338077Y10855600D01*
X56338077Y11414400D01*
X56323403Y11563386D01*
X56279946Y11706647D01*
X56246083Y11770000D01*
X56279946Y11833353D01*
X56323403Y11976614D01*
X56338077Y12125600D01*
X56338077Y12684400D01*
X56323403Y12833386D01*
X56279946Y12976647D01*
X56209374Y13108676D01*
X56114401Y13224401D01*
X55998676Y13319374D01*
X55866647Y13389946D01*
X55723386Y13433403D01*
X55593800Y13446166D01*
X55593800Y14066478D01*
X55598686Y14116083D01*
X55593800Y14165690D01*
X55579185Y14314076D01*
X55521432Y14504462D01*
X55427647Y14679922D01*
X55301433Y14833715D01*
X55262894Y14865343D01*
X54924651Y15203586D01*
X54941636Y15376036D01*
X54910551Y15691651D01*
X54818489Y15995137D01*
X54668989Y16274832D01*
X54467796Y16519986D01*
X54222642Y16721179D01*
X53942947Y16870679D01*
X53639461Y16962741D01*
X53402940Y16986036D01*
X53244752Y16986036D01*
X53008231Y16962741D01*
X52704745Y16870679D01*
X52425050Y16721179D01*
X52290127Y16610450D01*
X52268820Y16650312D01*
X52173847Y16766037D01*
X52058122Y16861010D01*
X51926093Y16931582D01*
X51782832Y16975039D01*
X51633846Y16989713D01*
X49933846Y16989713D01*
X49784860Y16975039D01*
X49641599Y16931582D01*
X49509570Y16861010D01*
X49393845Y16766037D01*
X49298872Y16650312D01*
X49228300Y16518283D01*
X49184843Y16375022D01*
X49182906Y16355360D01*
X49045466Y16313668D01*
X48870006Y16219883D01*
X48716213Y16093669D01*
X48684590Y16055135D01*
X47226500Y14597045D01*
X47187967Y14565422D01*
X47156344Y14526889D01*
X47156343Y14526888D01*
X47061753Y14411629D01*
X46967967Y14236168D01*
X46910214Y14045783D01*
X46890713Y13847789D01*
X46895600Y13798172D01*
X46895599Y11444609D01*
X46890713Y11395001D01*
X46910214Y11197007D01*
X46944072Y11085393D01*
X46967967Y11006622D01*
X47061752Y10831161D01*
X47187966Y10677368D01*
X47226505Y10645740D01*
X47416339Y10455906D01*
X47447967Y10417367D01*
X47601760Y10291153D01*
X47777220Y10197368D01*
X47871267Y10168839D01*
X47903371Y10159100D01*
X47901923Y10144400D01*
X47901923Y9585600D01*
X47916597Y9436614D01*
X47960054Y9293353D01*
X47993917Y9230000D01*
X47960054Y9166647D01*
X47916597Y9023386D01*
X47901923Y8874400D01*
X47901923Y8315600D01*
X47916597Y8166614D01*
X47960054Y8023353D01*
X48030626Y7891324D01*
X48125599Y7775599D01*
X48241324Y7680626D01*
X48373353Y7610054D01*
X48516614Y7566597D01*
X48646200Y7553834D01*
X48646201Y6600330D01*
X47601055Y6600330D01*
X47403296Y6580852D01*
X47213138Y6523168D01*
X47037886Y6429495D01*
X46884277Y6303431D01*
X46758213Y6149822D01*
X46664540Y5974570D01*
X46606856Y5784412D01*
X46587378Y5586653D01*
X46587378Y2486653D01*
X46606856Y2288894D01*
X46664540Y2098736D01*
X46758213Y1923484D01*
X46863649Y1795010D01*
X43812932Y1795010D01*
X44010532Y1957176D01*
X44217973Y2209944D01*
X44372116Y2498325D01*
X44467036Y2811236D01*
X44491055Y3055103D01*
X44491055Y5018203D01*
X44467036Y5262070D01*
X44372116Y5574981D01*
X44217973Y5863362D01*
X44010532Y6116130D01*
X43757763Y6323571D01*
X43469382Y6477714D01*
X43156471Y6572634D01*
X42831055Y6604685D01*
X42612868Y6583195D01*
X41548802Y7647261D01*
X41548802Y7745598D01*
X41738800Y7555600D01*
X42534400Y7551923D01*
X42683386Y7566597D01*
X42826647Y7610054D01*
X42958676Y7680626D01*
X43074401Y7775599D01*
X43169374Y7891324D01*
X43239946Y8023353D01*
X43283403Y8166614D01*
X43298077Y8315600D01*
X43294400Y8400000D01*
X43104400Y8590000D01*
X41548800Y8590000D01*
X41548800Y8570000D01*
X41538800Y8570000D01*
X41538800Y8590000D01*
X41518800Y8590000D01*
X41518800Y8600000D01*
X41538800Y8600000D01*
X41538800Y8620000D01*
X41548800Y8620000D01*
X41548800Y8600000D01*
X43104400Y8600000D01*
X43294400Y8790000D01*
X43298077Y8874400D01*
X43283403Y9023386D01*
X43239946Y9166647D01*
X43206083Y9230000D01*
X43239946Y9293353D01*
X43283403Y9436614D01*
X43298077Y9585600D01*
X43298077Y10144400D01*
X43283403Y10293386D01*
X43239946Y10436647D01*
X43206083Y10500000D01*
X43239946Y10563353D01*
X43283403Y10706614D01*
X43298077Y10855600D01*
X43298077Y11414400D01*
X43283403Y11563386D01*
X43239946Y11706647D01*
X43206083Y11770000D01*
X43239946Y11833353D01*
X43283403Y11976614D01*
X43298077Y12125600D01*
X43298077Y12684400D01*
X43283403Y12833386D01*
X43239946Y12976647D01*
X43169374Y13108676D01*
X43074401Y13224401D01*
X42958676Y13319374D01*
X42826647Y13389946D01*
X42683386Y13433403D01*
X42553800Y13446166D01*
X42553800Y14066478D01*
X42558686Y14116083D01*
X42553800Y14165690D01*
X42539185Y14314076D01*
X42481432Y14504462D01*
X42387647Y14679922D01*
X42261433Y14833715D01*
X42222894Y14865343D01*
X41884651Y15203586D01*
X41901636Y15376036D01*
X41870551Y15691651D01*
X41778489Y15995137D01*
X41628989Y16274832D01*
X41427796Y16519986D01*
X41182642Y16721179D01*
X40902947Y16870679D01*
X40599461Y16962741D01*
X40362940Y16986036D01*
X40204752Y16986036D01*
X39968231Y16962741D01*
X39664745Y16870679D01*
X39385050Y16721179D01*
X39250127Y16610450D01*
X39228820Y16650312D01*
X39133847Y16766037D01*
X39018122Y16861010D01*
X38886093Y16931582D01*
X38742832Y16975039D01*
X38593846Y16989713D01*
X36893846Y16989713D01*
X36744860Y16975039D01*
X36601599Y16931582D01*
X36469570Y16861010D01*
X36353845Y16766037D01*
X36258872Y16650312D01*
X36188300Y16518283D01*
X36144843Y16375022D01*
X36142906Y16355360D01*
X36005466Y16313668D01*
X35830006Y16219883D01*
X35676213Y16093669D01*
X35644590Y16055135D01*
X34186500Y14597045D01*
X34147967Y14565422D01*
X34116344Y14526889D01*
X34116343Y14526888D01*
X34021753Y14411629D01*
X33927967Y14236168D01*
X33870214Y14045783D01*
X33850713Y13847789D01*
X33855600Y13798172D01*
X33855599Y11567207D01*
X33850713Y11517599D01*
X33870214Y11319605D01*
X33917183Y11164771D01*
X33927967Y11129220D01*
X34021752Y10953759D01*
X34147966Y10799966D01*
X34186505Y10768338D01*
X34498937Y10455906D01*
X34530565Y10417367D01*
X34684358Y10291153D01*
X34859818Y10197368D01*
X34866928Y10195211D01*
X34861923Y10144400D01*
X34861923Y9585600D01*
X34876597Y9436614D01*
X34920054Y9293353D01*
X34953917Y9230000D01*
X34920054Y9166647D01*
X34876597Y9023386D01*
X34861923Y8874400D01*
X34861923Y8315600D01*
X34876597Y8166614D01*
X34920054Y8023353D01*
X34990626Y7891324D01*
X35085599Y7775599D01*
X35201324Y7680626D01*
X35333353Y7610054D01*
X35476614Y7566597D01*
X35606200Y7553834D01*
X35606201Y6600330D01*
X34561055Y6600330D01*
X34363296Y6580852D01*
X34173138Y6523168D01*
X33997886Y6429495D01*
X33844277Y6303431D01*
X33718213Y6149822D01*
X33624540Y5974570D01*
X33566856Y5784412D01*
X33547378Y5586653D01*
X33547378Y2486653D01*
X33566856Y2288894D01*
X33624540Y2098736D01*
X33718213Y1923484D01*
X33823649Y1795010D01*
X30772932Y1795010D01*
X30970532Y1957176D01*
X31177973Y2209944D01*
X31332116Y2498325D01*
X31427036Y2811236D01*
X31451055Y3055103D01*
X31451055Y5018203D01*
X31427036Y5262070D01*
X31332116Y5574981D01*
X31177973Y5863362D01*
X30970532Y6116130D01*
X30717763Y6323571D01*
X30429382Y6477714D01*
X30116471Y6572634D01*
X29791055Y6604685D01*
X29572868Y6583195D01*
X28508802Y7647261D01*
X28508802Y7745598D01*
X28698800Y7555600D01*
X29494400Y7551923D01*
X29643386Y7566597D01*
X29786647Y7610054D01*
X29918676Y7680626D01*
X30034401Y7775599D01*
X30129374Y7891324D01*
X30199946Y8023353D01*
X30243403Y8166614D01*
X30258077Y8315600D01*
X30254400Y8400000D01*
X30064400Y8590000D01*
X28508800Y8590000D01*
X28508800Y8570000D01*
X28498800Y8570000D01*
X28498800Y8590000D01*
X28478800Y8590000D01*
X28478800Y8600000D01*
X28498800Y8600000D01*
X28498800Y8620000D01*
X28508800Y8620000D01*
X28508800Y8600000D01*
X30064400Y8600000D01*
X30254400Y8790000D01*
X30258077Y8874400D01*
X30243403Y9023386D01*
X30199946Y9166647D01*
X30166083Y9230000D01*
X30199946Y9293353D01*
X30243403Y9436614D01*
X30258077Y9585600D01*
X30258077Y10144400D01*
X30243403Y10293386D01*
X30199946Y10436647D01*
X30166083Y10500000D01*
X30199946Y10563353D01*
X30243403Y10706614D01*
X30258077Y10855600D01*
X30258077Y11414400D01*
X30243403Y11563386D01*
X30199946Y11706647D01*
X30166083Y11770000D01*
X30199946Y11833353D01*
X30243403Y11976614D01*
X30258077Y12125600D01*
X30258077Y12684400D01*
X30243403Y12833386D01*
X30199946Y12976647D01*
X30129374Y13108676D01*
X30034401Y13224401D01*
X29918676Y13319374D01*
X29786647Y13389946D01*
X29643386Y13433403D01*
X29513800Y13446166D01*
X29513800Y14066478D01*
X29518686Y14116083D01*
X29513800Y14165690D01*
X29499185Y14314076D01*
X29441432Y14504462D01*
X29347647Y14679922D01*
X29221433Y14833715D01*
X29182894Y14865343D01*
X28844651Y15203586D01*
X28861636Y15376036D01*
X28830551Y15691651D01*
X28738489Y15995137D01*
X28588989Y16274832D01*
X28387796Y16519986D01*
X28142642Y16721179D01*
X27862947Y16870679D01*
X27559461Y16962741D01*
X27322940Y16986036D01*
X27164752Y16986036D01*
X26928231Y16962741D01*
X26624745Y16870679D01*
X26345050Y16721179D01*
X26210127Y16610450D01*
X26188820Y16650312D01*
X26093847Y16766037D01*
X25978122Y16861010D01*
X25846093Y16931582D01*
X25702832Y16975039D01*
X25553846Y16989713D01*
X23853846Y16989713D01*
X23704860Y16975039D01*
X23561599Y16931582D01*
X23429570Y16861010D01*
X23313845Y16766037D01*
X23218872Y16650312D01*
X23148300Y16518283D01*
X23104843Y16375022D01*
X23102906Y16355360D01*
X22965466Y16313668D01*
X22790006Y16219883D01*
X22636213Y16093669D01*
X22604590Y16055135D01*
X21146500Y14597045D01*
X21107967Y14565422D01*
X21076344Y14526889D01*
X21076343Y14526888D01*
X20981753Y14411629D01*
X20887967Y14236168D01*
X20830214Y14045783D01*
X20810713Y13847789D01*
X20815600Y13798172D01*
X20815599Y11567207D01*
X20810713Y11517599D01*
X20830214Y11319605D01*
X20877183Y11164771D01*
X20887967Y11129220D01*
X20981752Y10953759D01*
X21107966Y10799966D01*
X21146505Y10768338D01*
X21458937Y10455906D01*
X21490565Y10417367D01*
X21644358Y10291153D01*
X21819818Y10197368D01*
X21826928Y10195211D01*
X21821923Y10144400D01*
X21821923Y9585600D01*
X21836597Y9436614D01*
X21880054Y9293353D01*
X21913917Y9230000D01*
X21880054Y9166647D01*
X21836597Y9023386D01*
X21821923Y8874400D01*
X21821923Y8315600D01*
X21836597Y8166614D01*
X21880054Y8023353D01*
X21950626Y7891324D01*
X22045599Y7775599D01*
X22161324Y7680626D01*
X22293353Y7610054D01*
X22436614Y7566597D01*
X22566200Y7553834D01*
X22566201Y6600330D01*
X21521055Y6600330D01*
X21323296Y6580852D01*
X21133138Y6523168D01*
X20957886Y6429495D01*
X20804277Y6303431D01*
X20678213Y6149822D01*
X20584540Y5974570D01*
X20526856Y5784412D01*
X20507378Y5586653D01*
X20507378Y2486653D01*
X20526856Y2288894D01*
X20584540Y2098736D01*
X20678213Y1923484D01*
X20783649Y1795010D01*
X17732932Y1795010D01*
X17930532Y1957176D01*
X18137973Y2209944D01*
X18292116Y2498325D01*
X18387036Y2811236D01*
X18411055Y3055103D01*
X18411055Y5018203D01*
X18387036Y5262070D01*
X18292116Y5574981D01*
X18137973Y5863362D01*
X17930532Y6116130D01*
X17677763Y6323571D01*
X17389382Y6477714D01*
X17076471Y6572634D01*
X16751055Y6604685D01*
X16532868Y6583195D01*
X15468802Y7647261D01*
X15468802Y7745598D01*
X15658800Y7555600D01*
X16454400Y7551923D01*
X16603386Y7566597D01*
X16746647Y7610054D01*
X16878676Y7680626D01*
X16994401Y7775599D01*
X17089374Y7891324D01*
X17159946Y8023353D01*
X17203403Y8166614D01*
X17218077Y8315600D01*
X17214400Y8400000D01*
X17024400Y8590000D01*
X15468800Y8590000D01*
X15468800Y8570000D01*
X15458800Y8570000D01*
X15458800Y8590000D01*
X15438800Y8590000D01*
X15438800Y8600000D01*
X15458800Y8600000D01*
X15458800Y8620000D01*
X15468800Y8620000D01*
X15468800Y8600000D01*
X17024400Y8600000D01*
X17214400Y8790000D01*
X17218077Y8874400D01*
X17203403Y9023386D01*
X17159946Y9166647D01*
X17126083Y9230000D01*
X17159946Y9293353D01*
X17203403Y9436614D01*
X17218077Y9585600D01*
X17218077Y10144400D01*
X17203403Y10293386D01*
X17159946Y10436647D01*
X17126083Y10500000D01*
X17159946Y10563353D01*
X17203403Y10706614D01*
X17218077Y10855600D01*
X17218077Y11414400D01*
X17203403Y11563386D01*
X17159946Y11706647D01*
X17126083Y11770000D01*
X17159946Y11833353D01*
X17203403Y11976614D01*
X17218077Y12125600D01*
X17218077Y12684400D01*
X17203403Y12833386D01*
X17159946Y12976647D01*
X17089374Y13108676D01*
X16994401Y13224401D01*
X16878676Y13319374D01*
X16746647Y13389946D01*
X16603386Y13433403D01*
X16473800Y13446166D01*
X16473800Y14066478D01*
X16478686Y14116083D01*
X16473800Y14165690D01*
X16459185Y14314076D01*
X16401432Y14504462D01*
X16307647Y14679922D01*
X16181433Y14833715D01*
X16142894Y14865343D01*
X15804651Y15203586D01*
X15821636Y15376036D01*
X15790551Y15691651D01*
X15698489Y15995137D01*
X15548989Y16274832D01*
X15347796Y16519986D01*
X15102642Y16721179D01*
X14822947Y16870679D01*
X14519461Y16962741D01*
X14282940Y16986036D01*
X14124752Y16986036D01*
X13888231Y16962741D01*
X13584745Y16870679D01*
X13305050Y16721179D01*
X13170127Y16610450D01*
X13148820Y16650312D01*
X13053847Y16766037D01*
X12938122Y16861010D01*
X12806093Y16931582D01*
X12662832Y16975039D01*
X12513846Y16989713D01*
X10813846Y16989713D01*
X10664860Y16975039D01*
X10521599Y16931582D01*
X10389570Y16861010D01*
X10273845Y16766037D01*
X10178872Y16650312D01*
X10108300Y16518283D01*
X10064843Y16375022D01*
X10062906Y16355360D01*
X9925466Y16313668D01*
X9750006Y16219883D01*
X9596213Y16093669D01*
X9564590Y16055135D01*
X8106500Y14597045D01*
X8067967Y14565422D01*
X8036344Y14526889D01*
X8036343Y14526888D01*
X7941753Y14411629D01*
X7847967Y14236168D01*
X7790214Y14045783D01*
X7770713Y13847789D01*
X7775600Y13798172D01*
X7775599Y11567207D01*
X7770713Y11517599D01*
X7790214Y11319605D01*
X7837183Y11164771D01*
X7847967Y11129220D01*
X7941752Y10953759D01*
X8067966Y10799966D01*
X8106505Y10768338D01*
X8418937Y10455906D01*
X8450565Y10417367D01*
X8604358Y10291153D01*
X8779818Y10197368D01*
X8786928Y10195211D01*
X8781923Y10144400D01*
X8781923Y9585600D01*
X8796597Y9436614D01*
X8840054Y9293353D01*
X8873917Y9230000D01*
X8840054Y9166647D01*
X8796597Y9023386D01*
X8781923Y8874400D01*
X8781923Y8315600D01*
X8796597Y8166614D01*
X8840054Y8023353D01*
X8910626Y7891324D01*
X9005599Y7775599D01*
X9121324Y7680626D01*
X9253353Y7610054D01*
X9396614Y7566597D01*
X9526200Y7553834D01*
X9526201Y6600330D01*
X8481055Y6600330D01*
X8283296Y6580852D01*
X8093138Y6523168D01*
X7917886Y6429495D01*
X7764277Y6303431D01*
X7638213Y6149822D01*
X7544540Y5974570D01*
X7486856Y5784412D01*
X7467378Y5586653D01*
X7467378Y2486653D01*
X7486856Y2288894D01*
X7544540Y2098736D01*
X7638213Y1923484D01*
X7764277Y1769875D01*
X7917886Y1643811D01*
X8093138Y1550138D01*
X8283296Y1492454D01*
X8481055Y1472976D01*
X9781055Y1472976D01*
X9978814Y1492454D01*
X10168972Y1550138D01*
X10344224Y1643811D01*
X10497833Y1769875D01*
X10623897Y1923484D01*
X10717570Y2098736D01*
X10775254Y2288894D01*
X10794732Y2486653D01*
X10794732Y4271975D01*
X11215294Y4692537D01*
X11253833Y4724165D01*
X11281055Y4757335D01*
X11281055Y3055103D01*
X11305075Y2811236D01*
X11399995Y2498325D01*
X11554138Y2209944D01*
X11761579Y1957176D01*
X11931056Y1818090D01*
X11931056Y1786270D01*
X11926169Y1736653D01*
X11945670Y1538659D01*
X12003423Y1348274D01*
X12097209Y1172813D01*
X12187720Y1062525D01*
X12223423Y1019020D01*
X12261956Y987397D01*
X12464353Y785000D01*
X6785000Y785000D01*
X6785000Y6038561D01*
X6781736Y6071695D01*
X6781757Y6074636D01*
X6780688Y6085544D01*
X6775668Y6133309D01*
X6773641Y6153887D01*
X6773433Y6154573D01*
X6770488Y6182593D01*
X6756178Y6252309D01*
X6742849Y6322176D01*
X6739682Y6332669D01*
X6710826Y6425888D01*
X6683230Y6491536D01*
X6656599Y6557449D01*
X6651454Y6567127D01*
X6605041Y6652965D01*
X6565236Y6711978D01*
X6526298Y6771481D01*
X6519371Y6779975D01*
X6519370Y6779977D01*
X6519366Y6779981D01*
X6457169Y6855164D01*
X6406665Y6905316D01*
X6356909Y6956126D01*
X6348465Y6963112D01*
X6348459Y6963118D01*
X6348452Y6963123D01*
X6272844Y7024788D01*
X6213580Y7064164D01*
X6154868Y7104364D01*
X6145240Y7109570D01*
X6145237Y7109572D01*
X6145234Y7109573D01*
X6145227Y7109577D01*
X6059066Y7155389D01*
X5993263Y7182511D01*
X5927898Y7210526D01*
X5917428Y7213768D01*
X5824010Y7241973D01*
X5754224Y7255791D01*
X5684617Y7270586D01*
X5673717Y7271732D01*
X5576599Y7281254D01*
X5576594Y7281254D01*
X5538561Y7285000D01*
X2038388Y7285000D01*
X1764738Y7311832D01*
X1538435Y7380157D01*
X1329712Y7491136D01*
X1146523Y7640542D01*
X995841Y7822686D01*
X883409Y8030623D01*
X813504Y8256448D01*
X785000Y8527647D01*
X785000Y17461612D01*
X811832Y17735260D01*
X880158Y17961568D01*
X991137Y18170288D01*
X1140544Y18353478D01*
X1322688Y18504162D01*
X1530624Y18616592D01*
X1756447Y18686496D01*
X2027647Y18715000D01*
X62961612Y18715000D01*
X63235260Y18688168D01*
M02*
