G04 #@! TF.GenerationSoftware,KiCad,Pcbnew,(5.1.2)-1*
G04 #@! TF.CreationDate,2020-06-05T15:14:38-04:00*
G04 #@! TF.ProjectId,Step_Direction_Board,53746570-5f44-4697-9265-6374696f6e5f,rev?*
G04 #@! TF.SameCoordinates,Original*
G04 #@! TF.FileFunction,Drawing*
%FSLAX46Y46*%
G04 Gerber Fmt 4.6, Leading zero omitted, Abs format (unit mm)*
G04 Created by KiCad (PCBNEW (5.1.2)-1) date 2020-06-05 15:14:38*
%MOMM*%
%LPD*%
G04 APERTURE LIST*
%ADD10C,0.150000*%
G04 APERTURE END LIST*
D10*
X148877568Y-127433702D02*
X148401377Y-127433702D01*
X148353758Y-127909893D01*
X148401377Y-127862274D01*
X148496616Y-127814655D01*
X148734711Y-127814655D01*
X148829949Y-127862274D01*
X148877568Y-127909893D01*
X148925187Y-128005131D01*
X148925187Y-128243226D01*
X148877568Y-128338464D01*
X148829949Y-128386083D01*
X148734711Y-128433702D01*
X148496616Y-128433702D01*
X148401377Y-128386083D01*
X148353758Y-128338464D01*
X149306139Y-127528941D02*
X149353758Y-127481322D01*
X149448996Y-127433702D01*
X149687092Y-127433702D01*
X149782330Y-127481322D01*
X149829949Y-127528941D01*
X149877568Y-127624179D01*
X149877568Y-127719417D01*
X149829949Y-127862274D01*
X149258520Y-128433702D01*
X149877568Y-128433702D01*
X150306139Y-128338464D02*
X150353758Y-128386083D01*
X150306139Y-128433702D01*
X150258520Y-128386083D01*
X150306139Y-128338464D01*
X150306139Y-128433702D01*
X151306139Y-128433702D02*
X150734711Y-128433702D01*
X151020425Y-128433702D02*
X151020425Y-127433702D01*
X150925187Y-127576560D01*
X150829949Y-127671798D01*
X150734711Y-127719417D01*
X152163282Y-127433702D02*
X151972806Y-127433702D01*
X151877568Y-127481322D01*
X151829949Y-127528941D01*
X151734711Y-127671798D01*
X151687092Y-127862274D01*
X151687092Y-128243226D01*
X151734711Y-128338464D01*
X151782330Y-128386083D01*
X151877568Y-128433702D01*
X152068044Y-128433702D01*
X152163282Y-128386083D01*
X152210901Y-128338464D01*
X152258520Y-128243226D01*
X152258520Y-128005131D01*
X152210901Y-127909893D01*
X152163282Y-127862274D01*
X152068044Y-127814655D01*
X151877568Y-127814655D01*
X151782330Y-127862274D01*
X151734711Y-127909893D01*
X151687092Y-128005131D01*
X152877568Y-127433702D02*
X152972806Y-127433702D01*
X153068044Y-127481322D01*
X153115663Y-127528941D01*
X153163282Y-127624179D01*
X153210901Y-127814655D01*
X153210901Y-128052750D01*
X153163282Y-128243226D01*
X153115663Y-128338464D01*
X153068044Y-128386083D01*
X152972806Y-128433702D01*
X152877568Y-128433702D01*
X152782330Y-128386083D01*
X152734711Y-128338464D01*
X152687092Y-128243226D01*
X152639473Y-128052750D01*
X152639473Y-127814655D01*
X152687092Y-127624179D01*
X152734711Y-127528941D01*
X152782330Y-127481322D01*
X152877568Y-127433702D01*
X154401377Y-128433702D02*
X154401377Y-127767036D01*
X154401377Y-127862274D02*
X154448996Y-127814655D01*
X154544235Y-127767036D01*
X154687092Y-127767036D01*
X154782330Y-127814655D01*
X154829949Y-127909893D01*
X154829949Y-128433702D01*
X154829949Y-127909893D02*
X154877568Y-127814655D01*
X154972806Y-127767036D01*
X155115663Y-127767036D01*
X155210901Y-127814655D01*
X155258520Y-127909893D01*
X155258520Y-128433702D01*
X155734711Y-128433702D02*
X155734711Y-127767036D01*
X155734711Y-127862274D02*
X155782330Y-127814655D01*
X155877568Y-127767036D01*
X156020425Y-127767036D01*
X156115663Y-127814655D01*
X156163282Y-127909893D01*
X156163282Y-128433702D01*
X156163282Y-127909893D02*
X156210901Y-127814655D01*
X156306139Y-127767036D01*
X156448996Y-127767036D01*
X156544235Y-127814655D01*
X156591854Y-127909893D01*
X156591854Y-128433702D01*
X126416616Y-126681322D02*
X178576616Y-126681322D01*
X126416616Y-123791323D02*
X126416616Y-127267743D01*
X178576616Y-123791323D02*
X178576616Y-127267743D01*
X178576616Y-126681322D02*
X177450112Y-127267743D01*
X178576616Y-126681322D02*
X177450112Y-126094901D01*
X126416616Y-126681322D02*
X127543120Y-127267743D01*
X126416616Y-126681322D02*
X127543120Y-126094901D01*
X155139038Y-120367280D02*
X155234276Y-120367280D01*
X155329514Y-120414900D01*
X155377133Y-120462519D01*
X155424752Y-120557757D01*
X155472371Y-120748233D01*
X155472371Y-120986328D01*
X155424752Y-121176804D01*
X155377133Y-121272042D01*
X155329514Y-121319661D01*
X155234276Y-121367280D01*
X155139038Y-121367280D01*
X155043800Y-121319661D01*
X154996180Y-121272042D01*
X154948561Y-121176804D01*
X154900942Y-120986328D01*
X154900942Y-120748233D01*
X154948561Y-120557757D01*
X154996180Y-120462519D01*
X155043800Y-120414900D01*
X155139038Y-120367280D01*
X155900942Y-121272042D02*
X155948561Y-121319661D01*
X155900942Y-121367280D01*
X155853323Y-121319661D01*
X155900942Y-121272042D01*
X155900942Y-121367280D01*
X156567609Y-120367280D02*
X156662847Y-120367280D01*
X156758085Y-120414900D01*
X156805704Y-120462519D01*
X156853323Y-120557757D01*
X156900942Y-120748233D01*
X156900942Y-120986328D01*
X156853323Y-121176804D01*
X156805704Y-121272042D01*
X156758085Y-121319661D01*
X156662847Y-121367280D01*
X156567609Y-121367280D01*
X156472371Y-121319661D01*
X156424752Y-121272042D01*
X156377133Y-121176804D01*
X156329514Y-120986328D01*
X156329514Y-120748233D01*
X156377133Y-120557757D01*
X156424752Y-120462519D01*
X156472371Y-120414900D01*
X156567609Y-120367280D01*
X157234276Y-120367280D02*
X157900942Y-120367280D01*
X157472371Y-121367280D01*
X158424752Y-120795852D02*
X158329514Y-120748233D01*
X158281895Y-120700614D01*
X158234276Y-120605376D01*
X158234276Y-120557757D01*
X158281895Y-120462519D01*
X158329514Y-120414900D01*
X158424752Y-120367280D01*
X158615228Y-120367280D01*
X158710466Y-120414900D01*
X158758085Y-120462519D01*
X158805704Y-120557757D01*
X158805704Y-120605376D01*
X158758085Y-120700614D01*
X158710466Y-120748233D01*
X158615228Y-120795852D01*
X158424752Y-120795852D01*
X158329514Y-120843471D01*
X158281895Y-120891090D01*
X158234276Y-120986328D01*
X158234276Y-121176804D01*
X158281895Y-121272042D01*
X158329514Y-121319661D01*
X158424752Y-121367280D01*
X158615228Y-121367280D01*
X158710466Y-121319661D01*
X158758085Y-121272042D01*
X158805704Y-121176804D01*
X158805704Y-120986328D01*
X158758085Y-120891090D01*
X158710466Y-120843471D01*
X158615228Y-120795852D01*
X159234276Y-121367280D02*
X159234276Y-120700614D01*
X159234276Y-120367280D02*
X159186657Y-120414900D01*
X159234276Y-120462519D01*
X159281895Y-120414900D01*
X159234276Y-120367280D01*
X159234276Y-120462519D01*
X159710466Y-120700614D02*
X159710466Y-121367280D01*
X159710466Y-120795852D02*
X159758085Y-120748233D01*
X159853323Y-120700614D01*
X159996180Y-120700614D01*
X160091419Y-120748233D01*
X160139038Y-120843471D01*
X160139038Y-121367280D01*
X161329514Y-120319661D02*
X160472371Y-121605376D01*
X162186657Y-121367280D02*
X161615228Y-121367280D01*
X161900942Y-121367280D02*
X161900942Y-120367280D01*
X161805704Y-120510138D01*
X161710466Y-120605376D01*
X161615228Y-120652995D01*
X162615228Y-121272042D02*
X162662847Y-121319661D01*
X162615228Y-121367280D01*
X162567609Y-121319661D01*
X162615228Y-121272042D01*
X162615228Y-121367280D01*
X163139038Y-121367280D02*
X163329514Y-121367280D01*
X163424752Y-121319661D01*
X163472371Y-121272042D01*
X163567609Y-121129185D01*
X163615228Y-120938709D01*
X163615228Y-120557757D01*
X163567609Y-120462519D01*
X163519990Y-120414900D01*
X163424752Y-120367280D01*
X163234276Y-120367280D01*
X163139038Y-120414900D01*
X163091419Y-120462519D01*
X163043800Y-120557757D01*
X163043800Y-120795852D01*
X163091419Y-120891090D01*
X163139038Y-120938709D01*
X163234276Y-120986328D01*
X163424752Y-120986328D01*
X163519990Y-120938709D01*
X163567609Y-120891090D01*
X163615228Y-120795852D01*
X164186657Y-120795852D02*
X164091419Y-120748233D01*
X164043800Y-120700614D01*
X163996180Y-120605376D01*
X163996180Y-120557757D01*
X164043800Y-120462519D01*
X164091419Y-120414900D01*
X164186657Y-120367280D01*
X164377133Y-120367280D01*
X164472371Y-120414900D01*
X164519990Y-120462519D01*
X164567609Y-120557757D01*
X164567609Y-120605376D01*
X164519990Y-120700614D01*
X164472371Y-120748233D01*
X164377133Y-120795852D01*
X164186657Y-120795852D01*
X164091419Y-120843471D01*
X164043800Y-120891090D01*
X163996180Y-120986328D01*
X163996180Y-121176804D01*
X164043800Y-121272042D01*
X164091419Y-121319661D01*
X164186657Y-121367280D01*
X164377133Y-121367280D01*
X164472371Y-121319661D01*
X164519990Y-121272042D01*
X164567609Y-121176804D01*
X164567609Y-120986328D01*
X164519990Y-120891090D01*
X164472371Y-120843471D01*
X164377133Y-120795852D01*
X165519990Y-121367280D02*
X164948561Y-121367280D01*
X165234276Y-121367280D02*
X165234276Y-120367280D01*
X165139038Y-120510138D01*
X165043800Y-120605376D01*
X164948561Y-120652995D01*
X165948561Y-121367280D02*
X165948561Y-120700614D01*
X165948561Y-120795852D02*
X165996180Y-120748233D01*
X166091419Y-120700614D01*
X166234276Y-120700614D01*
X166329514Y-120748233D01*
X166377133Y-120843471D01*
X166377133Y-121367280D01*
X166377133Y-120843471D02*
X166424752Y-120748233D01*
X166519990Y-120700614D01*
X166662847Y-120700614D01*
X166758085Y-120748233D01*
X166805704Y-120843471D01*
X166805704Y-121367280D01*
X167281895Y-121367280D02*
X167281895Y-120700614D01*
X167281895Y-120795852D02*
X167329514Y-120748233D01*
X167424752Y-120700614D01*
X167567609Y-120700614D01*
X167662847Y-120748233D01*
X167710466Y-120843471D01*
X167710466Y-121367280D01*
X167710466Y-120843471D02*
X167758085Y-120748233D01*
X167853323Y-120700614D01*
X167996180Y-120700614D01*
X168091419Y-120748233D01*
X168139038Y-120843471D01*
X168139038Y-121367280D01*
X152675238Y-110537480D02*
X152770476Y-110537480D01*
X152865714Y-110585100D01*
X152913333Y-110632719D01*
X152960952Y-110727957D01*
X153008571Y-110918433D01*
X153008571Y-111156528D01*
X152960952Y-111347004D01*
X152913333Y-111442242D01*
X152865714Y-111489861D01*
X152770476Y-111537480D01*
X152675238Y-111537480D01*
X152580000Y-111489861D01*
X152532380Y-111442242D01*
X152484761Y-111347004D01*
X152437142Y-111156528D01*
X152437142Y-110918433D01*
X152484761Y-110727957D01*
X152532380Y-110632719D01*
X152580000Y-110585100D01*
X152675238Y-110537480D01*
X153437142Y-111442242D02*
X153484761Y-111489861D01*
X153437142Y-111537480D01*
X153389523Y-111489861D01*
X153437142Y-111442242D01*
X153437142Y-111537480D01*
X154437142Y-111537480D02*
X153865714Y-111537480D01*
X154151428Y-111537480D02*
X154151428Y-110537480D01*
X154056190Y-110680338D01*
X153960952Y-110775576D01*
X153865714Y-110823195D01*
X154913333Y-111537480D02*
X155103809Y-111537480D01*
X155199047Y-111489861D01*
X155246666Y-111442242D01*
X155341904Y-111299385D01*
X155389523Y-111108909D01*
X155389523Y-110727957D01*
X155341904Y-110632719D01*
X155294285Y-110585100D01*
X155199047Y-110537480D01*
X155008571Y-110537480D01*
X154913333Y-110585100D01*
X154865714Y-110632719D01*
X154818095Y-110727957D01*
X154818095Y-110966052D01*
X154865714Y-111061290D01*
X154913333Y-111108909D01*
X155008571Y-111156528D01*
X155199047Y-111156528D01*
X155294285Y-111108909D01*
X155341904Y-111061290D01*
X155389523Y-110966052D01*
X156246666Y-110870814D02*
X156246666Y-111537480D01*
X156008571Y-110489861D02*
X155770476Y-111204147D01*
X156389523Y-111204147D01*
X156770476Y-111537480D02*
X156770476Y-110870814D01*
X156770476Y-110537480D02*
X156722857Y-110585100D01*
X156770476Y-110632719D01*
X156818095Y-110585100D01*
X156770476Y-110537480D01*
X156770476Y-110632719D01*
X157246666Y-110870814D02*
X157246666Y-111537480D01*
X157246666Y-110966052D02*
X157294285Y-110918433D01*
X157389523Y-110870814D01*
X157532380Y-110870814D01*
X157627619Y-110918433D01*
X157675238Y-111013671D01*
X157675238Y-111537480D01*
X158865714Y-110489861D02*
X158008571Y-111775576D01*
X159627619Y-110870814D02*
X159627619Y-111537480D01*
X159389523Y-110489861D02*
X159151428Y-111204147D01*
X159770476Y-111204147D01*
X160151428Y-111442242D02*
X160199047Y-111489861D01*
X160151428Y-111537480D01*
X160103809Y-111489861D01*
X160151428Y-111442242D01*
X160151428Y-111537480D01*
X160675238Y-111537480D02*
X160865714Y-111537480D01*
X160960952Y-111489861D01*
X161008571Y-111442242D01*
X161103809Y-111299385D01*
X161151428Y-111108909D01*
X161151428Y-110727957D01*
X161103809Y-110632719D01*
X161056190Y-110585100D01*
X160960952Y-110537480D01*
X160770476Y-110537480D01*
X160675238Y-110585100D01*
X160627619Y-110632719D01*
X160580000Y-110727957D01*
X160580000Y-110966052D01*
X160627619Y-111061290D01*
X160675238Y-111108909D01*
X160770476Y-111156528D01*
X160960952Y-111156528D01*
X161056190Y-111108909D01*
X161103809Y-111061290D01*
X161151428Y-110966052D01*
X161532380Y-110632719D02*
X161580000Y-110585100D01*
X161675238Y-110537480D01*
X161913333Y-110537480D01*
X162008571Y-110585100D01*
X162056190Y-110632719D01*
X162103809Y-110727957D01*
X162103809Y-110823195D01*
X162056190Y-110966052D01*
X161484761Y-111537480D01*
X162103809Y-111537480D01*
X162675238Y-110966052D02*
X162580000Y-110918433D01*
X162532380Y-110870814D01*
X162484761Y-110775576D01*
X162484761Y-110727957D01*
X162532380Y-110632719D01*
X162580000Y-110585100D01*
X162675238Y-110537480D01*
X162865714Y-110537480D01*
X162960952Y-110585100D01*
X163008571Y-110632719D01*
X163056190Y-110727957D01*
X163056190Y-110775576D01*
X163008571Y-110870814D01*
X162960952Y-110918433D01*
X162865714Y-110966052D01*
X162675238Y-110966052D01*
X162580000Y-111013671D01*
X162532380Y-111061290D01*
X162484761Y-111156528D01*
X162484761Y-111347004D01*
X162532380Y-111442242D01*
X162580000Y-111489861D01*
X162675238Y-111537480D01*
X162865714Y-111537480D01*
X162960952Y-111489861D01*
X163008571Y-111442242D01*
X163056190Y-111347004D01*
X163056190Y-111156528D01*
X163008571Y-111061290D01*
X162960952Y-111013671D01*
X162865714Y-110966052D01*
X163484761Y-111537480D02*
X163484761Y-110870814D01*
X163484761Y-110966052D02*
X163532380Y-110918433D01*
X163627619Y-110870814D01*
X163770476Y-110870814D01*
X163865714Y-110918433D01*
X163913333Y-111013671D01*
X163913333Y-111537480D01*
X163913333Y-111013671D02*
X163960952Y-110918433D01*
X164056190Y-110870814D01*
X164199047Y-110870814D01*
X164294285Y-110918433D01*
X164341904Y-111013671D01*
X164341904Y-111537480D01*
X164818095Y-111537480D02*
X164818095Y-110870814D01*
X164818095Y-110966052D02*
X164865714Y-110918433D01*
X164960952Y-110870814D01*
X165103809Y-110870814D01*
X165199047Y-110918433D01*
X165246666Y-111013671D01*
X165246666Y-111537480D01*
X165246666Y-111013671D02*
X165294285Y-110918433D01*
X165389523Y-110870814D01*
X165532380Y-110870814D01*
X165627619Y-110918433D01*
X165675238Y-111013671D01*
X165675238Y-111537480D01*
X147163438Y-113547380D02*
X147258676Y-113547380D01*
X147353914Y-113595000D01*
X147401533Y-113642619D01*
X147449152Y-113737857D01*
X147496771Y-113928333D01*
X147496771Y-114166428D01*
X147449152Y-114356904D01*
X147401533Y-114452142D01*
X147353914Y-114499761D01*
X147258676Y-114547380D01*
X147163438Y-114547380D01*
X147068200Y-114499761D01*
X147020580Y-114452142D01*
X146972961Y-114356904D01*
X146925342Y-114166428D01*
X146925342Y-113928333D01*
X146972961Y-113737857D01*
X147020580Y-113642619D01*
X147068200Y-113595000D01*
X147163438Y-113547380D01*
X147925342Y-114452142D02*
X147972961Y-114499761D01*
X147925342Y-114547380D01*
X147877723Y-114499761D01*
X147925342Y-114452142D01*
X147925342Y-114547380D01*
X148592009Y-113547380D02*
X148687247Y-113547380D01*
X148782485Y-113595000D01*
X148830104Y-113642619D01*
X148877723Y-113737857D01*
X148925342Y-113928333D01*
X148925342Y-114166428D01*
X148877723Y-114356904D01*
X148830104Y-114452142D01*
X148782485Y-114499761D01*
X148687247Y-114547380D01*
X148592009Y-114547380D01*
X148496771Y-114499761D01*
X148449152Y-114452142D01*
X148401533Y-114356904D01*
X148353914Y-114166428D01*
X148353914Y-113928333D01*
X148401533Y-113737857D01*
X148449152Y-113642619D01*
X148496771Y-113595000D01*
X148592009Y-113547380D01*
X149306295Y-113642619D02*
X149353914Y-113595000D01*
X149449152Y-113547380D01*
X149687247Y-113547380D01*
X149782485Y-113595000D01*
X149830104Y-113642619D01*
X149877723Y-113737857D01*
X149877723Y-113833095D01*
X149830104Y-113975952D01*
X149258676Y-114547380D01*
X149877723Y-114547380D01*
X150258676Y-113642619D02*
X150306295Y-113595000D01*
X150401533Y-113547380D01*
X150639628Y-113547380D01*
X150734866Y-113595000D01*
X150782485Y-113642619D01*
X150830104Y-113737857D01*
X150830104Y-113833095D01*
X150782485Y-113975952D01*
X150211057Y-114547380D01*
X150830104Y-114547380D01*
X151258676Y-114547380D02*
X151258676Y-113880714D01*
X151258676Y-113547380D02*
X151211057Y-113595000D01*
X151258676Y-113642619D01*
X151306295Y-113595000D01*
X151258676Y-113547380D01*
X151258676Y-113642619D01*
X151734866Y-113880714D02*
X151734866Y-114547380D01*
X151734866Y-113975952D02*
X151782485Y-113928333D01*
X151877723Y-113880714D01*
X152020580Y-113880714D01*
X152115819Y-113928333D01*
X152163438Y-114023571D01*
X152163438Y-114547380D01*
X153353914Y-113499761D02*
X152496771Y-114785476D01*
X153877723Y-113547380D02*
X153972961Y-113547380D01*
X154068200Y-113595000D01*
X154115819Y-113642619D01*
X154163438Y-113737857D01*
X154211057Y-113928333D01*
X154211057Y-114166428D01*
X154163438Y-114356904D01*
X154115819Y-114452142D01*
X154068200Y-114499761D01*
X153972961Y-114547380D01*
X153877723Y-114547380D01*
X153782485Y-114499761D01*
X153734866Y-114452142D01*
X153687247Y-114356904D01*
X153639628Y-114166428D01*
X153639628Y-113928333D01*
X153687247Y-113737857D01*
X153734866Y-113642619D01*
X153782485Y-113595000D01*
X153877723Y-113547380D01*
X154639628Y-114452142D02*
X154687247Y-114499761D01*
X154639628Y-114547380D01*
X154592009Y-114499761D01*
X154639628Y-114452142D01*
X154639628Y-114547380D01*
X155592009Y-113547380D02*
X155115819Y-113547380D01*
X155068200Y-114023571D01*
X155115819Y-113975952D01*
X155211057Y-113928333D01*
X155449152Y-113928333D01*
X155544390Y-113975952D01*
X155592009Y-114023571D01*
X155639628Y-114118809D01*
X155639628Y-114356904D01*
X155592009Y-114452142D01*
X155544390Y-114499761D01*
X155449152Y-114547380D01*
X155211057Y-114547380D01*
X155115819Y-114499761D01*
X155068200Y-114452142D01*
X156544390Y-113547380D02*
X156068200Y-113547380D01*
X156020580Y-114023571D01*
X156068200Y-113975952D01*
X156163438Y-113928333D01*
X156401533Y-113928333D01*
X156496771Y-113975952D01*
X156544390Y-114023571D01*
X156592009Y-114118809D01*
X156592009Y-114356904D01*
X156544390Y-114452142D01*
X156496771Y-114499761D01*
X156401533Y-114547380D01*
X156163438Y-114547380D01*
X156068200Y-114499761D01*
X156020580Y-114452142D01*
X157068200Y-114547380D02*
X157258676Y-114547380D01*
X157353914Y-114499761D01*
X157401533Y-114452142D01*
X157496771Y-114309285D01*
X157544390Y-114118809D01*
X157544390Y-113737857D01*
X157496771Y-113642619D01*
X157449152Y-113595000D01*
X157353914Y-113547380D01*
X157163438Y-113547380D01*
X157068200Y-113595000D01*
X157020580Y-113642619D01*
X156972961Y-113737857D01*
X156972961Y-113975952D01*
X157020580Y-114071190D01*
X157068200Y-114118809D01*
X157163438Y-114166428D01*
X157353914Y-114166428D01*
X157449152Y-114118809D01*
X157496771Y-114071190D01*
X157544390Y-113975952D01*
X157972961Y-114547380D02*
X157972961Y-113880714D01*
X157972961Y-113975952D02*
X158020580Y-113928333D01*
X158115819Y-113880714D01*
X158258676Y-113880714D01*
X158353914Y-113928333D01*
X158401533Y-114023571D01*
X158401533Y-114547380D01*
X158401533Y-114023571D02*
X158449152Y-113928333D01*
X158544390Y-113880714D01*
X158687247Y-113880714D01*
X158782485Y-113928333D01*
X158830104Y-114023571D01*
X158830104Y-114547380D01*
X159306295Y-114547380D02*
X159306295Y-113880714D01*
X159306295Y-113975952D02*
X159353914Y-113928333D01*
X159449152Y-113880714D01*
X159592009Y-113880714D01*
X159687247Y-113928333D01*
X159734866Y-114023571D01*
X159734866Y-114547380D01*
X159734866Y-114023571D02*
X159782485Y-113928333D01*
X159877723Y-113880714D01*
X160020580Y-113880714D01*
X160115819Y-113928333D01*
X160163438Y-114023571D01*
X160163438Y-114547380D01*
X159139419Y-114182380D02*
X159234657Y-114182380D01*
X159329895Y-114230000D01*
X159377514Y-114277619D01*
X159425133Y-114372857D01*
X159472752Y-114563333D01*
X159472752Y-114801428D01*
X159425133Y-114991904D01*
X159377514Y-115087142D01*
X159329895Y-115134761D01*
X159234657Y-115182380D01*
X159139419Y-115182380D01*
X159044180Y-115134761D01*
X158996561Y-115087142D01*
X158948942Y-114991904D01*
X158901323Y-114801428D01*
X158901323Y-114563333D01*
X158948942Y-114372857D01*
X158996561Y-114277619D01*
X159044180Y-114230000D01*
X159139419Y-114182380D01*
X159901323Y-115087142D02*
X159948942Y-115134761D01*
X159901323Y-115182380D01*
X159853704Y-115134761D01*
X159901323Y-115087142D01*
X159901323Y-115182380D01*
X160567990Y-114182380D02*
X160663228Y-114182380D01*
X160758466Y-114230000D01*
X160806085Y-114277619D01*
X160853704Y-114372857D01*
X160901323Y-114563333D01*
X160901323Y-114801428D01*
X160853704Y-114991904D01*
X160806085Y-115087142D01*
X160758466Y-115134761D01*
X160663228Y-115182380D01*
X160567990Y-115182380D01*
X160472752Y-115134761D01*
X160425133Y-115087142D01*
X160377514Y-114991904D01*
X160329895Y-114801428D01*
X160329895Y-114563333D01*
X160377514Y-114372857D01*
X160425133Y-114277619D01*
X160472752Y-114230000D01*
X160567990Y-114182380D01*
X161806085Y-114182380D02*
X161329895Y-114182380D01*
X161282276Y-114658571D01*
X161329895Y-114610952D01*
X161425133Y-114563333D01*
X161663228Y-114563333D01*
X161758466Y-114610952D01*
X161806085Y-114658571D01*
X161853704Y-114753809D01*
X161853704Y-114991904D01*
X161806085Y-115087142D01*
X161758466Y-115134761D01*
X161663228Y-115182380D01*
X161425133Y-115182380D01*
X161329895Y-115134761D01*
X161282276Y-115087142D01*
X162282276Y-115182380D02*
X162282276Y-114515714D01*
X162282276Y-114182380D02*
X162234657Y-114230000D01*
X162282276Y-114277619D01*
X162329895Y-114230000D01*
X162282276Y-114182380D01*
X162282276Y-114277619D01*
X162758466Y-114515714D02*
X162758466Y-115182380D01*
X162758466Y-114610952D02*
X162806085Y-114563333D01*
X162901323Y-114515714D01*
X163044180Y-114515714D01*
X163139419Y-114563333D01*
X163187038Y-114658571D01*
X163187038Y-115182380D01*
X164377514Y-114134761D02*
X163520371Y-115420476D01*
X165234657Y-115182380D02*
X164663228Y-115182380D01*
X164948942Y-115182380D02*
X164948942Y-114182380D01*
X164853704Y-114325238D01*
X164758466Y-114420476D01*
X164663228Y-114468095D01*
X165663228Y-115087142D02*
X165710847Y-115134761D01*
X165663228Y-115182380D01*
X165615609Y-115134761D01*
X165663228Y-115087142D01*
X165663228Y-115182380D01*
X166091800Y-114277619D02*
X166139419Y-114230000D01*
X166234657Y-114182380D01*
X166472752Y-114182380D01*
X166567990Y-114230000D01*
X166615609Y-114277619D01*
X166663228Y-114372857D01*
X166663228Y-114468095D01*
X166615609Y-114610952D01*
X166044180Y-115182380D01*
X166663228Y-115182380D01*
X166996561Y-114182380D02*
X167663228Y-114182380D01*
X167234657Y-115182380D01*
X168044180Y-115182380D02*
X168044180Y-114515714D01*
X168044180Y-114610952D02*
X168091800Y-114563333D01*
X168187038Y-114515714D01*
X168329895Y-114515714D01*
X168425133Y-114563333D01*
X168472752Y-114658571D01*
X168472752Y-115182380D01*
X168472752Y-114658571D02*
X168520371Y-114563333D01*
X168615609Y-114515714D01*
X168758466Y-114515714D01*
X168853704Y-114563333D01*
X168901323Y-114658571D01*
X168901323Y-115182380D01*
X169377514Y-115182380D02*
X169377514Y-114515714D01*
X169377514Y-114610952D02*
X169425133Y-114563333D01*
X169520371Y-114515714D01*
X169663228Y-114515714D01*
X169758466Y-114563333D01*
X169806085Y-114658571D01*
X169806085Y-115182380D01*
X169806085Y-114658571D02*
X169853704Y-114563333D01*
X169948942Y-114515714D01*
X170091800Y-114515714D01*
X170187038Y-114563333D01*
X170234657Y-114658571D01*
X170234657Y-115182380D01*
X168179038Y-120367280D02*
X168274276Y-120367280D01*
X168369514Y-120414900D01*
X168417133Y-120462519D01*
X168464752Y-120557757D01*
X168512371Y-120748233D01*
X168512371Y-120986328D01*
X168464752Y-121176804D01*
X168417133Y-121272042D01*
X168369514Y-121319661D01*
X168274276Y-121367280D01*
X168179038Y-121367280D01*
X168083800Y-121319661D01*
X168036180Y-121272042D01*
X167988561Y-121176804D01*
X167940942Y-120986328D01*
X167940942Y-120748233D01*
X167988561Y-120557757D01*
X168036180Y-120462519D01*
X168083800Y-120414900D01*
X168179038Y-120367280D01*
X168940942Y-121272042D02*
X168988561Y-121319661D01*
X168940942Y-121367280D01*
X168893323Y-121319661D01*
X168940942Y-121272042D01*
X168940942Y-121367280D01*
X169607609Y-120367280D02*
X169702847Y-120367280D01*
X169798085Y-120414900D01*
X169845704Y-120462519D01*
X169893323Y-120557757D01*
X169940942Y-120748233D01*
X169940942Y-120986328D01*
X169893323Y-121176804D01*
X169845704Y-121272042D01*
X169798085Y-121319661D01*
X169702847Y-121367280D01*
X169607609Y-121367280D01*
X169512371Y-121319661D01*
X169464752Y-121272042D01*
X169417133Y-121176804D01*
X169369514Y-120986328D01*
X169369514Y-120748233D01*
X169417133Y-120557757D01*
X169464752Y-120462519D01*
X169512371Y-120414900D01*
X169607609Y-120367280D01*
X170274276Y-120367280D02*
X170940942Y-120367280D01*
X170512371Y-121367280D01*
X171464752Y-120795852D02*
X171369514Y-120748233D01*
X171321895Y-120700614D01*
X171274276Y-120605376D01*
X171274276Y-120557757D01*
X171321895Y-120462519D01*
X171369514Y-120414900D01*
X171464752Y-120367280D01*
X171655228Y-120367280D01*
X171750466Y-120414900D01*
X171798085Y-120462519D01*
X171845704Y-120557757D01*
X171845704Y-120605376D01*
X171798085Y-120700614D01*
X171750466Y-120748233D01*
X171655228Y-120795852D01*
X171464752Y-120795852D01*
X171369514Y-120843471D01*
X171321895Y-120891090D01*
X171274276Y-120986328D01*
X171274276Y-121176804D01*
X171321895Y-121272042D01*
X171369514Y-121319661D01*
X171464752Y-121367280D01*
X171655228Y-121367280D01*
X171750466Y-121319661D01*
X171798085Y-121272042D01*
X171845704Y-121176804D01*
X171845704Y-120986328D01*
X171798085Y-120891090D01*
X171750466Y-120843471D01*
X171655228Y-120795852D01*
X172274276Y-121367280D02*
X172274276Y-120700614D01*
X172274276Y-120367280D02*
X172226657Y-120414900D01*
X172274276Y-120462519D01*
X172321895Y-120414900D01*
X172274276Y-120367280D01*
X172274276Y-120462519D01*
X172750466Y-120700614D02*
X172750466Y-121367280D01*
X172750466Y-120795852D02*
X172798085Y-120748233D01*
X172893323Y-120700614D01*
X173036180Y-120700614D01*
X173131419Y-120748233D01*
X173179038Y-120843471D01*
X173179038Y-121367280D01*
X174369514Y-120319661D02*
X173512371Y-121605376D01*
X175226657Y-121367280D02*
X174655228Y-121367280D01*
X174940942Y-121367280D02*
X174940942Y-120367280D01*
X174845704Y-120510138D01*
X174750466Y-120605376D01*
X174655228Y-120652995D01*
X175655228Y-121272042D02*
X175702847Y-121319661D01*
X175655228Y-121367280D01*
X175607609Y-121319661D01*
X175655228Y-121272042D01*
X175655228Y-121367280D01*
X176179038Y-121367280D02*
X176369514Y-121367280D01*
X176464752Y-121319661D01*
X176512371Y-121272042D01*
X176607609Y-121129185D01*
X176655228Y-120938709D01*
X176655228Y-120557757D01*
X176607609Y-120462519D01*
X176559990Y-120414900D01*
X176464752Y-120367280D01*
X176274276Y-120367280D01*
X176179038Y-120414900D01*
X176131419Y-120462519D01*
X176083800Y-120557757D01*
X176083800Y-120795852D01*
X176131419Y-120891090D01*
X176179038Y-120938709D01*
X176274276Y-120986328D01*
X176464752Y-120986328D01*
X176559990Y-120938709D01*
X176607609Y-120891090D01*
X176655228Y-120795852D01*
X177226657Y-120795852D02*
X177131419Y-120748233D01*
X177083800Y-120700614D01*
X177036180Y-120605376D01*
X177036180Y-120557757D01*
X177083800Y-120462519D01*
X177131419Y-120414900D01*
X177226657Y-120367280D01*
X177417133Y-120367280D01*
X177512371Y-120414900D01*
X177559990Y-120462519D01*
X177607609Y-120557757D01*
X177607609Y-120605376D01*
X177559990Y-120700614D01*
X177512371Y-120748233D01*
X177417133Y-120795852D01*
X177226657Y-120795852D01*
X177131419Y-120843471D01*
X177083800Y-120891090D01*
X177036180Y-120986328D01*
X177036180Y-121176804D01*
X177083800Y-121272042D01*
X177131419Y-121319661D01*
X177226657Y-121367280D01*
X177417133Y-121367280D01*
X177512371Y-121319661D01*
X177559990Y-121272042D01*
X177607609Y-121176804D01*
X177607609Y-120986328D01*
X177559990Y-120891090D01*
X177512371Y-120843471D01*
X177417133Y-120795852D01*
X178559990Y-121367280D02*
X177988561Y-121367280D01*
X178274276Y-121367280D02*
X178274276Y-120367280D01*
X178179038Y-120510138D01*
X178083800Y-120605376D01*
X177988561Y-120652995D01*
X178988561Y-121367280D02*
X178988561Y-120700614D01*
X178988561Y-120795852D02*
X179036180Y-120748233D01*
X179131419Y-120700614D01*
X179274276Y-120700614D01*
X179369514Y-120748233D01*
X179417133Y-120843471D01*
X179417133Y-121367280D01*
X179417133Y-120843471D02*
X179464752Y-120748233D01*
X179559990Y-120700614D01*
X179702847Y-120700614D01*
X179798085Y-120748233D01*
X179845704Y-120843471D01*
X179845704Y-121367280D01*
X180321895Y-121367280D02*
X180321895Y-120700614D01*
X180321895Y-120795852D02*
X180369514Y-120748233D01*
X180464752Y-120700614D01*
X180607609Y-120700614D01*
X180702847Y-120748233D01*
X180750466Y-120843471D01*
X180750466Y-121367280D01*
X180750466Y-120843471D02*
X180798085Y-120748233D01*
X180893323Y-120700614D01*
X181036180Y-120700614D01*
X181131419Y-120748233D01*
X181179038Y-120843471D01*
X181179038Y-121367280D01*
X165715238Y-110537480D02*
X165810476Y-110537480D01*
X165905714Y-110585100D01*
X165953333Y-110632719D01*
X166000952Y-110727957D01*
X166048571Y-110918433D01*
X166048571Y-111156528D01*
X166000952Y-111347004D01*
X165953333Y-111442242D01*
X165905714Y-111489861D01*
X165810476Y-111537480D01*
X165715238Y-111537480D01*
X165620000Y-111489861D01*
X165572380Y-111442242D01*
X165524761Y-111347004D01*
X165477142Y-111156528D01*
X165477142Y-110918433D01*
X165524761Y-110727957D01*
X165572380Y-110632719D01*
X165620000Y-110585100D01*
X165715238Y-110537480D01*
X166477142Y-111442242D02*
X166524761Y-111489861D01*
X166477142Y-111537480D01*
X166429523Y-111489861D01*
X166477142Y-111442242D01*
X166477142Y-111537480D01*
X167477142Y-111537480D02*
X166905714Y-111537480D01*
X167191428Y-111537480D02*
X167191428Y-110537480D01*
X167096190Y-110680338D01*
X167000952Y-110775576D01*
X166905714Y-110823195D01*
X167953333Y-111537480D02*
X168143809Y-111537480D01*
X168239047Y-111489861D01*
X168286666Y-111442242D01*
X168381904Y-111299385D01*
X168429523Y-111108909D01*
X168429523Y-110727957D01*
X168381904Y-110632719D01*
X168334285Y-110585100D01*
X168239047Y-110537480D01*
X168048571Y-110537480D01*
X167953333Y-110585100D01*
X167905714Y-110632719D01*
X167858095Y-110727957D01*
X167858095Y-110966052D01*
X167905714Y-111061290D01*
X167953333Y-111108909D01*
X168048571Y-111156528D01*
X168239047Y-111156528D01*
X168334285Y-111108909D01*
X168381904Y-111061290D01*
X168429523Y-110966052D01*
X169286666Y-110870814D02*
X169286666Y-111537480D01*
X169048571Y-110489861D02*
X168810476Y-111204147D01*
X169429523Y-111204147D01*
X169810476Y-111537480D02*
X169810476Y-110870814D01*
X169810476Y-110537480D02*
X169762857Y-110585100D01*
X169810476Y-110632719D01*
X169858095Y-110585100D01*
X169810476Y-110537480D01*
X169810476Y-110632719D01*
X170286666Y-110870814D02*
X170286666Y-111537480D01*
X170286666Y-110966052D02*
X170334285Y-110918433D01*
X170429523Y-110870814D01*
X170572380Y-110870814D01*
X170667619Y-110918433D01*
X170715238Y-111013671D01*
X170715238Y-111537480D01*
X171905714Y-110489861D02*
X171048571Y-111775576D01*
X172667619Y-110870814D02*
X172667619Y-111537480D01*
X172429523Y-110489861D02*
X172191428Y-111204147D01*
X172810476Y-111204147D01*
X173191428Y-111442242D02*
X173239047Y-111489861D01*
X173191428Y-111537480D01*
X173143809Y-111489861D01*
X173191428Y-111442242D01*
X173191428Y-111537480D01*
X173715238Y-111537480D02*
X173905714Y-111537480D01*
X174000952Y-111489861D01*
X174048571Y-111442242D01*
X174143809Y-111299385D01*
X174191428Y-111108909D01*
X174191428Y-110727957D01*
X174143809Y-110632719D01*
X174096190Y-110585100D01*
X174000952Y-110537480D01*
X173810476Y-110537480D01*
X173715238Y-110585100D01*
X173667619Y-110632719D01*
X173620000Y-110727957D01*
X173620000Y-110966052D01*
X173667619Y-111061290D01*
X173715238Y-111108909D01*
X173810476Y-111156528D01*
X174000952Y-111156528D01*
X174096190Y-111108909D01*
X174143809Y-111061290D01*
X174191428Y-110966052D01*
X174572380Y-110632719D02*
X174620000Y-110585100D01*
X174715238Y-110537480D01*
X174953333Y-110537480D01*
X175048571Y-110585100D01*
X175096190Y-110632719D01*
X175143809Y-110727957D01*
X175143809Y-110823195D01*
X175096190Y-110966052D01*
X174524761Y-111537480D01*
X175143809Y-111537480D01*
X175715238Y-110966052D02*
X175620000Y-110918433D01*
X175572380Y-110870814D01*
X175524761Y-110775576D01*
X175524761Y-110727957D01*
X175572380Y-110632719D01*
X175620000Y-110585100D01*
X175715238Y-110537480D01*
X175905714Y-110537480D01*
X176000952Y-110585100D01*
X176048571Y-110632719D01*
X176096190Y-110727957D01*
X176096190Y-110775576D01*
X176048571Y-110870814D01*
X176000952Y-110918433D01*
X175905714Y-110966052D01*
X175715238Y-110966052D01*
X175620000Y-111013671D01*
X175572380Y-111061290D01*
X175524761Y-111156528D01*
X175524761Y-111347004D01*
X175572380Y-111442242D01*
X175620000Y-111489861D01*
X175715238Y-111537480D01*
X175905714Y-111537480D01*
X176000952Y-111489861D01*
X176048571Y-111442242D01*
X176096190Y-111347004D01*
X176096190Y-111156528D01*
X176048571Y-111061290D01*
X176000952Y-111013671D01*
X175905714Y-110966052D01*
X176524761Y-111537480D02*
X176524761Y-110870814D01*
X176524761Y-110966052D02*
X176572380Y-110918433D01*
X176667619Y-110870814D01*
X176810476Y-110870814D01*
X176905714Y-110918433D01*
X176953333Y-111013671D01*
X176953333Y-111537480D01*
X176953333Y-111013671D02*
X177000952Y-110918433D01*
X177096190Y-110870814D01*
X177239047Y-110870814D01*
X177334285Y-110918433D01*
X177381904Y-111013671D01*
X177381904Y-111537480D01*
X177858095Y-111537480D02*
X177858095Y-110870814D01*
X177858095Y-110966052D02*
X177905714Y-110918433D01*
X178000952Y-110870814D01*
X178143809Y-110870814D01*
X178239047Y-110918433D01*
X178286666Y-111013671D01*
X178286666Y-111537480D01*
X178286666Y-111013671D02*
X178334285Y-110918433D01*
X178429523Y-110870814D01*
X178572380Y-110870814D01*
X178667619Y-110918433D01*
X178715238Y-111013671D01*
X178715238Y-111537480D01*
X160203438Y-113547380D02*
X160298676Y-113547380D01*
X160393914Y-113595000D01*
X160441533Y-113642619D01*
X160489152Y-113737857D01*
X160536771Y-113928333D01*
X160536771Y-114166428D01*
X160489152Y-114356904D01*
X160441533Y-114452142D01*
X160393914Y-114499761D01*
X160298676Y-114547380D01*
X160203438Y-114547380D01*
X160108200Y-114499761D01*
X160060580Y-114452142D01*
X160012961Y-114356904D01*
X159965342Y-114166428D01*
X159965342Y-113928333D01*
X160012961Y-113737857D01*
X160060580Y-113642619D01*
X160108200Y-113595000D01*
X160203438Y-113547380D01*
X160965342Y-114452142D02*
X161012961Y-114499761D01*
X160965342Y-114547380D01*
X160917723Y-114499761D01*
X160965342Y-114452142D01*
X160965342Y-114547380D01*
X161632009Y-113547380D02*
X161727247Y-113547380D01*
X161822485Y-113595000D01*
X161870104Y-113642619D01*
X161917723Y-113737857D01*
X161965342Y-113928333D01*
X161965342Y-114166428D01*
X161917723Y-114356904D01*
X161870104Y-114452142D01*
X161822485Y-114499761D01*
X161727247Y-114547380D01*
X161632009Y-114547380D01*
X161536771Y-114499761D01*
X161489152Y-114452142D01*
X161441533Y-114356904D01*
X161393914Y-114166428D01*
X161393914Y-113928333D01*
X161441533Y-113737857D01*
X161489152Y-113642619D01*
X161536771Y-113595000D01*
X161632009Y-113547380D01*
X162346295Y-113642619D02*
X162393914Y-113595000D01*
X162489152Y-113547380D01*
X162727247Y-113547380D01*
X162822485Y-113595000D01*
X162870104Y-113642619D01*
X162917723Y-113737857D01*
X162917723Y-113833095D01*
X162870104Y-113975952D01*
X162298676Y-114547380D01*
X162917723Y-114547380D01*
X163298676Y-113642619D02*
X163346295Y-113595000D01*
X163441533Y-113547380D01*
X163679628Y-113547380D01*
X163774866Y-113595000D01*
X163822485Y-113642619D01*
X163870104Y-113737857D01*
X163870104Y-113833095D01*
X163822485Y-113975952D01*
X163251057Y-114547380D01*
X163870104Y-114547380D01*
X164298676Y-114547380D02*
X164298676Y-113880714D01*
X164298676Y-113547380D02*
X164251057Y-113595000D01*
X164298676Y-113642619D01*
X164346295Y-113595000D01*
X164298676Y-113547380D01*
X164298676Y-113642619D01*
X164774866Y-113880714D02*
X164774866Y-114547380D01*
X164774866Y-113975952D02*
X164822485Y-113928333D01*
X164917723Y-113880714D01*
X165060580Y-113880714D01*
X165155819Y-113928333D01*
X165203438Y-114023571D01*
X165203438Y-114547380D01*
X166393914Y-113499761D02*
X165536771Y-114785476D01*
X166917723Y-113547380D02*
X167012961Y-113547380D01*
X167108200Y-113595000D01*
X167155819Y-113642619D01*
X167203438Y-113737857D01*
X167251057Y-113928333D01*
X167251057Y-114166428D01*
X167203438Y-114356904D01*
X167155819Y-114452142D01*
X167108200Y-114499761D01*
X167012961Y-114547380D01*
X166917723Y-114547380D01*
X166822485Y-114499761D01*
X166774866Y-114452142D01*
X166727247Y-114356904D01*
X166679628Y-114166428D01*
X166679628Y-113928333D01*
X166727247Y-113737857D01*
X166774866Y-113642619D01*
X166822485Y-113595000D01*
X166917723Y-113547380D01*
X167679628Y-114452142D02*
X167727247Y-114499761D01*
X167679628Y-114547380D01*
X167632009Y-114499761D01*
X167679628Y-114452142D01*
X167679628Y-114547380D01*
X168632009Y-113547380D02*
X168155819Y-113547380D01*
X168108200Y-114023571D01*
X168155819Y-113975952D01*
X168251057Y-113928333D01*
X168489152Y-113928333D01*
X168584390Y-113975952D01*
X168632009Y-114023571D01*
X168679628Y-114118809D01*
X168679628Y-114356904D01*
X168632009Y-114452142D01*
X168584390Y-114499761D01*
X168489152Y-114547380D01*
X168251057Y-114547380D01*
X168155819Y-114499761D01*
X168108200Y-114452142D01*
X169584390Y-113547380D02*
X169108200Y-113547380D01*
X169060580Y-114023571D01*
X169108200Y-113975952D01*
X169203438Y-113928333D01*
X169441533Y-113928333D01*
X169536771Y-113975952D01*
X169584390Y-114023571D01*
X169632009Y-114118809D01*
X169632009Y-114356904D01*
X169584390Y-114452142D01*
X169536771Y-114499761D01*
X169441533Y-114547380D01*
X169203438Y-114547380D01*
X169108200Y-114499761D01*
X169060580Y-114452142D01*
X170108200Y-114547380D02*
X170298676Y-114547380D01*
X170393914Y-114499761D01*
X170441533Y-114452142D01*
X170536771Y-114309285D01*
X170584390Y-114118809D01*
X170584390Y-113737857D01*
X170536771Y-113642619D01*
X170489152Y-113595000D01*
X170393914Y-113547380D01*
X170203438Y-113547380D01*
X170108200Y-113595000D01*
X170060580Y-113642619D01*
X170012961Y-113737857D01*
X170012961Y-113975952D01*
X170060580Y-114071190D01*
X170108200Y-114118809D01*
X170203438Y-114166428D01*
X170393914Y-114166428D01*
X170489152Y-114118809D01*
X170536771Y-114071190D01*
X170584390Y-113975952D01*
X171012961Y-114547380D02*
X171012961Y-113880714D01*
X171012961Y-113975952D02*
X171060580Y-113928333D01*
X171155819Y-113880714D01*
X171298676Y-113880714D01*
X171393914Y-113928333D01*
X171441533Y-114023571D01*
X171441533Y-114547380D01*
X171441533Y-114023571D02*
X171489152Y-113928333D01*
X171584390Y-113880714D01*
X171727247Y-113880714D01*
X171822485Y-113928333D01*
X171870104Y-114023571D01*
X171870104Y-114547380D01*
X172346295Y-114547380D02*
X172346295Y-113880714D01*
X172346295Y-113975952D02*
X172393914Y-113928333D01*
X172489152Y-113880714D01*
X172632009Y-113880714D01*
X172727247Y-113928333D01*
X172774866Y-114023571D01*
X172774866Y-114547380D01*
X172774866Y-114023571D02*
X172822485Y-113928333D01*
X172917723Y-113880714D01*
X173060580Y-113880714D01*
X173155819Y-113928333D01*
X173203438Y-114023571D01*
X173203438Y-114547380D01*
X172179419Y-114182380D02*
X172274657Y-114182380D01*
X172369895Y-114230000D01*
X172417514Y-114277619D01*
X172465133Y-114372857D01*
X172512752Y-114563333D01*
X172512752Y-114801428D01*
X172465133Y-114991904D01*
X172417514Y-115087142D01*
X172369895Y-115134761D01*
X172274657Y-115182380D01*
X172179419Y-115182380D01*
X172084180Y-115134761D01*
X172036561Y-115087142D01*
X171988942Y-114991904D01*
X171941323Y-114801428D01*
X171941323Y-114563333D01*
X171988942Y-114372857D01*
X172036561Y-114277619D01*
X172084180Y-114230000D01*
X172179419Y-114182380D01*
X172941323Y-115087142D02*
X172988942Y-115134761D01*
X172941323Y-115182380D01*
X172893704Y-115134761D01*
X172941323Y-115087142D01*
X172941323Y-115182380D01*
X173607990Y-114182380D02*
X173703228Y-114182380D01*
X173798466Y-114230000D01*
X173846085Y-114277619D01*
X173893704Y-114372857D01*
X173941323Y-114563333D01*
X173941323Y-114801428D01*
X173893704Y-114991904D01*
X173846085Y-115087142D01*
X173798466Y-115134761D01*
X173703228Y-115182380D01*
X173607990Y-115182380D01*
X173512752Y-115134761D01*
X173465133Y-115087142D01*
X173417514Y-114991904D01*
X173369895Y-114801428D01*
X173369895Y-114563333D01*
X173417514Y-114372857D01*
X173465133Y-114277619D01*
X173512752Y-114230000D01*
X173607990Y-114182380D01*
X174846085Y-114182380D02*
X174369895Y-114182380D01*
X174322276Y-114658571D01*
X174369895Y-114610952D01*
X174465133Y-114563333D01*
X174703228Y-114563333D01*
X174798466Y-114610952D01*
X174846085Y-114658571D01*
X174893704Y-114753809D01*
X174893704Y-114991904D01*
X174846085Y-115087142D01*
X174798466Y-115134761D01*
X174703228Y-115182380D01*
X174465133Y-115182380D01*
X174369895Y-115134761D01*
X174322276Y-115087142D01*
X175322276Y-115182380D02*
X175322276Y-114515714D01*
X175322276Y-114182380D02*
X175274657Y-114230000D01*
X175322276Y-114277619D01*
X175369895Y-114230000D01*
X175322276Y-114182380D01*
X175322276Y-114277619D01*
X175798466Y-114515714D02*
X175798466Y-115182380D01*
X175798466Y-114610952D02*
X175846085Y-114563333D01*
X175941323Y-114515714D01*
X176084180Y-114515714D01*
X176179419Y-114563333D01*
X176227038Y-114658571D01*
X176227038Y-115182380D01*
X177417514Y-114134761D02*
X176560371Y-115420476D01*
X178274657Y-115182380D02*
X177703228Y-115182380D01*
X177988942Y-115182380D02*
X177988942Y-114182380D01*
X177893704Y-114325238D01*
X177798466Y-114420476D01*
X177703228Y-114468095D01*
X178703228Y-115087142D02*
X178750847Y-115134761D01*
X178703228Y-115182380D01*
X178655609Y-115134761D01*
X178703228Y-115087142D01*
X178703228Y-115182380D01*
X179131800Y-114277619D02*
X179179419Y-114230000D01*
X179274657Y-114182380D01*
X179512752Y-114182380D01*
X179607990Y-114230000D01*
X179655609Y-114277619D01*
X179703228Y-114372857D01*
X179703228Y-114468095D01*
X179655609Y-114610952D01*
X179084180Y-115182380D01*
X179703228Y-115182380D01*
X180036561Y-114182380D02*
X180703228Y-114182380D01*
X180274657Y-115182380D01*
X181084180Y-115182380D02*
X181084180Y-114515714D01*
X181084180Y-114610952D02*
X181131800Y-114563333D01*
X181227038Y-114515714D01*
X181369895Y-114515714D01*
X181465133Y-114563333D01*
X181512752Y-114658571D01*
X181512752Y-115182380D01*
X181512752Y-114658571D02*
X181560371Y-114563333D01*
X181655609Y-114515714D01*
X181798466Y-114515714D01*
X181893704Y-114563333D01*
X181941323Y-114658571D01*
X181941323Y-115182380D01*
X182417514Y-115182380D02*
X182417514Y-114515714D01*
X182417514Y-114610952D02*
X182465133Y-114563333D01*
X182560371Y-114515714D01*
X182703228Y-114515714D01*
X182798466Y-114563333D01*
X182846085Y-114658571D01*
X182846085Y-115182380D01*
X182846085Y-114658571D02*
X182893704Y-114563333D01*
X182988942Y-114515714D01*
X183131800Y-114515714D01*
X183227038Y-114563333D01*
X183274657Y-114658571D01*
X183274657Y-115182380D01*
X142099038Y-120367280D02*
X142194276Y-120367280D01*
X142289514Y-120414900D01*
X142337133Y-120462519D01*
X142384752Y-120557757D01*
X142432371Y-120748233D01*
X142432371Y-120986328D01*
X142384752Y-121176804D01*
X142337133Y-121272042D01*
X142289514Y-121319661D01*
X142194276Y-121367280D01*
X142099038Y-121367280D01*
X142003800Y-121319661D01*
X141956180Y-121272042D01*
X141908561Y-121176804D01*
X141860942Y-120986328D01*
X141860942Y-120748233D01*
X141908561Y-120557757D01*
X141956180Y-120462519D01*
X142003800Y-120414900D01*
X142099038Y-120367280D01*
X142860942Y-121272042D02*
X142908561Y-121319661D01*
X142860942Y-121367280D01*
X142813323Y-121319661D01*
X142860942Y-121272042D01*
X142860942Y-121367280D01*
X143527609Y-120367280D02*
X143622847Y-120367280D01*
X143718085Y-120414900D01*
X143765704Y-120462519D01*
X143813323Y-120557757D01*
X143860942Y-120748233D01*
X143860942Y-120986328D01*
X143813323Y-121176804D01*
X143765704Y-121272042D01*
X143718085Y-121319661D01*
X143622847Y-121367280D01*
X143527609Y-121367280D01*
X143432371Y-121319661D01*
X143384752Y-121272042D01*
X143337133Y-121176804D01*
X143289514Y-120986328D01*
X143289514Y-120748233D01*
X143337133Y-120557757D01*
X143384752Y-120462519D01*
X143432371Y-120414900D01*
X143527609Y-120367280D01*
X144194276Y-120367280D02*
X144860942Y-120367280D01*
X144432371Y-121367280D01*
X145384752Y-120795852D02*
X145289514Y-120748233D01*
X145241895Y-120700614D01*
X145194276Y-120605376D01*
X145194276Y-120557757D01*
X145241895Y-120462519D01*
X145289514Y-120414900D01*
X145384752Y-120367280D01*
X145575228Y-120367280D01*
X145670466Y-120414900D01*
X145718085Y-120462519D01*
X145765704Y-120557757D01*
X145765704Y-120605376D01*
X145718085Y-120700614D01*
X145670466Y-120748233D01*
X145575228Y-120795852D01*
X145384752Y-120795852D01*
X145289514Y-120843471D01*
X145241895Y-120891090D01*
X145194276Y-120986328D01*
X145194276Y-121176804D01*
X145241895Y-121272042D01*
X145289514Y-121319661D01*
X145384752Y-121367280D01*
X145575228Y-121367280D01*
X145670466Y-121319661D01*
X145718085Y-121272042D01*
X145765704Y-121176804D01*
X145765704Y-120986328D01*
X145718085Y-120891090D01*
X145670466Y-120843471D01*
X145575228Y-120795852D01*
X146194276Y-121367280D02*
X146194276Y-120700614D01*
X146194276Y-120367280D02*
X146146657Y-120414900D01*
X146194276Y-120462519D01*
X146241895Y-120414900D01*
X146194276Y-120367280D01*
X146194276Y-120462519D01*
X146670466Y-120700614D02*
X146670466Y-121367280D01*
X146670466Y-120795852D02*
X146718085Y-120748233D01*
X146813323Y-120700614D01*
X146956180Y-120700614D01*
X147051419Y-120748233D01*
X147099038Y-120843471D01*
X147099038Y-121367280D01*
X148289514Y-120319661D02*
X147432371Y-121605376D01*
X149146657Y-121367280D02*
X148575228Y-121367280D01*
X148860942Y-121367280D02*
X148860942Y-120367280D01*
X148765704Y-120510138D01*
X148670466Y-120605376D01*
X148575228Y-120652995D01*
X149575228Y-121272042D02*
X149622847Y-121319661D01*
X149575228Y-121367280D01*
X149527609Y-121319661D01*
X149575228Y-121272042D01*
X149575228Y-121367280D01*
X150099038Y-121367280D02*
X150289514Y-121367280D01*
X150384752Y-121319661D01*
X150432371Y-121272042D01*
X150527609Y-121129185D01*
X150575228Y-120938709D01*
X150575228Y-120557757D01*
X150527609Y-120462519D01*
X150479990Y-120414900D01*
X150384752Y-120367280D01*
X150194276Y-120367280D01*
X150099038Y-120414900D01*
X150051419Y-120462519D01*
X150003800Y-120557757D01*
X150003800Y-120795852D01*
X150051419Y-120891090D01*
X150099038Y-120938709D01*
X150194276Y-120986328D01*
X150384752Y-120986328D01*
X150479990Y-120938709D01*
X150527609Y-120891090D01*
X150575228Y-120795852D01*
X151146657Y-120795852D02*
X151051419Y-120748233D01*
X151003800Y-120700614D01*
X150956180Y-120605376D01*
X150956180Y-120557757D01*
X151003800Y-120462519D01*
X151051419Y-120414900D01*
X151146657Y-120367280D01*
X151337133Y-120367280D01*
X151432371Y-120414900D01*
X151479990Y-120462519D01*
X151527609Y-120557757D01*
X151527609Y-120605376D01*
X151479990Y-120700614D01*
X151432371Y-120748233D01*
X151337133Y-120795852D01*
X151146657Y-120795852D01*
X151051419Y-120843471D01*
X151003800Y-120891090D01*
X150956180Y-120986328D01*
X150956180Y-121176804D01*
X151003800Y-121272042D01*
X151051419Y-121319661D01*
X151146657Y-121367280D01*
X151337133Y-121367280D01*
X151432371Y-121319661D01*
X151479990Y-121272042D01*
X151527609Y-121176804D01*
X151527609Y-120986328D01*
X151479990Y-120891090D01*
X151432371Y-120843471D01*
X151337133Y-120795852D01*
X152479990Y-121367280D02*
X151908561Y-121367280D01*
X152194276Y-121367280D02*
X152194276Y-120367280D01*
X152099038Y-120510138D01*
X152003800Y-120605376D01*
X151908561Y-120652995D01*
X152908561Y-121367280D02*
X152908561Y-120700614D01*
X152908561Y-120795852D02*
X152956180Y-120748233D01*
X153051419Y-120700614D01*
X153194276Y-120700614D01*
X153289514Y-120748233D01*
X153337133Y-120843471D01*
X153337133Y-121367280D01*
X153337133Y-120843471D02*
X153384752Y-120748233D01*
X153479990Y-120700614D01*
X153622847Y-120700614D01*
X153718085Y-120748233D01*
X153765704Y-120843471D01*
X153765704Y-121367280D01*
X154241895Y-121367280D02*
X154241895Y-120700614D01*
X154241895Y-120795852D02*
X154289514Y-120748233D01*
X154384752Y-120700614D01*
X154527609Y-120700614D01*
X154622847Y-120748233D01*
X154670466Y-120843471D01*
X154670466Y-121367280D01*
X154670466Y-120843471D02*
X154718085Y-120748233D01*
X154813323Y-120700614D01*
X154956180Y-120700614D01*
X155051419Y-120748233D01*
X155099038Y-120843471D01*
X155099038Y-121367280D01*
X139635238Y-110537480D02*
X139730476Y-110537480D01*
X139825714Y-110585100D01*
X139873333Y-110632719D01*
X139920952Y-110727957D01*
X139968571Y-110918433D01*
X139968571Y-111156528D01*
X139920952Y-111347004D01*
X139873333Y-111442242D01*
X139825714Y-111489861D01*
X139730476Y-111537480D01*
X139635238Y-111537480D01*
X139540000Y-111489861D01*
X139492380Y-111442242D01*
X139444761Y-111347004D01*
X139397142Y-111156528D01*
X139397142Y-110918433D01*
X139444761Y-110727957D01*
X139492380Y-110632719D01*
X139540000Y-110585100D01*
X139635238Y-110537480D01*
X140397142Y-111442242D02*
X140444761Y-111489861D01*
X140397142Y-111537480D01*
X140349523Y-111489861D01*
X140397142Y-111442242D01*
X140397142Y-111537480D01*
X141397142Y-111537480D02*
X140825714Y-111537480D01*
X141111428Y-111537480D02*
X141111428Y-110537480D01*
X141016190Y-110680338D01*
X140920952Y-110775576D01*
X140825714Y-110823195D01*
X141873333Y-111537480D02*
X142063809Y-111537480D01*
X142159047Y-111489861D01*
X142206666Y-111442242D01*
X142301904Y-111299385D01*
X142349523Y-111108909D01*
X142349523Y-110727957D01*
X142301904Y-110632719D01*
X142254285Y-110585100D01*
X142159047Y-110537480D01*
X141968571Y-110537480D01*
X141873333Y-110585100D01*
X141825714Y-110632719D01*
X141778095Y-110727957D01*
X141778095Y-110966052D01*
X141825714Y-111061290D01*
X141873333Y-111108909D01*
X141968571Y-111156528D01*
X142159047Y-111156528D01*
X142254285Y-111108909D01*
X142301904Y-111061290D01*
X142349523Y-110966052D01*
X143206666Y-110870814D02*
X143206666Y-111537480D01*
X142968571Y-110489861D02*
X142730476Y-111204147D01*
X143349523Y-111204147D01*
X143730476Y-111537480D02*
X143730476Y-110870814D01*
X143730476Y-110537480D02*
X143682857Y-110585100D01*
X143730476Y-110632719D01*
X143778095Y-110585100D01*
X143730476Y-110537480D01*
X143730476Y-110632719D01*
X144206666Y-110870814D02*
X144206666Y-111537480D01*
X144206666Y-110966052D02*
X144254285Y-110918433D01*
X144349523Y-110870814D01*
X144492380Y-110870814D01*
X144587619Y-110918433D01*
X144635238Y-111013671D01*
X144635238Y-111537480D01*
X145825714Y-110489861D02*
X144968571Y-111775576D01*
X146587619Y-110870814D02*
X146587619Y-111537480D01*
X146349523Y-110489861D02*
X146111428Y-111204147D01*
X146730476Y-111204147D01*
X147111428Y-111442242D02*
X147159047Y-111489861D01*
X147111428Y-111537480D01*
X147063809Y-111489861D01*
X147111428Y-111442242D01*
X147111428Y-111537480D01*
X147635238Y-111537480D02*
X147825714Y-111537480D01*
X147920952Y-111489861D01*
X147968571Y-111442242D01*
X148063809Y-111299385D01*
X148111428Y-111108909D01*
X148111428Y-110727957D01*
X148063809Y-110632719D01*
X148016190Y-110585100D01*
X147920952Y-110537480D01*
X147730476Y-110537480D01*
X147635238Y-110585100D01*
X147587619Y-110632719D01*
X147540000Y-110727957D01*
X147540000Y-110966052D01*
X147587619Y-111061290D01*
X147635238Y-111108909D01*
X147730476Y-111156528D01*
X147920952Y-111156528D01*
X148016190Y-111108909D01*
X148063809Y-111061290D01*
X148111428Y-110966052D01*
X148492380Y-110632719D02*
X148540000Y-110585100D01*
X148635238Y-110537480D01*
X148873333Y-110537480D01*
X148968571Y-110585100D01*
X149016190Y-110632719D01*
X149063809Y-110727957D01*
X149063809Y-110823195D01*
X149016190Y-110966052D01*
X148444761Y-111537480D01*
X149063809Y-111537480D01*
X149635238Y-110966052D02*
X149540000Y-110918433D01*
X149492380Y-110870814D01*
X149444761Y-110775576D01*
X149444761Y-110727957D01*
X149492380Y-110632719D01*
X149540000Y-110585100D01*
X149635238Y-110537480D01*
X149825714Y-110537480D01*
X149920952Y-110585100D01*
X149968571Y-110632719D01*
X150016190Y-110727957D01*
X150016190Y-110775576D01*
X149968571Y-110870814D01*
X149920952Y-110918433D01*
X149825714Y-110966052D01*
X149635238Y-110966052D01*
X149540000Y-111013671D01*
X149492380Y-111061290D01*
X149444761Y-111156528D01*
X149444761Y-111347004D01*
X149492380Y-111442242D01*
X149540000Y-111489861D01*
X149635238Y-111537480D01*
X149825714Y-111537480D01*
X149920952Y-111489861D01*
X149968571Y-111442242D01*
X150016190Y-111347004D01*
X150016190Y-111156528D01*
X149968571Y-111061290D01*
X149920952Y-111013671D01*
X149825714Y-110966052D01*
X150444761Y-111537480D02*
X150444761Y-110870814D01*
X150444761Y-110966052D02*
X150492380Y-110918433D01*
X150587619Y-110870814D01*
X150730476Y-110870814D01*
X150825714Y-110918433D01*
X150873333Y-111013671D01*
X150873333Y-111537480D01*
X150873333Y-111013671D02*
X150920952Y-110918433D01*
X151016190Y-110870814D01*
X151159047Y-110870814D01*
X151254285Y-110918433D01*
X151301904Y-111013671D01*
X151301904Y-111537480D01*
X151778095Y-111537480D02*
X151778095Y-110870814D01*
X151778095Y-110966052D02*
X151825714Y-110918433D01*
X151920952Y-110870814D01*
X152063809Y-110870814D01*
X152159047Y-110918433D01*
X152206666Y-111013671D01*
X152206666Y-111537480D01*
X152206666Y-111013671D02*
X152254285Y-110918433D01*
X152349523Y-110870814D01*
X152492380Y-110870814D01*
X152587619Y-110918433D01*
X152635238Y-111013671D01*
X152635238Y-111537480D01*
X134123438Y-113547380D02*
X134218676Y-113547380D01*
X134313914Y-113595000D01*
X134361533Y-113642619D01*
X134409152Y-113737857D01*
X134456771Y-113928333D01*
X134456771Y-114166428D01*
X134409152Y-114356904D01*
X134361533Y-114452142D01*
X134313914Y-114499761D01*
X134218676Y-114547380D01*
X134123438Y-114547380D01*
X134028200Y-114499761D01*
X133980580Y-114452142D01*
X133932961Y-114356904D01*
X133885342Y-114166428D01*
X133885342Y-113928333D01*
X133932961Y-113737857D01*
X133980580Y-113642619D01*
X134028200Y-113595000D01*
X134123438Y-113547380D01*
X134885342Y-114452142D02*
X134932961Y-114499761D01*
X134885342Y-114547380D01*
X134837723Y-114499761D01*
X134885342Y-114452142D01*
X134885342Y-114547380D01*
X135552009Y-113547380D02*
X135647247Y-113547380D01*
X135742485Y-113595000D01*
X135790104Y-113642619D01*
X135837723Y-113737857D01*
X135885342Y-113928333D01*
X135885342Y-114166428D01*
X135837723Y-114356904D01*
X135790104Y-114452142D01*
X135742485Y-114499761D01*
X135647247Y-114547380D01*
X135552009Y-114547380D01*
X135456771Y-114499761D01*
X135409152Y-114452142D01*
X135361533Y-114356904D01*
X135313914Y-114166428D01*
X135313914Y-113928333D01*
X135361533Y-113737857D01*
X135409152Y-113642619D01*
X135456771Y-113595000D01*
X135552009Y-113547380D01*
X136266295Y-113642619D02*
X136313914Y-113595000D01*
X136409152Y-113547380D01*
X136647247Y-113547380D01*
X136742485Y-113595000D01*
X136790104Y-113642619D01*
X136837723Y-113737857D01*
X136837723Y-113833095D01*
X136790104Y-113975952D01*
X136218676Y-114547380D01*
X136837723Y-114547380D01*
X137218676Y-113642619D02*
X137266295Y-113595000D01*
X137361533Y-113547380D01*
X137599628Y-113547380D01*
X137694866Y-113595000D01*
X137742485Y-113642619D01*
X137790104Y-113737857D01*
X137790104Y-113833095D01*
X137742485Y-113975952D01*
X137171057Y-114547380D01*
X137790104Y-114547380D01*
X138218676Y-114547380D02*
X138218676Y-113880714D01*
X138218676Y-113547380D02*
X138171057Y-113595000D01*
X138218676Y-113642619D01*
X138266295Y-113595000D01*
X138218676Y-113547380D01*
X138218676Y-113642619D01*
X138694866Y-113880714D02*
X138694866Y-114547380D01*
X138694866Y-113975952D02*
X138742485Y-113928333D01*
X138837723Y-113880714D01*
X138980580Y-113880714D01*
X139075819Y-113928333D01*
X139123438Y-114023571D01*
X139123438Y-114547380D01*
X140313914Y-113499761D02*
X139456771Y-114785476D01*
X140837723Y-113547380D02*
X140932961Y-113547380D01*
X141028200Y-113595000D01*
X141075819Y-113642619D01*
X141123438Y-113737857D01*
X141171057Y-113928333D01*
X141171057Y-114166428D01*
X141123438Y-114356904D01*
X141075819Y-114452142D01*
X141028200Y-114499761D01*
X140932961Y-114547380D01*
X140837723Y-114547380D01*
X140742485Y-114499761D01*
X140694866Y-114452142D01*
X140647247Y-114356904D01*
X140599628Y-114166428D01*
X140599628Y-113928333D01*
X140647247Y-113737857D01*
X140694866Y-113642619D01*
X140742485Y-113595000D01*
X140837723Y-113547380D01*
X141599628Y-114452142D02*
X141647247Y-114499761D01*
X141599628Y-114547380D01*
X141552009Y-114499761D01*
X141599628Y-114452142D01*
X141599628Y-114547380D01*
X142552009Y-113547380D02*
X142075819Y-113547380D01*
X142028200Y-114023571D01*
X142075819Y-113975952D01*
X142171057Y-113928333D01*
X142409152Y-113928333D01*
X142504390Y-113975952D01*
X142552009Y-114023571D01*
X142599628Y-114118809D01*
X142599628Y-114356904D01*
X142552009Y-114452142D01*
X142504390Y-114499761D01*
X142409152Y-114547380D01*
X142171057Y-114547380D01*
X142075819Y-114499761D01*
X142028200Y-114452142D01*
X143504390Y-113547380D02*
X143028200Y-113547380D01*
X142980580Y-114023571D01*
X143028200Y-113975952D01*
X143123438Y-113928333D01*
X143361533Y-113928333D01*
X143456771Y-113975952D01*
X143504390Y-114023571D01*
X143552009Y-114118809D01*
X143552009Y-114356904D01*
X143504390Y-114452142D01*
X143456771Y-114499761D01*
X143361533Y-114547380D01*
X143123438Y-114547380D01*
X143028200Y-114499761D01*
X142980580Y-114452142D01*
X144028200Y-114547380D02*
X144218676Y-114547380D01*
X144313914Y-114499761D01*
X144361533Y-114452142D01*
X144456771Y-114309285D01*
X144504390Y-114118809D01*
X144504390Y-113737857D01*
X144456771Y-113642619D01*
X144409152Y-113595000D01*
X144313914Y-113547380D01*
X144123438Y-113547380D01*
X144028200Y-113595000D01*
X143980580Y-113642619D01*
X143932961Y-113737857D01*
X143932961Y-113975952D01*
X143980580Y-114071190D01*
X144028200Y-114118809D01*
X144123438Y-114166428D01*
X144313914Y-114166428D01*
X144409152Y-114118809D01*
X144456771Y-114071190D01*
X144504390Y-113975952D01*
X144932961Y-114547380D02*
X144932961Y-113880714D01*
X144932961Y-113975952D02*
X144980580Y-113928333D01*
X145075819Y-113880714D01*
X145218676Y-113880714D01*
X145313914Y-113928333D01*
X145361533Y-114023571D01*
X145361533Y-114547380D01*
X145361533Y-114023571D02*
X145409152Y-113928333D01*
X145504390Y-113880714D01*
X145647247Y-113880714D01*
X145742485Y-113928333D01*
X145790104Y-114023571D01*
X145790104Y-114547380D01*
X146266295Y-114547380D02*
X146266295Y-113880714D01*
X146266295Y-113975952D02*
X146313914Y-113928333D01*
X146409152Y-113880714D01*
X146552009Y-113880714D01*
X146647247Y-113928333D01*
X146694866Y-114023571D01*
X146694866Y-114547380D01*
X146694866Y-114023571D02*
X146742485Y-113928333D01*
X146837723Y-113880714D01*
X146980580Y-113880714D01*
X147075819Y-113928333D01*
X147123438Y-114023571D01*
X147123438Y-114547380D01*
X146099419Y-114182380D02*
X146194657Y-114182380D01*
X146289895Y-114230000D01*
X146337514Y-114277619D01*
X146385133Y-114372857D01*
X146432752Y-114563333D01*
X146432752Y-114801428D01*
X146385133Y-114991904D01*
X146337514Y-115087142D01*
X146289895Y-115134761D01*
X146194657Y-115182380D01*
X146099419Y-115182380D01*
X146004180Y-115134761D01*
X145956561Y-115087142D01*
X145908942Y-114991904D01*
X145861323Y-114801428D01*
X145861323Y-114563333D01*
X145908942Y-114372857D01*
X145956561Y-114277619D01*
X146004180Y-114230000D01*
X146099419Y-114182380D01*
X146861323Y-115087142D02*
X146908942Y-115134761D01*
X146861323Y-115182380D01*
X146813704Y-115134761D01*
X146861323Y-115087142D01*
X146861323Y-115182380D01*
X147527990Y-114182380D02*
X147623228Y-114182380D01*
X147718466Y-114230000D01*
X147766085Y-114277619D01*
X147813704Y-114372857D01*
X147861323Y-114563333D01*
X147861323Y-114801428D01*
X147813704Y-114991904D01*
X147766085Y-115087142D01*
X147718466Y-115134761D01*
X147623228Y-115182380D01*
X147527990Y-115182380D01*
X147432752Y-115134761D01*
X147385133Y-115087142D01*
X147337514Y-114991904D01*
X147289895Y-114801428D01*
X147289895Y-114563333D01*
X147337514Y-114372857D01*
X147385133Y-114277619D01*
X147432752Y-114230000D01*
X147527990Y-114182380D01*
X148766085Y-114182380D02*
X148289895Y-114182380D01*
X148242276Y-114658571D01*
X148289895Y-114610952D01*
X148385133Y-114563333D01*
X148623228Y-114563333D01*
X148718466Y-114610952D01*
X148766085Y-114658571D01*
X148813704Y-114753809D01*
X148813704Y-114991904D01*
X148766085Y-115087142D01*
X148718466Y-115134761D01*
X148623228Y-115182380D01*
X148385133Y-115182380D01*
X148289895Y-115134761D01*
X148242276Y-115087142D01*
X149242276Y-115182380D02*
X149242276Y-114515714D01*
X149242276Y-114182380D02*
X149194657Y-114230000D01*
X149242276Y-114277619D01*
X149289895Y-114230000D01*
X149242276Y-114182380D01*
X149242276Y-114277619D01*
X149718466Y-114515714D02*
X149718466Y-115182380D01*
X149718466Y-114610952D02*
X149766085Y-114563333D01*
X149861323Y-114515714D01*
X150004180Y-114515714D01*
X150099419Y-114563333D01*
X150147038Y-114658571D01*
X150147038Y-115182380D01*
X151337514Y-114134761D02*
X150480371Y-115420476D01*
X152194657Y-115182380D02*
X151623228Y-115182380D01*
X151908942Y-115182380D02*
X151908942Y-114182380D01*
X151813704Y-114325238D01*
X151718466Y-114420476D01*
X151623228Y-114468095D01*
X152623228Y-115087142D02*
X152670847Y-115134761D01*
X152623228Y-115182380D01*
X152575609Y-115134761D01*
X152623228Y-115087142D01*
X152623228Y-115182380D01*
X153051800Y-114277619D02*
X153099419Y-114230000D01*
X153194657Y-114182380D01*
X153432752Y-114182380D01*
X153527990Y-114230000D01*
X153575609Y-114277619D01*
X153623228Y-114372857D01*
X153623228Y-114468095D01*
X153575609Y-114610952D01*
X153004180Y-115182380D01*
X153623228Y-115182380D01*
X153956561Y-114182380D02*
X154623228Y-114182380D01*
X154194657Y-115182380D01*
X155004180Y-115182380D02*
X155004180Y-114515714D01*
X155004180Y-114610952D02*
X155051800Y-114563333D01*
X155147038Y-114515714D01*
X155289895Y-114515714D01*
X155385133Y-114563333D01*
X155432752Y-114658571D01*
X155432752Y-115182380D01*
X155432752Y-114658571D02*
X155480371Y-114563333D01*
X155575609Y-114515714D01*
X155718466Y-114515714D01*
X155813704Y-114563333D01*
X155861323Y-114658571D01*
X155861323Y-115182380D01*
X156337514Y-115182380D02*
X156337514Y-114515714D01*
X156337514Y-114610952D02*
X156385133Y-114563333D01*
X156480371Y-114515714D01*
X156623228Y-114515714D01*
X156718466Y-114563333D01*
X156766085Y-114658571D01*
X156766085Y-115182380D01*
X156766085Y-114658571D02*
X156813704Y-114563333D01*
X156908942Y-114515714D01*
X157051800Y-114515714D01*
X157147038Y-114563333D01*
X157194657Y-114658571D01*
X157194657Y-115182380D01*
X129059038Y-120367280D02*
X129154276Y-120367280D01*
X129249514Y-120414900D01*
X129297133Y-120462519D01*
X129344752Y-120557757D01*
X129392371Y-120748233D01*
X129392371Y-120986328D01*
X129344752Y-121176804D01*
X129297133Y-121272042D01*
X129249514Y-121319661D01*
X129154276Y-121367280D01*
X129059038Y-121367280D01*
X128963800Y-121319661D01*
X128916180Y-121272042D01*
X128868561Y-121176804D01*
X128820942Y-120986328D01*
X128820942Y-120748233D01*
X128868561Y-120557757D01*
X128916180Y-120462519D01*
X128963800Y-120414900D01*
X129059038Y-120367280D01*
X129820942Y-121272042D02*
X129868561Y-121319661D01*
X129820942Y-121367280D01*
X129773323Y-121319661D01*
X129820942Y-121272042D01*
X129820942Y-121367280D01*
X130487609Y-120367280D02*
X130582847Y-120367280D01*
X130678085Y-120414900D01*
X130725704Y-120462519D01*
X130773323Y-120557757D01*
X130820942Y-120748233D01*
X130820942Y-120986328D01*
X130773323Y-121176804D01*
X130725704Y-121272042D01*
X130678085Y-121319661D01*
X130582847Y-121367280D01*
X130487609Y-121367280D01*
X130392371Y-121319661D01*
X130344752Y-121272042D01*
X130297133Y-121176804D01*
X130249514Y-120986328D01*
X130249514Y-120748233D01*
X130297133Y-120557757D01*
X130344752Y-120462519D01*
X130392371Y-120414900D01*
X130487609Y-120367280D01*
X131154276Y-120367280D02*
X131820942Y-120367280D01*
X131392371Y-121367280D01*
X132344752Y-120795852D02*
X132249514Y-120748233D01*
X132201895Y-120700614D01*
X132154276Y-120605376D01*
X132154276Y-120557757D01*
X132201895Y-120462519D01*
X132249514Y-120414900D01*
X132344752Y-120367280D01*
X132535228Y-120367280D01*
X132630466Y-120414900D01*
X132678085Y-120462519D01*
X132725704Y-120557757D01*
X132725704Y-120605376D01*
X132678085Y-120700614D01*
X132630466Y-120748233D01*
X132535228Y-120795852D01*
X132344752Y-120795852D01*
X132249514Y-120843471D01*
X132201895Y-120891090D01*
X132154276Y-120986328D01*
X132154276Y-121176804D01*
X132201895Y-121272042D01*
X132249514Y-121319661D01*
X132344752Y-121367280D01*
X132535228Y-121367280D01*
X132630466Y-121319661D01*
X132678085Y-121272042D01*
X132725704Y-121176804D01*
X132725704Y-120986328D01*
X132678085Y-120891090D01*
X132630466Y-120843471D01*
X132535228Y-120795852D01*
X133154276Y-121367280D02*
X133154276Y-120700614D01*
X133154276Y-120367280D02*
X133106657Y-120414900D01*
X133154276Y-120462519D01*
X133201895Y-120414900D01*
X133154276Y-120367280D01*
X133154276Y-120462519D01*
X133630466Y-120700614D02*
X133630466Y-121367280D01*
X133630466Y-120795852D02*
X133678085Y-120748233D01*
X133773323Y-120700614D01*
X133916180Y-120700614D01*
X134011419Y-120748233D01*
X134059038Y-120843471D01*
X134059038Y-121367280D01*
X135249514Y-120319661D02*
X134392371Y-121605376D01*
X136106657Y-121367280D02*
X135535228Y-121367280D01*
X135820942Y-121367280D02*
X135820942Y-120367280D01*
X135725704Y-120510138D01*
X135630466Y-120605376D01*
X135535228Y-120652995D01*
X136535228Y-121272042D02*
X136582847Y-121319661D01*
X136535228Y-121367280D01*
X136487609Y-121319661D01*
X136535228Y-121272042D01*
X136535228Y-121367280D01*
X137059038Y-121367280D02*
X137249514Y-121367280D01*
X137344752Y-121319661D01*
X137392371Y-121272042D01*
X137487609Y-121129185D01*
X137535228Y-120938709D01*
X137535228Y-120557757D01*
X137487609Y-120462519D01*
X137439990Y-120414900D01*
X137344752Y-120367280D01*
X137154276Y-120367280D01*
X137059038Y-120414900D01*
X137011419Y-120462519D01*
X136963800Y-120557757D01*
X136963800Y-120795852D01*
X137011419Y-120891090D01*
X137059038Y-120938709D01*
X137154276Y-120986328D01*
X137344752Y-120986328D01*
X137439990Y-120938709D01*
X137487609Y-120891090D01*
X137535228Y-120795852D01*
X138106657Y-120795852D02*
X138011419Y-120748233D01*
X137963800Y-120700614D01*
X137916180Y-120605376D01*
X137916180Y-120557757D01*
X137963800Y-120462519D01*
X138011419Y-120414900D01*
X138106657Y-120367280D01*
X138297133Y-120367280D01*
X138392371Y-120414900D01*
X138439990Y-120462519D01*
X138487609Y-120557757D01*
X138487609Y-120605376D01*
X138439990Y-120700614D01*
X138392371Y-120748233D01*
X138297133Y-120795852D01*
X138106657Y-120795852D01*
X138011419Y-120843471D01*
X137963800Y-120891090D01*
X137916180Y-120986328D01*
X137916180Y-121176804D01*
X137963800Y-121272042D01*
X138011419Y-121319661D01*
X138106657Y-121367280D01*
X138297133Y-121367280D01*
X138392371Y-121319661D01*
X138439990Y-121272042D01*
X138487609Y-121176804D01*
X138487609Y-120986328D01*
X138439990Y-120891090D01*
X138392371Y-120843471D01*
X138297133Y-120795852D01*
X139439990Y-121367280D02*
X138868561Y-121367280D01*
X139154276Y-121367280D02*
X139154276Y-120367280D01*
X139059038Y-120510138D01*
X138963800Y-120605376D01*
X138868561Y-120652995D01*
X139868561Y-121367280D02*
X139868561Y-120700614D01*
X139868561Y-120795852D02*
X139916180Y-120748233D01*
X140011419Y-120700614D01*
X140154276Y-120700614D01*
X140249514Y-120748233D01*
X140297133Y-120843471D01*
X140297133Y-121367280D01*
X140297133Y-120843471D02*
X140344752Y-120748233D01*
X140439990Y-120700614D01*
X140582847Y-120700614D01*
X140678085Y-120748233D01*
X140725704Y-120843471D01*
X140725704Y-121367280D01*
X141201895Y-121367280D02*
X141201895Y-120700614D01*
X141201895Y-120795852D02*
X141249514Y-120748233D01*
X141344752Y-120700614D01*
X141487609Y-120700614D01*
X141582847Y-120748233D01*
X141630466Y-120843471D01*
X141630466Y-121367280D01*
X141630466Y-120843471D02*
X141678085Y-120748233D01*
X141773323Y-120700614D01*
X141916180Y-120700614D01*
X142011419Y-120748233D01*
X142059038Y-120843471D01*
X142059038Y-121367280D01*
X126595238Y-110537480D02*
X126690476Y-110537480D01*
X126785714Y-110585100D01*
X126833333Y-110632719D01*
X126880952Y-110727957D01*
X126928571Y-110918433D01*
X126928571Y-111156528D01*
X126880952Y-111347004D01*
X126833333Y-111442242D01*
X126785714Y-111489861D01*
X126690476Y-111537480D01*
X126595238Y-111537480D01*
X126500000Y-111489861D01*
X126452380Y-111442242D01*
X126404761Y-111347004D01*
X126357142Y-111156528D01*
X126357142Y-110918433D01*
X126404761Y-110727957D01*
X126452380Y-110632719D01*
X126500000Y-110585100D01*
X126595238Y-110537480D01*
X127357142Y-111442242D02*
X127404761Y-111489861D01*
X127357142Y-111537480D01*
X127309523Y-111489861D01*
X127357142Y-111442242D01*
X127357142Y-111537480D01*
X128357142Y-111537480D02*
X127785714Y-111537480D01*
X128071428Y-111537480D02*
X128071428Y-110537480D01*
X127976190Y-110680338D01*
X127880952Y-110775576D01*
X127785714Y-110823195D01*
X128833333Y-111537480D02*
X129023809Y-111537480D01*
X129119047Y-111489861D01*
X129166666Y-111442242D01*
X129261904Y-111299385D01*
X129309523Y-111108909D01*
X129309523Y-110727957D01*
X129261904Y-110632719D01*
X129214285Y-110585100D01*
X129119047Y-110537480D01*
X128928571Y-110537480D01*
X128833333Y-110585100D01*
X128785714Y-110632719D01*
X128738095Y-110727957D01*
X128738095Y-110966052D01*
X128785714Y-111061290D01*
X128833333Y-111108909D01*
X128928571Y-111156528D01*
X129119047Y-111156528D01*
X129214285Y-111108909D01*
X129261904Y-111061290D01*
X129309523Y-110966052D01*
X130166666Y-110870814D02*
X130166666Y-111537480D01*
X129928571Y-110489861D02*
X129690476Y-111204147D01*
X130309523Y-111204147D01*
X130690476Y-111537480D02*
X130690476Y-110870814D01*
X130690476Y-110537480D02*
X130642857Y-110585100D01*
X130690476Y-110632719D01*
X130738095Y-110585100D01*
X130690476Y-110537480D01*
X130690476Y-110632719D01*
X131166666Y-110870814D02*
X131166666Y-111537480D01*
X131166666Y-110966052D02*
X131214285Y-110918433D01*
X131309523Y-110870814D01*
X131452380Y-110870814D01*
X131547619Y-110918433D01*
X131595238Y-111013671D01*
X131595238Y-111537480D01*
X132785714Y-110489861D02*
X131928571Y-111775576D01*
X133547619Y-110870814D02*
X133547619Y-111537480D01*
X133309523Y-110489861D02*
X133071428Y-111204147D01*
X133690476Y-111204147D01*
X134071428Y-111442242D02*
X134119047Y-111489861D01*
X134071428Y-111537480D01*
X134023809Y-111489861D01*
X134071428Y-111442242D01*
X134071428Y-111537480D01*
X134595238Y-111537480D02*
X134785714Y-111537480D01*
X134880952Y-111489861D01*
X134928571Y-111442242D01*
X135023809Y-111299385D01*
X135071428Y-111108909D01*
X135071428Y-110727957D01*
X135023809Y-110632719D01*
X134976190Y-110585100D01*
X134880952Y-110537480D01*
X134690476Y-110537480D01*
X134595238Y-110585100D01*
X134547619Y-110632719D01*
X134500000Y-110727957D01*
X134500000Y-110966052D01*
X134547619Y-111061290D01*
X134595238Y-111108909D01*
X134690476Y-111156528D01*
X134880952Y-111156528D01*
X134976190Y-111108909D01*
X135023809Y-111061290D01*
X135071428Y-110966052D01*
X135452380Y-110632719D02*
X135500000Y-110585100D01*
X135595238Y-110537480D01*
X135833333Y-110537480D01*
X135928571Y-110585100D01*
X135976190Y-110632719D01*
X136023809Y-110727957D01*
X136023809Y-110823195D01*
X135976190Y-110966052D01*
X135404761Y-111537480D01*
X136023809Y-111537480D01*
X136595238Y-110966052D02*
X136500000Y-110918433D01*
X136452380Y-110870814D01*
X136404761Y-110775576D01*
X136404761Y-110727957D01*
X136452380Y-110632719D01*
X136500000Y-110585100D01*
X136595238Y-110537480D01*
X136785714Y-110537480D01*
X136880952Y-110585100D01*
X136928571Y-110632719D01*
X136976190Y-110727957D01*
X136976190Y-110775576D01*
X136928571Y-110870814D01*
X136880952Y-110918433D01*
X136785714Y-110966052D01*
X136595238Y-110966052D01*
X136500000Y-111013671D01*
X136452380Y-111061290D01*
X136404761Y-111156528D01*
X136404761Y-111347004D01*
X136452380Y-111442242D01*
X136500000Y-111489861D01*
X136595238Y-111537480D01*
X136785714Y-111537480D01*
X136880952Y-111489861D01*
X136928571Y-111442242D01*
X136976190Y-111347004D01*
X136976190Y-111156528D01*
X136928571Y-111061290D01*
X136880952Y-111013671D01*
X136785714Y-110966052D01*
X137404761Y-111537480D02*
X137404761Y-110870814D01*
X137404761Y-110966052D02*
X137452380Y-110918433D01*
X137547619Y-110870814D01*
X137690476Y-110870814D01*
X137785714Y-110918433D01*
X137833333Y-111013671D01*
X137833333Y-111537480D01*
X137833333Y-111013671D02*
X137880952Y-110918433D01*
X137976190Y-110870814D01*
X138119047Y-110870814D01*
X138214285Y-110918433D01*
X138261904Y-111013671D01*
X138261904Y-111537480D01*
X138738095Y-111537480D02*
X138738095Y-110870814D01*
X138738095Y-110966052D02*
X138785714Y-110918433D01*
X138880952Y-110870814D01*
X139023809Y-110870814D01*
X139119047Y-110918433D01*
X139166666Y-111013671D01*
X139166666Y-111537480D01*
X139166666Y-111013671D02*
X139214285Y-110918433D01*
X139309523Y-110870814D01*
X139452380Y-110870814D01*
X139547619Y-110918433D01*
X139595238Y-111013671D01*
X139595238Y-111537480D01*
X121083438Y-113547380D02*
X121178676Y-113547380D01*
X121273914Y-113595000D01*
X121321533Y-113642619D01*
X121369152Y-113737857D01*
X121416771Y-113928333D01*
X121416771Y-114166428D01*
X121369152Y-114356904D01*
X121321533Y-114452142D01*
X121273914Y-114499761D01*
X121178676Y-114547380D01*
X121083438Y-114547380D01*
X120988200Y-114499761D01*
X120940580Y-114452142D01*
X120892961Y-114356904D01*
X120845342Y-114166428D01*
X120845342Y-113928333D01*
X120892961Y-113737857D01*
X120940580Y-113642619D01*
X120988200Y-113595000D01*
X121083438Y-113547380D01*
X121845342Y-114452142D02*
X121892961Y-114499761D01*
X121845342Y-114547380D01*
X121797723Y-114499761D01*
X121845342Y-114452142D01*
X121845342Y-114547380D01*
X122512009Y-113547380D02*
X122607247Y-113547380D01*
X122702485Y-113595000D01*
X122750104Y-113642619D01*
X122797723Y-113737857D01*
X122845342Y-113928333D01*
X122845342Y-114166428D01*
X122797723Y-114356904D01*
X122750104Y-114452142D01*
X122702485Y-114499761D01*
X122607247Y-114547380D01*
X122512009Y-114547380D01*
X122416771Y-114499761D01*
X122369152Y-114452142D01*
X122321533Y-114356904D01*
X122273914Y-114166428D01*
X122273914Y-113928333D01*
X122321533Y-113737857D01*
X122369152Y-113642619D01*
X122416771Y-113595000D01*
X122512009Y-113547380D01*
X123226295Y-113642619D02*
X123273914Y-113595000D01*
X123369152Y-113547380D01*
X123607247Y-113547380D01*
X123702485Y-113595000D01*
X123750104Y-113642619D01*
X123797723Y-113737857D01*
X123797723Y-113833095D01*
X123750104Y-113975952D01*
X123178676Y-114547380D01*
X123797723Y-114547380D01*
X124178676Y-113642619D02*
X124226295Y-113595000D01*
X124321533Y-113547380D01*
X124559628Y-113547380D01*
X124654866Y-113595000D01*
X124702485Y-113642619D01*
X124750104Y-113737857D01*
X124750104Y-113833095D01*
X124702485Y-113975952D01*
X124131057Y-114547380D01*
X124750104Y-114547380D01*
X125178676Y-114547380D02*
X125178676Y-113880714D01*
X125178676Y-113547380D02*
X125131057Y-113595000D01*
X125178676Y-113642619D01*
X125226295Y-113595000D01*
X125178676Y-113547380D01*
X125178676Y-113642619D01*
X125654866Y-113880714D02*
X125654866Y-114547380D01*
X125654866Y-113975952D02*
X125702485Y-113928333D01*
X125797723Y-113880714D01*
X125940580Y-113880714D01*
X126035819Y-113928333D01*
X126083438Y-114023571D01*
X126083438Y-114547380D01*
X127273914Y-113499761D02*
X126416771Y-114785476D01*
X127797723Y-113547380D02*
X127892961Y-113547380D01*
X127988200Y-113595000D01*
X128035819Y-113642619D01*
X128083438Y-113737857D01*
X128131057Y-113928333D01*
X128131057Y-114166428D01*
X128083438Y-114356904D01*
X128035819Y-114452142D01*
X127988200Y-114499761D01*
X127892961Y-114547380D01*
X127797723Y-114547380D01*
X127702485Y-114499761D01*
X127654866Y-114452142D01*
X127607247Y-114356904D01*
X127559628Y-114166428D01*
X127559628Y-113928333D01*
X127607247Y-113737857D01*
X127654866Y-113642619D01*
X127702485Y-113595000D01*
X127797723Y-113547380D01*
X128559628Y-114452142D02*
X128607247Y-114499761D01*
X128559628Y-114547380D01*
X128512009Y-114499761D01*
X128559628Y-114452142D01*
X128559628Y-114547380D01*
X129512009Y-113547380D02*
X129035819Y-113547380D01*
X128988200Y-114023571D01*
X129035819Y-113975952D01*
X129131057Y-113928333D01*
X129369152Y-113928333D01*
X129464390Y-113975952D01*
X129512009Y-114023571D01*
X129559628Y-114118809D01*
X129559628Y-114356904D01*
X129512009Y-114452142D01*
X129464390Y-114499761D01*
X129369152Y-114547380D01*
X129131057Y-114547380D01*
X129035819Y-114499761D01*
X128988200Y-114452142D01*
X130464390Y-113547380D02*
X129988200Y-113547380D01*
X129940580Y-114023571D01*
X129988200Y-113975952D01*
X130083438Y-113928333D01*
X130321533Y-113928333D01*
X130416771Y-113975952D01*
X130464390Y-114023571D01*
X130512009Y-114118809D01*
X130512009Y-114356904D01*
X130464390Y-114452142D01*
X130416771Y-114499761D01*
X130321533Y-114547380D01*
X130083438Y-114547380D01*
X129988200Y-114499761D01*
X129940580Y-114452142D01*
X130988200Y-114547380D02*
X131178676Y-114547380D01*
X131273914Y-114499761D01*
X131321533Y-114452142D01*
X131416771Y-114309285D01*
X131464390Y-114118809D01*
X131464390Y-113737857D01*
X131416771Y-113642619D01*
X131369152Y-113595000D01*
X131273914Y-113547380D01*
X131083438Y-113547380D01*
X130988200Y-113595000D01*
X130940580Y-113642619D01*
X130892961Y-113737857D01*
X130892961Y-113975952D01*
X130940580Y-114071190D01*
X130988200Y-114118809D01*
X131083438Y-114166428D01*
X131273914Y-114166428D01*
X131369152Y-114118809D01*
X131416771Y-114071190D01*
X131464390Y-113975952D01*
X131892961Y-114547380D02*
X131892961Y-113880714D01*
X131892961Y-113975952D02*
X131940580Y-113928333D01*
X132035819Y-113880714D01*
X132178676Y-113880714D01*
X132273914Y-113928333D01*
X132321533Y-114023571D01*
X132321533Y-114547380D01*
X132321533Y-114023571D02*
X132369152Y-113928333D01*
X132464390Y-113880714D01*
X132607247Y-113880714D01*
X132702485Y-113928333D01*
X132750104Y-114023571D01*
X132750104Y-114547380D01*
X133226295Y-114547380D02*
X133226295Y-113880714D01*
X133226295Y-113975952D02*
X133273914Y-113928333D01*
X133369152Y-113880714D01*
X133512009Y-113880714D01*
X133607247Y-113928333D01*
X133654866Y-114023571D01*
X133654866Y-114547380D01*
X133654866Y-114023571D02*
X133702485Y-113928333D01*
X133797723Y-113880714D01*
X133940580Y-113880714D01*
X134035819Y-113928333D01*
X134083438Y-114023571D01*
X134083438Y-114547380D01*
X133059419Y-114182380D02*
X133154657Y-114182380D01*
X133249895Y-114230000D01*
X133297514Y-114277619D01*
X133345133Y-114372857D01*
X133392752Y-114563333D01*
X133392752Y-114801428D01*
X133345133Y-114991904D01*
X133297514Y-115087142D01*
X133249895Y-115134761D01*
X133154657Y-115182380D01*
X133059419Y-115182380D01*
X132964180Y-115134761D01*
X132916561Y-115087142D01*
X132868942Y-114991904D01*
X132821323Y-114801428D01*
X132821323Y-114563333D01*
X132868942Y-114372857D01*
X132916561Y-114277619D01*
X132964180Y-114230000D01*
X133059419Y-114182380D01*
X133821323Y-115087142D02*
X133868942Y-115134761D01*
X133821323Y-115182380D01*
X133773704Y-115134761D01*
X133821323Y-115087142D01*
X133821323Y-115182380D01*
X134487990Y-114182380D02*
X134583228Y-114182380D01*
X134678466Y-114230000D01*
X134726085Y-114277619D01*
X134773704Y-114372857D01*
X134821323Y-114563333D01*
X134821323Y-114801428D01*
X134773704Y-114991904D01*
X134726085Y-115087142D01*
X134678466Y-115134761D01*
X134583228Y-115182380D01*
X134487990Y-115182380D01*
X134392752Y-115134761D01*
X134345133Y-115087142D01*
X134297514Y-114991904D01*
X134249895Y-114801428D01*
X134249895Y-114563333D01*
X134297514Y-114372857D01*
X134345133Y-114277619D01*
X134392752Y-114230000D01*
X134487990Y-114182380D01*
X135726085Y-114182380D02*
X135249895Y-114182380D01*
X135202276Y-114658571D01*
X135249895Y-114610952D01*
X135345133Y-114563333D01*
X135583228Y-114563333D01*
X135678466Y-114610952D01*
X135726085Y-114658571D01*
X135773704Y-114753809D01*
X135773704Y-114991904D01*
X135726085Y-115087142D01*
X135678466Y-115134761D01*
X135583228Y-115182380D01*
X135345133Y-115182380D01*
X135249895Y-115134761D01*
X135202276Y-115087142D01*
X136202276Y-115182380D02*
X136202276Y-114515714D01*
X136202276Y-114182380D02*
X136154657Y-114230000D01*
X136202276Y-114277619D01*
X136249895Y-114230000D01*
X136202276Y-114182380D01*
X136202276Y-114277619D01*
X136678466Y-114515714D02*
X136678466Y-115182380D01*
X136678466Y-114610952D02*
X136726085Y-114563333D01*
X136821323Y-114515714D01*
X136964180Y-114515714D01*
X137059419Y-114563333D01*
X137107038Y-114658571D01*
X137107038Y-115182380D01*
X138297514Y-114134761D02*
X137440371Y-115420476D01*
X139154657Y-115182380D02*
X138583228Y-115182380D01*
X138868942Y-115182380D02*
X138868942Y-114182380D01*
X138773704Y-114325238D01*
X138678466Y-114420476D01*
X138583228Y-114468095D01*
X139583228Y-115087142D02*
X139630847Y-115134761D01*
X139583228Y-115182380D01*
X139535609Y-115134761D01*
X139583228Y-115087142D01*
X139583228Y-115182380D01*
X140011800Y-114277619D02*
X140059419Y-114230000D01*
X140154657Y-114182380D01*
X140392752Y-114182380D01*
X140487990Y-114230000D01*
X140535609Y-114277619D01*
X140583228Y-114372857D01*
X140583228Y-114468095D01*
X140535609Y-114610952D01*
X139964180Y-115182380D01*
X140583228Y-115182380D01*
X140916561Y-114182380D02*
X141583228Y-114182380D01*
X141154657Y-115182380D01*
X141964180Y-115182380D02*
X141964180Y-114515714D01*
X141964180Y-114610952D02*
X142011800Y-114563333D01*
X142107038Y-114515714D01*
X142249895Y-114515714D01*
X142345133Y-114563333D01*
X142392752Y-114658571D01*
X142392752Y-115182380D01*
X142392752Y-114658571D02*
X142440371Y-114563333D01*
X142535609Y-114515714D01*
X142678466Y-114515714D01*
X142773704Y-114563333D01*
X142821323Y-114658571D01*
X142821323Y-115182380D01*
X143297514Y-115182380D02*
X143297514Y-114515714D01*
X143297514Y-114610952D02*
X143345133Y-114563333D01*
X143440371Y-114515714D01*
X143583228Y-114515714D01*
X143678466Y-114563333D01*
X143726085Y-114658571D01*
X143726085Y-115182380D01*
X143726085Y-114658571D02*
X143773704Y-114563333D01*
X143868942Y-114515714D01*
X144011800Y-114515714D01*
X144107038Y-114563333D01*
X144154657Y-114658571D01*
X144154657Y-115182380D01*
M02*
